<svg width="800" height="800" viewBox="0 0 800 800" fill="none" xmlns="http://www.w3.org/2000/svg">
<path d="M171 714L192 559.499C94.1668 465.666 -5 218 228.5 81.9996C462 -54.0004 680.195 153.934 674 286L681.5 396C692.667 420.166 721.5 508 721.5 508C744.3 546.8 720.167 559.833 704.5 559.499H664.5V665.999C663.456 681.608 638.667 717.833 623.5 714L528.5 696.5L506.5 779.5L171 714Z" fill="#838A00" stroke="black"/>
<path d="M386.21 11.6631C432.628 11.6631 477.228 21.7395 518.855 41.3967C571.715 66.0096 616.481 104.828 648.362 153.724C681.234 204.106 698.579 262.417 698.579 322.71L703.342 385.812L740.179 494.569C750.916 515.218 751.411 536.362 741.5 552.88C731.589 569.399 712.592 578.815 689.301 578.815H684.015L678.77 653.661C678.77 699.417 653.413 736.781 607.656 736.781C606.5 736.781 605.509 736.781 604.353 736.615L544.294 721.979L544.459 753.748C544.459 754.573 544.459 755.565 544.294 756.391C542.642 776.874 526.123 792.071 505.145 792.071C502.667 792.071 500.189 791.906 497.546 791.41L188.647 746.149C166.842 742.35 149.663 721.866 149.663 699.731L170.476 556.945C110.844 498.634 76.9804 418.188 76.9804 334.769C76.9804 163.47 214.911 11.6631 386.21 11.6631ZM207.974 530.845C212.599 535.14 215.242 541.087 215.242 547.199L194.428 699.401C194.594 700.227 195.75 701.714 196.576 702.044L500.024 746.149V682.5C500.024 676.057 502.832 669.78 507.788 665.651C511.917 662.182 517.038 660.2 522.324 660.2C523.48 660.2 524.472 660.2 525.628 660.365L609.473 691.519C629.957 690.693 634.5 673.648 634.5 653L639.745 555.854C639.745 543.465 649.656 533.553 662.045 533.553H689.301C697.726 533.553 702.186 531.241 703.342 529.259C704.498 527.276 704.663 522.156 700.699 514.722L661.219 401.174C659.567 398.036 658.741 394.402 658.741 390.768L653.978 322.214C653.978 219.138 593.52 124.651 500.024 81.2068H499.859C464.344 64.6881 426.02 56.2635 386.21 56.2635C239.524 56.2635 121.581 188.083 121.581 334.769C121.581 409.103 153.132 480.629 207.974 530.845Z" fill="#FFFB00"/>
<path d="M359 405L505 387C511 393 512 396.5 511 405H359Z" fill="#C2CC07"/>
<circle cx="590" cy="385" r="41" stroke="#FFFB00" stroke-width="10"/>
<path d="M590 366C600.461 366 609 374.539 609 385C609 395.46 600.461 404 590 404C579.539 404 571 395.46 571 385C571 374.539 579.539 366 590 366Z" fill="#FFFB00"/>
<circle cx="354" cy="403" r="41" stroke="#FFFB00" stroke-width="10"/>
<path d="M354 385C363.91 385 372 393.09 372 403C372 412.91 363.91 421 354 421C344.09 421 336 412.91 336 403C336 393.09 344.09 385 354 385Z" fill="#FFFB00"/>
<line x1="351.478" y1="405.027" x2="589.478" y2="380.027" stroke="#FFFB00" stroke-width="10"/>
<line y1="411" x2="751" y2="411" stroke="white" stroke-width="10" stroke-dasharray="20 20"/>
</svg>
