<svg width="800" height="800" viewBox="0 0 800 800" fill="none" xmlns="http://www.w3.org/2000/svg">
<path d="M171 714V527.5C73.1665 433.666 -8.38802 211.741 214 66C436.388 -79.7411 660.695 136.434 654.5 268.5C648.305 400.566 654.5 354.5 654.5 354.5C665.666 378.666 693.7 410.2 716.5 449C739.3 487.8 713.666 496.833 698 496.5H654.5V641C653.456 656.609 616.667 683.333 601.5 679.5L506.5 675.5V779.5L171 714Z" fill="#838A00" stroke="black"/>
<path d="M366.883 0C413.301 0 457.901 10.0764 499.528 29.7336C552.388 54.3465 597.154 93.1654 629.035 142.061C661.907 192.443 678.591 250.423 678.591 310.717L685.854 340.12L729.469 438.902C740.206 459.55 740.701 480.694 730.79 497.212C720.879 513.731 701.882 523.147 678.591 523.147H673.305L681.728 616.477C681.728 662.234 644.561 699.401 598.804 699.401C597.647 699.401 596.656 699.401 595.5 699.236L543 699.732L535.374 761.677C535.374 762.503 535.374 763.494 535.209 764.32C533.557 784.803 517.038 800 496.059 800C493.582 800 491.104 799.835 488.461 799.339L188.647 746.149C166.842 742.35 149.663 721.867 149.663 699.732V532.893C90.0306 474.582 56.1672 394.136 56.1672 310.717C56.1672 139.418 195.584 0 366.883 0ZM187.16 506.793C191.786 511.088 194.429 517.035 194.429 523.147V699.401C194.594 700.227 195.75 701.714 196.576 702.044L490.938 754.078L498.73 673.302C498.73 666.859 501.538 660.582 506.494 656.453C510.623 652.984 515.744 651.001 521.03 651.001C522.186 651.001 523.178 651.002 524.334 651.167L600.621 654.14C621.104 653.314 637.458 636.465 637.458 615.817L629.035 500.186C629.035 487.797 638.946 477.886 651.335 477.886H678.591C687.016 477.886 691.476 475.573 692.632 473.591C693.788 471.609 693.953 466.488 689.989 459.054L643.732 355.482C642.08 352.344 641.254 348.71 641.254 345.075L633.991 310.221C633.991 207.144 574.193 112.988 480.697 69.5437H480.532C445.016 53.025 406.693 44.6005 366.883 44.6005C220.197 44.6005 100.768 164.031 100.768 310.717C100.768 385.051 132.318 456.576 187.16 506.793Z" fill="#FFFB00"/>
<path d="M352 404L488.5 359C502.5 370 509 387 505.5 405.5L352 404Z" fill="#B8C203"/>
<circle cx="556" cy="339" r="41" stroke="#FFFB00" stroke-width="10"/>
<path d="M556 320C566.461 320 575 328.539 575 339C575 349.461 566.461 358 556 358C545.539 358 537 349.461 537 339C537 328.539 545.539 320 556 320Z" fill="#FFFB00"/>
<circle cx="354" cy="403" r="41" stroke="#FFFB00" stroke-width="10"/>
<path d="M354 385C363.91 385 372 393.09 372 403C372 412.91 363.91 421 354 421C344.09 421 336 412.91 336 403C336 393.09 344.09 385 354 385Z" fill="#FFFB00"/>
<line x1="350.356" y1="405.278" x2="554.357" y2="334.278" stroke="#FFFB00" stroke-width="10"/>
<line y1="411" x2="751" y2="411" stroke="white" stroke-width="10" stroke-dasharray="20 20"/>
</svg>
