<svg width="800" height="800" viewBox="0 0 800 800" fill="none" xmlns="http://www.w3.org/2000/svg">
<path d="M171 714L192 559.5C94.1668 465.667 -5 218 228.5 82.0001C462 -53.9999 680.195 153.934 674 286L681.5 396C692.667 420.167 721.5 508 721.5 508C744.3 546.8 720.167 559.833 704.5 559.5H664.5V666C663.456 681.609 638.667 717.833 623.5 714L528.5 696.5L506.5 779.5L171 714Z" fill="#8A0000" stroke="black"/>
<path d="M404.23 10.9888C450.647 10.9888 495.248 21.0652 536.875 40.7224C589.735 65.3352 634.5 104.154 666.381 153.049C699.254 203.431 716.598 261.742 716.598 322.036L708.504 423.638L753.435 521.164C764.172 541.813 764.668 562.957 754.756 579.475C744.845 595.994 721.512 592.855 698.221 592.855H692.935L684.015 660.365C684.015 706.121 646.641 743.319 600.884 743.319C599.728 743.319 598.737 743.319 597.58 743.154L557.344 721.318L557.509 753.747C557.509 754.573 557.509 755.564 557.344 756.39C555.692 776.873 539.173 792.071 518.195 792.071C515.717 792.071 513.239 791.905 510.596 791.41L188.647 746.149C166.842 742.349 149.663 721.866 149.663 699.731L179.5 555.854C119.868 497.543 95.0001 417.514 95.0001 334.094C95.0001 162.796 232.931 10.9888 404.23 10.9888ZM216.997 529.754C221.623 534.049 224.266 539.996 224.266 546.108L194.428 699.401C194.594 700.227 195.75 701.713 196.576 702.044L513.074 746.149L513.074 681.839C513.074 675.396 515.882 669.119 520.838 664.99C524.967 661.521 530.088 659.539 535.374 659.539C536.53 659.539 537.521 659.539 538.678 659.704L614.718 698.223C635.202 697.397 639.745 680.352 639.745 659.704V555.854C639.745 543.465 653.993 546.108 666.382 546.108L702.557 560.148C710.982 560.148 715.442 557.836 716.598 555.854C717.755 553.871 717.92 548.751 713.955 541.317L666.382 439C664.73 435.861 663.904 432.227 663.904 428.593L671.998 321.54C671.998 218.463 611.539 123.977 518.044 80.5324H517.878C482.363 64.0138 444.04 55.5892 404.23 55.5892C257.544 55.5892 139.601 187.408 139.601 334.094C139.601 408.428 162.155 479.537 216.997 529.754Z" fill="#FF0000"/>
<circle cx="598" cy="421" r="41" stroke="#FF0000" stroke-width="10"/>
<path d="M598 402C608.461 402 617 410.539 617 421C617 431.461 608.461 440 598 440C587.539 440 579 431.461 579 421C579 410.539 587.539 402 598 402Z" fill="#FF0000"/>
<circle cx="354" cy="403" r="41" stroke="#FF0000" stroke-width="10"/>
<path d="M354 385C363.91 385 372 393.09 372 403C372 412.91 363.91 421 354 421C344.09 421 336 412.91 336 403C336 393.09 344.09 385 354 385Z" fill="#FF0000"/>
<line x1="352.281" y1="405.008" x2="601.281" y2="419.008" stroke="#FF0000" stroke-width="10"/>
<line y1="411" x2="751" y2="411" stroke="white" stroke-width="10" stroke-dasharray="20 20"/>
</svg>
