<svg width="800" height="800" viewBox="0 0 800 800" fill="none" xmlns="http://www.w3.org/2000/svg">
<path d="M171 714V527.5C73.1667 433.666 -8.38777 211.741 214 66C436.388 -79.7411 660.695 136.434 654.5 268.5C648.305 400.566 654.5 354.5 654.5 354.5C665.667 378.666 693.7 399.7 716.5 438.5C739.3 477.3 713.667 486.333 698 486H654.5L667 620.5C665.956 636.109 629.167 662.833 614 659L506.5 675.5V779.5L171 714Z" fill="#8A0000" stroke="black"/>
<path d="M366.883 0C413.301 0 457.901 10.0764 499.528 29.7336C552.388 54.3465 589.891 80.1157 621.772 129.011C654.644 179.393 671.328 221.02 671.328 281.313L678.591 310.717L729.469 422.548C740.206 443.196 740.701 464.34 730.79 480.859C720.879 497.378 701.882 506.793 678.591 506.793H673.305L685.524 599.161C685.524 644.917 648.357 682.084 602.6 682.084C601.444 682.084 600.453 682.085 599.296 681.919L550.77 708.349L535.374 761.677C535.374 762.503 535.374 763.494 535.209 764.32C533.557 784.803 517.038 800 496.059 800C493.582 800 491.104 799.835 488.461 799.339L188.647 746.149C166.842 742.35 149.663 721.867 149.663 699.732V532.893C90.0306 474.582 56.1672 394.136 56.1672 310.717C56.1672 139.418 195.584 0 366.883 0ZM187.16 506.793C191.786 511.088 194.429 517.035 194.429 523.147V699.401C194.594 700.227 195.75 701.714 196.576 702.044L490.938 754.078L506.5 681.919C506.5 675.477 509.308 669.2 514.264 665.07C518.394 661.601 523.514 659.619 528.8 659.619C529.957 659.619 530.948 659.619 532.104 659.784L604.417 636.823C624.9 635.997 641.254 619.148 641.254 598.5L629.035 483.832C629.035 471.443 638.946 461.532 651.335 461.532H678.591C687.016 461.532 691.476 459.219 692.632 457.237C693.788 455.255 693.953 450.134 689.989 442.701L643.732 339.129C642.08 335.99 633.991 319.306 633.991 315.672L626.727 280.818C626.727 177.741 566.929 99.9381 473.434 56.4939H473.268C437.753 39.9752 406.693 44.6005 366.883 44.6005C220.197 44.6005 100.768 164.031 100.768 310.717C100.768 385.051 132.318 456.576 187.16 506.793Z" fill="#FF0000"/>
<path d="M356 402L484.5 339C498.5 350 513 385 509.5 403.5L356 402Z" fill="#C20303"/>
<circle cx="556" cy="311" r="41" stroke="#FF0000" stroke-width="10"/>
<path d="M556 292C566.461 292 575 300.539 575 311C575 321.461 566.461 330 556 330C545.539 330 537 321.461 537 311C537 300.539 545.539 292 556 292Z" fill="#FF0000"/>
<circle cx="354" cy="403" r="41" stroke="#FF0000" stroke-width="10"/>
<path d="M354 385C363.91 385 372 393.09 372 403C372 412.91 363.91 421 354 421C344.09 421 336 412.91 336 403C336 393.09 344.09 385 354 385Z" fill="#FF0000"/>
<line x1="349.817" y1="405.502" x2="553.817" y2="306.502" stroke="#FF0000" stroke-width="10"/>
<line y1="411" x2="751" y2="411" stroke="white" stroke-width="10" stroke-dasharray="20 20"/>
</svg>
