<svg width="800" height="800" viewBox="0 0 800 800" fill="none" xmlns="http://www.w3.org/2000/svg">
<path d="M171 714V527.5C73.1665 433.666 -8.38802 211.741 214 66C436.388 -79.7411 660.695 136.434 654.5 268.5C648.305 400.566 654.5 354.5 654.5 354.5C665.666 378.666 693.7 436.7 716.5 475.5C739.3 514.3 713.666 523.333 698 523H654.5V654.5C653.456 670.109 616.667 696.833 601.5 693L506.5 675.5V779.5L171 714Z" fill="#008A10" stroke="black"/>
<path d="M366.883 0C413.301 0 457.901 10.0764 499.528 29.7336C552.388 54.3465 597.154 93.1654 629.035 142.061C661.907 192.443 679.252 250.754 679.252 311.047V353.5L735.415 460.871C746.152 481.52 746.648 502.664 736.737 519.182C726.825 535.701 707.829 545.117 684.538 545.117H679.252V629.527C679.252 675.284 642.085 712.451 596.328 712.451C595.171 712.451 594.18 712.451 593.024 712.286L535.374 703.696V761.677C535.374 762.503 535.374 763.494 535.209 764.32C533.557 784.803 517.038 800 496.059 800C493.582 800 491.104 799.835 488.461 799.339L188.647 746.149C166.842 742.35 149.662 721.867 149.662 699.732V532.893C90.03 474.582 56.1667 394.136 56.1667 310.717C56.1667 139.418 195.584 0 366.883 0ZM187.16 506.793C191.785 511.088 194.428 517.035 194.428 523.147V699.401C194.593 700.227 195.75 701.714 196.576 702.044L490.939 754.078L491.104 677.266C491.104 670.824 493.912 664.547 498.867 660.417C502.997 656.948 508.118 654.966 513.404 654.966C514.56 654.966 515.551 654.966 516.708 655.131L598.145 667.19C618.628 666.364 634.981 649.515 634.981 628.866V522.156C634.981 509.767 644.893 499.855 657.282 499.855H684.538C692.962 499.855 697.422 497.543 698.578 495.561C699.735 493.578 699.9 488.458 695.935 481.024L637.129 368.862C635.477 365.724 634.651 362.09 634.651 358.456V310.551C634.651 207.475 574.193 112.988 480.697 69.5437H480.532C445.017 53.025 406.693 44.6005 366.883 44.6005C220.197 44.6005 100.767 164.031 100.767 310.717C100.767 385.051 132.318 456.577 187.16 506.793Z" fill="#2FFF00"/>
<path d="M353 404L493 374C502 379 508 396 505 404H353Z" fill="#07CC1E"/>
<circle cx="556" cy="357" r="41" stroke="#2FFF00" stroke-width="10"/>
<path d="M556 338C566.461 338 575 346.539 575 357C575 367.461 566.461 376 556 376C545.539 376 537 367.461 537 357C537 346.539 545.539 338 556 338Z" fill="#2FFF00"/>
<circle cx="354" cy="403" r="41" stroke="#2FFF00" stroke-width="10"/>
<path d="M354 385C363.91 385 372 393.09 372 403C372 412.91 363.91 421 354 421C344.09 421 336 412.91 336 403C336 393.09 344.09 385 354 385Z" fill="#2FFF00"/>
<line x1="350.9" y1="405.122" x2="554.9" y2="359.122" stroke="#2FFF00" stroke-width="10"/>
<line y1="411" x2="751" y2="411" stroke="white" stroke-width="10" stroke-dasharray="20 20"/>
</svg>
