<svg width="598" height="1557" viewBox="0 0 598 1557" fill="none" xmlns="http://www.w3.org/2000/svg">
<path d="M394.36 560.763C416.557 560.703 436.354 563.886 451.908 571.173L445.546 584.756C453.151 588.319 458.968 592.829 463.168 598.219C467.661 603.986 471.604 609.162 475.06 613.813L487.099 604.867C499.143 621.077 505.627 631.347 508.927 638.153L495.432 644.697C496.038 645.949 496.417 646.872 496.652 647.516C495.725 649.537 494.5 652.77 494.5 657.069V659.6L495.33 661.99C497.686 668.773 499.983 679.056 501.775 692.481L516.644 690.496V690.495C519.149 709.26 520.556 732.653 520.245 758.917L505.247 758.74C505.002 779.459 503.66 802.039 500.898 825.553L515.794 827.301C513.215 849.259 509.426 872.008 504.179 894.841L489.562 891.482C487.239 901.587 484.627 911.694 481.703 921.742L481.114 923.751C478.404 932.927 475.618 942.118 472.774 951.334L487.106 955.756C481.441 974.118 475.56 992.533 469.611 1011.05L455.332 1006.46C449.466 1024.72 443.505 1043.17 437.623 1061.76L451.924 1066.29C446.128 1084.6 440.403 1103.06 434.887 1121.72L420.502 1117.47C415.022 1136.01 409.735 1154.77 404.777 1173.8L419.293 1177.58C414.457 1196.15 409.944 1214.94 405.878 1234L391.207 1230.88C387.161 1249.85 383.548 1269.11 380.488 1288.71L395.309 1291.02H395.31C392.363 1309.9 389.942 1329.07 388.156 1348.57H388.154L373.217 1347.21C372.362 1356.54 371.652 1365.96 371.095 1375.45C371.032 1375.74 370.957 1376.09 370.87 1376.49C370.564 1377.89 370.114 1379.93 369.539 1382.5C368.39 1387.65 366.747 1394.9 364.771 1403.27L379.37 1406.71C375.284 1424.04 369.791 1446.17 364.305 1464.73L349.922 1460.47C346.733 1471.26 343.73 1480.16 341.206 1485.97C340.916 1486.2 340.368 1486.61 339.436 1487.17C336.974 1488.62 333.11 1490.31 327.597 1492.11L332.239 1506.37C319.151 1510.63 301.174 1514.31 280.199 1517.49L277.95 1502.66C262.138 1505.06 244.497 1507.18 225.851 1509.06L227.356 1523.99C210.211 1525.72 192.308 1527.24 174.302 1528.58L173.188 1513.62C155.473 1514.94 137.64 1516.09 120.315 1517.09L121.179 1532.06C102.582 1533.14 84.5896 1534.04 67.9756 1534.81L67.2793 1519.83C61.548 1520.1 55.9798 1520.35 50.6064 1520.58C47.8757 1514.88 45.3338 1509.34 42.9746 1503.96L29.2354 1509.98C20.5415 1490.14 14.1664 1472.27 9.62793 1456.09L24.0684 1452.04C18.2808 1431.42 15.7115 1413.98 15.1309 1399.07L0.142578 1399.66C-0.761593 1376.44 2.75269 1358.18 7.31543 1343.02L21.6787 1347.34C23.8436 1340.14 26.2279 1333.78 28.6094 1327.53L30.9814 1321.27L31.3643 1320.25L31.5957 1319.19C33.4917 1310.48 35.7261 1300.65 38.2285 1289.88L23.6172 1286.48L23.6162 1286.48C27.6991 1268.9 32.4686 1248.91 37.6016 1227.32L37.6025 1227.33L52.1953 1230.8C56.6439 1212.09 61.3715 1192.16 66.1641 1171.57L51.5547 1168.17L51.5527 1168.17C56.0461 1148.85 60.5954 1128.96 65.0254 1108.92L65.0273 1108.92L79.6738 1112.15C84.068 1092.27 88.3502 1072.23 92.3506 1052.46L77.6484 1049.48L77.6465 1049.48C81.7684 1029.11 85.5857 1009.04 88.9102 989.748L88.9121 989.749L103.693 992.297C107.373 970.945 110.472 950.443 112.727 931.446L97.8311 929.679L97.8281 929.678C100.553 906.719 102.008 886.125 101.731 869.059H101.733L116.731 868.815C116.53 856.379 115.453 844.967 113.052 835.361C111.179 827.871 110.102 820.471 109.683 813.166L94.71 814.023C93.7156 796.686 96.0315 779.928 100.189 763.962L100.19 763.963L114.706 767.743C118.763 752.165 124.767 737.159 131.301 722.773L117.644 716.57C125.277 699.763 133.325 684.398 139.279 670.836L139.28 670.837L153.016 676.866C156.116 669.803 158.921 662.661 160.833 655.7C166.532 651.467 172.816 647.215 179.607 642.994L171.69 630.257C187.188 620.625 204.893 611.345 223.829 602.876L229.953 616.567C246.995 608.945 265.083 601.99 283.443 596.064L278.836 581.79C297.815 575.665 317.078 570.609 335.838 566.991L338.678 581.718C358.43 577.908 377.319 575.808 394.4 575.763L394.36 560.763Z" fill="#124B19" stroke="#95FF00" stroke-width="30" stroke-dasharray="60 60"/>
<line x1="207.5" y1="1549.5" x2="207.5" y2="232.5" stroke="white" stroke-width="15" stroke-linecap="round" stroke-dasharray="60 60"/>
<path d="M211.475 1369.06C221.766 1372.22 227.597 1383.39 224.43 1394.05C221.264 1404.7 210.324 1410.72 200.033 1407.56C189.742 1404.4 183.912 1393.23 187.079 1382.58C190.246 1371.92 201.184 1365.9 211.475 1369.06Z" fill="#95FF00" stroke="white" stroke-width="2"/>
<path d="M214.555 1358.7C230.388 1363.56 239.358 1380.75 234.486 1397.13C229.615 1413.52 212.786 1422.78 196.953 1417.92C181.12 1413.06 172.151 1395.88 177.023 1379.49C181.894 1363.1 198.722 1353.84 214.555 1358.7Z" stroke="#95FF00" stroke-width="3"/>
<path d="M399.475 228.064C409.766 231.224 415.597 242.393 412.43 253.046C409.264 263.7 398.324 269.718 388.033 266.558C377.742 263.397 371.912 252.229 375.079 241.576C378.246 230.922 389.184 224.904 399.475 228.064Z" fill="#95FF00" stroke="white" stroke-width="2"/>
<path d="M402.555 217.702C418.388 222.564 427.358 239.746 422.486 256.134C417.615 272.523 400.786 281.782 384.953 276.92C369.12 272.058 360.151 254.876 365.023 238.487C369.894 222.099 386.722 212.839 402.555 217.702Z" stroke="#95FF00" stroke-width="3"/>
<path d="M206 719.424V1390L315 731.522C315 731.522 275.92 694.976 206 719.424Z" fill="#07CC1E" fill-opacity="0.41" stroke="#95FF00" stroke-width="3"/>
<line x1="396.467" y1="247.406" x2="208.467" y2="1390.41" stroke="#95FF00" stroke-width="5"/>
<path d="M385.796 0.58155C413.64 1.95057 440.097 9.30455 464.488 22.3124C495.471 38.6213 521.18 63.2049 538.863 93.4469C557.097 124.609 565.783 160.065 564.007 196.197L562.756 221.638L593.282 287.64C599.115 300.331 598.789 313.016 592.357 322.623C585.925 332.23 574.252 337.313 560.281 336.626L557.11 336.47L554.623 387.055C553.275 414.476 529.885 435.653 502.437 434.303C501.743 434.269 501.149 434.24 500.46 434.107L466.131 427.259L460.232 463.198C460.207 463.693 460.178 464.287 460.055 464.777C458.46 477.003 448.104 485.623 435.52 485.004C434.033 484.931 432.552 484.759 430.981 484.384L271.285 453.908C258.317 450.988 248.616 438.206 249.268 424.941C249.268 424.941 260.726 346.357 239.793 313.525C218.86 280.693 187.797 227.614 190.255 177.622C195.302 74.9671 283.041 -4.47068 385.796 0.58155ZM263.055 298.99C265.703 301.7 267.113 305.342 266.933 309.005L276.13 426.063C276.13 426.063 276.855 427.488 277.341 427.71L437.992 456.141L440.354 410.115C440.544 406.254 442.414 402.575 445.508 400.246C448.088 398.289 451.218 397.252 454.388 397.408C455.082 397.442 455.677 397.472 456.365 397.605L504.861 407.233C517.172 407.342 527.478 397.727 528.087 385.353L531.231 321.404C531.596 313.98 537.833 308.332 545.265 308.698L561.614 309.502C566.668 309.75 569.411 308.496 570.164 307.342C570.916 306.188 571.166 303.124 569.006 298.553L537.036 229.602C536.137 227.673 535.749 225.471 535.856 223.293L537.268 194.585C540.305 132.814 506.822 74.4068 452.019 45.6142L451.919 45.6093C431.102 34.6626 408.362 28.4837 384.482 27.3095C296.491 22.9832 221.331 91.0324 217.009 178.938C214.819 223.484 231.637 267.279 263.055 298.99Z" fill="#1B371D"/>
<path d="M254.111 314.493C276.546 360.484 284.054 507.797 159 640.216" stroke="#1B371D" stroke-width="30"/>
<path d="M457.506 403.089C457.506 403.089 420.5 497.5 447.5 572" stroke="#1B371D" stroke-width="30"/>
</svg>
