<svg width="580" height="1545" viewBox="0 0 580 1545" fill="none" xmlns="http://www.w3.org/2000/svg">
<path d="M160.807 4.73874C188.4 0.763048 215.774 2.92703 242.201 11.0354C275.73 21.1247 305.662 40.3438 328.797 66.6505C352.649 93.7551 367.949 126.899 373.108 162.705L376.741 187.916L419.314 246.87C427.463 258.213 429.567 270.727 425.089 281.386C420.611 292.045 410.124 299.263 396.279 301.258L393.137 301.711L400.36 351.84C404.275 379.013 385.362 404.269 358.162 408.188C357.474 408.287 356.885 408.372 356.184 408.373L321.179 408.209L322.254 444.613C322.325 445.104 322.409 445.692 322.382 446.197C323.153 458.502 314.634 468.942 302.163 470.739C300.69 470.951 299.203 471.066 297.59 470.998L135.013 471.592C121.726 471.203 109.761 460.51 107.867 447.365C107.867 447.365 104.101 368.039 77.2807 339.811C50.4606 311.583 9.82964 265.416 2.69163 215.876C-11.966 114.147 58.9801 19.4106 160.807 4.73874ZM97.3374 321.1C100.454 323.254 102.534 326.56 103.057 330.189L134.449 443.335C134.449 443.335 135.433 444.595 135.952 444.72L299.076 441.935L292.601 396.305C292.05 392.479 293.182 388.511 295.775 385.634C297.933 383.22 300.807 381.605 303.949 381.152C304.637 381.053 305.226 380.968 305.928 380.967L355.369 381.153C367.474 378.908 375.754 367.501 373.987 355.239L364.856 291.867C363.796 284.51 368.839 277.775 376.204 276.714L392.406 274.379C397.414 273.658 399.867 271.902 400.385 270.626C400.903 269.35 400.563 266.295 397.57 262.22L353.016 200.647C351.765 198.925 350.963 196.837 350.652 194.679L346.553 166.23C337.733 105.017 293.709 54.0823 234.414 36.2902L234.316 36.3044C211.79 29.5364 188.288 27.8157 164.624 31.2255C77.4274 43.7892 16.6524 124.944 29.204 212.056C35.5646 256.201 60.44 295.975 97.3374 321.1Z" fill="#1B371D"/>
<path d="M84.4869 328.447C112.125 371.512 170.229 515.683 61.4475 661.764" stroke="#1B371D" stroke-width="30"/>
<path d="M310.458 401L300.139 522.474" stroke="#1B371D" stroke-width="30"/>
<path d="M277.91 526.298C299.766 521.258 319.421 520.449 335.081 525.7L330.313 539.921C337.138 542.209 342.516 545.892 346.667 551.219C353.623 560.147 359.837 568.471 365.377 576.205L377.57 567.468C393.716 590.005 404.417 607.841 411.263 621.292L397.896 628.095C401.661 635.491 404.036 641.191 405.438 645.294C406.959 649.749 407 651.372 407 651V653.531L407.83 655.921C410.366 663.225 413.215 673.361 415.87 685.87L430.541 682.755C434.35 700.7 437.685 722.906 439.299 748.015L424.33 748.977C425.595 768.663 425.77 790.183 424.219 812.832L439.184 813.856C437.748 834.818 434.878 856.73 430.102 879.074L415.435 875.939C413.39 885.505 410.985 895.145 408.181 904.816L407.614 906.75C404.702 916.61 402.259 927.196 400.228 938.333L414.984 941.025C411.576 959.714 409.305 980.401 407.988 1002.35H407.987L393.015 1001.45C391.805 1021.61 391.388 1042.74 391.618 1064.28L406.617 1064.12L406.618 1064.12C406.835 1084.41 407.632 1105.14 408.897 1125.85V1125.85L393.925 1126.77C395.204 1147.7 396.953 1168.59 399.055 1188.97L413.976 1187.44L413.978 1187.44C416.159 1208.59 418.723 1229.21 421.54 1248.75V1248.75L406.693 1250.89C409.885 1273.04 413.402 1293.85 417.059 1312.59L431.78 1309.71L431.781 1309.71C436.508 1333.93 441.455 1354.52 446.197 1369.78L446.196 1369.78L431.872 1374.23C434.254 1381.89 436.703 1388.66 439.207 1394.14C440.858 1397.76 442.998 1401.89 445.817 1405.38C446.967 1408.88 448.235 1413.64 449.231 1419.25L463.999 1416.62C466.035 1428.08 466.98 1442.15 464.599 1456.06L449.816 1453.53C448.958 1458.55 447.61 1463.37 445.69 1467.86C445.313 1468.16 444.661 1468.62 443.637 1469.21C440.87 1470.8 436.587 1472.65 430.577 1474.61L435.235 1488.86C421.403 1493.38 402.437 1497.48 380.374 1501.14L377.915 1486.35C361.173 1489.13 342.532 1491.68 322.897 1493.99L324.648 1508.88C306.52 1511.01 287.628 1512.94 268.693 1514.65L267.343 1499.71C248.566 1501.41 229.735 1502.9 211.562 1504.19L212.623 1519.15C192.809 1520.56 173.785 1521.72 156.465 1522.65L155.668 1507.67C149.391 1508 143.34 1508.3 137.561 1508.57C134.383 1502.06 131.359 1495.69 128.485 1489.49L114.873 1495.79C105.254 1475 97.2509 1455.85 90.6797 1438.21L104.735 1432.98C96.6302 1411.22 90.8179 1392.01 86.8828 1375.11L72.2744 1378.52C66.5088 1353.76 64.5131 1333.37 65.2617 1316.79L65.2715 1316.58L80.2549 1317.28C80.7467 1306.72 82.4608 1298.38 84.8125 1291.9L85.042 1291.27L85.4248 1290.25L85.6562 1289.19C88.046 1278.21 89.961 1266.36 91.4658 1253.87L76.5732 1252.07L76.5723 1252.07C79.0994 1231.09 80.4804 1207.87 80.9404 1183.47L80.9414 1183.47L95.9395 1183.75C96.3649 1161.19 96.0134 1137.69 95.0654 1114.08L80.0781 1114.68H80.0762C79.1542 1091.71 77.6588 1068.57 75.752 1046.01H75.7539L90.7002 1044.75C88.6737 1020.78 86.1866 997.465 83.4268 975.693L68.5459 977.58H68.5449C65.3436 952.325 61.7741 929.183 58.1406 909.581L72.8906 906.846C70.471 893.792 67.9986 882.149 65.5518 872.362C63.4229 863.846 61.659 854.995 60.2217 845.915L45.4072 848.258C42.4905 829.831 40.904 810.744 40.2783 791.888L55.2676 791.392C54.6393 772.459 55.0064 753.712 55.9834 736.11L41.0078 735.279C42.172 714.303 44.18 694.994 46.3936 678.907L61.2529 680.951C62.3752 672.794 63.5446 665.535 64.6689 659.385C70.3525 655.013 76.4591 650.435 82.9199 645.722L74.0801 633.603C88.5363 623.059 104.697 611.882 121.815 600.834L129.949 613.438C145.626 603.321 162.08 593.338 178.718 584.087L171.429 570.978C188.67 561.392 206.146 552.556 223.227 545.109L229.221 558.857C247.675 550.811 265.287 544.603 281.281 540.915L277.91 526.298Z" fill="#FF0000" fill-opacity="0.2" stroke="#FF0000" stroke-width="30" stroke-dasharray="60 60"/>
<line x1="280.439" y1="1537.5" x2="280.439" y2="220.5" stroke="white" stroke-width="15" stroke-linecap="round" stroke-dasharray="60 60"/>
<path d="M291.414 1356.06C301.705 1359.22 307.536 1370.39 304.369 1381.05C301.202 1391.7 290.262 1397.72 279.972 1394.56C269.681 1391.4 263.851 1380.23 267.017 1369.58C270.184 1358.92 281.123 1352.9 291.414 1356.06Z" fill="#FF0000" stroke="white" stroke-width="2"/>
<path d="M294.494 1345.7C310.327 1350.56 319.296 1367.75 314.425 1384.13C309.553 1400.52 292.724 1409.78 276.891 1404.92C261.058 1400.06 252.09 1382.88 256.961 1366.49C261.833 1350.1 278.661 1340.84 294.494 1345.7Z" stroke="#FF0000" stroke-width="3"/>
<path d="M218.475 216.064C228.766 219.224 234.597 230.393 231.43 241.046C228.264 251.7 217.324 257.718 207.033 254.558C196.742 251.397 190.912 240.229 194.079 229.576C197.246 218.922 208.184 212.904 218.475 216.064Z" fill="#FF0000" stroke="white" stroke-width="2"/>
<path d="M221.555 205.702C237.388 210.564 246.358 227.746 241.486 244.134C236.615 260.523 219.786 269.782 203.953 264.92C188.12 260.058 179.151 242.876 184.023 226.487C188.894 210.099 205.722 200.839 221.555 205.702Z" stroke="#FF0000" stroke-width="3"/>
<path d="M284 719.677L279.876 1384L244 719.677C244 719.677 257.196 695.654 284 719.677Z" fill="#FF0000" fill-opacity="0.41" stroke="#FF0000" stroke-opacity="0.41" stroke-width="3"/>
<line x1="213.496" y1="234.856" x2="279.435" y2="1376.86" stroke="#FF0000" stroke-width="5"/>
</svg>
