<svg width="493" height="1545" viewBox="0 0 493 1545" fill="none" xmlns="http://www.w3.org/2000/svg">
<path d="M266.55 0C294.427 0 321.214 6.04584 346.214 17.8402C377.961 32.6079 404.846 55.8992 423.993 85.2364C443.736 115.466 454.152 150.452 454.152 186.628V212.1L487.883 276.523C494.332 288.912 494.629 301.598 488.677 311.509C482.724 321.421 471.315 327.07 457.327 327.07H454.152V377.716C454.152 405.17 431.831 427.471 404.35 427.471C403.656 427.471 403.06 427.471 402.366 427.371L367.742 422.218L363.615 458.402C363.615 458.898 363.615 459.493 363.515 459.988C362.523 472.278 352.602 481.396 340.003 481.396C338.515 481.396 337.027 481.297 335.439 481L174.439 458.402C161.344 456.123 151.026 443.833 151.026 430.552C151.026 430.552 158.612 351.5 136.091 319.736C113.571 287.971 79.9395 236.482 79.9395 186.43C79.9395 83.6506 163.671 0 266.55 0ZM158.612 304.076C161.389 306.653 162.977 310.221 162.977 313.888L177.912 430.354C177.912 430.354 178.705 431.741 179.201 431.94L341.055 452.447L341.154 406.36C341.154 402.494 342.841 398.728 345.817 396.25C348.297 394.169 351.373 392.98 354.548 392.98C355.242 392.98 355.837 392.98 356.532 393.079L405.441 400.314C417.743 399.818 427.565 389.709 427.565 377.32V313.293C427.565 305.86 433.517 299.913 440.958 299.913H457.327C462.387 299.913 465.065 298.526 465.76 297.336C466.454 296.147 466.553 293.075 464.172 288.615L428.854 221.317C427.862 219.434 427.366 217.254 427.366 215.073V186.331C427.366 124.485 391.056 67.7927 334.904 41.7262H334.805C313.475 31.815 290.459 26.7603 266.55 26.7603C178.453 26.7603 106.726 98.4183 106.726 186.43C106.726 231.03 125.674 273.946 158.612 304.076Z" fill="#1B371D"/>
<path d="M150.439 320C175.106 364.833 189.839 511.6 71.4395 650" stroke="#1B371D" stroke-width="30"/>
<path d="M357.939 398.5L339.439 519" stroke="#1B371D" stroke-width="30"/>
<path d="M291.35 521.298C313.206 516.258 332.86 515.449 348.521 520.7L343.753 534.921C350.577 537.209 355.956 540.892 360.106 546.219C367.063 555.147 373.276 563.471 378.816 571.205L391.01 562.469V562.468C407.156 585.005 417.856 602.841 424.702 616.292L411.336 623.095C415.1 630.491 417.476 636.191 418.877 640.294C420.303 644.47 420.428 646.158 420.438 646.046V648.531L421.27 650.921C423.806 658.225 426.655 668.361 429.31 680.87L443.98 677.755C447.789 695.7 451.124 717.906 452.737 743.015L437.77 743.977C439.035 763.663 439.209 785.183 437.658 807.832L452.623 808.857C451.188 829.819 448.317 851.73 443.541 874.074L428.874 870.939C426.829 880.505 424.423 890.145 421.619 899.816L421.054 901.75C418.263 911.197 415.456 921.434 412.655 932.31L427.182 936.05H427.183C422.42 954.543 417.641 975.034 412.965 996.804L398.3 993.654C394.068 1013.35 389.923 1034.08 385.95 1055.29L400.693 1058.05C396.915 1078.23 393.29 1098.87 389.892 1119.53H389.891L375.09 1117.09C371.664 1137.91 368.467 1158.75 365.575 1179.14L380.426 1181.24C377.401 1202.57 374.713 1223.4 372.447 1243.19L357.544 1241.48C354.976 1263.92 352.94 1285.11 351.569 1304.26L366.531 1305.33C364.741 1330.34 364.112 1351.71 364.928 1367.68L364.925 1367.68L349.944 1368.44C350.371 1376.79 351.197 1384.36 352.632 1390.61C353.598 1394.82 355.255 1400.48 358.754 1405.19C359.92 1408.7 361.216 1413.54 362.231 1419.25L376.999 1416.62C379.035 1428.08 379.98 1442.15 377.599 1456.06L362.816 1453.53C361.958 1458.55 360.61 1463.37 358.69 1467.86C358.313 1468.16 357.661 1468.62 356.637 1469.21C353.87 1470.8 349.587 1472.65 343.577 1474.61L348.234 1488.86C334.402 1493.38 315.437 1497.48 293.374 1501.14L290.915 1486.35C274.173 1489.13 255.532 1491.68 235.897 1493.99L237.648 1508.88C219.52 1511.01 200.628 1512.94 181.693 1514.65L180.343 1499.71C161.566 1501.41 142.735 1502.9 124.562 1504.19L125.623 1519.15C105.809 1520.56 86.785 1521.72 69.4648 1522.65L68.668 1507.67C62.4047 1508 56.367 1508.3 50.5996 1508.57C47.8713 1502.87 45.3319 1497.33 42.9746 1491.95L29.2354 1497.98C20.5415 1478.14 14.1664 1460.27 9.62793 1444.09L24.0684 1440.04C18.2809 1419.42 15.7115 1401.98 15.1309 1387.07L0.142578 1387.66C-0.761678 1364.44 2.75275 1346.18 7.31543 1331.02L21.6787 1335.34C23.8436 1328.14 26.2279 1321.78 28.6094 1315.52L30.9814 1309.27L31.3643 1308.25L31.5957 1307.19C33.3969 1298.92 35.3026 1289.93 37.2783 1280.35L22.5869 1277.32L22.585 1277.32C25.953 1260.98 29.5314 1242.89 33.1514 1223.63L33.1533 1223.63L47.8955 1226.4C51.1391 1209.15 54.4163 1190.96 57.6074 1172.28L42.8213 1169.75L42.8203 1169.75C45.8375 1152.08 48.7772 1133.96 51.5361 1115.75L66.3672 1118C69.1239 1099.81 71.7043 1081.52 74.0059 1063.48L59.126 1061.58L59.125 1061.58C61.4925 1043.03 63.5604 1024.76 65.2178 1007.19L65.2197 1007.19L80.1533 1008.6C81.9816 989.215 83.323 970.576 84.0205 953.222L69.0332 952.62L69.0312 952.619C69.8523 932.189 69.7577 913.686 68.498 898H68.501L83.4521 896.799C82.5838 885.987 81.1586 876.031 78.9912 867.362C76.8624 858.846 75.0984 849.995 73.6611 840.915L58.8467 843.258C55.93 824.831 54.3425 805.744 53.7168 786.888L68.707 786.392C68.0787 767.459 68.4449 748.712 69.4219 731.11L54.4473 730.279C55.6115 709.303 57.6194 689.994 59.833 673.907L74.6924 675.951C75.8147 667.794 76.984 660.535 78.1084 654.384C83.7918 650.012 89.8987 645.434 96.3594 640.722L87.5195 628.603C101.976 618.059 118.137 606.882 135.255 595.834L143.389 608.437C159.065 598.32 175.52 588.338 192.157 579.087L184.868 565.978C202.109 556.392 219.585 547.556 236.665 540.109L242.659 553.857C261.114 545.811 278.726 539.603 294.721 535.915L291.35 521.298Z" fill="#FFCC00" fill-opacity="0.2" stroke="#FFD400" stroke-width="30" stroke-dasharray="60 60"/>
<line x1="193.439" y1="1537.5" x2="193.439" y2="220.5" stroke="white" stroke-width="15" stroke-linecap="round" stroke-dasharray="60 60"/>
<path d="M199.415 1356.06C209.706 1359.22 215.537 1370.39 212.37 1381.05C209.203 1391.7 198.263 1397.72 187.973 1394.56C177.682 1391.4 171.852 1380.23 175.018 1369.58C178.185 1358.92 189.124 1352.9 199.415 1356.06Z" fill="#FFD400" stroke="white" stroke-width="2"/>
<path d="M202.495 1345.7C218.328 1350.56 227.297 1367.75 222.426 1384.13C217.554 1400.52 200.725 1409.78 184.892 1404.92C169.059 1400.06 160.091 1382.88 164.962 1366.49C169.833 1350.1 186.662 1340.84 202.495 1345.7Z" stroke="#FFD400" stroke-width="3"/>
<path d="M277.415 222.064C287.706 225.224 293.537 236.393 290.37 247.046C287.203 257.7 276.263 263.718 265.973 260.558C255.682 257.397 249.852 246.229 253.018 235.576C256.185 224.922 267.124 218.904 277.415 222.064Z" fill="#FFD400" stroke="white" stroke-width="2"/>
<path d="M280.495 211.702C296.328 216.564 305.297 233.746 300.426 250.134C295.554 266.523 278.725 275.782 262.892 270.92C247.059 266.058 238.091 248.876 242.962 232.487C247.833 216.099 264.662 206.839 280.495 211.702Z" stroke="#FFD400" stroke-width="3"/>
<path d="M192.439 706.5L197.44 1384L240.939 706.5C240.939 706.5 224.939 682 192.439 706.5Z" fill="#FFD400" fill-opacity="0.41" stroke="#FFD400" stroke-width="3"/>
<line x1="272.433" y1="241.174" x2="193.433" y2="1376.17" stroke="#FFD400" stroke-width="5"/>
</svg>
