<svg width="665" height="1545" viewBox="0 0 665 1545" fill="none" xmlns="http://www.w3.org/2000/svg">
<path d="M470.751 20.6319C498.472 23.5798 524.469 32.4243 548.082 46.7962C578.089 64.8381 602.361 90.8419 618.298 122.039C634.733 154.187 641.392 190.079 637.567 226.052L634.873 251.381L661.602 319.009C666.705 332.011 665.659 344.657 658.692 353.884C651.725 363.11 639.782 367.521 625.872 366.042L622.716 365.706L617.36 416.069C614.457 443.369 589.902 463.183 562.575 460.277C561.885 460.204 561.293 460.141 560.613 459.969L526.728 451.183L518.797 486.728C518.745 487.221 518.682 487.812 518.531 488.295C516.245 500.411 505.416 508.429 492.887 507.097C491.407 506.939 489.938 506.683 488.391 506.22L330.683 466.724C317.902 463.072 308.942 449.76 310.346 436.554C310.346 436.554 326.248 358.747 307.213 324.78C288.178 290.812 260.18 236.054 265.473 186.283C276.341 84.0804 368.449 9.753 470.751 20.6319ZM331.263 311.589C333.753 314.445 334.954 318.161 334.566 321.808L337.102 439.2C337.102 439.2 337.744 440.663 338.217 440.913L496.994 478.421L501.967 432.602C502.375 428.759 504.451 425.192 507.672 423.043C510.359 421.235 513.543 420.378 516.699 420.713C517.39 420.787 517.982 420.85 518.662 421.022L566.532 433.388C578.817 434.196 589.653 425.182 590.963 412.863L597.734 349.195C598.52 341.804 605.068 336.52 612.467 337.306L628.744 339.037C633.775 339.572 636.586 338.476 637.402 337.367C638.218 336.257 638.642 333.213 636.746 328.526L608.742 257.871C607.955 255.894 607.692 253.673 607.923 251.505L610.962 222.924C617.502 161.424 587.39 101.21 534.31 69.3523L534.211 69.3418C514.049 57.2307 491.696 49.7704 467.921 47.2422C380.318 37.9264 301.415 101.598 292.109 189.116C287.392 233.466 301.697 278.145 331.263 311.589Z" fill="#1B371D"/>
<path d="M321.453 326.56C341.24 373.75 340.371 521.252 208 646.356" stroke="#1B371D" stroke-width="30"/>
<path d="M519.489 426.562C519.489 426.562 477.182 518.719 499.908 594.632" stroke="#1B371D" stroke-width="30"/>
<path d="M383.232 541.269C405.275 538.349 428.021 539.453 450.173 547.028L445.319 561.221C454.4 564.326 463.401 568.671 472.222 574.509C482.631 581.398 492.178 590.488 500.847 600.966L512.402 591.406C532.004 615.101 546.16 643.765 555.473 666.732L541.574 672.368C546.18 683.726 549.553 693.633 551.767 700.671C552.872 704.186 553.684 706.974 554.214 708.856C554.316 709.218 554.404 709.547 554.484 709.841C554.473 710.903 554.454 712.39 554.416 714.271C554.331 718.485 554.161 724.674 553.819 732.483L568.804 733.138C568.235 746.134 567.201 763.501 565.32 783.688L550.387 782.298C548.974 797.458 547.08 814.219 544.537 831.899L559.383 834.034C557.076 850.073 554.244 866.868 550.766 883.933L536.069 880.938C532.808 896.941 528.977 913.136 524.481 929.109L538.918 933.173C534.32 949.508 529.033 965.664 522.949 981.216L508.98 975.752C505.982 983.417 502.795 990.901 499.408 998.153C493.786 1010.19 488.716 1020.9 484.112 1030.55L497.647 1037.01C483.95 1065.7 474.383 1084.98 466.723 1101.84L453.065 1095.64C442.974 1117.85 436.058 1136.11 427.686 1164.97L442.092 1169.15H442.093C436.951 1186.87 431.214 1208.79 423.73 1238.53H423.728L409.181 1234.87C407.843 1240.18 406.451 1245.75 404.996 1251.58L400.441 1269.89L400.296 1270.47L400.198 1271.07V1271.07V1271.07C400.198 1271.07 400.198 1271.07 400.197 1271.07C400.196 1271.08 400.195 1271.09 400.193 1271.1C400.19 1271.12 400.186 1271.15 400.18 1271.18C400.167 1271.26 400.148 1271.37 400.124 1271.52C400.075 1271.82 400.003 1272.26 399.91 1272.83C399.723 1273.98 399.451 1275.66 399.104 1277.82C398.409 1282.13 397.418 1288.35 396.23 1295.94L411.051 1298.26C408.982 1311.49 406.314 1328.94 403.576 1347.88L388.73 1345.73C386.401 1361.84 384.018 1379.06 381.907 1395.7L396.787 1397.59C394.496 1415.65 392.532 1433.01 391.314 1447.51L376.367 1446.25C375.675 1454.49 375.199 1462.05 375.05 1468.44C372.315 1470.07 367.59 1472.09 360.464 1474.29L364.883 1488.62C349.697 1493.31 328.514 1497.53 303.822 1501.31L301.555 1486.48C282.878 1489.34 262.084 1491.95 240.269 1494.31L241.883 1509.22C221.659 1511.41 200.637 1513.39 179.698 1515.14L178.444 1500.2C157.39 1501.97 136.408 1503.52 116.402 1504.85L117.401 1519.82C94.9642 1521.32 73.7645 1522.55 55.0684 1523.52L54.293 1508.54C46.8414 1508.93 39.7911 1509.27 33.2236 1509.57C30.1032 1502.63 27.454 1495.87 25.2324 1489.26L11.0166 1494.04C3.08621 1470.47 0.0887988 1448.52 0.414062 1428.23L15.4121 1428.47C15.7686 1406.23 20.4723 1386.05 27.1377 1367.9L13.0576 1362.73C21.7545 1339.05 33.4206 1319.05 43.0488 1302.89L55.9355 1310.57C62.3358 1299.82 68.9644 1289.01 72.5732 1279.98C77.2854 1271.7 81.7656 1262.57 86.0215 1252.78L72.2637 1246.8L72.2627 1246.8C79.4812 1230.19 86.2169 1211.15 92.4492 1190.49L92.4512 1190.49L106.812 1194.82C112.413 1176.25 117.594 1156.46 122.347 1136.01L107.736 1132.62L107.734 1132.61C112.157 1113.58 116.22 1093.9 119.908 1074.04L119.909 1074.04L134.657 1076.77C138.337 1056.95 141.647 1036.95 144.574 1017.21L129.736 1015.01L129.735 1015.01C132.733 994.802 135.329 974.855 137.51 955.653L137.512 955.654L152.415 957.347C154.815 936.217 156.719 915.959 158.107 897.197L143.148 896.09L143.147 896.089C144.814 873.572 145.726 853.28 145.854 836.327L145.855 836.328L160.855 836.441C160.945 824.544 160.66 814.006 159.95 805.283C159.333 797.701 159.623 789.782 160.711 781.611L145.844 779.632C148.144 762.356 153.549 744.825 160.604 727.963L174.441 733.753C181.16 717.697 189.522 702.133 198.169 687.962L185.364 680.148C196.152 662.468 207.217 647.134 215.964 635.792L227.841 644.952C232.719 638.627 236.843 633.595 239.727 630.168C241.168 628.455 242.297 627.145 243.055 626.276C243.266 626.034 243.449 625.827 243.601 625.654C243.847 625.44 244.168 625.162 244.562 624.826C245.664 623.885 247.332 622.486 249.515 620.724C253.883 617.197 260.296 612.23 268.347 606.583L259.732 594.304C274.692 583.809 295.031 571.096 318.406 560.586L318.472 560.557L324.619 574.238C343.571 565.723 364.208 558.92 385.202 556.139L383.232 541.269ZM243.007 626.175L243.005 626.176L243.006 626.175V626.174L243.007 626.175Z" fill="#4B4118" stroke="#FFD400" stroke-width="30" stroke-dasharray="60 60"/>
<line x1="200.439" y1="1537.5" x2="200.439" y2="220.5" stroke="white" stroke-width="15" stroke-linecap="round" stroke-dasharray="60 60"/>
<path d="M210.475 1406.06C220.766 1409.22 226.597 1420.39 223.43 1431.05C220.264 1441.7 209.324 1447.72 199.033 1444.56C188.742 1441.4 182.912 1430.23 186.079 1419.58C189.246 1408.92 200.184 1402.9 210.475 1406.06Z" fill="#FFD400" stroke="white" stroke-width="2"/>
<path d="M213.555 1395.7C229.388 1400.56 238.358 1417.75 233.486 1434.13C228.615 1450.52 211.786 1459.78 195.953 1454.92C180.12 1450.06 171.151 1432.88 176.023 1416.49C180.894 1400.1 197.722 1390.84 213.555 1395.7Z" stroke="#FFD400" stroke-width="3"/>
<path d="M203 757V1434L348.5 772.978C348.5 772.978 278 733 203 757Z" fill="#957D0E" stroke="#FFD400" stroke-width="3"/>
<path d="M464.439 260.546L205.499 1428" stroke="#FFD400" stroke-width="5"/>
<path d="M470.475 241.064C480.766 244.224 486.597 255.393 483.43 266.046C480.264 276.7 469.324 282.718 459.033 279.558C448.742 276.397 442.912 265.229 446.079 254.576C449.246 243.922 460.184 237.904 470.475 241.064Z" fill="#FFD400" stroke="white" stroke-width="2"/>
<path d="M473.555 230.702C489.388 235.564 498.358 252.746 493.486 269.134C488.615 285.523 471.786 294.782 455.953 289.92C440.12 285.058 431.151 267.876 436.023 251.487C440.894 235.099 457.722 225.839 473.555 230.702Z" stroke="#FFD400" stroke-width="3"/>
</svg>
