<svg width="747" height="1545" viewBox="0 0 747 1545" fill="none" xmlns="http://www.w3.org/2000/svg">
<path d="M570.304 48.7567C597.81 53.2941 623.255 63.6191 646.002 79.3253C674.922 99.0633 697.658 126.42 711.775 158.482C726.334 191.522 730.917 227.737 725.029 263.431L720.883 288.563L743.678 357.617C748.024 370.89 746.253 383.456 738.767 392.266C731.281 401.076 719.104 404.794 705.302 402.517L702.17 402L693.927 451.971C689.458 479.059 663.805 497.429 636.69 492.956C636.005 492.843 635.418 492.746 634.749 492.535L601.426 481.814L591.464 516.845C591.383 517.334 591.286 517.921 591.108 518.393C588.128 530.358 576.856 537.74 564.424 535.689C562.956 535.447 561.504 535.107 559.986 534.555L404.811 486.054C392.261 481.674 384.081 467.868 386.243 454.764C386.243 454.764 406.594 378.001 389.544 342.995C372.494 307.989 347.692 251.711 355.838 202.327C372.567 100.919 468.797 32.0118 570.304 48.7567ZM414.313 331.209C416.634 334.204 417.62 337.983 417.023 341.601L412.802 458.945C412.802 458.945 413.36 460.443 413.817 460.719L570.174 507.297L577.774 461.84C578.403 458.027 580.68 454.585 584.02 452.625C586.805 450.975 590.033 450.302 593.166 450.819C593.851 450.932 594.438 451.029 595.107 451.239L642.187 466.339C654.406 467.852 665.742 459.476 667.758 447.252L678.179 384.08C679.389 376.745 686.23 371.847 693.572 373.058L709.723 375.722C714.715 376.546 717.584 375.613 718.462 374.552C719.341 373.492 719.939 370.476 718.316 365.688L694.422 293.54C693.75 291.52 693.615 289.288 693.97 287.137L698.648 258.778C708.715 197.756 682.116 135.91 630.956 101.052L630.858 101.036C611.426 87.7851 589.539 79.0516 565.949 75.1601C479.027 60.8212 396.592 119.849 382.267 206.687C375.008 250.693 386.719 296.12 414.313 331.209Z" fill="#1B371C"/>
<path d="M403.658 345.591C420.699 393.841 411.348 541.049 272 658.332" stroke="#1B371C" stroke-width="30"/>
<path d="M595.614 456.818C595.614 456.818 548.077 546.389 566.399 623.484" stroke="#1B371C" stroke-width="30"/>
<path d="M599.46 697.303C601.63 715.369 603.073 732.286 603.996 745.154L589.038 746.227C589.553 753.4 589.902 759.29 590.122 763.374C590.232 765.416 590.31 767.006 590.36 768.077C590.374 768.368 590.384 768.62 590.394 768.833C590.375 769.079 590.352 769.38 590.324 769.735C590.231 770.906 590.085 772.663 589.878 774.96C589.464 779.555 588.804 786.31 587.83 794.861L602.733 796.559C601.134 810.596 598.702 829.355 595.145 851.291L580.34 848.891C577.692 865.214 574.413 883.312 570.379 902.53L585.057 905.611C581.45 922.794 577.247 940.867 572.357 959.376L557.856 955.546C555.855 963.124 553.738 970.771 551.5 978.455L550.533 981.751C547.954 990.484 545.393 998.571 542.85 1006.1L557.06 1010.9C550.607 1030 544.219 1045.73 537.877 1059.42L524.269 1053.11C516.311 1070.28 508.413 1084.14 500.343 1097.78L513.251 1105.42C504.625 1119.99 496.032 1133.94 487.416 1150.71L474.074 1143.85C466.867 1157.88 459.662 1173.77 452.442 1193.33L466.515 1198.52H466.516C461.257 1212.77 455.973 1229.06 450.652 1248.17L436.202 1244.14C433.963 1252.18 431.724 1260.7 429.479 1269.74L429.474 1269.76C429.468 1269.78 429.461 1269.81 429.451 1269.85C429.431 1269.92 429.402 1270.04 429.363 1270.18C429.287 1270.48 429.173 1270.92 429.026 1271.49C428.732 1272.64 428.302 1274.32 427.755 1276.47C426.662 1280.77 425.102 1286.95 423.232 1294.52L437.795 1298.12C434.542 1311.29 430.342 1328.66 426.029 1347.53L411.406 1344.19C407.725 1360.29 403.951 1377.53 400.601 1394.23L415.307 1397.18C411.672 1415.29 408.55 1432.71 406.609 1447.26L391.741 1445.28C390.624 1453.65 389.835 1461.48 389.585 1468.19C386.606 1469.9 381.472 1471.99 373.8 1474.23L378.013 1488.63C362.165 1493.27 340.138 1497.46 314.523 1501.21L312.351 1486.37C292.898 1489.22 271.272 1491.82 248.624 1494.18L250.177 1509.09C229.152 1511.28 207.324 1513.26 185.619 1515.01L184.407 1500.07C162.492 1501.84 140.693 1503.4 119.975 1504.75L120.947 1519.72C97.5377 1521.24 75.5169 1522.49 56.2666 1523.47L55.502 1508.49C47.5696 1508.9 40.1109 1509.26 33.2246 1509.57C30.1039 1502.63 27.4541 1495.87 25.2324 1489.26L11.0156 1494.04C3.08549 1470.47 0.0888512 1448.52 0.414062 1428.23L15.4121 1428.47C15.7686 1406.23 20.4724 1386.05 27.1377 1367.9L13.0576 1362.73C21.7544 1339.05 33.4207 1319.05 43.0488 1302.89L55.9355 1310.57C62.3323 1299.83 68.9572 1289.02 72.5674 1279.99C77.1319 1272.02 81.7835 1263.24 86.4766 1253.8L73.0439 1247.12L73.041 1247.12C81.1108 1230.88 89.4241 1212.42 97.7422 1192.46L97.7432 1192.46L111.589 1198.23C119.02 1180.4 126.443 1161.42 133.696 1141.78L119.626 1136.59L119.624 1136.58C126.422 1118.19 133.08 1099.18 139.461 1080L139.462 1080L153.695 1084.73C160.071 1065.57 166.174 1046.21 171.869 1027.08L157.492 1022.8L157.491 1022.8C163.344 1003.14 168.762 983.727 173.597 965.011L173.598 965.012L188.121 968.764C193.469 948.06 198.128 928.139 201.892 909.61L187.191 906.624L187.189 906.623C191.708 884.377 194.895 864.265 196.397 847.37L196.399 847.371L211.341 848.7C212.413 836.647 212.713 825.652 211.95 816.283L211.846 814.858C211.373 807.71 211.691 800.271 212.711 792.611L197.844 790.631C200.144 773.355 205.548 755.824 212.604 738.962L212.604 738.963L226.442 744.753C233.161 728.698 241.522 713.133 250.169 698.961L237.364 691.149C248.152 673.468 259.217 658.135 267.964 646.792L279.841 655.951C284.719 649.626 288.843 644.595 291.727 641.167C293.054 639.589 294.118 638.353 294.869 637.49C294.98 637.419 295.097 637.345 295.219 637.268C296.583 636.408 298.633 635.136 301.3 633.54C306.636 630.347 314.427 625.865 324.119 620.791L317.162 607.502C334.863 598.236 358.663 587.085 385.449 577.993L390.271 592.197C412.14 584.774 435.737 578.892 459.296 576.671L457.888 561.738L457.887 561.737C482.774 559.391 507.916 560.855 531.466 568.47L526.852 582.742C537.248 586.104 547.228 590.78 556.641 597.009C558.221 598.055 561.367 601.574 565.063 609.868L578.762 603.762C584.2 615.964 588.579 632.232 592.089 649.812L577.382 652.749C580.366 667.694 582.724 683.741 584.568 699.092L599.46 697.303ZM293.257 638.523L293.256 638.524C293.255 638.524 293.253 638.525 293.253 638.526H293.252C293.252 638.525 293.254 638.524 293.257 638.523Z" fill="#4B1818" stroke="#FF0000" stroke-width="30" stroke-dasharray="60 60"/>
<line x1="228.5" y1="1517.5" x2="228.5" y2="200.5" stroke="white" stroke-width="15" stroke-linecap="round" stroke-dasharray="60 60"/>
<path d="M235.475 1374.06C245.766 1377.22 251.597 1388.39 248.43 1399.05C245.264 1409.7 234.324 1415.72 224.033 1412.56C213.742 1409.4 207.912 1398.23 211.079 1387.58C214.246 1376.92 225.184 1370.9 235.475 1374.06Z" fill="#FF0000" stroke="white" stroke-width="2"/>
<path d="M238.555 1363.7C254.388 1368.56 263.358 1385.75 258.486 1402.13C253.615 1418.52 236.786 1427.78 220.953 1422.92C205.12 1418.06 196.151 1400.88 201.023 1384.49C205.894 1368.1 222.722 1358.84 238.555 1363.7Z" stroke="#FF0000" stroke-width="3"/>
<path d="M585.475 217.064C595.766 220.224 601.597 231.393 598.43 242.046C595.264 252.7 584.324 258.718 574.033 255.558C563.742 252.397 557.912 241.229 561.079 230.576C564.246 219.922 575.184 213.904 585.475 217.064Z" fill="#FF0000" stroke="white" stroke-width="2"/>
<path d="M588.555 206.702C604.388 211.564 613.358 228.746 608.486 245.134C603.615 261.523 586.786 270.782 570.953 265.92C555.12 261.058 546.151 243.876 551.023 227.487C555.894 211.099 572.722 201.839 588.555 206.702Z" stroke="#FF0000" stroke-width="3"/>
<path d="M228.5 724.5V1400.5L422 754.5C393.5 698.5 265 689.5 228.5 724.5Z" fill="#CC0707" fill-opacity="0.41" stroke="#FF0000" stroke-width="3"/>
<line x1="577.394" y1="236.72" x2="229.394" y2="1394.72" stroke="#FF0000" stroke-width="5"/>
</svg>
