<svg width="394" height="286" viewBox="0 0 394 286" fill="none" xmlns="http://www.w3.org/2000/svg">
<path d="M91.0551 63H294.984L394 285.5H0L91.0551 63Z" fill="url(#paint0_linear_71_8)"/>
<path d="M91.0551 63H294.984L394 285.5H0L91.0551 63Z" fill="url(#paint1_linear_71_8)"/>
<path d="M197 105C197 105 197 155.631 197 187" stroke="#B3FF00" stroke-width="2" stroke-dasharray="5 5"/>
<path d="M197 186L91 63L295 64L197 186Z" fill="url(#paint2_linear_71_8)" fill-opacity="0.2" stroke="white" stroke-opacity="0.5"/>
<path d="M217.625 37.324C217.598 37.2888 217.566 37.2537 217.531 37.2224C217.43 37.1326 216.531 36.324 215.406 36.2498L215.098 36.2224C214.437 36.1599 213.207 36.0389 212.941 37.7849C212.871 38.2654 212.777 38.574 212.691 38.8747C212.57 39.2849 212.457 39.6716 212.457 40.2731C212.438 40.6169 211.297 41.6364 210.129 41.9137C209.926 41.9606 209.715 42.0114 209.5 42.0583C209.379 39.2263 208.469 36.9606 208.098 36.1481C208.563 34.4919 208.879 33.2536 208.602 32.0817C208.215 30.4255 206.078 28.1872 205.242 27.3629C205.699 26.5621 206.383 25.8902 206.723 25.7848C206.945 25.7145 207.293 25.7848 207.606 25.8434C208.082 25.9332 208.629 26.0387 209.063 25.6793C209.242 25.5309 209.453 25.2535 209.453 24.7652C209.453 24.3512 209.664 23.9723 209.906 23.5386C210.047 23.2926 210.18 23.0465 210.281 22.8004C210.504 22.2691 210.445 21.8433 210.41 21.5895C210.41 21.5817 210.41 21.5777 210.406 21.5699C210.668 21.3043 210.828 20.9527 210.856 20.566C210.891 20.0582 210.699 19.523 210.328 19.0972C210.215 18.9683 210.113 18.8785 209.965 18.7574C209.934 18.7027 209.863 18.4566 209.82 17.4254C209.738 15.3942 208.024 14.1012 207.469 13.734C207.102 13.2145 205.914 11.9645 203.215 12.1832C201.356 12.3394 198.785 13.2887 197.668 15.4566C196.723 17.2925 197.012 19.5425 198.527 22.1363C198.582 22.3902 198.715 23.1871 198.445 23.6793C198.188 23.6051 197.891 23.5855 197.559 23.6754C197 23.8238 196.258 24.0269 195.953 24.5816C195.563 24.6559 194.754 24.8785 193.629 25.5348C193.258 25.7535 192.895 25.8082 192.438 25.8824C191.48 26.0348 190.297 26.2223 188.715 27.9097C186.008 28.816 178.18 31.6831 177.985 34.4566C177.829 36.7144 179.93 41.7105 181.915 46.2186L182.383 47.2889C182.895 48.4725 182.852 49.0858 182.809 49.7342C182.762 50.3944 182.711 51.1444 183.305 52.2264C183.801 53.1327 184.571 54.5389 185.715 54.5389C185.969 54.5389 186.239 54.4686 186.528 54.3124C186.633 54.2577 187.02 54.1717 187.305 54.1053C187.415 54.0819 187.532 54.0545 187.645 54.0272C187.098 55.2967 186.477 56.8827 186.477 57.5702C186.477 58.4335 186.836 59.8163 188.911 60.4882C188.965 60.6054 189.055 60.7851 189.188 61.0195C188.676 62.125 187.059 65.8633 186.192 70.5664C186.161 70.7382 186.133 70.8867 186.102 71.0507C186.059 71.1523 186.04 71.2578 186.043 71.3671C185.184 75.9765 185.016 76.203 182.887 77.9648C182.231 78.5117 181.641 78.9375 181.075 79.3554C179.571 80.4531 178.153 81.4921 175.938 84.3242C174.915 85.6328 174.325 86.5976 173.852 87.375C172.977 88.8086 172.653 89.3438 170.684 90.082C168.106 91.0508 164.891 92.8672 164.325 94.8086C164.137 95.4532 164.247 96.0703 164.637 96.5977C165.313 97.5001 166.04 97.7579 166.626 97.9649C167.266 98.1915 167.653 98.3282 168.04 99.379C168.29 100.067 168.376 100.676 168.458 101.266C168.661 102.719 168.852 104.086 171.153 105.789C172.301 106.641 173.251 107.063 174.016 107.063C174.372 107.063 174.688 106.973 174.969 106.789C175.54 106.422 176.126 105.539 175.672 103.414C175.614 103.137 175.544 102.836 175.469 102.516C174.915 100.125 174.079 96.5157 175.786 94.1485C177.012 92.4454 181.059 89.3516 184.313 86.8673C186.653 85.0782 188.672 83.5353 189.672 82.5353C190.489 81.7189 190.997 81.3556 191.364 81.0861C192.227 80.4611 192.516 80.1876 193.403 78.008C193.922 76.7307 194.813 75.1603 195.672 73.6408C196.637 71.9377 197.497 70.4064 197.903 69.2189C199.391 70.4884 200.895 71.6837 202.809 72.6877C203.614 73.1095 205.493 74.0979 205.676 74.3283C205.68 74.3634 205.676 74.3986 205.676 74.4376V74.5548C205.669 74.6642 205.571 75.1056 205.477 75.5314C205.008 77.672 203.903 82.6916 204.43 87.4924C204.969 92.3674 203.532 95.633 203.141 96.4143C202.692 96.6916 201.954 97.4065 201.645 99.1643C201.567 99.6096 201.43 99.9651 201.293 100.309C200.696 101.852 200.856 102.731 203.391 103.852C204.77 104.461 205.626 104.617 206.309 104.742C207.153 104.895 207.665 104.989 208.856 105.996C210.012 106.973 211.59 107.328 213.044 107.328C214.122 107.328 215.129 107.133 215.848 106.852C217.122 106.352 217.462 105.653 217.52 105.153C217.653 104.035 216.637 103.289 215.352 102.344C214.02 101.367 212.364 100.149 211.247 98.1565C209.2 94.5042 210.387 90.1487 211.434 86.3045C212.481 82.4603 213.594 76.8006 213.661 75.3825C213.672 75.1247 213.708 74.8903 213.743 74.652C213.891 73.6364 214.055 72.4879 212.938 70.0973C211.657 67.3629 207.989 62.0504 205.176 59.3003C203.876 58.0308 203.2 57.2964 202.852 56.898C202.86 56.8707 202.88 56.8511 202.887 56.8238C202.946 56.5972 204.329 51.2183 204.571 48.9918C204.637 48.3629 204.813 47.777 205.044 47.1324C205.489 47.8668 206.126 48.5386 206.969 48.5386C208.583 48.5386 211.813 46.2378 213.469 44.7847C215.352 43.1402 215.7 42.9019 217.2 42.2339C217.919 41.9136 218.395 41.3784 218.575 40.687C218.946 39.2612 217.934 37.769 217.618 37.3432L217.625 37.324ZM209.055 19.957C209.098 19.9922 209.148 20.0351 209.199 20.0937C209.324 20.2343 209.359 20.375 209.336 20.5078C208.808 20.9582 208.882 21.5166 208.917 21.7841L208.918 21.789C208.919 21.794 208.919 21.799 208.92 21.8039C208.942 21.9704 208.955 22.0668 208.891 22.2148C208.809 22.4101 208.699 22.6015 208.594 22.7929C208.352 23.2226 208.063 23.7382 207.973 24.3671C207.945 24.3632 207.918 24.3554 207.895 24.3515L207.889 24.3504C207.452 24.2685 206.857 24.1569 206.277 24.3358C204.93 24.7577 202.746 27.492 203.402 29.6756C203.418 29.7303 203.449 29.7811 203.477 29.828C203.512 30.0624 203.562 30.3084 203.637 30.5624C203.672 30.6756 203.68 30.7616 203.684 30.8163C203.395 30.7967 202.602 30.4256 201.648 29.1288C199.871 26.7069 199.715 25.1366 199.715 25.1288C199.711 25.0741 199.699 25.0194 199.684 24.9686C199.66 24.8866 199.625 24.8006 199.586 24.7108C199.941 24.2499 200.102 23.6874 200.137 23.1366C200.84 22.8905 201.652 22.3905 201.969 21.5858C202.062 21.6092 202.144 21.6249 202.215 21.6366C202.273 21.6483 202.324 21.6561 202.363 21.6678C202.434 21.6913 202.508 21.6991 202.582 21.6991C202.91 21.6991 203.207 21.4881 203.309 21.16C203.43 20.7616 203.199 20.3358 202.801 20.2186C202.729 20.197 202.64 20.1787 202.538 20.1577C202.529 20.1559 202.521 20.154 202.512 20.1522C201.949 20.0428 201.601 19.9256 201.512 19.2577C201.476 19.0038 201.519 18.8983 201.531 18.8866C201.562 18.8553 201.707 18.828 201.797 18.8397C201.965 18.8631 202.133 18.8319 202.281 18.746C202.355 18.703 203.012 18.3163 203.531 17.5116C203.828 17.0545 205.109 16.246 206.074 15.9139C206.539 15.7537 206.863 15.5506 207.098 15.3435C207.601 15.7732 208.281 16.5271 208.316 17.488C208.379 19.0622 208.512 19.4997 209.051 19.9568L209.055 19.957ZM199.032 16.1523C199.813 14.6367 201.766 13.8281 203.356 13.6953C204.825 13.5703 205.594 13.9844 205.965 14.3008C205.872 14.3594 205.754 14.4219 205.579 14.4805C204.594 14.8203 202.86 15.7578 202.258 16.6875C202.059 16.9961 201.825 17.207 201.676 17.3242C201.348 17.3359 200.848 17.4257 200.461 17.8086C200.188 18.0781 199.887 18.5859 200.004 19.4609C200.086 20.0741 200.317 20.5039 200.594 20.8164C200.622 21.1601 200.278 21.4101 199.946 21.5703C199.93 21.5351 199.922 21.5 199.903 21.4687C198.622 19.3085 198.325 17.5195 199.028 16.1562L199.032 16.1523ZM186.981 52.6293C186.485 52.7426 186.094 52.8324 185.817 52.9809C185.77 53.0082 185.742 53.016 185.738 53.0199C185.668 52.9926 185.36 52.8051 184.645 51.5004C184.262 50.8051 184.289 50.4223 184.332 49.8402C184.383 49.1137 184.442 48.2152 183.785 46.6918L183.313 45.6098C183.312 45.6078 183.311 45.6058 183.31 45.6038C182.028 42.6913 179.364 36.6396 179.508 34.5628C179.594 33.3362 184.688 30.844 189.391 29.2855C189.516 29.2465 189.625 29.1722 189.715 29.0746C191.008 27.6449 191.824 27.516 192.688 27.3793C192.694 27.3783 192.7 27.3773 192.707 27.3762C193.218 27.295 193.797 27.2029 194.406 26.8441C195.414 26.2582 196.071 26.1019 196.274 26.0668C196.75 26.5941 197.297 27.309 197.75 29.0004C198.055 30.141 197.903 33.559 196.754 35.5004C196.364 36.1605 195.903 36.5629 195.391 36.6879C193.469 37.1605 192.074 36.6566 191.489 36.3715C191.399 35.6644 191.325 35.0746 191.27 34.6957C192.059 34.3441 192.774 34.0551 193.246 34.0199C193.84 33.9769 194.129 34.1293 194.16 34.2582C194.184 34.6761 194.559 34.9965 194.957 34.973C195.375 34.9496 195.696 34.5902 195.672 34.1761C195.664 34.0668 195.61 33.4964 195.086 33.0355C194.621 32.6293 193.965 32.4496 193.141 32.5121C192.291 32.5739 191.273 33.033 190.095 33.5644C190.082 33.5704 190.068 33.5764 190.055 33.5824C190.039 33.5896 190.023 33.5968 190.007 33.6041C188.671 34.2081 187.17 34.8871 186 34.8871C184.368 34.8871 183.844 34.5902 183.766 34.5355C183.512 34.2582 183.086 34.2074 182.774 34.4262C182.43 34.6683 182.348 35.1371 182.586 35.4809C182.692 35.6332 182.918 35.8324 183.332 36.0043C183.407 36.223 183.594 36.9184 183.637 38.4535C183.696 40.5824 183.856 42.7269 185.196 45.5316C186.2 47.6332 186.914 48.3285 187.551 48.9418C187.735 49.1176 187.914 49.2934 188.106 49.5082C188.903 50.4184 189.141 50.6918 189.051 51.7348C189.012 52.1645 187.59 52.4887 186.985 52.6254L186.981 52.6293ZM189.242 48.5121C189.024 48.2621 188.817 48.059 188.602 47.8559C188.008 47.2816 187.446 46.7387 186.563 44.8832C185.352 42.3441 185.207 40.4496 185.152 38.4144C185.129 37.5042 185.051 36.8402 184.965 36.3519C185.274 36.3792 185.606 36.3987 185.996 36.3987C187.223 36.3987 188.563 35.8909 189.824 35.3401C189.875 35.7347 189.938 36.2269 190.008 36.7893C190.004 36.8831 190.012 36.969 190.039 37.0589C190.289 39.098 190.586 41.7777 190.586 43.012C190.586 44.3597 190.004 47.1253 189.59 48.9222C189.481 48.7894 189.363 48.6565 189.238 48.5159L189.242 48.5121ZM174.164 105.504C174.16 105.508 173.68 105.75 172.071 104.559C170.281 103.235 170.16 102.363 169.977 101.043L169.976 101.039C169.887 100.403 169.785 99.682 169.481 98.844C168.852 97.1252 167.907 96.7893 167.149 96.5237C166.657 96.3518 166.27 96.2112 165.868 95.6799C165.778 95.5628 165.735 95.4378 165.797 95.2268C166.02 94.4612 167.328 93.3987 169.063 92.4768C169.352 92.6292 169.891 93.0042 169.977 93.7268C170.254 96.0471 171.45 97.6018 173.27 98.0823C173.309 99.7935 173.694 101.478 174.002 102.821C174.004 102.83 174.006 102.839 174.008 102.848C174.078 103.16 174.149 103.449 174.207 103.723C174.457 104.887 174.289 105.426 174.168 105.504L174.164 105.504ZM190.488 79.8481L190.484 79.8514C190.074 80.148 189.512 80.5545 188.613 81.4536C187.704 82.3629 185.696 83.9 183.551 85.5423C183.503 85.5791 183.455 85.6159 183.406 85.6528C183.394 85.6626 183.381 85.6725 183.368 85.6823C179.873 88.3548 175.925 91.3745 174.57 93.2544C173.852 94.2505 173.492 95.3794 173.348 96.5317C172.055 96.0239 171.613 94.6684 171.481 93.5473C171.383 92.7309 171.004 92.1567 170.594 91.7543C170.805 91.6645 171.016 91.5746 171.231 91.4926C173.688 90.5707 174.211 89.7153 175.16 88.1567C175.613 87.4145 176.18 86.4887 177.145 85.2465C179.227 82.5824 180.504 81.6488 181.981 80.5707C182.002 80.5552 182.023 80.5398 182.044 80.5243C182.61 80.1091 183.197 79.679 183.863 79.1254C186.102 77.2699 186.563 76.5668 187.274 73.016C188.274 73.8324 190.035 74.7113 193.024 74.7113C193.129 74.7113 193.242 74.7035 193.348 74.7035C192.828 75.6566 192.348 76.5902 192.008 77.4262C191.242 79.3012 191.098 79.4067 190.485 79.8481L190.488 79.8481ZM194.367 72.8833C194.32 72.9692 194.27 73.0552 194.223 73.1372C189.656 73.4966 188.043 71.813 187.625 71.2153C187.649 71.0864 187.672 70.9692 187.695 70.8364C188.375 67.1645 189.559 64.0395 190.227 62.4575C190.945 63.3364 192.012 64.4223 193.566 65.5981C194.719 66.4692 195.699 67.3012 196.637 68.1098C196.562 68.9887 195.356 71.1333 194.367 72.8833ZM214.469 103.551C214.477 103.557 214.485 103.563 214.493 103.569C215.089 104.008 216.059 104.722 216.032 104.954C216.012 105.016 215.754 105.321 214.93 105.555C213.403 105.997 211.102 105.891 209.844 104.829C208.415 103.622 207.68 103.438 206.594 103.243C205.954 103.126 205.231 102.993 204.016 102.458C202.376 101.731 202.407 101.649 202.719 100.848L202.721 100.843C202.865 100.469 203.044 100.006 203.149 99.4184C203.266 98.7505 203.45 98.3325 203.614 98.0746C203.934 98.4614 204.419 99.0121 205.126 99.7543C205.532 100.176 206.04 100.395 206.606 100.395C206.641 100.395 206.68 100.395 206.715 100.391C207.907 100.332 209.094 99.2895 209.782 98.5708C209.836 98.6762 209.879 98.7817 209.938 98.8833C211.215 101.161 213.094 102.543 214.465 103.551L214.469 103.551ZM212.258 74.4223C212.215 74.7114 212.176 74.9926 212.161 75.3051C212.106 76.4926 211.067 81.934 209.989 85.8951C209.075 89.2428 207.977 93.2896 209.141 97.0121C208.528 97.7777 207.368 98.8402 206.637 98.8793C206.458 98.8793 206.34 98.8363 206.215 98.7035C205.376 97.8285 204.872 97.2347 204.602 96.8949C205.169 95.7035 206.497 92.2933 205.95 87.3207C205.45 82.766 206.512 77.9223 206.969 75.8517C206.97 75.8472 206.971 75.8426 206.972 75.8381C207.142 75.0594 207.204 74.7758 207.204 74.4689C207.227 73.4807 206.813 73.0939 204.418 71.8127C206.208 71.2151 208.938 70.1018 210.375 68.5354C210.875 69.3597 211.293 70.1135 211.582 70.7307C212.507 72.7043 212.389 73.5381 212.264 74.4117C212.264 74.4165 212.263 74.4213 212.262 74.426L212.258 74.4223ZM204.13 60.3673C205.864 62.0626 207.934 64.7696 209.52 67.1837C208.348 68.9064 204.329 70.3087 202.586 70.7853C200.915 69.7775 199.54 68.6173 198.016 67.297C198.011 67.2925 198.006 67.288 198.001 67.2835C196.931 66.358 195.826 65.4015 194.481 64.3908C192.575 62.9533 191.481 61.676 190.891 60.8322C191.083 60.8439 191.274 60.8596 191.469 60.8596C194.251 60.8596 197.485 59.676 199.321 58.4299C200.169 57.8556 200.899 57.5939 201.407 57.4728C201.962 58.1955 203.13 59.383 204.133 60.3634L204.13 60.3673ZM203.075 48.8083C202.887 50.5388 201.919 54.488 201.563 55.906C200.895 56.0037 199.766 56.3005 198.469 57.1755C196.622 58.4294 193.215 59.5661 190.711 59.3083C188.915 59.1208 188.004 58.5349 188.004 57.5661C188.004 57.1091 188.848 55.0036 189.657 53.2614C190.141 52.9372 190.501 52.4997 190.559 51.8669C190.583 51.6091 190.583 51.3825 190.571 51.1716C190.606 51.113 190.637 51.0505 190.657 50.9802C190.715 50.7497 192.106 45.2771 192.106 43.0075C192.106 41.9294 191.903 39.8981 191.692 38.0622C192.641 38.3591 194.036 38.5778 195.751 38.1598C196.672 37.9333 197.45 37.3005 198.059 36.2731C199.387 34.0348 199.633 30.1793 199.215 28.609C198.762 26.902 198.192 25.9801 197.579 25.2496C197.688 25.2145 197.813 25.1793 197.965 25.1403C197.973 25.1364 197.981 25.1403 197.989 25.1403C198.047 25.2067 198.118 25.2614 198.192 25.3004C198.2 25.316 198.208 25.3317 198.215 25.3473C198.278 25.8082 198.622 27.5661 200.426 30.0231C201.774 31.8629 203.34 32.7067 204.418 32.1715C204.958 31.9059 205.418 31.2262 205.09 30.1324C204.989 29.7926 204.942 29.484 204.926 29.2066C205.903 30.2691 206.938 31.5933 207.129 32.4175C207.321 33.2456 207.047 34.2925 206.618 35.8198C206.563 35.9214 206.532 36.0268 206.528 36.1401C206.196 37.3081 205.793 38.7495 205.458 40.5463C205.016 42.9096 204.43 44.4525 203.958 45.6908C203.543 46.7728 203.188 47.7103 203.071 48.808L203.075 48.8083ZM212.481 43.6247C210.309 45.527 207.739 47.0036 206.977 47.0036C206.719 47.0036 206.137 46.1247 205.797 45.0974C206.188 43.9997 206.606 42.6521 206.946 40.8279C207.09 40.0506 207.25 39.3474 207.411 38.6951C207.7 39.6951 207.958 40.9685 207.993 42.3748C207.618 42.449 207.368 42.4998 207.364 42.4998L207.653 43.9881C207.653 43.9881 209.215 43.6873 210.477 43.3865C211.899 43.0467 213.969 41.6638 213.969 40.2732C213.969 40.1639 213.985 40.0818 213.997 39.992C214.329 41.0389 214.836 41.4764 215.04 41.6092C214.309 42.0506 213.672 42.5819 212.477 43.6287L212.481 43.6247ZM217.118 40.2849C217.079 40.4372 216.981 40.6599 216.594 40.8318C216.469 40.8865 216.36 40.9373 216.247 40.9919C216.247 40.7341 216.129 40.488 215.883 40.3513C215.879 40.3474 215.579 40.1169 215.376 39.3201C215.239 38.7654 215.485 38.5467 215.567 38.4881C215.766 38.367 215.879 38.1678 215.911 37.9529C216.141 38.0662 216.344 38.2068 216.454 38.2967C216.973 39.0115 217.235 39.8045 217.11 40.2889L217.118 40.2849Z" fill="white"/>
<path d="M212.258 74.4223C212.215 74.7114 212.176 74.9926 212.161 75.3051C212.106 76.4926 211.067 81.934 209.989 85.8951C209.075 89.2428 207.977 93.2896 209.141 97.0121C208.528 97.7777 207.368 98.8402 206.637 98.8793C206.458 98.8793 206.34 98.8363 206.215 98.7035C205.376 97.8285 204.872 97.2347 204.602 96.8949C205.169 95.7035 206.497 92.2933 205.95 87.3207C205.45 82.766 206.512 77.9223 206.969 75.8517L206.972 75.8381C207.142 75.0594 207.204 74.7758 207.204 74.4689C207.227 73.4807 206.813 73.0939 204.418 71.8127C206.208 71.2151 208.938 70.1018 210.375 68.5354C210.875 69.3597 211.293 70.1135 211.582 70.7307C212.507 72.7043 212.389 73.5381 212.264 74.4117L212.262 74.426L212.258 74.4223Z" fill="#545454"/>
<path d="M190.488 79.8481L190.484 79.8514C190.074 80.148 189.512 80.5545 188.613 81.4536C187.704 82.3629 185.696 83.9 183.551 85.5423L183.406 85.6528L183.368 85.6823C179.873 88.3548 175.925 91.3745 174.57 93.2544C173.852 94.2505 173.492 95.3794 173.348 96.5317C172.055 96.0239 171.613 94.6684 171.481 93.5473C171.383 92.7309 171.004 92.1567 170.594 91.7543C170.805 91.6645 171.016 91.5746 171.231 91.4926C173.688 90.5707 174.211 89.7153 175.16 88.1567C175.613 87.4145 176.18 86.4887 177.145 85.2465C179.227 82.5824 180.504 81.6488 181.981 80.5707L182.044 80.5243C182.61 80.1091 183.197 79.679 183.863 79.1254C186.102 77.2699 186.563 76.5668 187.274 73.016C188.274 73.8324 190.035 74.7113 193.024 74.7113C193.129 74.7113 193.242 74.7035 193.348 74.7035C192.828 75.6566 192.348 76.5902 192.008 77.4262C191.242 79.3012 191.098 79.4067 190.485 79.8481L190.488 79.8481Z" fill="#545454"/>
<path d="M194.367 72.8833C194.32 72.9692 194.27 73.0552 194.223 73.1372C189.656 73.4966 188.043 71.813 187.625 71.2153C187.649 71.0864 187.672 70.9692 187.695 70.8364C188.375 67.1645 189.559 64.0395 190.227 62.4575C190.945 63.3364 192.012 64.4223 193.566 65.5981C194.719 66.4692 195.699 67.3012 196.637 68.1098C196.562 68.9887 195.356 71.1333 194.367 72.8833Z" fill="#545454"/>
<path d="M204.13 60.3673C205.864 62.0626 207.934 64.7696 209.52 67.1837C208.348 68.9064 204.329 70.3087 202.586 70.7853C200.915 69.7775 199.54 68.6173 198.016 67.297L198.001 67.2835C196.931 66.358 195.826 65.4015 194.481 64.3908C192.575 62.9533 191.481 61.676 190.891 60.8322C191.083 60.8439 191.274 60.8596 191.469 60.8596C194.251 60.8596 197.485 59.676 199.321 58.4299C200.169 57.8556 200.899 57.5939 201.407 57.4728C201.962 58.1955 203.13 59.383 204.133 60.3634L204.13 60.3673Z" fill="#545454"/>
<path d="M174.164 105.504C174.16 105.508 173.68 105.75 172.071 104.559C170.281 103.235 170.16 102.363 169.977 101.043L169.976 101.039C169.887 100.403 169.785 99.682 169.481 98.844C168.852 97.1252 167.907 96.7893 167.149 96.5237C166.657 96.3518 166.27 96.2112 165.868 95.6799C165.778 95.5628 165.735 95.4378 165.797 95.2268C166.02 94.4612 167.328 93.3987 169.063 92.4768C169.352 92.6292 169.891 93.0042 169.977 93.7268C170.254 96.0471 171.45 97.6018 173.27 98.0823C173.309 99.7935 173.694 101.478 174.002 102.821L174.008 102.848C174.078 103.16 174.149 103.449 174.207 103.723C174.457 104.887 174.289 105.426 174.168 105.504L174.164 105.504Z" fill="#545454"/>
<path d="M214.469 103.551L214.493 103.569C215.089 104.008 216.059 104.722 216.032 104.954C216.012 105.016 215.754 105.321 214.93 105.555C213.403 105.997 211.102 105.891 209.844 104.829C208.415 103.622 207.68 103.438 206.594 103.243C205.954 103.126 205.231 102.993 204.016 102.458C202.376 101.731 202.407 101.649 202.719 100.848L202.721 100.843C202.865 100.469 203.044 100.006 203.149 99.4184C203.266 98.7505 203.45 98.3325 203.614 98.0746C203.934 98.4614 204.419 99.0121 205.126 99.7543C205.532 100.176 206.04 100.395 206.606 100.395C206.641 100.395 206.68 100.395 206.715 100.391C207.907 100.332 209.094 99.2895 209.782 98.5708C209.836 98.6762 209.879 98.7817 209.938 98.8833C211.215 101.161 213.094 102.543 214.465 103.551L214.469 103.551Z" fill="#545454"/>
<path d="M203.075 48.8083C202.887 50.5388 201.919 54.488 201.563 55.906C200.895 56.0037 199.766 56.3005 198.469 57.1755C196.622 58.4294 193.215 59.5661 190.711 59.3083C188.915 59.1208 188.004 58.5349 188.004 57.5661C188.004 57.1091 188.848 55.0036 189.657 53.2614C190.141 52.9372 190.501 52.4997 190.559 51.8669C190.583 51.6091 190.583 51.3825 190.571 51.1716C190.606 51.113 190.637 51.0505 190.657 50.9802C190.715 50.7497 192.106 45.2771 192.106 43.0075C192.106 41.9294 191.903 39.8981 191.692 38.0622C192.641 38.3591 194.036 38.5778 195.751 38.1598C196.672 37.9333 197.45 37.3005 198.059 36.2731C199.387 34.0348 199.633 30.1793 199.215 28.609C198.762 26.902 198.192 25.9801 197.579 25.2496C197.688 25.2145 197.813 25.1793 197.965 25.1403C197.973 25.1364 197.981 25.1403 197.989 25.1403C198.047 25.2067 198.118 25.2614 198.192 25.3004L198.215 25.3473C198.278 25.8082 198.622 27.5661 200.426 30.0231C201.774 31.8629 203.34 32.7067 204.418 32.1715C204.958 31.9059 205.418 31.2262 205.09 30.1324C204.989 29.7926 204.942 29.484 204.926 29.2066C205.903 30.2691 206.938 31.5933 207.129 32.4175C207.321 33.2456 207.047 34.2925 206.618 35.8198C206.563 35.9214 206.532 36.0268 206.528 36.1401C206.196 37.3081 205.793 38.7495 205.458 40.5463C205.016 42.9096 204.43 44.4525 203.958 45.6908C203.543 46.7728 203.188 47.7103 203.071 48.808L203.075 48.8083Z" fill="#545454"/>
<path d="M186.981 52.6293C186.485 52.7426 186.094 52.8324 185.817 52.9809C185.77 53.0082 185.742 53.016 185.738 53.0199C185.668 52.9926 185.36 52.8051 184.645 51.5004C184.262 50.8051 184.289 50.4223 184.332 49.8402C184.383 49.1137 184.442 48.2152 183.785 46.6918L183.313 45.6098L183.31 45.6038C182.028 42.6913 179.364 36.6396 179.508 34.5628C179.594 33.3362 184.688 30.844 189.391 29.2855C189.516 29.2465 189.625 29.1722 189.715 29.0746C191.008 27.6449 191.824 27.516 192.688 27.3793L192.707 27.3762C193.218 27.295 193.797 27.2029 194.406 26.8441C195.414 26.2582 196.071 26.1019 196.274 26.0668C196.75 26.5941 197.297 27.309 197.75 29.0004C198.055 30.141 197.903 33.559 196.754 35.5004C196.364 36.1605 195.903 36.5629 195.391 36.6879C193.469 37.1605 192.074 36.6566 191.489 36.3715C191.399 35.6644 191.325 35.0746 191.27 34.6957C192.059 34.3441 192.774 34.0551 193.246 34.0199C193.84 33.9769 194.129 34.1293 194.16 34.2582C194.184 34.6761 194.559 34.9965 194.957 34.973C195.375 34.9496 195.696 34.5902 195.672 34.1761C195.664 34.0668 195.61 33.4964 195.086 33.0355C194.621 32.6293 193.965 32.4496 193.141 32.5121C192.291 32.5739 191.273 33.033 190.095 33.5644L190.055 33.5824L190.007 33.6041C188.671 34.2081 187.17 34.8871 186 34.8871C184.368 34.8871 183.844 34.5902 183.766 34.5355C183.512 34.2582 183.086 34.2074 182.774 34.4262C182.43 34.6683 182.348 35.1371 182.586 35.4809C182.692 35.6332 182.918 35.8324 183.332 36.0043C183.407 36.223 183.594 36.9184 183.637 38.4535C183.696 40.5824 183.856 42.7269 185.196 45.5316C186.2 47.6332 186.914 48.3285 187.551 48.9418C187.735 49.1176 187.914 49.2934 188.106 49.5082C188.903 50.4184 189.141 50.6918 189.051 51.7348C189.012 52.1645 187.59 52.4887 186.985 52.6254L186.981 52.6293Z" fill="#545454"/>
<path d="M209.055 19.957C209.098 19.9922 209.148 20.0351 209.199 20.0937C209.324 20.2343 209.359 20.375 209.336 20.5078C208.808 20.9582 208.882 21.5166 208.917 21.7841L208.918 21.789L208.92 21.8039C208.942 21.9704 208.955 22.0668 208.891 22.2148C208.809 22.4101 208.699 22.6015 208.594 22.7929C208.352 23.2226 208.063 23.7382 207.973 24.3671C207.945 24.3632 207.918 24.3554 207.895 24.3515L207.889 24.3504C207.452 24.2685 206.857 24.1569 206.277 24.3358C204.93 24.7577 202.746 27.492 203.402 29.6756C203.418 29.7303 203.449 29.7811 203.477 29.828C203.512 30.0624 203.562 30.3084 203.637 30.5624C203.672 30.6756 203.68 30.7616 203.684 30.8163C203.395 30.7967 202.602 30.4256 201.648 29.1288C199.871 26.7069 199.715 25.1366 199.715 25.1288C199.711 25.0741 199.699 25.0194 199.684 24.9686C199.66 24.8866 199.625 24.8006 199.586 24.7108C199.941 24.2499 200.102 23.6874 200.137 23.1366C200.84 22.8905 201.652 22.3905 201.969 21.5858C202.062 21.6092 202.144 21.6249 202.215 21.6366C202.273 21.6483 202.324 21.6561 202.363 21.6678C202.434 21.6913 202.508 21.6991 202.582 21.6991C202.91 21.6991 203.207 21.4881 203.309 21.16C203.43 20.7616 203.199 20.3358 202.801 20.2186C202.729 20.197 202.64 20.1787 202.538 20.1577L202.512 20.1522C201.949 20.0428 201.601 19.9256 201.512 19.2577C201.476 19.0038 201.519 18.8983 201.531 18.8866C201.562 18.8553 201.707 18.828 201.797 18.8397C201.965 18.8631 202.133 18.8319 202.281 18.746C202.355 18.703 203.012 18.3163 203.531 17.5116C203.828 17.0545 205.109 16.246 206.074 15.9139C206.539 15.7537 206.863 15.5506 207.098 15.3435C207.601 15.7732 208.281 16.5271 208.316 17.488C208.379 19.0622 208.512 19.4997 209.051 19.9568L209.055 19.957Z" fill="#545454"/>
<path d="M199.032 16.1523C199.813 14.6367 201.766 13.8281 203.356 13.6953C204.825 13.5703 205.594 13.9844 205.965 14.3008C205.872 14.3594 205.754 14.4219 205.579 14.4805C204.594 14.8203 202.86 15.7578 202.258 16.6875C202.059 16.9961 201.825 17.207 201.676 17.3242C201.348 17.3359 200.848 17.4257 200.461 17.8086C200.188 18.0781 199.887 18.5859 200.004 19.4609C200.086 20.0741 200.317 20.5039 200.594 20.8164C200.622 21.1601 200.278 21.4101 199.946 21.5703C199.93 21.5351 199.922 21.5 199.903 21.4687C198.622 19.3085 198.325 17.5195 199.028 16.1562L199.032 16.1523Z" fill="#545454"/>
<path d="M212.481 43.6247C210.309 45.527 207.739 47.0036 206.977 47.0036C206.719 47.0036 206.137 46.1247 205.797 45.0974C206.188 43.9997 206.606 42.6521 206.946 40.8279C207.09 40.0506 207.25 39.3474 207.411 38.6951C207.7 39.6951 207.958 40.9685 207.993 42.3748C207.618 42.449 207.368 42.4998 207.364 42.4998L207.653 43.9881C207.653 43.9881 209.215 43.6873 210.477 43.3865C211.899 43.0467 213.969 41.6638 213.969 40.2732C213.969 40.1639 213.985 40.0818 213.997 39.992C214.329 41.0389 214.836 41.4764 215.04 41.6092C214.309 42.0506 213.672 42.5819 212.477 43.6287L212.481 43.6247Z" fill="#545454"/>
<path d="M217.118 40.2849C217.079 40.4372 216.981 40.6599 216.594 40.8318C216.469 40.8865 216.36 40.9373 216.247 40.9919C216.247 40.7341 216.129 40.488 215.883 40.3513C215.879 40.3474 215.579 40.1169 215.376 39.3201C215.239 38.7654 215.485 38.5467 215.567 38.4881C215.766 38.367 215.879 38.1678 215.911 37.9529C216.141 38.0662 216.344 38.2068 216.454 38.2967C216.973 39.0115 217.235 39.8045 217.11 40.2889L217.118 40.2849Z" fill="#545454"/>
<path d="M200.154 253.228V239.294C200.154 238.717 199.681 238.245 199.103 238.245C198.524 238.245 198.051 238.717 198.051 239.294V252.934H195.949V239.294C195.949 238.717 195.476 238.245 194.898 238.245C194.32 238.245 193.847 238.717 193.847 239.294V253.228C193.227 253.596 192.796 254.257 192.796 255.033V271.822C192.796 272.598 193.227 273.269 193.847 273.626V277.068C193.847 278.799 195.266 280.216 197 280.216C198.735 280.216 200.154 278.799 200.154 277.068V273.626C200.774 273.259 201.205 272.598 201.205 271.822V255.033C201.205 254.257 200.774 253.585 200.154 253.228ZM198.051 277.068C198.051 277.645 197.578 278.117 197 278.117C196.422 278.117 195.949 277.645 195.949 277.068V273.92H198.051V277.068ZM199.103 271.822H194.898V255.033H199.103V271.822Z" fill="white"/>
<path d="M191.219 244.016C190.714 243.722 190.073 243.9 189.779 244.404L182.662 256.691L180.844 255.642L190.01 239.787C190.304 239.284 190.126 238.644 189.621 238.35C189.116 238.056 188.475 238.235 188.181 238.738L178.868 254.844C178.689 254.844 178.51 254.855 178.332 254.907C177.785 255.054 177.333 255.39 177.049 255.883L172.834 263.165C172.54 263.669 172.719 264.309 173.223 264.603C173.728 264.896 174.369 264.718 174.663 264.214L178.878 256.943L182.515 259.042L174.106 273.574L170.469 271.476L172.561 267.856C172.855 267.352 172.677 266.712 172.172 266.418C171.667 266.124 171.026 266.303 170.732 266.806L168.63 270.437C168.251 271.098 168.293 271.885 168.64 272.514L166.916 275.494C166.044 276.995 166.569 278.926 168.073 279.796C168.567 280.08 169.113 280.216 169.639 280.216C170.732 280.216 171.794 279.649 172.372 278.642L174.096 275.673C174.821 275.673 175.525 275.295 175.914 274.623L179.961 267.625H189.611C190.189 267.625 190.662 267.153 190.662 266.575C190.662 265.998 190.189 265.526 189.611 265.526H181.17L182.379 263.428H189.61C190.189 263.428 190.662 262.955 190.662 262.378C190.662 261.801 190.189 261.329 189.61 261.329H183.598L184.323 260.07C184.702 259.398 184.66 258.611 184.313 257.992L191.576 245.453C191.87 244.95 191.692 244.31 191.187 244.016L191.219 244.016ZM170.585 277.592C170.29 278.096 169.649 278.264 169.145 277.981C168.64 277.687 168.472 277.047 168.756 276.543L170.332 273.825L172.151 274.875L170.574 277.592L170.585 277.592Z" fill="white"/>
<path d="M227.063 275.494L225.339 272.514C225.696 271.884 225.728 271.097 225.339 270.426L221.786 264.277C221.492 263.773 220.851 263.606 220.346 263.889C219.842 264.183 219.673 264.823 219.957 265.326L223.5 271.475L220.199 273.374L219.863 273.574L211.454 259.041L215.09 256.942L217.834 261.685C218.128 262.189 218.769 262.357 219.274 262.073C219.778 261.78 219.947 261.139 219.663 260.636L216.919 255.893C216.636 255.41 216.184 255.064 215.637 254.917C215.458 254.875 215.28 254.854 215.101 254.854L205.788 238.748C205.493 238.245 204.852 238.077 204.348 238.36C203.843 238.654 203.675 239.294 203.959 239.798L213.125 255.652L211.306 256.701L204.19 244.414C203.896 243.91 203.255 243.743 202.75 244.026C202.246 244.32 202.077 244.96 202.361 245.463L209.625 258.002C209.267 258.621 209.236 259.408 209.625 260.09L210.35 261.339H204.337C203.759 261.339 203.286 261.811 203.286 262.388C203.286 262.965 203.759 263.437 204.337 263.437H211.569L212.778 265.536H204.337C203.759 265.536 203.286 266.008 203.286 266.585C203.286 267.162 203.759 267.634 204.337 267.634H213.987L218.034 274.633C218.423 275.294 219.127 275.672 219.852 275.672L221.576 278.652C222.165 279.659 223.226 280.226 224.309 280.226C224.845 280.226 225.381 280.089 225.886 279.806C227.389 278.935 227.904 277.005 227.042 275.504L227.063 275.494ZM224.855 277.981C224.351 278.264 223.71 278.096 223.415 277.592L221.839 274.875L223.657 273.825L225.234 276.543C225.528 277.047 225.35 277.687 224.845 277.981L224.855 277.981Z" fill="white"/>
<path d="M187.54 225.653H193.847V229.85H189.642C187.908 229.85 186.489 231.267 186.489 232.998C186.489 234.729 187.908 236.146 189.642 236.146H204.358C206.093 236.146 207.512 234.729 207.512 232.998C207.512 231.267 206.093 229.85 204.358 229.85H200.154V225.653H206.461C208.195 225.653 209.614 224.237 209.614 222.505V220.407C209.614 218.676 208.195 217.259 206.461 217.259H194.898C194.32 217.259 193.847 217.731 193.847 218.308C193.847 218.885 194.32 219.358 194.898 219.358H206.461C207.039 219.358 207.512 219.83 207.512 220.407V222.505C207.512 223.083 207.039 223.555 206.461 223.555H187.54C186.962 223.555 186.489 223.083 186.489 222.505V220.407C186.489 219.83 186.962 219.358 187.54 219.358H190.694C191.272 219.358 191.745 218.885 191.745 218.308C191.745 217.731 191.272 217.259 190.694 217.259H187.54C185.806 217.259 184.387 218.676 184.387 220.407V222.505C184.387 224.237 185.806 225.653 187.54 225.653ZM195.949 225.653H198.051V229.85H195.949V225.653ZM199.103 231.949H204.358C204.936 231.949 205.409 232.421 205.409 232.998C205.409 233.575 204.936 234.047 204.358 234.047H189.642C189.064 234.047 188.591 233.575 188.591 232.998C188.591 232.421 189.064 231.949 189.642 231.949H199.103Z" fill="white"/>
<path d="M212.273 224.594L213.566 225.286L212.83 226.671C212.557 227.185 212.746 227.815 213.261 228.088L222.07 232.778C222.606 233.061 223.205 233.208 223.794 233.208C224.151 233.208 224.519 233.156 224.866 233.051C225.801 232.767 226.579 232.127 227.042 231.267C227.998 229.483 227.315 227.248 225.528 226.293L216.719 221.603C216.477 221.477 216.183 221.446 215.92 221.53C215.658 221.614 215.426 221.792 215.3 222.044L214.554 223.439L213.261 222.747C212.746 222.474 212.115 222.663 211.842 223.177C211.569 223.691 211.758 224.321 212.273 224.594ZM216.667 223.954L224.55 228.151C225.318 228.56 225.612 229.515 225.202 230.281C225.002 230.648 224.676 230.921 224.267 231.047C223.857 231.173 223.436 231.131 223.068 230.931L215.185 226.734L216.667 223.954Z" fill="white"/>
<path d="M214 210.075V198.934C214 198.421 213.8 197.929 213.443 197.567C213.087 197.204 212.603 197 212.099 197H182.901C182.397 197 181.913 197.204 181.557 197.567C181.2 197.929 181 198.421 181 198.934V210.075C181.002 210.586 181.204 211.076 181.56 211.437C181.916 211.797 182.398 212 182.901 212H212.099C212.602 212 213.084 211.797 213.44 211.437C213.796 211.076 213.998 210.586 214 210.075ZM213.391 202.093V206.913C213.386 206.956 213.366 206.995 213.334 207.024C213.303 207.053 213.262 207.068 213.22 207.068C213.178 207.068 213.137 207.053 213.106 207.024C213.074 206.995 213.054 206.956 213.05 206.913V202.093C213.054 202.051 213.074 202.011 213.106 201.983C213.137 201.954 213.178 201.938 213.22 201.938C213.262 201.938 213.303 201.954 213.334 201.983C213.366 202.011 213.386 202.051 213.391 202.093ZM213.157 199.577C213.157 199.65 213.135 199.722 213.095 199.783C213.054 199.844 212.997 199.891 212.93 199.919C212.864 199.946 212.79 199.953 212.72 199.939C212.649 199.924 212.584 199.889 212.533 199.837C212.482 199.785 212.448 199.718 212.434 199.646C212.42 199.574 212.427 199.5 212.455 199.432C212.483 199.364 212.53 199.306 212.59 199.265C212.65 199.225 212.72 199.203 212.792 199.203C212.84 199.203 212.888 199.213 212.932 199.231C212.977 199.25 213.017 199.278 213.051 199.313C213.085 199.347 213.112 199.389 213.13 199.434C213.148 199.479 213.158 199.528 213.157 199.577ZM183.737 211.624C183.578 211.624 183.426 211.56 183.314 211.446C183.201 211.331 183.138 211.176 183.138 211.015V197.994C183.138 197.833 183.201 197.678 183.314 197.563C183.426 197.449 183.578 197.385 183.737 197.385H211.301C211.379 197.385 211.457 197.4 211.53 197.431C211.603 197.461 211.669 197.506 211.725 197.563C211.781 197.619 211.825 197.686 211.855 197.76C211.886 197.835 211.901 197.914 211.901 197.994V211.013C211.901 211.174 211.838 211.329 211.726 211.443C211.614 211.557 211.462 211.622 211.303 211.622L183.737 211.624Z" fill="white"/>
<path d="M183.737 211.624C183.578 211.624 183.426 211.56 183.314 211.446C183.201 211.331 183.138 211.176 183.138 211.015V197.994C183.138 197.833 183.201 197.678 183.314 197.563C183.426 197.449 183.578 197.385 183.737 197.385H211.301C211.379 197.385 211.457 197.4 211.53 197.431C211.603 197.461 211.669 197.506 211.725 197.563C211.781 197.619 211.825 197.686 211.855 197.76C211.886 197.835 211.901 197.914 211.901 197.994V211.013C211.901 211.174 211.838 211.329 211.726 211.443C211.614 211.557 211.462 211.622 211.303 211.622L183.737 211.624Z" fill="white" fill-opacity="0.47"/>
<path d="M185.258 208.472V208.028C185.258 208.003 185.227 207.982 185.189 207.982H184.529C184.491 207.982 184.46 208.003 184.46 208.028V208.472C184.46 208.497 184.491 208.518 184.529 208.518H185.189C185.227 208.518 185.258 208.497 185.258 208.472Z" fill="white"/>
<path d="M185.249 200.375L184.922 199.72C184.916 199.707 184.907 199.697 184.896 199.69C184.884 199.682 184.871 199.679 184.858 199.679C184.845 199.679 184.832 199.682 184.821 199.69C184.81 199.697 184.801 199.707 184.795 199.72L184.468 200.375C184.463 200.385 184.46 200.397 184.46 200.41C184.46 200.422 184.463 200.434 184.468 200.445C184.474 200.455 184.482 200.464 184.491 200.471C184.501 200.477 184.512 200.481 184.524 200.482H185.206C185.217 200.479 185.226 200.474 185.234 200.467C185.242 200.459 185.249 200.45 185.253 200.44C185.257 200.429 185.259 200.418 185.258 200.407C185.257 200.395 185.254 200.384 185.249 200.375Z" fill="white"/>
<path d="M184.46 204.098C184.46 204.32 184.638 204.5 184.859 204.5C185.079 204.5 185.258 204.32 185.258 204.098C185.258 203.876 185.079 203.696 184.859 203.696C184.638 203.696 184.46 203.876 184.46 204.098Z" fill="white"/>
<path d="M185.258 204.098C185.258 204.019 185.235 203.941 185.191 203.875C185.147 203.809 185.085 203.757 185.012 203.727C184.939 203.697 184.858 203.689 184.781 203.704C184.704 203.72 184.632 203.758 184.577 203.814C184.521 203.87 184.483 203.942 184.467 204.02C184.452 204.098 184.46 204.179 184.49 204.252C184.52 204.325 184.571 204.388 184.637 204.432C184.703 204.476 184.78 204.5 184.859 204.5C184.965 204.5 185.066 204.458 185.141 204.382C185.216 204.307 185.258 204.205 185.258 204.098ZM184.554 204.098C184.554 204.038 184.572 203.978 184.605 203.928C184.639 203.877 184.686 203.838 184.742 203.815C184.798 203.791 184.859 203.785 184.918 203.797C184.978 203.809 185.032 203.838 185.075 203.881C185.117 203.924 185.146 203.979 185.158 204.038C185.17 204.098 185.164 204.16 185.141 204.216C185.118 204.272 185.078 204.32 185.028 204.353C184.978 204.387 184.919 204.405 184.859 204.405C184.778 204.405 184.701 204.372 184.644 204.315C184.588 204.257 184.556 204.179 184.556 204.098H184.554Z" fill="white"/>
<path d="M216.246 145.099C215.744 145.099 215.296 145.007 214.903 144.822C214.513 144.638 214.203 144.383 213.973 144.059C213.743 143.735 213.624 143.363 213.614 142.944H215.106C215.122 143.226 215.241 143.454 215.461 143.629C215.681 143.804 215.943 143.892 216.246 143.892C216.487 143.892 216.7 143.839 216.885 143.732C217.072 143.623 217.218 143.473 217.322 143.281C217.428 143.087 217.482 142.865 217.482 142.614C217.482 142.358 217.427 142.133 217.318 141.939C217.212 141.745 217.064 141.593 216.874 141.484C216.685 141.375 216.468 141.32 216.224 141.317C216.011 141.317 215.804 141.361 215.603 141.449C215.404 141.536 215.249 141.656 215.138 141.808L213.771 141.562L214.115 137.727H218.561V138.984H215.383L215.195 140.806H215.237C215.365 140.626 215.558 140.477 215.816 140.359C216.074 140.24 216.363 140.181 216.683 140.181C217.121 140.181 217.511 140.284 217.854 140.49C218.198 140.696 218.469 140.979 218.668 141.339C218.866 141.696 218.965 142.108 218.962 142.575C218.965 143.065 218.851 143.5 218.621 143.881C218.394 144.26 218.076 144.558 217.666 144.776C217.259 144.992 216.786 145.099 216.246 145.099ZM220.049 145V139.545H221.491V140.508H221.555C221.668 140.188 221.858 139.936 222.123 139.751C222.388 139.567 222.705 139.474 223.075 139.474C223.449 139.474 223.767 139.568 224.03 139.755C224.293 139.94 224.468 140.191 224.555 140.508H224.612C224.723 140.195 224.925 139.946 225.216 139.759C225.509 139.569 225.856 139.474 226.256 139.474C226.765 139.474 227.179 139.637 227.496 139.961C227.815 140.283 227.975 140.74 227.975 141.332V145H226.466V141.63C226.466 141.327 226.385 141.1 226.224 140.948C226.063 140.797 225.862 140.721 225.621 140.721C225.346 140.721 225.132 140.808 224.978 140.984C224.824 141.156 224.747 141.385 224.747 141.669V145H223.281V141.598C223.281 141.33 223.204 141.117 223.05 140.959C222.898 140.8 222.698 140.721 222.45 140.721C222.281 140.721 222.13 140.763 221.995 140.849C221.862 140.932 221.757 141.049 221.679 141.2C221.601 141.349 221.562 141.525 221.562 141.726V145H220.049Z" fill="white"/>
<defs>
<linearGradient id="paint0_linear_71_8" x1="197" y1="-108.5" x2="197" y2="285.5" gradientUnits="userSpaceOnUse">
<stop offset="0.403846" stop-color="#001AFF" stop-opacity="0"/>
<stop offset="0.649038" stop-color="#0011AD" stop-opacity="0.34"/>
<stop offset="1" stop-color="#000F99"/>
</linearGradient>
<linearGradient id="paint1_linear_71_8" x1="197" y1="-108.5" x2="197" y2="285.5" gradientUnits="userSpaceOnUse">
<stop offset="0.403846" stop-color="#001AFF" stop-opacity="0"/>
<stop offset="0.649038" stop-color="#0011AD" stop-opacity="0.34"/>
<stop offset="1" stop-color="#000F99"/>
</linearGradient>
<linearGradient id="paint2_linear_71_8" x1="193" y1="63" x2="193" y2="186" gradientUnits="userSpaceOnUse">
<stop stop-color="#FF7700"/>
<stop offset="1" stop-color="#FFD900"/>
</linearGradient>
</defs>
</svg>
