<svg width="394" height="181" viewBox="0 0 394 181" fill="none" xmlns="http://www.w3.org/2000/svg">
<path d="M91.0551 108H294.984L394 181H0L91.0551 108Z" fill="url(#paint0_linear_71_19)"/>
<path d="M30 131.618L30 19.4722C30 14.3079 32.0208 9.35504 35.6179 5.70329C39.215 2.05153 44.0937 0 49.1808 0L343.819 0C348.906 0 353.785 2.05153 357.382 5.70329C360.979 9.35504 363 14.3079 363 19.4722V131.618C362.977 136.767 360.945 141.696 357.351 145.329C353.756 148.961 348.891 151 343.819 151L49.1808 151C44.1091 151 39.2438 148.961 35.6492 145.329C32.0547 141.696 30.0235 136.767 30 131.618ZM36.1494 51.2724L36.1494 99.7952C36.1975 100.224 36.3994 100.62 36.7168 100.908C37.0341 101.195 37.4445 101.354 37.8699 101.354C38.2953 101.354 38.7057 101.195 39.023 100.908C39.3404 100.62 39.5423 100.224 39.5904 99.7952L39.5904 51.2724C39.5423 50.8433 39.3404 50.4473 39.023 50.1597C38.7057 49.8721 38.2953 49.7132 37.8699 49.7132C37.4445 49.7132 37.0341 49.8721 36.7168 50.1597C36.3994 50.4473 36.1975 50.8433 36.1494 51.2724ZM38.5026 25.9404C38.507 26.6794 38.7268 27.4005 39.1344 28.0128C39.542 28.625 40.1191 29.101 40.7928 29.3807C41.4666 29.6605 42.2069 29.7313 42.9203 29.5844C43.6336 29.4376 44.2882 29.0795 44.8014 28.5554C45.3145 28.0313 45.6633 27.3646 45.8037 26.6395C45.9441 25.9144 45.8699 25.1634 45.5903 24.4811C45.3107 23.7988 44.8384 23.2158 44.2329 22.8057C43.6273 22.3956 42.9157 22.1767 42.1878 22.1767C41.702 22.1767 41.221 22.2742 40.7724 22.4636C40.3238 22.6531 39.9166 22.9306 39.5741 23.2804C39.2316 23.6302 38.9606 24.0453 38.7767 24.5018C38.5928 24.9583 38.4997 25.4473 38.5026 25.9404ZM335.383 147.214C336.985 147.214 338.521 146.568 339.653 145.418C340.785 144.269 341.422 142.709 341.422 141.084V10.0066C341.422 8.38075 340.785 6.82152 339.653 5.6719C338.521 4.52227 336.985 3.87642 335.383 3.87642L57.2394 3.87642C56.4446 3.87345 55.657 4.02982 54.9218 4.33656C54.1866 4.6433 53.5183 5.09438 52.9552 5.66391C52.3922 6.23344 51.9454 6.91023 51.6406 7.65544C51.3357 8.40066 51.1788 9.19964 51.1788 10.0066L51.1788 141.061C51.1788 142.687 51.815 144.246 52.9474 145.396C54.0798 146.545 55.6157 147.191 57.2172 147.191L335.383 147.214Z" fill="white"/>
<path d="M335.383 147.214C336.985 147.214 338.521 146.568 339.653 145.418C340.785 144.269 341.422 142.709 341.422 141.084V10.0066C341.422 8.38075 340.785 6.82152 339.653 5.6719C338.521 4.52227 336.985 3.87642 335.383 3.87642L57.2394 3.87642C56.4446 3.87345 55.657 4.02982 54.9218 4.33656C54.1866 4.6433 53.5183 5.09438 52.9552 5.66391C52.3922 6.23344 51.9454 6.91023 51.6406 7.65544C51.3357 8.40066 51.1788 9.19964 51.1788 10.0066L51.1788 141.061C51.1788 142.687 51.815 144.246 52.9474 145.396C54.0798 146.545 55.6157 147.191 57.2172 147.191L335.383 147.214Z" fill="white" fill-opacity="0.05"/>
<path d="M320.032 115.481V111.019C320.032 110.762 320.343 110.554 320.727 110.554H327.394C327.778 110.554 328.089 110.762 328.089 111.019V115.481C328.089 115.738 327.778 115.946 327.394 115.946H320.727C320.343 115.946 320.032 115.738 320.032 115.481Z" fill="white"/>
<path d="M320.128 33.9718L323.423 27.3765C323.485 27.2522 323.577 27.148 323.69 27.0754C323.804 27.0027 323.933 26.9642 324.066 26.9642C324.198 26.9642 324.328 27.0027 324.442 27.0754C324.555 27.148 324.647 27.2522 324.709 27.3765L328.004 33.9718C328.06 34.0796 328.089 34.2006 328.089 34.3234C328.089 34.4463 328.059 34.5671 328.003 34.6748C327.948 34.7825 327.867 34.8737 327.77 34.9398C327.672 35.006 327.56 35.0451 327.444 35.0535H320.556C320.452 35.0258 320.355 34.9728 320.273 34.8986C320.192 34.8244 320.128 34.7311 320.086 34.6262C320.045 34.5212 320.027 34.4074 320.034 34.2938C320.041 34.1802 320.073 34.0699 320.128 33.9718Z" fill="white"/>
<path d="M328.089 71.4553C328.089 73.6891 326.285 75.5 324.061 75.5C321.836 75.5 320.032 73.6891 320.032 71.4553C320.032 69.2215 321.836 67.4107 324.061 67.4107C326.285 67.4107 328.089 69.2215 328.089 71.4553Z" fill="white"/>
<path d="M320.032 71.4553C320.032 70.6554 320.269 69.8734 320.711 69.2082C321.154 68.5431 321.783 68.0247 322.519 67.7186C323.255 67.4124 324.065 67.3323 324.846 67.4884C325.628 67.6445 326.346 68.0297 326.909 68.5953C327.472 69.161 327.856 69.8817 328.011 70.6663C328.167 71.4508 328.087 72.2641 327.782 73.0031C327.477 73.7422 326.961 74.3739 326.298 74.8183C325.636 75.2627 324.857 75.5 324.061 75.5C322.992 75.5 321.968 75.0738 321.212 74.3153C320.457 73.5568 320.032 72.528 320.032 71.4553ZM327.138 71.4553C327.138 70.8442 326.957 70.2468 326.619 69.7387C326.281 69.2305 325.8 68.8345 325.238 68.6006C324.676 68.3668 324.057 68.3056 323.46 68.4248C322.863 68.544 322.315 68.8383 321.884 69.2704C321.454 69.7026 321.161 70.2531 321.042 70.8525C320.924 71.4519 320.984 72.0732 321.217 72.6378C321.45 73.2024 321.845 73.685 322.351 74.0245C322.857 74.364 323.452 74.5452 324.061 74.5452C324.874 74.5406 325.652 74.2131 326.225 73.6341C326.799 73.0551 327.121 72.2718 327.121 71.4553H327.138Z" fill="white"/>
<path d="M202.224 63.0392C202.203 63.0126 202.179 62.986 202.153 62.9623C202.076 62.8944 201.4 62.2826 200.552 62.2265L200.319 62.2058C199.822 62.1585 198.895 62.0669 198.695 63.3879C198.642 63.7514 198.571 63.9848 198.507 64.2124C198.415 64.5227 198.33 64.8152 198.33 65.2703C198.315 65.5304 197.456 66.3017 196.576 66.5115C196.423 66.5469 196.264 66.5854 196.102 66.6208C196.011 64.4783 195.325 62.7642 195.046 62.1495C195.396 60.8966 195.634 59.9597 195.425 59.0732C195.134 57.8202 193.524 56.1268 192.894 55.5032C193.239 54.8974 193.754 54.3891 194.01 54.3093C194.178 54.2561 194.44 54.3093 194.675 54.3537C195.034 54.4216 195.446 54.5014 195.773 54.2295C195.908 54.1172 196.067 53.9074 196.067 53.538C196.067 53.2248 196.226 52.9381 196.408 52.61C196.514 52.4239 196.614 52.2377 196.691 52.0515C196.859 51.6496 196.814 51.3275 196.788 51.1354C196.788 51.1295 196.788 51.1266 196.785 51.1206C196.982 50.9197 197.103 50.6537 197.123 50.3612C197.15 49.977 197.006 49.5721 196.726 49.25C196.641 49.1524 196.564 49.0845 196.452 48.9929C196.429 48.9515 196.376 48.7653 196.344 47.9851C196.282 46.4485 194.99 45.4703 194.572 45.1925C194.295 44.7994 193.401 43.8538 191.367 44.0192C189.966 44.1374 188.03 44.8556 187.188 46.4957C186.476 47.8846 186.694 49.5868 187.835 51.5491C187.877 51.7412 187.977 52.3441 187.774 52.7165C187.579 52.6603 187.356 52.6455 187.106 52.7135C186.685 52.8258 186.126 52.9795 185.896 53.3991C185.602 53.4553 184.993 53.6237 184.145 54.1202C183.865 54.2857 183.592 54.327 183.247 54.3832C182.526 54.4984 181.635 54.6403 180.443 55.9169C178.403 56.6025 172.506 58.7716 172.359 60.8699C172.241 62.578 173.824 66.3577 175.319 69.7683L175.673 70.578C176.058 71.4734 176.026 71.9374 175.993 72.428C175.958 72.9274 175.92 73.4948 176.367 74.3134C176.741 74.999 177.321 76.0629 178.183 76.0629C178.374 76.0629 178.577 76.0097 178.795 75.8915C178.875 75.8501 179.166 75.7851 179.381 75.7349C179.463 75.7171 179.551 75.6964 179.637 75.6758C179.225 76.6362 178.757 77.836 178.757 78.3562C178.757 79.0093 179.028 80.0554 180.59 80.5637C180.631 80.6524 180.699 80.7883 180.799 80.9656C180.414 81.802 179.195 84.6302 178.542 88.1882C178.518 88.3183 178.498 88.4306 178.474 88.5547C178.442 88.6315 178.427 88.7113 178.43 88.7941C177.783 92.2812 177.656 92.4526 176.052 93.7855C175.558 94.1992 175.113 94.5213 174.687 94.8375C173.554 95.6679 172.485 96.454 170.817 98.5966C170.046 99.5866 169.601 100.316 169.245 100.905C168.586 101.989 168.342 102.394 166.858 102.953C164.916 103.685 162.494 105.06 162.067 106.528C161.926 107.016 162.008 107.483 162.303 107.882C162.812 108.565 163.359 108.76 163.801 108.916C164.283 109.088 164.575 109.191 164.866 109.986C165.054 110.506 165.119 110.967 165.181 111.413C165.334 112.513 165.478 113.547 167.212 114.836C168.077 115.48 168.792 115.799 169.369 115.799C169.637 115.799 169.875 115.731 170.087 115.592C170.517 115.314 170.958 114.646 170.617 113.039C170.572 112.829 170.52 112.601 170.464 112.359C170.046 110.55 169.416 107.82 170.702 106.029C171.626 104.74 174.675 102.4 177.126 100.52C178.889 99.1669 180.411 97.9997 181.164 97.2431C181.779 96.6255 182.162 96.3507 182.438 96.1468C183.089 95.6739 183.307 95.4671 183.975 93.8181C184.366 92.8518 185.037 91.6637 185.685 90.5141C186.411 89.2257 187.059 88.0672 187.365 87.1688C188.486 88.1292 189.619 89.0335 191.061 89.7931C191.668 90.1122 193.083 90.8599 193.221 91.0342C193.224 91.0608 193.221 91.0874 193.221 91.117V91.2057C193.216 91.2884 193.142 91.6223 193.071 91.9445C192.718 93.5639 191.885 97.3614 192.283 100.993C192.689 104.682 191.606 107.152 191.311 107.743C190.973 107.953 190.417 108.494 190.184 109.824C190.125 110.161 190.022 110.429 189.919 110.689C189.469 111.857 189.59 112.522 191.5 113.37C192.539 113.831 193.183 113.949 193.698 114.044C194.334 114.159 194.719 114.23 195.617 114.992C196.488 115.731 197.677 116 198.772 116C199.584 116 200.343 115.852 200.885 115.639C201.844 115.261 202.1 114.732 202.145 114.354C202.245 113.509 201.479 112.944 200.511 112.229C199.508 111.49 198.26 110.568 197.418 109.061C195.876 106.298 196.771 103.003 197.559 100.095C198.348 97.1864 199.187 92.9046 199.237 91.8318C199.246 91.6367 199.272 91.4594 199.299 91.2792C199.411 90.5108 199.534 89.6419 198.692 87.8334C197.727 85.7647 194.964 81.7456 192.845 79.665C191.865 78.7046 191.356 78.149 191.094 77.8476C191.1 77.8269 191.114 77.8122 191.12 77.7915C191.164 77.6201 192.206 73.5507 192.389 71.8663C192.439 71.3905 192.571 70.9472 192.745 70.4596C193.08 71.0151 193.56 71.5234 194.196 71.5234C195.411 71.5234 197.845 69.7828 199.093 68.6834C200.511 67.4393 200.773 67.259 201.903 66.7537C202.445 66.5113 202.804 66.1065 202.939 65.5834C203.219 64.5047 202.457 63.3758 202.218 63.0537L202.224 63.0392ZM195.767 49.9004C195.799 49.927 195.837 49.9595 195.876 50.0038C195.97 50.1102 195.996 50.2166 195.979 50.3171C195.581 50.6578 195.637 51.0803 195.663 51.2827L195.664 51.2864C195.664 51.2902 195.665 51.2939 195.665 51.2977C195.682 51.4236 195.692 51.4965 195.643 51.6085C195.581 51.7562 195.499 51.901 195.419 52.0459C195.237 52.3709 195.019 52.761 194.952 53.2368C194.931 53.2338 194.91 53.2279 194.893 53.225L194.889 53.2242C194.559 53.1622 194.111 53.0778 193.674 53.2131C192.659 53.5323 191.014 55.6009 191.508 57.2529C191.52 57.2943 191.544 57.3327 191.564 57.3682C191.591 57.5455 191.629 57.7316 191.685 57.9237C191.711 58.0094 191.717 58.0745 191.72 58.1158C191.502 58.1011 190.905 57.8203 190.187 56.8392C188.848 55.0069 188.73 53.8189 188.73 53.813C188.727 53.7717 188.718 53.7303 188.707 53.6919C188.689 53.6298 188.662 53.5648 188.633 53.4968C188.901 53.1481 189.021 52.7226 189.048 52.3059C189.578 52.1197 190.19 51.7414 190.428 51.1326C190.499 51.1504 190.561 51.1622 190.614 51.1711C190.658 51.1799 190.696 51.1858 190.725 51.1947C190.778 51.2124 190.834 51.2183 190.89 51.2183C191.137 51.2183 191.361 51.0588 191.438 50.8105C191.529 50.5091 191.355 50.187 191.055 50.0983C191.001 50.082 190.934 50.0682 190.857 50.0522C190.851 50.0509 190.844 50.0495 190.837 50.0481C190.413 49.9653 190.151 49.8767 190.084 49.3713C190.057 49.1792 190.09 49.0995 190.099 49.0906C190.122 49.0669 190.231 49.0463 190.299 49.0551C190.425 49.0729 190.552 49.0492 190.664 48.9842C190.719 48.9517 191.214 48.6591 191.605 48.0503C191.829 47.7046 192.794 47.0929 193.521 46.8416C193.871 46.7204 194.116 46.5668 194.292 46.4102C194.672 46.7352 195.184 47.3056 195.21 48.0325C195.258 49.2235 195.358 49.5545 195.764 49.9003L195.767 49.9004ZM188.215 47.022C188.804 45.8754 190.276 45.2637 191.473 45.1632C192.58 45.0686 193.16 45.3819 193.439 45.6213C193.369 45.6656 193.28 45.7129 193.148 45.7572C192.406 46.0143 191.099 46.7235 190.646 47.4269C190.496 47.6603 190.32 47.8199 190.208 47.9086C189.961 47.9174 189.584 47.9854 189.293 48.275C189.087 48.4789 188.86 48.8631 188.948 49.5251C189.01 49.989 189.184 50.3141 189.393 50.5505C189.413 50.8106 189.154 50.9997 188.904 51.1209C188.892 51.0943 188.886 51.0677 188.872 51.0441C187.906 49.4098 187.683 48.0564 188.213 47.025L188.215 47.022ZM179.136 74.6182C178.762 74.7039 178.468 74.7719 178.259 74.8842C178.224 74.9049 178.203 74.9108 178.2 74.9137C178.147 74.893 177.915 74.7512 177.376 73.7642C177.088 73.2381 177.108 72.9485 177.141 72.5082C177.179 71.9585 177.223 71.2788 176.729 70.1263L176.373 69.3077C176.372 69.3062 176.371 69.3047 176.371 69.3032C175.405 67.0997 173.397 62.5214 173.506 60.9502C173.571 60.0223 177.409 58.1368 180.952 56.9578C181.046 56.9282 181.129 56.8721 181.196 56.7982C182.17 55.7166 182.785 55.6191 183.436 55.5156C183.441 55.5149 183.445 55.5141 183.45 55.5133C183.835 55.4519 184.272 55.3822 184.731 55.1108C185.49 54.6675 185.985 54.5493 186.138 54.5227C186.497 54.9216 186.909 55.4624 187.25 56.7421C187.48 57.605 187.365 60.1908 186.5 61.6595C186.205 62.159 185.858 62.4634 185.472 62.5579C184.024 62.9155 182.974 62.5343 182.532 62.3186C182.465 61.7837 182.409 61.3374 182.368 61.0507C182.962 60.7848 183.501 60.5661 183.857 60.5395C184.304 60.507 184.522 60.6222 184.545 60.7198C184.563 61.036 184.846 61.2783 185.146 61.2606C185.461 61.2428 185.702 60.971 185.684 60.6577C185.678 60.5749 185.637 60.1435 185.243 59.7948C184.893 59.4874 184.398 59.3515 183.777 59.3988C183.137 59.4455 182.37 59.7928 181.482 60.1949C181.472 60.1994 181.462 60.204 181.452 60.2085C181.44 60.214 181.428 60.2194 181.416 60.2249C180.41 60.6819 179.279 61.1956 178.398 61.1956C177.167 61.1956 176.773 60.971 176.714 60.9296C176.523 60.7198 176.202 60.6814 175.967 60.8468C175.708 61.0301 175.646 61.3847 175.825 61.6448C175.905 61.76 176.076 61.9107 176.388 62.0408C176.443 62.2063 176.585 62.7323 176.617 63.8937C176.661 65.5043 176.782 67.1267 177.791 69.2485C178.548 70.8385 179.086 71.3645 179.566 71.8285C179.704 71.9614 179.84 72.0944 179.984 72.257C180.584 72.9455 180.764 73.1524 180.696 73.9415C180.667 74.2666 179.595 74.5118 179.139 74.6153L179.136 74.6182ZM180.84 71.5034C180.675 71.3142 180.519 71.1606 180.358 71.0069C179.91 70.5725 179.486 70.1617 178.821 68.7579C177.909 66.837 177.8 65.4038 177.759 63.8641C177.741 63.1755 177.682 62.6731 177.618 62.3037C177.85 62.3244 178.1 62.3392 178.394 62.3392C179.319 62.3392 180.328 61.955 181.279 61.5383C181.317 61.8368 181.364 62.2091 181.417 62.6347C181.414 62.7056 181.42 62.7706 181.44 62.8386C181.629 64.3812 181.852 66.4085 181.852 67.3423C181.852 68.3619 181.414 70.4542 181.102 71.8136C181.02 71.7131 180.931 71.6127 180.837 71.5063L180.84 71.5034ZM169.48 114.62C169.478 114.623 169.116 114.806 167.903 113.905C166.555 112.903 166.464 112.244 166.326 111.245L166.325 111.242C166.258 110.761 166.181 110.215 165.952 109.581C165.478 108.281 164.766 108.027 164.195 107.826C163.824 107.696 163.533 107.589 163.23 107.188C163.162 107.099 163.13 107.004 163.177 106.845C163.344 106.266 164.33 105.462 165.637 104.764C165.855 104.88 166.261 105.163 166.326 105.71C166.535 107.465 167.435 108.642 168.807 109.005C168.836 110.3 169.126 111.574 169.358 112.59C169.36 112.597 169.361 112.604 169.363 112.61C169.416 112.847 169.469 113.066 169.513 113.272C169.701 114.153 169.575 114.561 169.483 114.62L169.48 114.62ZM181.779 95.2102L181.776 95.2127C181.467 95.4371 181.044 95.7446 180.366 96.4248C179.681 97.1128 178.168 98.2756 176.552 99.5181C176.516 99.5459 176.48 99.5738 176.443 99.6017C176.434 99.6091 176.424 99.6166 176.414 99.624C173.782 101.646 170.807 103.93 169.786 105.353C169.245 106.106 168.974 106.96 168.865 107.832C167.891 107.448 167.559 106.422 167.458 105.574C167.385 104.957 167.099 104.522 166.79 104.218C166.949 104.15 167.108 104.082 167.27 104.02C169.121 103.322 169.516 102.675 170.231 101.496C170.572 100.934 170.999 100.234 171.726 99.2943C173.294 97.2788 174.257 96.5725 175.369 95.7569C175.385 95.7452 175.401 95.7335 175.417 95.7218C175.843 95.4077 176.285 95.0823 176.788 94.6635C178.474 93.2597 178.821 92.7278 179.357 90.0415C180.11 90.6591 181.438 91.324 183.689 91.324C183.768 91.324 183.854 91.3181 183.933 91.3181C183.542 92.0392 183.18 92.7455 182.924 93.3779C182.347 94.7964 182.238 94.8763 181.776 95.2102L181.779 95.2102ZM184.701 89.9411C184.666 90.0061 184.628 90.0711 184.592 90.1332C181.152 90.4051 179.937 89.1314 179.622 88.6792C179.639 88.5817 179.657 88.493 179.675 88.3925C180.187 85.6146 181.078 83.2504 181.582 82.0536C182.123 82.7185 182.927 83.54 184.098 84.4296C184.966 85.0886 185.705 85.718 186.411 86.3298C186.355 86.9947 185.446 88.6171 184.701 89.9411ZM199.846 113.143C199.852 113.147 199.858 113.151 199.864 113.156C200.313 113.488 201.044 114.028 201.023 114.203C201.009 114.251 200.814 114.481 200.193 114.659C199.043 114.992 197.309 114.913 196.362 114.109C195.284 113.196 194.731 113.057 193.913 112.909C193.43 112.82 192.886 112.72 191.971 112.315C190.735 111.765 190.758 111.703 190.994 111.098L190.995 111.094C191.104 110.811 191.238 110.46 191.317 110.016C191.406 109.511 191.544 109.194 191.668 108.999C191.909 109.292 192.274 109.709 192.806 110.27C193.113 110.589 193.495 110.755 193.922 110.755C193.948 110.755 193.978 110.755 194.004 110.752C194.902 110.707 195.797 109.918 196.315 109.375C196.356 109.454 196.388 109.534 196.432 109.611C197.395 111.334 198.81 112.38 199.843 113.143L199.846 113.143ZM198.18 91.1054C198.148 91.3241 198.119 91.5369 198.107 91.7733C198.066 92.6717 197.283 96.7883 196.471 99.785C195.782 102.318 194.955 105.379 195.832 108.195C195.37 108.775 194.496 109.578 193.945 109.608C193.81 109.608 193.722 109.576 193.628 109.475C192.995 108.813 192.615 108.364 192.412 108.107C192.839 107.205 193.839 104.625 193.427 100.864C193.051 97.4177 193.851 93.7533 194.196 92.1868C194.196 92.1834 194.197 92.1799 194.198 92.1765C194.326 91.5874 194.372 91.3728 194.372 91.1407C194.39 90.393 194.078 90.1004 192.274 89.1312C193.622 88.679 195.679 87.8368 196.762 86.6518C197.138 87.2753 197.453 87.8457 197.671 88.3126C198.368 89.8057 198.278 90.4364 198.185 91.0974C198.184 91.101 198.184 91.1046 198.183 91.1082L198.18 91.1054ZM192.056 80.4723C193.363 81.7548 194.923 83.8028 196.117 85.6291C195.234 86.9324 192.206 87.9933 190.894 88.3539C189.634 87.5914 188.598 86.7137 187.45 85.7148C187.446 85.7115 187.443 85.7081 187.439 85.7047C186.633 85.0045 185.8 84.2808 184.787 83.5162C183.351 82.4287 182.527 81.4624 182.082 80.824C182.227 80.8329 182.371 80.8447 182.518 80.8447C184.613 80.8447 187.05 79.9492 188.433 79.0065C189.072 78.5721 189.622 78.3741 190.005 78.2825C190.423 78.8292 191.303 79.7276 192.059 80.4693L192.056 80.4723ZM191.261 71.7275C191.12 73.0367 190.39 76.0244 190.123 77.0971C189.619 77.171 188.769 77.3956 187.792 78.0576C186.4 79.0062 183.833 79.8661 181.947 79.6711C180.593 79.5293 179.908 79.086 179.908 78.3531C179.908 78.0073 180.543 76.4144 181.152 75.0964C181.517 74.8511 181.788 74.5201 181.832 74.0414C181.85 73.8464 181.85 73.675 181.841 73.5154C181.868 73.4711 181.891 73.4238 181.906 73.3706C181.95 73.1962 182.998 69.056 182.998 67.3389C182.998 66.5233 182.845 64.9866 182.686 63.5976C183.401 63.8222 184.451 63.9877 185.743 63.6715C186.438 63.5001 187.024 63.0214 187.483 62.2442C188.483 60.5508 188.669 57.634 188.354 56.446C188.012 55.1546 187.583 54.4571 187.121 53.9045C187.203 53.8779 187.297 53.8513 187.412 53.8217C187.418 53.8188 187.424 53.8217 187.43 53.8217C187.474 53.872 187.527 53.9133 187.583 53.9429C187.589 53.9547 187.594 53.9665 187.6 53.9784C187.647 54.3271 187.906 55.657 189.266 57.5158C190.281 58.9076 191.462 59.546 192.274 59.1411C192.68 58.9402 193.027 58.426 192.78 57.5985C192.703 57.3414 192.668 57.1079 192.656 56.8981C193.392 57.7019 194.172 58.7037 194.316 59.3272C194.46 59.9537 194.254 60.7457 193.931 61.9012C193.889 61.978 193.866 62.0578 193.863 62.1435C193.613 63.0272 193.31 64.1176 193.057 65.477C192.724 67.2649 192.283 68.4322 191.927 69.369C191.615 70.1876 191.347 70.8968 191.258 71.7273L191.261 71.7275ZM198.348 67.8059C196.712 69.245 194.775 70.3621 194.201 70.3621C194.007 70.3621 193.569 69.6972 193.313 68.92C193.607 68.0896 193.922 67.0701 194.178 65.69C194.287 65.1019 194.407 64.57 194.528 64.0765C194.746 64.833 194.94 65.7964 194.967 66.8603C194.684 66.9164 194.496 66.9549 194.493 66.9549L194.711 68.0808C194.711 68.0808 195.888 67.8533 196.838 67.6257C197.91 67.3686 199.469 66.3224 199.469 65.2704C199.469 65.1876 199.481 65.1256 199.49 65.0576C199.74 65.8496 200.123 66.1806 200.276 66.2811C199.725 66.615 199.246 67.0169 198.345 67.8089L198.348 67.8059ZM201.841 65.2792C201.812 65.3945 201.738 65.5629 201.447 65.6929C201.353 65.7343 201.27 65.7727 201.185 65.8141C201.185 65.6191 201.097 65.4329 200.911 65.3294C200.908 65.3265 200.682 65.1521 200.529 64.5493C200.426 64.1297 200.611 63.9642 200.673 63.9198C200.823 63.8282 200.908 63.6775 200.932 63.515C201.106 63.6007 201.259 63.7071 201.341 63.775C201.732 64.3158 201.93 64.9157 201.835 65.2822L201.841 65.2792Z" fill="white"/>
<path d="M198.18 91.1054C198.148 91.3241 198.119 91.5369 198.107 91.7733C198.066 92.6717 197.283 96.7883 196.471 99.785C195.782 102.318 194.955 105.379 195.832 108.195C195.37 108.775 194.496 109.578 193.945 109.608C193.81 109.608 193.722 109.576 193.628 109.475C192.995 108.813 192.615 108.364 192.412 108.107C192.839 107.205 193.839 104.625 193.427 100.864C193.051 97.4177 193.851 93.7533 194.196 92.1868L194.198 92.1765C194.326 91.5874 194.372 91.3728 194.372 91.1407C194.39 90.393 194.078 90.1004 192.274 89.1312C193.622 88.679 195.679 87.8368 196.762 86.6518C197.138 87.2753 197.453 87.8457 197.671 88.3126C198.368 89.8057 198.278 90.4364 198.185 91.0974L198.183 91.1082L198.18 91.1054Z" fill="#545454"/>
<path d="M181.779 95.2102L181.776 95.2127C181.467 95.4371 181.044 95.7446 180.366 96.4248C179.681 97.1128 178.168 98.2756 176.552 99.5181L176.443 99.6017L176.414 99.624C173.782 101.646 170.807 103.93 169.786 105.353C169.245 106.106 168.974 106.96 168.865 107.832C167.891 107.448 167.559 106.422 167.458 105.574C167.385 104.957 167.099 104.522 166.79 104.218C166.949 104.15 167.108 104.082 167.27 104.02C169.121 103.322 169.516 102.675 170.231 101.496C170.572 100.934 170.999 100.234 171.726 99.2943C173.294 97.2788 174.257 96.5725 175.369 95.7569L175.417 95.7218C175.843 95.4077 176.285 95.0823 176.788 94.6635C178.474 93.2597 178.821 92.7278 179.357 90.0415C180.11 90.6591 181.438 91.324 183.689 91.324C183.768 91.324 183.854 91.3181 183.933 91.3181C183.542 92.0392 183.18 92.7455 182.924 93.3779C182.347 94.7964 182.238 94.8763 181.776 95.2102L181.779 95.2102Z" fill="#545454"/>
<path d="M184.701 89.9411C184.666 90.0061 184.628 90.0711 184.592 90.1332C181.152 90.4051 179.937 89.1314 179.622 88.6792C179.639 88.5817 179.657 88.493 179.675 88.3925C180.187 85.6146 181.078 83.2504 181.582 82.0536C182.123 82.7185 182.927 83.54 184.098 84.4296C184.966 85.0886 185.705 85.718 186.411 86.3298C186.355 86.9947 185.446 88.6171 184.701 89.9411Z" fill="#545454"/>
<path d="M192.056 80.4723C193.363 81.7548 194.923 83.8028 196.117 85.6291C195.234 86.9324 192.206 87.9933 190.894 88.3539C189.634 87.5914 188.598 86.7137 187.45 85.7148L187.439 85.7047C186.633 85.0045 185.8 84.2808 184.787 83.5162C183.351 82.4287 182.527 81.4624 182.082 80.824C182.227 80.8329 182.371 80.8447 182.518 80.8447C184.613 80.8447 187.05 79.9492 188.433 79.0065C189.072 78.5721 189.622 78.3741 190.005 78.2825C190.423 78.8292 191.303 79.7276 192.059 80.4693L192.056 80.4723Z" fill="#545454"/>
<path d="M169.48 114.62C169.478 114.623 169.116 114.806 167.903 113.905C166.555 112.903 166.464 112.244 166.326 111.245L166.325 111.242C166.258 110.761 166.181 110.215 165.952 109.581C165.478 108.281 164.766 108.027 164.195 107.826C163.824 107.696 163.533 107.589 163.23 107.188C163.162 107.099 163.13 107.004 163.177 106.845C163.344 106.266 164.33 105.462 165.637 104.764C165.855 104.88 166.261 105.163 166.326 105.71C166.535 107.465 167.435 108.642 168.807 109.005C168.836 110.3 169.126 111.574 169.358 112.59L169.363 112.61C169.416 112.847 169.469 113.066 169.513 113.272C169.701 114.153 169.575 114.561 169.483 114.62L169.48 114.62Z" fill="#545454"/>
<path d="M199.846 113.143L199.864 113.156C200.313 113.488 201.044 114.028 201.023 114.203C201.009 114.251 200.814 114.481 200.193 114.659C199.043 114.992 197.309 114.913 196.362 114.109C195.284 113.196 194.731 113.057 193.913 112.909C193.43 112.82 192.886 112.72 191.971 112.315C190.735 111.765 190.758 111.703 190.994 111.098L190.995 111.094C191.104 110.811 191.238 110.46 191.317 110.016C191.406 109.511 191.544 109.194 191.668 108.999C191.909 109.292 192.274 109.709 192.806 110.27C193.113 110.589 193.495 110.755 193.922 110.755C193.948 110.755 193.978 110.755 194.004 110.752C194.902 110.707 195.797 109.918 196.315 109.375C196.356 109.454 196.388 109.534 196.432 109.611C197.395 111.334 198.81 112.38 199.843 113.143L199.846 113.143Z" fill="#545454"/>
<path d="M191.261 71.7275C191.12 73.0367 190.39 76.0244 190.123 77.0971C189.619 77.171 188.769 77.3956 187.792 78.0576C186.4 79.0062 183.833 79.8661 181.947 79.6711C180.593 79.5293 179.908 79.086 179.908 78.3531C179.908 78.0073 180.543 76.4144 181.152 75.0964C181.517 74.8511 181.788 74.5201 181.832 74.0414C181.85 73.8464 181.85 73.675 181.841 73.5154C181.868 73.4711 181.891 73.4238 181.906 73.3706C181.95 73.1962 182.998 69.056 182.998 67.3389C182.998 66.5233 182.845 64.9866 182.686 63.5976C183.401 63.8222 184.451 63.9877 185.743 63.6715C186.438 63.5001 187.024 63.0214 187.483 62.2442C188.483 60.5508 188.669 57.634 188.354 56.446C188.012 55.1546 187.583 54.4571 187.121 53.9045C187.203 53.8779 187.297 53.8513 187.412 53.8217C187.418 53.8188 187.424 53.8217 187.43 53.8217C187.474 53.872 187.527 53.9133 187.583 53.9429L187.6 53.9784C187.647 54.3271 187.906 55.657 189.266 57.5158C190.281 58.9076 191.462 59.546 192.274 59.1411C192.68 58.9402 193.027 58.426 192.78 57.5985C192.703 57.3414 192.668 57.1079 192.656 56.8981C193.392 57.7019 194.172 58.7037 194.316 59.3272C194.46 59.9537 194.254 60.7457 193.931 61.9012C193.889 61.978 193.866 62.0578 193.863 62.1435C193.613 63.0272 193.31 64.1176 193.057 65.477C192.724 67.2649 192.283 68.4322 191.927 69.369C191.615 70.1876 191.347 70.8968 191.258 71.7273L191.261 71.7275Z" fill="#545454"/>
<path d="M179.136 74.6182C178.762 74.7039 178.468 74.7719 178.259 74.8842C178.224 74.9049 178.203 74.9108 178.2 74.9137C178.147 74.893 177.915 74.7512 177.376 73.7642C177.088 73.2381 177.108 72.9485 177.141 72.5082C177.179 71.9585 177.223 71.2788 176.729 70.1263L176.373 69.3077L176.371 69.3032C175.405 67.0997 173.397 62.5214 173.506 60.9502C173.571 60.0223 177.409 58.1368 180.952 56.9578C181.046 56.9282 181.129 56.8721 181.196 56.7982C182.17 55.7166 182.785 55.6191 183.436 55.5156L183.45 55.5133C183.835 55.4519 184.272 55.3822 184.731 55.1108C185.49 54.6675 185.985 54.5493 186.138 54.5227C186.497 54.9216 186.909 55.4624 187.25 56.7421C187.48 57.605 187.365 60.1908 186.5 61.6595C186.205 62.159 185.858 62.4634 185.472 62.5579C184.024 62.9155 182.974 62.5343 182.532 62.3186C182.465 61.7837 182.409 61.3374 182.368 61.0507C182.962 60.7848 183.501 60.5661 183.857 60.5395C184.304 60.507 184.522 60.6222 184.545 60.7198C184.563 61.036 184.846 61.2783 185.146 61.2606C185.461 61.2428 185.702 60.971 185.684 60.6577C185.678 60.5749 185.637 60.1435 185.243 59.7948C184.893 59.4874 184.398 59.3515 183.777 59.3988C183.137 59.4455 182.37 59.7928 181.482 60.1949L181.452 60.2085L181.416 60.2249C180.41 60.6819 179.279 61.1956 178.398 61.1956C177.167 61.1956 176.773 60.971 176.714 60.9296C176.523 60.7198 176.202 60.6814 175.967 60.8468C175.708 61.0301 175.646 61.3847 175.825 61.6448C175.905 61.76 176.076 61.9107 176.388 62.0408C176.443 62.2063 176.585 62.7323 176.617 63.8937C176.661 65.5043 176.782 67.1267 177.791 69.2485C178.548 70.8385 179.086 71.3645 179.566 71.8285C179.704 71.9614 179.84 72.0944 179.984 72.257C180.584 72.9455 180.764 73.1524 180.696 73.9415C180.667 74.2666 179.595 74.5118 179.139 74.6153L179.136 74.6182Z" fill="#545454"/>
<path d="M195.767 49.9004C195.799 49.927 195.837 49.9595 195.876 50.0038C195.97 50.1102 195.996 50.2166 195.979 50.3171C195.581 50.6578 195.637 51.0803 195.663 51.2827L195.664 51.2864L195.665 51.2977C195.682 51.4236 195.692 51.4965 195.643 51.6085C195.581 51.7562 195.499 51.901 195.419 52.0459C195.237 52.3709 195.019 52.761 194.952 53.2368C194.931 53.2338 194.91 53.2279 194.893 53.225L194.889 53.2242C194.559 53.1622 194.111 53.0778 193.674 53.2131C192.659 53.5323 191.014 55.6009 191.508 57.2529C191.52 57.2943 191.544 57.3327 191.564 57.3682C191.591 57.5455 191.629 57.7316 191.685 57.9237C191.711 58.0094 191.717 58.0745 191.72 58.1158C191.502 58.1011 190.905 57.8203 190.187 56.8392C188.848 55.0069 188.73 53.8189 188.73 53.813C188.727 53.7717 188.718 53.7303 188.707 53.6919C188.689 53.6298 188.662 53.5648 188.633 53.4968C188.901 53.1481 189.021 52.7226 189.048 52.3059C189.578 52.1197 190.19 51.7414 190.428 51.1326C190.499 51.1504 190.561 51.1622 190.614 51.1711C190.658 51.1799 190.696 51.1858 190.725 51.1947C190.778 51.2124 190.834 51.2183 190.89 51.2183C191.137 51.2183 191.361 51.0588 191.438 50.8105C191.529 50.5091 191.355 50.187 191.055 50.0983C191.001 50.082 190.934 50.0682 190.857 50.0522L190.837 50.0481C190.413 49.9653 190.151 49.8767 190.084 49.3713C190.057 49.1792 190.09 49.0995 190.099 49.0906C190.122 49.0669 190.231 49.0463 190.299 49.0551C190.425 49.0729 190.552 49.0492 190.664 48.9842C190.719 48.9517 191.214 48.6591 191.605 48.0503C191.829 47.7046 192.794 47.0929 193.521 46.8416C193.871 46.7204 194.116 46.5668 194.292 46.4102C194.672 46.7352 195.184 47.3056 195.21 48.0325C195.258 49.2235 195.358 49.5545 195.764 49.9003L195.767 49.9004Z" fill="#545454"/>
<path d="M188.215 47.022C188.804 45.8754 190.276 45.2637 191.473 45.1632C192.58 45.0686 193.16 45.3819 193.439 45.6213C193.369 45.6656 193.28 45.7129 193.148 45.7572C192.406 46.0143 191.099 46.7235 190.646 47.4269C190.496 47.6603 190.32 47.8199 190.208 47.9086C189.961 47.9174 189.584 47.9854 189.293 48.275C189.087 48.4789 188.86 48.8631 188.948 49.5251C189.01 49.989 189.184 50.3141 189.393 50.5505C189.413 50.8106 189.154 50.9997 188.904 51.1209C188.892 51.0943 188.886 51.0677 188.872 51.0441C187.906 49.4098 187.683 48.0564 188.213 47.025L188.215 47.022Z" fill="#545454"/>
<path d="M198.348 67.8059C196.712 69.245 194.775 70.3621 194.201 70.3621C194.007 70.3621 193.569 69.6972 193.313 68.92C193.607 68.0896 193.922 67.0701 194.178 65.69C194.287 65.1019 194.407 64.57 194.528 64.0765C194.746 64.833 194.94 65.7964 194.967 66.8603C194.684 66.9164 194.496 66.9549 194.493 66.9549L194.711 68.0808C194.711 68.0808 195.888 67.8533 196.838 67.6257C197.91 67.3686 199.469 66.3224 199.469 65.2704C199.469 65.1876 199.481 65.1256 199.49 65.0576C199.74 65.8496 200.123 66.1806 200.276 66.2811C199.725 66.615 199.246 67.0169 198.345 67.8089L198.348 67.8059Z" fill="#545454"/>
<path d="M201.841 65.2792C201.812 65.3945 201.738 65.5629 201.447 65.6929C201.353 65.7343 201.27 65.7727 201.185 65.8141C201.185 65.6191 201.097 65.4329 200.911 65.3294C200.908 65.3265 200.682 65.1521 200.529 64.5493C200.426 64.1297 200.611 63.9642 200.673 63.9198C200.823 63.8282 200.908 63.6775 200.932 63.515C201.106 63.6007 201.259 63.7071 201.341 63.775C201.732 64.3158 201.93 64.9157 201.835 65.2822L201.841 65.2792Z" fill="#545454"/>
<g opacity="0.5">
<path d="M301.224 63.0392C301.203 63.0126 301.179 62.986 301.153 62.9623C301.076 62.8944 300.4 62.2826 299.552 62.2265L299.319 62.2058C298.822 62.1585 297.895 62.0669 297.695 63.3879C297.642 63.7514 297.571 63.9848 297.507 64.2124C297.415 64.5227 297.33 64.8152 297.33 65.2703C297.315 65.5304 296.456 66.3017 295.576 66.5115C295.423 66.5469 295.264 66.5854 295.102 66.6208C295.011 64.4783 294.325 62.7642 294.046 62.1495C294.396 60.8966 294.634 59.9597 294.425 59.0732C294.134 57.8202 292.524 56.1268 291.894 55.5032C292.239 54.8974 292.754 54.3891 293.01 54.3093C293.178 54.2561 293.44 54.3093 293.675 54.3537C294.034 54.4216 294.446 54.5014 294.773 54.2295C294.908 54.1172 295.067 53.9074 295.067 53.538C295.067 53.2248 295.226 52.9381 295.408 52.61C295.514 52.4239 295.614 52.2377 295.691 52.0515C295.859 51.6496 295.814 51.3275 295.788 51.1354C295.788 51.1295 295.788 51.1266 295.785 51.1206C295.982 50.9197 296.103 50.6537 296.123 50.3612C296.15 49.977 296.006 49.5721 295.726 49.25C295.641 49.1524 295.564 49.0845 295.452 48.9929C295.429 48.9515 295.376 48.7653 295.344 47.9851C295.282 46.4485 293.99 45.4703 293.572 45.1925C293.295 44.7994 292.401 43.8538 290.367 44.0192C288.966 44.1374 287.03 44.8556 286.188 46.4957C285.476 47.8846 285.694 49.5868 286.835 51.5491C286.877 51.7412 286.977 52.3441 286.774 52.7165C286.579 52.6603 286.356 52.6455 286.106 52.7135C285.685 52.8258 285.126 52.9795 284.896 53.3991C284.602 53.4553 283.993 53.6237 283.145 54.1202C282.865 54.2857 282.592 54.327 282.247 54.3832C281.526 54.4984 280.635 54.6403 279.443 55.9169C277.403 56.6025 271.506 58.7716 271.359 60.8699C271.241 62.578 272.824 66.3577 274.319 69.7683L274.673 70.578C275.058 71.4734 275.026 71.9374 274.993 72.428C274.958 72.9274 274.92 73.4948 275.367 74.3134C275.741 74.999 276.321 76.0629 277.183 76.0629C277.374 76.0629 277.577 76.0097 277.795 75.8915C277.875 75.8501 278.166 75.7851 278.381 75.7349C278.463 75.7171 278.551 75.6964 278.637 75.6758C278.225 76.6362 277.757 77.836 277.757 78.3562C277.757 79.0093 278.028 80.0554 279.59 80.5637C279.631 80.6524 279.699 80.7883 279.799 80.9656C279.414 81.802 278.195 84.6302 277.542 88.1882C277.518 88.3183 277.498 88.4306 277.474 88.5547C277.442 88.6315 277.427 88.7113 277.43 88.7941C276.783 92.2812 276.656 92.4526 275.052 93.7855C274.558 94.1992 274.113 94.5213 273.687 94.8375C272.554 95.6679 271.485 96.454 269.817 98.5966C269.046 99.5866 268.601 100.316 268.245 100.905C267.586 101.989 267.342 102.394 265.858 102.953C263.916 103.685 261.494 105.06 261.067 106.528C260.926 107.016 261.008 107.483 261.303 107.882C261.812 108.565 262.359 108.76 262.801 108.916C263.283 109.088 263.575 109.191 263.866 109.986C264.054 110.506 264.119 110.967 264.181 111.413C264.334 112.513 264.478 113.547 266.212 114.836C267.077 115.48 267.792 115.799 268.369 115.799C268.637 115.799 268.875 115.731 269.087 115.592C269.517 115.314 269.958 114.646 269.617 113.039C269.572 112.829 269.52 112.601 269.464 112.359C269.046 110.55 268.416 107.82 269.702 106.029C270.626 104.74 273.675 102.4 276.126 100.52C277.889 99.1669 279.411 97.9997 280.164 97.2431C280.779 96.6255 281.162 96.3507 281.438 96.1468C282.089 95.6739 282.307 95.4671 282.975 93.8181C283.366 92.8518 284.037 91.6637 284.685 90.5141C285.411 89.2257 286.059 88.0672 286.365 87.1688C287.486 88.1292 288.619 89.0335 290.061 89.7931C290.668 90.1122 292.083 90.8599 292.221 91.0342C292.224 91.0608 292.221 91.0874 292.221 91.117V91.2057C292.216 91.2884 292.142 91.6223 292.071 91.9445C291.718 93.5639 290.885 97.3614 291.283 100.993C291.689 104.682 290.606 107.152 290.311 107.743C289.973 107.953 289.417 108.494 289.184 109.824C289.125 110.161 289.022 110.429 288.919 110.689C288.469 111.857 288.59 112.522 290.5 113.37C291.539 113.831 292.183 113.949 292.698 114.044C293.334 114.159 293.719 114.23 294.617 114.992C295.488 115.731 296.677 116 297.772 116C298.584 116 299.343 115.852 299.885 115.639C300.844 115.261 301.1 114.732 301.145 114.354C301.245 113.509 300.479 112.944 299.511 112.229C298.508 111.49 297.26 110.568 296.418 109.061C294.876 106.298 295.771 103.003 296.559 100.095C297.348 97.1864 298.187 92.9046 298.237 91.8318C298.246 91.6367 298.272 91.4594 298.299 91.2792C298.411 90.5108 298.534 89.6419 297.692 87.8334C296.727 85.7647 293.964 81.7456 291.845 79.665C290.865 78.7046 290.356 78.149 290.094 77.8476C290.1 77.8269 290.114 77.8122 290.12 77.7915C290.164 77.6201 291.206 73.5507 291.389 71.8663C291.439 71.3905 291.571 70.9472 291.745 70.4596C292.08 71.0151 292.56 71.5234 293.196 71.5234C294.411 71.5234 296.845 69.7828 298.093 68.6834C299.511 67.4393 299.773 67.259 300.903 66.7537C301.445 66.5113 301.804 66.1065 301.939 65.5834C302.219 64.5047 301.457 63.3758 301.218 63.0537L301.224 63.0392ZM294.767 49.9004C294.799 49.927 294.837 49.9595 294.876 50.0038C294.97 50.1102 294.996 50.2166 294.979 50.3171C294.581 50.6578 294.637 51.0803 294.663 51.2827L294.664 51.2864C294.664 51.2902 294.665 51.2939 294.665 51.2977C294.682 51.4236 294.692 51.4965 294.643 51.6085C294.581 51.7562 294.499 51.901 294.419 52.0459C294.237 52.3709 294.019 52.761 293.952 53.2368C293.931 53.2338 293.91 53.2279 293.893 53.225L293.889 53.2242C293.559 53.1622 293.111 53.0778 292.674 53.2131C291.659 53.5323 290.014 55.6009 290.508 57.2529C290.52 57.2943 290.544 57.3327 290.564 57.3682C290.591 57.5455 290.629 57.7316 290.685 57.9237C290.711 58.0094 290.717 58.0745 290.72 58.1158C290.502 58.1011 289.905 57.8203 289.187 56.8392C287.848 55.0069 287.73 53.8189 287.73 53.813C287.727 53.7717 287.718 53.7303 287.707 53.6919C287.689 53.6298 287.662 53.5648 287.633 53.4968C287.901 53.1481 288.021 52.7226 288.048 52.3059C288.578 52.1197 289.19 51.7414 289.428 51.1326C289.499 51.1504 289.561 51.1622 289.614 51.1711C289.658 51.1799 289.696 51.1858 289.725 51.1947C289.778 51.2124 289.834 51.2183 289.89 51.2183C290.137 51.2183 290.361 51.0588 290.438 50.8105C290.529 50.5091 290.355 50.187 290.055 50.0983C290.001 50.082 289.934 50.0682 289.857 50.0522C289.851 50.0509 289.844 50.0495 289.837 50.0481C289.413 49.9653 289.151 49.8767 289.084 49.3713C289.057 49.1792 289.09 49.0995 289.099 49.0906C289.122 49.0669 289.231 49.0463 289.299 49.0551C289.425 49.0729 289.552 49.0492 289.664 48.9842C289.719 48.9517 290.214 48.6591 290.605 48.0503C290.829 47.7046 291.794 47.0929 292.521 46.8416C292.871 46.7204 293.116 46.5668 293.292 46.4102C293.672 46.7352 294.184 47.3056 294.21 48.0325C294.258 49.2235 294.358 49.5545 294.764 49.9003L294.767 49.9004ZM287.215 47.022C287.804 45.8754 289.276 45.2637 290.473 45.1632C291.58 45.0686 292.16 45.3819 292.439 45.6213C292.369 45.6656 292.28 45.7129 292.148 45.7572C291.406 46.0143 290.099 46.7235 289.646 47.4269C289.496 47.6603 289.32 47.8199 289.208 47.9086C288.961 47.9174 288.584 47.9854 288.293 48.275C288.087 48.4789 287.86 48.8631 287.948 49.5251C288.01 49.989 288.184 50.3141 288.393 50.5505C288.413 50.8106 288.154 50.9997 287.904 51.1209C287.892 51.0943 287.886 51.0677 287.872 51.0441C286.906 49.4098 286.683 48.0564 287.213 47.025L287.215 47.022ZM278.136 74.6182C277.762 74.7039 277.468 74.7719 277.259 74.8842C277.224 74.9049 277.203 74.9108 277.2 74.9137C277.147 74.893 276.915 74.7512 276.376 73.7642C276.088 73.2381 276.108 72.9485 276.141 72.5082C276.179 71.9585 276.223 71.2788 275.729 70.1263L275.373 69.3077C275.372 69.3062 275.371 69.3047 275.371 69.3032C274.405 67.0997 272.397 62.5214 272.506 60.9502C272.571 60.0223 276.409 58.1368 279.952 56.9578C280.046 56.9282 280.129 56.8721 280.196 56.7982C281.17 55.7166 281.785 55.6191 282.436 55.5156C282.441 55.5149 282.445 55.5141 282.45 55.5133C282.835 55.4519 283.272 55.3822 283.731 55.1108C284.49 54.6675 284.985 54.5493 285.138 54.5227C285.497 54.9216 285.909 55.4624 286.25 56.7421C286.48 57.605 286.365 60.1908 285.5 61.6595C285.205 62.159 284.858 62.4634 284.472 62.5579C283.024 62.9155 281.974 62.5343 281.532 62.3186C281.465 61.7837 281.409 61.3374 281.368 61.0507C281.962 60.7848 282.501 60.5661 282.857 60.5395C283.304 60.507 283.522 60.6222 283.545 60.7198C283.563 61.036 283.846 61.2783 284.146 61.2606C284.461 61.2428 284.702 60.971 284.684 60.6577C284.678 60.5749 284.637 60.1435 284.243 59.7948C283.893 59.4874 283.398 59.3515 282.777 59.3988C282.137 59.4455 281.37 59.7928 280.482 60.1949C280.472 60.1994 280.462 60.204 280.452 60.2085C280.44 60.214 280.428 60.2194 280.416 60.2249C279.41 60.6819 278.279 61.1956 277.398 61.1956C276.167 61.1956 275.773 60.971 275.714 60.9296C275.523 60.7198 275.202 60.6814 274.967 60.8468C274.708 61.0301 274.646 61.3847 274.825 61.6448C274.905 61.76 275.076 61.9107 275.388 62.0408C275.443 62.2063 275.585 62.7323 275.617 63.8937C275.661 65.5043 275.782 67.1267 276.791 69.2485C277.548 70.8385 278.086 71.3645 278.566 71.8285C278.704 71.9614 278.84 72.0944 278.984 72.257C279.584 72.9455 279.764 73.1524 279.696 73.9415C279.667 74.2666 278.595 74.5118 278.139 74.6153L278.136 74.6182ZM279.84 71.5034C279.675 71.3142 279.519 71.1606 279.358 71.0069C278.91 70.5725 278.486 70.1617 277.821 68.7579C276.909 66.837 276.8 65.4038 276.759 63.8641C276.741 63.1755 276.682 62.6731 276.618 62.3037C276.85 62.3244 277.1 62.3392 277.394 62.3392C278.319 62.3392 279.328 61.955 280.279 61.5383C280.317 61.8368 280.364 62.2091 280.417 62.6347C280.414 62.7056 280.42 62.7706 280.44 62.8386C280.629 64.3812 280.852 66.4085 280.852 67.3423C280.852 68.3619 280.414 70.4542 280.102 71.8136C280.02 71.7131 279.931 71.6127 279.837 71.5063L279.84 71.5034ZM268.48 114.62C268.478 114.623 268.116 114.806 266.903 113.905C265.555 112.903 265.464 112.244 265.326 111.245L265.325 111.242C265.258 110.761 265.181 110.215 264.952 109.581C264.478 108.281 263.766 108.027 263.195 107.826C262.824 107.696 262.533 107.589 262.23 107.188C262.162 107.099 262.13 107.004 262.177 106.845C262.344 106.266 263.33 105.462 264.637 104.764C264.855 104.88 265.261 105.163 265.326 105.71C265.535 107.465 266.435 108.642 267.807 109.005C267.836 110.3 268.126 111.574 268.358 112.59C268.36 112.597 268.361 112.604 268.363 112.61C268.416 112.847 268.469 113.066 268.513 113.272C268.701 114.153 268.575 114.561 268.483 114.62L268.48 114.62ZM280.779 95.2102L280.776 95.2127C280.467 95.4371 280.044 95.7446 279.366 96.4248C278.681 97.1128 277.168 98.2756 275.552 99.5181C275.516 99.5459 275.48 99.5738 275.443 99.6017C275.434 99.6091 275.424 99.6166 275.414 99.624C272.782 101.646 269.807 103.93 268.786 105.353C268.245 106.106 267.974 106.96 267.865 107.832C266.891 107.448 266.559 106.422 266.458 105.574C266.385 104.957 266.099 104.522 265.79 104.218C265.949 104.15 266.108 104.082 266.27 104.02C268.121 103.322 268.516 102.675 269.231 101.496C269.572 100.934 269.999 100.234 270.726 99.2943C272.294 97.2788 273.257 96.5725 274.369 95.7569C274.385 95.7452 274.401 95.7335 274.417 95.7218C274.843 95.4077 275.285 95.0823 275.788 94.6635C277.474 93.2597 277.821 92.7278 278.357 90.0415C279.11 90.6591 280.438 91.324 282.689 91.324C282.768 91.324 282.854 91.3181 282.933 91.3181C282.542 92.0392 282.18 92.7455 281.924 93.3779C281.347 94.7964 281.238 94.8763 280.776 95.2102L280.779 95.2102ZM283.701 89.9411C283.666 90.0061 283.628 90.0711 283.592 90.1332C280.152 90.4051 278.937 89.1314 278.622 88.6792C278.639 88.5817 278.657 88.493 278.675 88.3925C279.187 85.6146 280.078 83.2504 280.582 82.0536C281.123 82.7185 281.927 83.54 283.098 84.4296C283.966 85.0886 284.705 85.718 285.411 86.3298C285.355 86.9947 284.446 88.6171 283.701 89.9411ZM298.846 113.143C298.852 113.147 298.858 113.151 298.864 113.156C299.313 113.488 300.044 114.028 300.023 114.203C300.009 114.251 299.814 114.481 299.193 114.659C298.043 114.992 296.309 114.913 295.362 114.109C294.284 113.196 293.731 113.057 292.913 112.909C292.43 112.82 291.886 112.72 290.971 112.315C289.735 111.765 289.758 111.703 289.994 111.098L289.995 111.094C290.104 110.811 290.238 110.46 290.317 110.016C290.406 109.511 290.544 109.194 290.668 108.999C290.909 109.292 291.274 109.709 291.806 110.27C292.113 110.589 292.495 110.755 292.922 110.755C292.948 110.755 292.978 110.755 293.004 110.752C293.902 110.707 294.797 109.918 295.315 109.375C295.356 109.454 295.388 109.534 295.432 109.611C296.395 111.334 297.81 112.38 298.843 113.143L298.846 113.143ZM297.18 91.1054C297.148 91.3241 297.119 91.5369 297.107 91.7733C297.066 92.6717 296.283 96.7883 295.471 99.785C294.782 102.318 293.955 105.379 294.832 108.195C294.37 108.775 293.496 109.578 292.945 109.608C292.81 109.608 292.722 109.576 292.628 109.475C291.995 108.813 291.615 108.364 291.412 108.107C291.839 107.205 292.839 104.625 292.427 100.864C292.051 97.4177 292.851 93.7533 293.196 92.1868C293.196 92.1834 293.197 92.1799 293.198 92.1765C293.326 91.5874 293.372 91.3728 293.372 91.1407C293.39 90.393 293.078 90.1004 291.274 89.1312C292.622 88.679 294.679 87.8368 295.762 86.6518C296.138 87.2753 296.453 87.8457 296.671 88.3126C297.368 89.8057 297.278 90.4364 297.185 91.0974C297.184 91.101 297.184 91.1046 297.183 91.1082L297.18 91.1054ZM291.056 80.4723C292.363 81.7548 293.923 83.8028 295.117 85.6291C294.234 86.9324 291.206 87.9933 289.894 88.3539C288.634 87.5914 287.598 86.7137 286.45 85.7148C286.446 85.7115 286.443 85.7081 286.439 85.7047C285.633 85.0045 284.8 84.2808 283.787 83.5162C282.351 82.4287 281.527 81.4624 281.082 80.824C281.227 80.8329 281.371 80.8447 281.518 80.8447C283.613 80.8447 286.05 79.9492 287.433 79.0065C288.072 78.5721 288.622 78.3741 289.005 78.2825C289.423 78.8292 290.303 79.7276 291.059 80.4693L291.056 80.4723ZM290.261 71.7275C290.12 73.0367 289.39 76.0244 289.123 77.0971C288.619 77.171 287.769 77.3956 286.792 78.0576C285.4 79.0062 282.833 79.8661 280.947 79.6711C279.593 79.5293 278.908 79.086 278.908 78.3531C278.908 78.0073 279.543 76.4144 280.152 75.0964C280.517 74.8511 280.788 74.5201 280.832 74.0414C280.85 73.8464 280.85 73.675 280.841 73.5154C280.868 73.4711 280.891 73.4238 280.906 73.3706C280.95 73.1962 281.998 69.056 281.998 67.3389C281.998 66.5233 281.845 64.9866 281.686 63.5976C282.401 63.8222 283.451 63.9877 284.743 63.6715C285.438 63.5001 286.024 63.0214 286.483 62.2442C287.483 60.5508 287.669 57.634 287.354 56.446C287.012 55.1546 286.583 54.4571 286.121 53.9045C286.203 53.8779 286.297 53.8513 286.412 53.8217C286.418 53.8188 286.424 53.8217 286.43 53.8217C286.474 53.872 286.527 53.9133 286.583 53.9429C286.589 53.9547 286.594 53.9665 286.6 53.9784C286.647 54.3271 286.906 55.657 288.266 57.5158C289.281 58.9076 290.462 59.546 291.274 59.1411C291.68 58.9402 292.027 58.426 291.78 57.5985C291.703 57.3414 291.668 57.1079 291.656 56.8981C292.392 57.7019 293.172 58.7037 293.316 59.3272C293.46 59.9537 293.254 60.7457 292.931 61.9012C292.889 61.978 292.866 62.0578 292.863 62.1435C292.613 63.0272 292.31 64.1176 292.057 65.477C291.724 67.2649 291.283 68.4322 290.927 69.369C290.615 70.1876 290.347 70.8968 290.258 71.7273L290.261 71.7275ZM297.348 67.8059C295.712 69.245 293.775 70.3621 293.201 70.3621C293.007 70.3621 292.569 69.6972 292.313 68.92C292.607 68.0896 292.922 67.0701 293.178 65.69C293.287 65.1019 293.407 64.57 293.528 64.0765C293.746 64.833 293.94 65.7964 293.967 66.8603C293.684 66.9164 293.496 66.9549 293.493 66.9549L293.711 68.0808C293.711 68.0808 294.888 67.8533 295.838 67.6257C296.91 67.3686 298.469 66.3224 298.469 65.2704C298.469 65.1876 298.481 65.1256 298.49 65.0576C298.74 65.8496 299.123 66.1806 299.276 66.2811C298.725 66.615 298.246 67.0169 297.345 67.8089L297.348 67.8059ZM300.841 65.2792C300.812 65.3945 300.738 65.5629 300.447 65.6929C300.353 65.7343 300.27 65.7727 300.185 65.8141C300.185 65.6191 300.097 65.4329 299.911 65.3294C299.908 65.3265 299.682 65.1521 299.529 64.5493C299.426 64.1297 299.611 63.9642 299.673 63.9198C299.823 63.8282 299.908 63.6775 299.932 63.515C300.106 63.6007 300.259 63.7071 300.341 63.775C300.732 64.3158 300.93 64.9157 300.835 65.2822L300.841 65.2792Z" fill="white"/>
<path d="M297.18 91.1054C297.148 91.3241 297.119 91.5369 297.107 91.7733C297.066 92.6717 296.283 96.7883 295.471 99.785C294.782 102.318 293.955 105.379 294.832 108.195C294.37 108.775 293.496 109.578 292.945 109.608C292.81 109.608 292.722 109.576 292.628 109.475C291.995 108.813 291.615 108.364 291.412 108.107C291.839 107.205 292.839 104.625 292.427 100.864C292.051 97.4177 292.851 93.7533 293.196 92.1868L293.198 92.1765C293.326 91.5874 293.372 91.3728 293.372 91.1407C293.39 90.393 293.078 90.1004 291.274 89.1312C292.622 88.679 294.679 87.8368 295.762 86.6518C296.138 87.2753 296.453 87.8457 296.671 88.3126C297.368 89.8057 297.278 90.4364 297.185 91.0974L297.183 91.1082L297.18 91.1054Z" fill="#545454"/>
<path d="M280.779 95.2102L280.776 95.2127C280.467 95.4371 280.044 95.7446 279.366 96.4248C278.681 97.1128 277.168 98.2756 275.552 99.5181L275.443 99.6017L275.414 99.624C272.782 101.646 269.807 103.93 268.786 105.353C268.245 106.106 267.974 106.96 267.865 107.832C266.891 107.448 266.559 106.422 266.458 105.574C266.385 104.957 266.099 104.522 265.79 104.218C265.949 104.15 266.108 104.082 266.27 104.02C268.121 103.322 268.516 102.675 269.231 101.496C269.572 100.934 269.999 100.234 270.726 99.2943C272.294 97.2788 273.257 96.5725 274.369 95.7569L274.417 95.7218C274.843 95.4077 275.285 95.0823 275.788 94.6635C277.474 93.2597 277.821 92.7278 278.357 90.0415C279.11 90.6591 280.438 91.324 282.689 91.324C282.768 91.324 282.854 91.3181 282.933 91.3181C282.542 92.0392 282.18 92.7455 281.924 93.3779C281.347 94.7964 281.238 94.8763 280.776 95.2102L280.779 95.2102Z" fill="#545454"/>
<path d="M283.701 89.9411C283.666 90.0061 283.628 90.0711 283.592 90.1332C280.152 90.4051 278.937 89.1314 278.622 88.6792C278.639 88.5817 278.657 88.493 278.675 88.3925C279.187 85.6146 280.078 83.2504 280.582 82.0536C281.123 82.7185 281.927 83.54 283.098 84.4296C283.966 85.0886 284.705 85.718 285.411 86.3298C285.355 86.9947 284.446 88.6171 283.701 89.9411Z" fill="#545454"/>
<path d="M291.056 80.4723C292.363 81.7548 293.923 83.8028 295.117 85.6291C294.234 86.9324 291.206 87.9933 289.894 88.3539C288.634 87.5914 287.598 86.7137 286.45 85.7148L286.439 85.7047C285.633 85.0045 284.8 84.2808 283.787 83.5162C282.351 82.4287 281.527 81.4624 281.082 80.824C281.227 80.8329 281.371 80.8447 281.518 80.8447C283.613 80.8447 286.05 79.9492 287.433 79.0065C288.072 78.5721 288.622 78.3741 289.005 78.2825C289.423 78.8292 290.303 79.7276 291.059 80.4693L291.056 80.4723Z" fill="#545454"/>
<path d="M268.48 114.62C268.478 114.623 268.116 114.806 266.903 113.905C265.555 112.903 265.464 112.244 265.326 111.245L265.325 111.242C265.258 110.761 265.181 110.215 264.952 109.581C264.478 108.281 263.766 108.027 263.195 107.826C262.824 107.696 262.533 107.589 262.23 107.188C262.162 107.099 262.13 107.004 262.177 106.845C262.344 106.266 263.33 105.462 264.637 104.764C264.855 104.88 265.261 105.163 265.326 105.71C265.535 107.465 266.435 108.642 267.807 109.005C267.836 110.3 268.126 111.574 268.358 112.59L268.363 112.61C268.416 112.847 268.469 113.066 268.513 113.272C268.701 114.153 268.575 114.561 268.483 114.62L268.48 114.62Z" fill="#545454"/>
<path d="M298.846 113.143L298.864 113.156C299.313 113.488 300.044 114.028 300.023 114.203C300.009 114.251 299.814 114.481 299.193 114.659C298.043 114.992 296.309 114.913 295.362 114.109C294.284 113.196 293.731 113.057 292.913 112.909C292.43 112.82 291.886 112.72 290.971 112.315C289.735 111.765 289.758 111.703 289.994 111.098L289.995 111.094C290.104 110.811 290.238 110.46 290.317 110.016C290.406 109.511 290.544 109.194 290.668 108.999C290.909 109.292 291.274 109.709 291.806 110.27C292.113 110.589 292.495 110.755 292.922 110.755C292.948 110.755 292.978 110.755 293.004 110.752C293.902 110.707 294.797 109.918 295.315 109.375C295.356 109.454 295.388 109.534 295.432 109.611C296.395 111.334 297.81 112.38 298.843 113.143L298.846 113.143Z" fill="#545454"/>
<path d="M290.261 71.7275C290.12 73.0367 289.39 76.0244 289.123 77.0971C288.619 77.171 287.769 77.3956 286.792 78.0576C285.4 79.0062 282.833 79.8661 280.947 79.6711C279.593 79.5293 278.908 79.086 278.908 78.3531C278.908 78.0073 279.543 76.4144 280.152 75.0964C280.517 74.8511 280.788 74.5201 280.832 74.0414C280.85 73.8464 280.85 73.675 280.841 73.5154C280.868 73.4711 280.891 73.4238 280.906 73.3706C280.95 73.1962 281.998 69.056 281.998 67.3389C281.998 66.5233 281.845 64.9866 281.686 63.5976C282.401 63.8222 283.451 63.9877 284.743 63.6715C285.438 63.5001 286.024 63.0214 286.483 62.2442C287.483 60.5508 287.669 57.634 287.354 56.446C287.012 55.1546 286.583 54.4571 286.121 53.9045C286.203 53.8779 286.297 53.8513 286.412 53.8217C286.418 53.8188 286.424 53.8217 286.43 53.8217C286.474 53.872 286.527 53.9133 286.583 53.9429L286.6 53.9784C286.647 54.3271 286.906 55.657 288.266 57.5158C289.281 58.9076 290.462 59.546 291.274 59.1411C291.68 58.9402 292.027 58.426 291.78 57.5985C291.703 57.3414 291.668 57.1079 291.656 56.8981C292.392 57.7019 293.172 58.7037 293.316 59.3272C293.46 59.9537 293.254 60.7457 292.931 61.9012C292.889 61.978 292.866 62.0578 292.863 62.1435C292.613 63.0272 292.31 64.1176 292.057 65.477C291.724 67.2649 291.283 68.4322 290.927 69.369C290.615 70.1876 290.347 70.8968 290.258 71.7273L290.261 71.7275Z" fill="#545454"/>
<path d="M278.136 74.6182C277.762 74.7039 277.468 74.7719 277.259 74.8842C277.224 74.9049 277.203 74.9108 277.2 74.9137C277.147 74.893 276.915 74.7512 276.376 73.7642C276.088 73.2381 276.108 72.9485 276.141 72.5082C276.179 71.9585 276.223 71.2788 275.729 70.1263L275.373 69.3077L275.371 69.3032C274.405 67.0997 272.397 62.5214 272.506 60.9502C272.571 60.0223 276.409 58.1368 279.952 56.9578C280.046 56.9282 280.129 56.8721 280.196 56.7982C281.17 55.7166 281.785 55.6191 282.436 55.5156L282.45 55.5133C282.835 55.4519 283.272 55.3822 283.731 55.1108C284.49 54.6675 284.985 54.5493 285.138 54.5227C285.497 54.9216 285.909 55.4624 286.25 56.7421C286.48 57.605 286.365 60.1908 285.5 61.6595C285.205 62.159 284.858 62.4634 284.472 62.5579C283.024 62.9155 281.974 62.5343 281.532 62.3186C281.465 61.7837 281.409 61.3374 281.368 61.0507C281.962 60.7848 282.501 60.5661 282.857 60.5395C283.304 60.507 283.522 60.6222 283.545 60.7198C283.563 61.036 283.846 61.2783 284.146 61.2606C284.461 61.2428 284.702 60.971 284.684 60.6577C284.678 60.5749 284.637 60.1435 284.243 59.7948C283.893 59.4874 283.398 59.3515 282.777 59.3988C282.137 59.4455 281.37 59.7928 280.482 60.1949L280.452 60.2085L280.416 60.2249C279.41 60.6819 278.279 61.1956 277.398 61.1956C276.167 61.1956 275.773 60.971 275.714 60.9296C275.523 60.7198 275.202 60.6814 274.967 60.8468C274.708 61.0301 274.646 61.3847 274.825 61.6448C274.905 61.76 275.076 61.9107 275.388 62.0408C275.443 62.2063 275.585 62.7323 275.617 63.8937C275.661 65.5043 275.782 67.1267 276.791 69.2485C277.548 70.8385 278.086 71.3645 278.566 71.8285C278.704 71.9614 278.84 72.0944 278.984 72.257C279.584 72.9455 279.764 73.1524 279.696 73.9415C279.667 74.2666 278.595 74.5118 278.139 74.6153L278.136 74.6182Z" fill="#545454"/>
<path d="M294.767 49.9004C294.799 49.927 294.837 49.9595 294.876 50.0038C294.97 50.1102 294.996 50.2166 294.979 50.3171C294.581 50.6578 294.637 51.0803 294.663 51.2827L294.664 51.2864L294.665 51.2977C294.682 51.4236 294.692 51.4965 294.643 51.6085C294.581 51.7562 294.499 51.901 294.419 52.0459C294.237 52.3709 294.019 52.761 293.952 53.2368C293.931 53.2338 293.91 53.2279 293.893 53.225L293.889 53.2242C293.559 53.1622 293.111 53.0778 292.674 53.2131C291.659 53.5323 290.014 55.6009 290.508 57.2529C290.52 57.2943 290.544 57.3327 290.564 57.3682C290.591 57.5455 290.629 57.7316 290.685 57.9237C290.711 58.0094 290.717 58.0745 290.72 58.1158C290.502 58.1011 289.905 57.8203 289.187 56.8392C287.848 55.0069 287.73 53.8189 287.73 53.813C287.727 53.7717 287.718 53.7303 287.707 53.6919C287.689 53.6298 287.662 53.5648 287.633 53.4968C287.901 53.1481 288.021 52.7226 288.048 52.3059C288.578 52.1197 289.19 51.7414 289.428 51.1326C289.499 51.1504 289.561 51.1622 289.614 51.1711C289.658 51.1799 289.696 51.1858 289.725 51.1947C289.778 51.2124 289.834 51.2183 289.89 51.2183C290.137 51.2183 290.361 51.0588 290.438 50.8105C290.529 50.5091 290.355 50.187 290.055 50.0983C290.001 50.082 289.934 50.0682 289.857 50.0522L289.837 50.0481C289.413 49.9653 289.151 49.8767 289.084 49.3713C289.057 49.1792 289.09 49.0995 289.099 49.0906C289.122 49.0669 289.231 49.0463 289.299 49.0551C289.425 49.0729 289.552 49.0492 289.664 48.9842C289.719 48.9517 290.214 48.6591 290.605 48.0503C290.829 47.7046 291.794 47.0929 292.521 46.8416C292.871 46.7204 293.116 46.5668 293.292 46.4102C293.672 46.7352 294.184 47.3056 294.21 48.0325C294.258 49.2235 294.358 49.5545 294.764 49.9003L294.767 49.9004Z" fill="#545454"/>
<path d="M287.215 47.022C287.804 45.8754 289.276 45.2637 290.473 45.1632C291.58 45.0686 292.16 45.3819 292.439 45.6213C292.369 45.6656 292.28 45.7129 292.148 45.7572C291.406 46.0143 290.099 46.7235 289.646 47.4269C289.496 47.6603 289.32 47.8199 289.208 47.9086C288.961 47.9174 288.584 47.9854 288.293 48.275C288.087 48.4789 287.86 48.8631 287.948 49.5251C288.01 49.989 288.184 50.3141 288.393 50.5505C288.413 50.8106 288.154 50.9997 287.904 51.1209C287.892 51.0943 287.886 51.0677 287.872 51.0441C286.906 49.4098 286.683 48.0564 287.213 47.025L287.215 47.022Z" fill="#545454"/>
<path d="M297.348 67.8059C295.712 69.245 293.775 70.3621 293.201 70.3621C293.007 70.3621 292.569 69.6972 292.313 68.92C292.607 68.0896 292.922 67.0701 293.178 65.69C293.287 65.1019 293.407 64.57 293.528 64.0765C293.746 64.833 293.94 65.7964 293.967 66.8603C293.684 66.9164 293.496 66.9549 293.493 66.9549L293.711 68.0808C293.711 68.0808 294.888 67.8533 295.838 67.6257C296.91 67.3686 298.469 66.3224 298.469 65.2704C298.469 65.1876 298.481 65.1256 298.49 65.0576C298.74 65.8496 299.123 66.1806 299.276 66.2811C298.725 66.615 298.246 67.0169 297.345 67.8089L297.348 67.8059Z" fill="#545454"/>
<path d="M300.841 65.2792C300.812 65.3945 300.738 65.5629 300.447 65.6929C300.353 65.7343 300.27 65.7727 300.185 65.8141C300.185 65.6191 300.097 65.4329 299.911 65.3294C299.908 65.3265 299.682 65.1521 299.529 64.5493C299.426 64.1297 299.611 63.9642 299.673 63.9198C299.823 63.8282 299.908 63.6775 299.932 63.515C300.106 63.6007 300.259 63.7071 300.341 63.775C300.732 64.3158 300.93 64.9157 300.835 65.2822L300.841 65.2792Z" fill="#545454"/>
</g>
<g opacity="0.5">
<path d="M103.224 63.0392C103.203 63.0126 103.179 62.986 103.153 62.9623C103.076 62.8944 102.4 62.2826 101.552 62.2265L101.319 62.2058C100.822 62.1585 99.8951 62.0669 99.695 63.3879C99.642 63.7514 99.5714 63.9848 99.5066 64.2124C99.4154 64.5227 99.3301 64.8152 99.3301 65.2703C99.3153 65.5304 98.456 66.3017 97.5761 66.5115C97.423 66.5469 97.2641 66.5854 97.1023 66.6208C97.011 64.4783 96.3254 62.7642 96.0458 62.1495C96.396 60.8966 96.6344 59.9597 96.4254 59.0732C96.1341 57.8202 94.5243 56.1268 93.8945 55.5032C94.2388 54.8974 94.7538 54.3891 95.0099 54.3093C95.1776 54.2561 95.4395 54.3093 95.675 54.3537C96.034 54.4216 96.446 54.5014 96.7727 54.2295C96.908 54.1172 97.067 53.9074 97.067 53.538C97.067 53.2248 97.2259 52.9381 97.4083 52.61C97.5143 52.4239 97.6143 52.2377 97.6909 52.0515C97.8586 51.6496 97.8145 51.3275 97.788 51.1354C97.788 51.1295 97.788 51.1266 97.785 51.1206C97.9822 50.9197 98.1029 50.6537 98.1235 50.3612C98.15 49.977 98.0058 49.5721 97.7262 49.25C97.6408 49.1524 97.5643 49.0845 97.4525 48.9929C97.4289 48.9515 97.376 48.7653 97.3436 47.9851C97.2818 46.4485 95.9898 45.4703 95.5719 45.1925C95.2953 44.7994 94.4006 43.8538 92.367 44.0192C90.9662 44.1374 89.0297 44.8556 88.188 46.4957C87.4758 47.8846 87.6936 49.5868 88.8355 51.5491C88.8767 51.7412 88.9767 52.3441 88.7737 52.7165C88.5794 52.6603 88.3558 52.6455 88.1056 52.7135C87.6848 52.8258 87.1256 52.9795 86.896 53.3991C86.6017 53.4553 85.9926 53.6237 85.145 54.1202C84.8654 54.2857 84.5917 54.327 84.2474 54.3832C83.5264 54.4984 82.6347 54.6403 81.4427 55.9169C79.4033 56.6025 73.5057 58.7716 73.3588 60.8699C73.2411 62.578 74.8244 66.3577 76.3194 69.7683L76.6725 70.578C77.0581 71.4734 77.0257 71.9374 76.9933 72.428C76.958 72.9274 76.9198 73.4948 77.3671 74.3134C77.7408 74.999 78.3206 76.0629 79.1829 76.0629C79.3742 76.0629 79.5773 76.0097 79.7951 75.8915C79.8745 75.8501 80.1659 75.7851 80.3807 75.7349C80.4631 75.7171 80.5514 75.6964 80.6367 75.6758C80.2247 76.6362 79.7568 77.836 79.7568 78.3562C79.7568 79.0093 80.0275 80.0554 81.5902 80.5637C81.6314 80.6524 81.6991 80.7883 81.7992 80.9656C81.4137 81.802 80.1953 84.6302 79.5419 88.1882C79.5184 88.3183 79.4978 88.4306 79.4742 88.5547C79.4419 88.6315 79.4272 88.7113 79.4301 88.7941C78.7826 92.2812 78.6561 92.4526 77.0522 93.7855C76.5578 94.1992 76.1134 94.5213 75.6867 94.8375C74.5537 95.6679 73.4853 96.454 71.8167 98.5966C71.0457 99.5866 70.6013 100.316 70.2452 100.905C69.586 101.989 69.3417 102.394 67.8584 102.953C65.9161 103.685 63.494 105.06 63.0673 106.528C62.926 107.016 63.0084 107.483 63.3027 107.882C63.8119 108.565 64.3592 108.76 64.8007 108.916C65.2833 109.088 65.5747 109.191 65.8661 109.986C66.0544 110.506 66.1192 110.967 66.181 111.413C66.334 112.513 66.4782 113.547 68.2116 114.836C69.0768 115.48 69.792 115.799 70.3688 115.799C70.6366 115.799 70.875 115.731 71.0869 115.592C71.5166 115.314 71.958 114.646 71.6166 113.039C71.5725 112.829 71.5195 112.601 71.4636 112.359C71.0457 110.55 70.4159 107.82 71.702 106.029C72.6261 104.74 75.6749 102.4 78.1264 100.52C79.8892 99.1669 81.4108 97.9997 82.1642 97.2431C82.7793 96.6255 83.1618 96.3507 83.4385 96.1468C84.0889 95.6739 84.3066 95.4671 84.9747 93.8181C85.3661 92.8518 86.0372 91.6637 86.6846 90.5141C87.4115 89.2257 88.0589 88.0672 88.365 87.1688C89.4863 88.1292 90.6193 89.0335 92.0613 89.7931C92.6676 90.1122 94.0831 90.8599 94.2215 91.0342C94.2244 91.0608 94.2215 91.0874 94.2215 91.117V91.2057C94.2156 91.2884 94.142 91.6223 94.0714 91.9445C93.7182 93.5639 92.8854 97.3614 93.2826 100.993C93.6888 104.682 92.6058 107.152 92.3114 107.743C91.973 107.953 91.4168 108.494 91.1843 109.824C91.1254 110.161 91.0224 110.429 90.9194 110.689C90.4691 111.857 90.5898 112.522 92.4998 113.37C93.5387 113.831 94.1832 113.949 94.6982 114.044C95.3339 114.159 95.7195 114.23 96.6171 114.992C97.4881 115.731 98.6772 116 99.7719 116C100.584 116 101.343 115.852 101.885 115.639C102.844 115.261 103.1 114.732 103.145 114.354C103.245 113.509 102.479 112.944 101.511 112.229C100.508 111.49 99.2598 110.568 98.4181 109.061C96.876 106.298 97.7707 103.003 98.5594 100.095C99.3481 97.1864 100.187 92.9046 100.237 91.8318C100.246 91.6367 100.272 91.4594 100.299 91.2792C100.411 90.5108 100.534 89.6419 99.6925 87.8334C98.7272 85.7647 95.9637 81.7456 93.8448 79.665C92.8648 78.7046 92.3557 78.149 92.0938 77.8476C92.0997 77.8269 92.1144 77.8122 92.1203 77.7915C92.1644 77.6201 93.2062 73.5507 93.3887 71.8663C93.4387 71.3905 93.5711 70.9472 93.7448 70.4596C94.0803 71.0151 94.56 71.5234 95.1957 71.5234C96.4111 71.5234 98.845 69.7828 100.093 68.6834C101.511 67.4393 101.773 67.259 102.903 66.7537C103.445 66.5113 103.804 66.1065 103.939 65.5834C104.219 64.5047 103.457 63.3758 103.218 63.0537L103.224 63.0392ZM96.7667 49.9004C96.7991 49.927 96.8374 49.9595 96.8756 50.0038C96.9698 50.1102 96.9963 50.2166 96.9786 50.3171C96.5808 50.6578 96.6365 51.0803 96.6632 51.2827L96.6637 51.2864C96.6642 51.2902 96.6647 51.2939 96.6652 51.2977C96.682 51.4236 96.6917 51.4965 96.6431 51.6085C96.5813 51.7562 96.4989 51.901 96.4194 52.0459C96.237 52.3709 96.0192 52.761 95.9515 53.2368C95.9309 53.2338 95.9103 53.2279 95.8927 53.225L95.8886 53.2242C95.5593 53.1622 95.1109 53.0778 94.6743 53.2131C93.6589 53.5323 92.0139 55.6009 92.5082 57.2529C92.52 57.2943 92.5436 57.3327 92.5642 57.3682C92.5907 57.5455 92.6289 57.7316 92.6848 57.9237C92.7113 58.0094 92.7172 58.0745 92.7201 58.1158C92.5024 58.1011 91.905 57.8203 91.1868 56.8392C89.8478 55.0069 89.7301 53.8189 89.7301 53.813C89.7271 53.7717 89.7183 53.7303 89.7065 53.6919C89.6889 53.6298 89.6624 53.5648 89.6329 53.4968C89.9008 53.1481 90.0214 52.7226 90.0479 52.3059C90.5776 52.1197 91.1898 51.7414 91.4281 51.1326C91.4988 51.1504 91.5606 51.1622 91.6135 51.1711C91.6577 51.1799 91.6959 51.1858 91.7254 51.1947C91.7783 51.2124 91.8343 51.2183 91.8902 51.2183C92.1374 51.2183 92.361 51.0588 92.4376 50.8105C92.5288 50.5091 92.3551 50.187 92.055 50.0983C92.0008 50.082 91.9341 50.0682 91.8572 50.0522C91.8506 50.0509 91.8439 50.0495 91.8372 50.0481C91.4134 49.9653 91.1515 49.8767 91.0838 49.3713C91.0573 49.1792 91.0897 49.0995 91.0985 49.0906C91.1221 49.0669 91.2309 49.0463 91.2986 49.0551C91.4252 49.0729 91.5517 49.0492 91.6636 48.9842C91.7195 48.9517 92.2139 48.6591 92.6053 48.0503C92.829 47.7046 93.7942 47.0929 94.5212 46.8416C94.8714 46.7204 95.1157 46.5668 95.2922 46.4102C95.6719 46.7352 96.1839 47.3056 96.2105 48.0325C96.2576 49.2235 96.3576 49.5545 96.7637 49.9003L96.7667 49.9004ZM89.2154 47.022C89.804 45.8754 91.2755 45.2637 92.4733 45.1632C93.5799 45.0686 94.1596 45.3819 94.4392 45.6213C94.3685 45.6656 94.2803 45.7129 94.1478 45.7572C93.4062 46.0143 92.0995 46.7235 91.6463 47.4269C91.4962 47.6603 91.3197 47.8199 91.2078 47.9086C90.9606 47.9174 90.5839 47.9854 90.2926 48.275C90.0866 48.4789 89.86 48.8631 89.9483 49.5251C90.0101 49.989 90.1837 50.3141 90.3926 50.5505C90.4133 50.8106 90.1543 50.9997 89.9041 51.1209C89.8923 51.0943 89.8865 51.0677 89.8717 51.0441C88.9065 49.4098 88.6828 48.0564 89.2125 47.025L89.2154 47.022ZM80.1362 74.6182C79.7625 74.7039 79.4682 74.7719 79.2592 74.8842C79.2239 74.9049 79.2033 74.9108 79.2003 74.9137C79.1474 74.893 78.9149 74.7512 78.3763 73.7642C78.0879 73.2381 78.1085 72.9485 78.1408 72.5082C78.1791 71.9585 78.2232 71.2788 77.7288 70.1263L77.3727 69.3077C77.3721 69.3062 77.3714 69.3047 77.3707 69.3032C76.4047 67.0997 74.3975 62.5214 74.5063 60.9502C74.571 60.0223 78.4086 58.1368 81.9519 56.9578C82.0461 56.9282 82.1285 56.8721 82.1962 56.7982C83.1704 55.7166 83.7854 55.6191 84.4358 55.5156C84.4407 55.5149 84.4455 55.5141 84.4503 55.5133C84.8353 55.4519 85.2715 55.3822 85.7308 55.1108C86.49 54.6675 86.9845 54.5493 87.1375 54.5227C87.4966 54.9216 87.9085 55.4624 88.25 56.7421C88.4795 57.605 88.3648 60.1908 87.4995 61.6595C87.2052 62.159 86.858 62.4634 86.4724 62.5579C85.0245 62.9155 83.9739 62.5343 83.5324 62.3186C83.4648 61.7837 83.4088 61.3374 83.3676 61.0507C83.9621 60.7848 84.5007 60.5661 84.8568 60.5395C85.3041 60.507 85.5219 60.6222 85.5455 60.7198C85.5631 61.036 85.8456 61.2783 86.1458 61.2606C86.4607 61.2428 86.702 60.971 86.6844 60.6577C86.6785 60.5749 86.6373 60.1435 86.2429 59.7948C85.8927 59.4874 85.3983 59.3515 84.7773 59.3988C84.1371 59.4455 83.3703 59.7928 82.4825 60.1949C82.4725 60.1994 82.4625 60.204 82.4524 60.2085C82.4404 60.214 82.4284 60.2194 82.4163 60.2249C81.41 60.6819 80.2788 61.1956 79.3976 61.1956C78.1675 61.1956 77.7732 60.971 77.7143 60.9296C77.523 60.7198 77.2022 60.6814 76.9667 60.8468C76.7078 61.0301 76.646 61.3847 76.8255 61.6448C76.9049 61.76 77.0756 61.9107 77.3876 62.0408C77.4435 62.2063 77.5848 62.7323 77.6171 63.8937C77.6613 65.5043 77.7819 67.1267 78.7914 69.2485C79.5477 70.8385 80.0863 71.3645 80.566 71.8285C80.7043 71.9614 80.8397 72.0944 80.9839 72.257C81.5843 72.9455 81.7638 73.1524 81.6961 73.9415C81.6667 74.2666 80.5955 74.5118 80.1393 74.6153L80.1362 74.6182ZM81.8402 71.5034C81.6754 71.3142 81.5194 71.1606 81.3575 71.0069C80.9102 70.5725 80.4865 70.1617 79.8213 68.7579C78.909 66.837 78.8001 65.4038 78.7588 63.8641C78.7412 63.1755 78.6823 62.6731 78.6176 62.3037C78.8501 62.3244 79.1002 62.3392 79.3945 62.3392C80.3186 62.3392 81.328 61.955 82.2786 61.5383C82.3168 61.8368 82.3639 62.2091 82.4169 62.6347C82.4139 62.7056 82.4198 62.7706 82.4404 62.8386C82.6288 64.3812 82.8524 66.4085 82.8524 67.3423C82.8524 68.3619 82.4139 70.4542 82.102 71.8136C82.0196 71.7131 81.9313 71.6127 81.8371 71.5063L81.8402 71.5034ZM70.4805 114.62C70.4775 114.623 70.1155 114.806 68.903 113.905C67.5551 112.903 67.4639 112.244 67.3255 111.245L67.3251 111.242C67.2575 110.761 67.1808 110.215 66.9518 109.581C66.478 108.281 65.7658 108.027 65.1949 107.826C64.824 107.696 64.5327 107.589 64.2296 107.188C64.1619 107.099 64.1296 107.004 64.1766 106.845C64.3444 106.266 65.3302 105.462 66.6369 104.764C66.8547 104.88 67.2608 105.163 67.3256 105.71C67.5345 107.465 68.4351 108.642 69.8065 109.005C69.8358 110.3 70.1263 111.574 70.3581 112.59C70.3596 112.597 70.3612 112.604 70.3627 112.61C70.4157 112.847 70.4687 113.066 70.5128 113.272C70.7012 114.153 70.5746 114.561 70.4834 114.62L70.4805 114.62ZM82.7789 95.2102L82.7755 95.2127C82.4668 95.4371 82.0436 95.7446 81.3663 96.4248C80.6812 97.1128 79.1684 98.2756 77.5521 99.5181C77.5159 99.5459 77.4797 99.5738 77.4434 99.6017C77.4337 99.6091 77.424 99.6166 77.4143 99.624C74.7816 101.646 71.8068 103.93 70.7864 105.353C70.2449 106.106 69.9742 106.96 69.8652 107.832C68.8911 107.448 68.5585 106.422 68.4585 105.574C68.3849 104.957 68.0995 104.522 67.7904 104.218C67.9494 104.15 68.1083 104.082 68.2701 104.02C70.1212 103.322 70.5156 102.675 71.2308 101.496C71.5722 100.934 71.9989 100.234 72.7258 99.2943C74.2944 97.2788 75.2568 96.5725 76.3692 95.7569C76.385 95.7452 76.4009 95.7335 76.4168 95.7218C76.8435 95.4077 77.2855 95.0823 77.7877 94.6635C79.474 93.2597 79.8212 92.7278 80.3569 90.0415C81.1103 90.6591 82.4376 91.324 84.6889 91.324C84.7684 91.324 84.8537 91.3181 84.9332 91.3181C84.5418 92.0392 84.1798 92.7455 83.9238 93.3779C83.347 94.7964 83.2381 94.8763 82.7761 95.2102L82.7789 95.2102ZM85.7013 89.9411C85.666 90.0061 85.6277 90.0711 85.5924 90.1332C82.1521 90.4051 80.9366 89.1314 80.6217 88.6792C80.6394 88.5817 80.657 88.493 80.6747 88.3925C81.1867 85.6146 82.0785 83.2504 82.5817 82.0536C83.1232 82.7185 83.9266 83.54 85.0979 84.4296C85.966 85.0886 86.7047 85.718 87.411 86.3298C87.3551 86.9947 86.4459 88.6171 85.7013 89.9411ZM100.846 113.143C100.852 113.147 100.858 113.151 100.864 113.156C101.313 113.488 102.044 114.028 102.023 114.203C102.009 114.251 101.814 114.481 101.193 114.659C100.043 114.992 98.3092 114.913 97.3616 114.109C96.2845 113.196 95.7312 113.057 94.9131 112.909C94.4304 112.82 93.886 112.72 92.9707 112.315C91.7347 111.765 91.7582 111.703 91.9936 111.098L91.9951 111.094C92.1037 110.811 92.2383 110.46 92.3174 110.016C92.4057 109.511 92.544 109.194 92.6676 108.999C92.9089 109.292 93.2738 109.709 93.8065 110.27C94.1126 110.589 94.4951 110.755 94.9219 110.755C94.9484 110.755 94.9778 110.755 95.0043 110.752C95.9019 110.707 96.7966 109.918 97.3145 109.375C97.3557 109.454 97.3881 109.534 97.4322 109.611C98.3946 111.334 99.8101 112.38 100.843 113.143L100.846 113.143ZM99.1804 91.1054C99.148 91.3241 99.1186 91.5369 99.1068 91.7733C99.0656 92.6717 98.2827 96.7883 97.4705 99.785C96.7819 102.318 95.9549 105.379 96.8319 108.195C96.3698 108.775 95.4958 109.578 94.9454 109.608C94.8101 109.608 94.7218 109.576 94.6276 109.475C93.9949 108.813 93.6152 108.364 93.4121 108.107C93.8389 107.205 94.8395 104.625 94.4275 100.864C94.0508 97.4177 94.8513 93.7533 95.1956 92.1868C95.1963 92.1834 95.1971 92.1799 95.1978 92.1765C95.3256 91.5874 95.3722 91.3728 95.3722 91.1407C95.3898 90.393 95.0779 90.1004 93.2738 89.1312C94.6217 88.679 96.6788 87.8368 97.7618 86.6518C98.1385 87.2753 98.4534 87.8457 98.6711 88.3126C99.3678 89.8057 99.2784 90.4364 99.1848 91.0974C99.1842 91.101 99.1837 91.1046 99.1832 91.1082L99.1804 91.1054ZM93.0561 80.4723C94.3628 81.7548 95.9225 83.8028 97.1174 85.6291C96.2344 86.9324 93.2062 87.9933 91.8936 88.3539C90.634 87.5914 89.5981 86.7137 88.4503 85.7148C88.4464 85.7115 88.4425 85.7081 88.4386 85.7047C87.633 85.0045 86.8003 84.2808 85.7869 83.5162C84.3508 82.4287 83.5267 81.4624 83.0824 80.824C83.2266 80.8329 83.3708 80.8447 83.5179 80.8447C85.6133 80.8447 88.0501 79.9492 89.4333 79.0065C90.0719 78.5721 90.6223 78.3741 91.0048 78.2825C91.4227 78.8292 92.3027 79.7276 93.059 80.4693L93.0561 80.4723ZM92.2615 71.7275C92.1202 73.0367 91.3904 76.0244 91.1226 77.0971C90.6193 77.171 89.7688 77.3956 88.7917 78.0576C87.3997 79.0062 84.8334 79.8661 82.947 79.6711C81.5932 79.5293 80.9076 79.086 80.9076 78.3531C80.9076 78.0073 81.5432 76.4144 82.1524 75.0964C82.5173 74.8511 82.7881 74.5201 82.8322 74.0414C82.8499 73.8464 82.8499 73.675 82.841 73.5154C82.8675 73.4711 82.8911 73.4238 82.9058 73.3706C82.9499 73.1962 83.9976 69.056 83.9976 67.3389C83.9976 66.5233 83.8446 64.9866 83.6857 63.5976C84.4008 63.8222 85.4515 63.9877 86.7434 63.6715C87.4379 63.5001 88.0236 63.0214 88.4827 62.2442C89.4833 60.5508 89.6687 57.634 89.3538 56.446C89.0124 55.1546 88.5827 54.4571 88.1207 53.9045C88.2031 53.8779 88.2973 53.8513 88.412 53.8217C88.4179 53.8188 88.4238 53.8217 88.4297 53.8217C88.4738 53.872 88.5268 53.9133 88.5827 53.9429C88.5886 53.9547 88.5945 53.9665 88.6004 53.9784C88.6475 54.3271 88.9065 55.657 90.2661 57.5158C91.2814 58.9076 92.4615 59.546 93.2738 59.1411C93.6799 58.9402 94.0272 58.426 93.78 57.5985C93.7035 57.3414 93.6681 57.1079 93.6564 56.8981C94.3921 57.7019 95.172 58.7037 95.3162 59.3272C95.4604 59.9537 95.2544 60.7457 94.9307 61.9012C94.8895 61.978 94.8659 62.0578 94.863 62.1435C94.6128 63.0272 94.3097 64.1176 94.0566 65.477C93.724 67.2649 93.2826 68.4322 92.9265 69.369C92.6146 70.1876 92.3467 70.8968 92.2585 71.7273L92.2615 71.7275ZM99.3481 67.8059C97.7118 69.245 95.7753 70.3621 95.2015 70.3621C95.0072 70.3621 94.5687 69.6972 94.3127 68.92C94.607 68.0896 94.9219 67.0701 95.1779 65.69C95.2868 65.1019 95.4074 64.57 95.5281 64.0765C95.7459 64.833 95.9401 65.7964 95.9666 66.8603C95.6841 66.9164 95.4957 66.9549 95.4928 66.9549L95.7105 68.0808C95.7105 68.0808 96.8877 67.8533 97.8383 67.6257C98.9095 67.3686 100.469 66.3224 100.469 65.2704C100.469 65.1876 100.481 65.1256 100.49 65.0576C100.74 65.8496 101.123 66.1806 101.276 66.2811C100.725 66.615 100.246 67.0169 99.3451 67.8089L99.3481 67.8059ZM102.841 65.2792C102.812 65.3945 102.738 65.5629 102.447 65.6929C102.353 65.7343 102.27 65.7727 102.185 65.8141C102.185 65.6191 102.097 65.4329 101.911 65.3294C101.908 65.3265 101.682 65.1521 101.529 64.5493C101.426 64.1297 101.611 63.9642 101.673 63.9198C101.823 63.8282 101.908 63.6775 101.932 63.515C102.106 63.6007 102.259 63.7071 102.341 63.775C102.732 64.3158 102.93 64.9157 102.835 65.2822L102.841 65.2792Z" fill="white"/>
<path d="M99.1804 91.1054C99.148 91.3241 99.1186 91.5369 99.1068 91.7733C99.0656 92.6717 98.2827 96.7883 97.4705 99.785C96.7819 102.318 95.9549 105.379 96.8319 108.195C96.3698 108.775 95.4958 109.578 94.9454 109.608C94.8101 109.608 94.7218 109.576 94.6276 109.475C93.9949 108.813 93.6152 108.364 93.4121 108.107C93.8389 107.205 94.8395 104.625 94.4275 100.864C94.0508 97.4177 94.8513 93.7533 95.1956 92.1868L95.1978 92.1765C95.3256 91.5874 95.3722 91.3728 95.3722 91.1407C95.3898 90.393 95.0779 90.1004 93.2738 89.1312C94.6217 88.679 96.6788 87.8368 97.7618 86.6518C98.1385 87.2753 98.4534 87.8457 98.6711 88.3126C99.3678 89.8057 99.2784 90.4364 99.1848 91.0974L99.1832 91.1082L99.1804 91.1054Z" fill="#545454"/>
<path d="M82.7789 95.2102L82.7755 95.2127C82.4668 95.4371 82.0436 95.7446 81.3663 96.4248C80.6812 97.1128 79.1684 98.2756 77.5521 99.5181L77.4434 99.6017L77.4143 99.624C74.7816 101.646 71.8068 103.93 70.7864 105.353C70.2449 106.106 69.9742 106.96 69.8652 107.832C68.8911 107.448 68.5585 106.422 68.4585 105.574C68.3849 104.957 68.0995 104.522 67.7904 104.218C67.9494 104.15 68.1083 104.082 68.2701 104.02C70.1212 103.322 70.5156 102.675 71.2308 101.496C71.5722 100.934 71.9989 100.234 72.7258 99.2943C74.2944 97.2788 75.2568 96.5725 76.3692 95.7569L76.4168 95.7218C76.8435 95.4077 77.2855 95.0823 77.7877 94.6635C79.474 93.2597 79.8212 92.7278 80.3569 90.0415C81.1103 90.6591 82.4376 91.324 84.6889 91.324C84.7684 91.324 84.8537 91.3181 84.9332 91.3181C84.5418 92.0392 84.1798 92.7455 83.9238 93.3779C83.347 94.7964 83.2381 94.8763 82.7761 95.2102L82.7789 95.2102Z" fill="#545454"/>
<path d="M85.7013 89.9411C85.666 90.0061 85.6277 90.0711 85.5924 90.1332C82.1521 90.4051 80.9366 89.1314 80.6217 88.6792C80.6394 88.5817 80.657 88.493 80.6747 88.3925C81.1867 85.6146 82.0785 83.2504 82.5817 82.0536C83.1232 82.7185 83.9266 83.54 85.0979 84.4296C85.966 85.0886 86.7047 85.718 87.411 86.3298C87.3551 86.9947 86.4459 88.6171 85.7013 89.9411Z" fill="#545454"/>
<path d="M93.0561 80.4723C94.3628 81.7548 95.9225 83.8028 97.1174 85.6291C96.2344 86.9324 93.2062 87.9933 91.8936 88.3539C90.634 87.5914 89.5981 86.7137 88.4503 85.7148L88.4386 85.7047C87.633 85.0045 86.8003 84.2808 85.7869 83.5162C84.3508 82.4287 83.5267 81.4624 83.0824 80.824C83.2266 80.8329 83.3708 80.8447 83.5179 80.8447C85.6133 80.8447 88.0501 79.9492 89.4333 79.0065C90.0719 78.5721 90.6223 78.3741 91.0048 78.2825C91.4227 78.8292 92.3027 79.7276 93.059 80.4693L93.0561 80.4723Z" fill="#545454"/>
<path d="M70.4805 114.62C70.4775 114.623 70.1155 114.806 68.903 113.905C67.5551 112.903 67.4639 112.244 67.3255 111.245L67.3251 111.242C67.2575 110.761 67.1808 110.215 66.9518 109.581C66.478 108.281 65.7658 108.027 65.1949 107.826C64.824 107.696 64.5327 107.589 64.2296 107.188C64.1619 107.099 64.1296 107.004 64.1766 106.845C64.3444 106.266 65.3302 105.462 66.6369 104.764C66.8547 104.88 67.2608 105.163 67.3256 105.71C67.5345 107.465 68.4351 108.642 69.8065 109.005C69.8358 110.3 70.1263 111.574 70.3581 112.59L70.3627 112.61C70.4157 112.847 70.4687 113.066 70.5128 113.272C70.7012 114.153 70.5746 114.561 70.4834 114.62L70.4805 114.62Z" fill="#545454"/>
<path d="M100.846 113.143L100.864 113.156C101.313 113.488 102.044 114.028 102.023 114.203C102.009 114.251 101.814 114.481 101.193 114.659C100.043 114.992 98.3092 114.913 97.3616 114.109C96.2845 113.196 95.7312 113.057 94.9131 112.909C94.4304 112.82 93.886 112.72 92.9707 112.315C91.7347 111.765 91.7582 111.703 91.9936 111.098L91.9951 111.094C92.1037 110.811 92.2383 110.46 92.3174 110.016C92.4057 109.511 92.544 109.194 92.6676 108.999C92.9089 109.292 93.2738 109.709 93.8065 110.27C94.1126 110.589 94.4951 110.755 94.9219 110.755C94.9484 110.755 94.9778 110.755 95.0043 110.752C95.9019 110.707 96.7966 109.918 97.3145 109.375C97.3557 109.454 97.3881 109.534 97.4322 109.611C98.3946 111.334 99.8101 112.38 100.843 113.143L100.846 113.143Z" fill="#545454"/>
<path d="M92.2615 71.7275C92.1202 73.0367 91.3904 76.0244 91.1226 77.0971C90.6193 77.171 89.7688 77.3956 88.7917 78.0576C87.3997 79.0062 84.8334 79.8661 82.947 79.6711C81.5932 79.5293 80.9076 79.086 80.9076 78.3531C80.9076 78.0073 81.5432 76.4144 82.1524 75.0964C82.5173 74.8511 82.7881 74.5201 82.8322 74.0414C82.8499 73.8464 82.8499 73.675 82.841 73.5154C82.8675 73.4711 82.8911 73.4238 82.9058 73.3706C82.9499 73.1962 83.9976 69.056 83.9976 67.3389C83.9976 66.5233 83.8446 64.9866 83.6857 63.5976C84.4008 63.8222 85.4515 63.9877 86.7434 63.6715C87.4379 63.5001 88.0236 63.0214 88.4827 62.2442C89.4833 60.5508 89.6687 57.634 89.3538 56.446C89.0124 55.1546 88.5827 54.4571 88.1207 53.9045C88.2031 53.8779 88.2973 53.8513 88.412 53.8217C88.4179 53.8188 88.4238 53.8217 88.4297 53.8217C88.4738 53.872 88.5268 53.9133 88.5827 53.9429L88.6004 53.9784C88.6475 54.3271 88.9065 55.657 90.2661 57.5158C91.2814 58.9076 92.4615 59.546 93.2738 59.1411C93.6799 58.9402 94.0272 58.426 93.78 57.5985C93.7035 57.3414 93.6681 57.1079 93.6564 56.8981C94.3921 57.7019 95.172 58.7037 95.3162 59.3272C95.4604 59.9537 95.2544 60.7457 94.9307 61.9012C94.8895 61.978 94.8659 62.0578 94.863 62.1435C94.6128 63.0272 94.3097 64.1176 94.0566 65.477C93.724 67.2649 93.2826 68.4322 92.9265 69.369C92.6146 70.1876 92.3467 70.8968 92.2585 71.7273L92.2615 71.7275Z" fill="#545454"/>
<path d="M80.1362 74.6182C79.7625 74.7039 79.4682 74.7719 79.2592 74.8842C79.2239 74.9049 79.2033 74.9108 79.2003 74.9137C79.1474 74.893 78.9149 74.7512 78.3763 73.7642C78.0879 73.2381 78.1085 72.9485 78.1408 72.5082C78.1791 71.9585 78.2232 71.2788 77.7288 70.1263L77.3727 69.3077L77.3707 69.3032C76.4047 67.0997 74.3975 62.5214 74.5063 60.9502C74.571 60.0223 78.4086 58.1368 81.9519 56.9578C82.0461 56.9282 82.1285 56.8721 82.1962 56.7982C83.1704 55.7166 83.7854 55.6191 84.4358 55.5156L84.4503 55.5133C84.8353 55.4519 85.2715 55.3822 85.7308 55.1108C86.49 54.6675 86.9845 54.5493 87.1375 54.5227C87.4966 54.9216 87.9085 55.4624 88.25 56.7421C88.4795 57.605 88.3648 60.1908 87.4995 61.6595C87.2052 62.159 86.858 62.4634 86.4724 62.5579C85.0245 62.9155 83.9739 62.5343 83.5324 62.3186C83.4648 61.7837 83.4088 61.3374 83.3676 61.0507C83.9621 60.7848 84.5007 60.5661 84.8568 60.5395C85.3041 60.507 85.5219 60.6222 85.5455 60.7198C85.5631 61.036 85.8456 61.2783 86.1458 61.2606C86.4607 61.2428 86.702 60.971 86.6844 60.6577C86.6785 60.5749 86.6373 60.1435 86.2429 59.7948C85.8927 59.4874 85.3983 59.3515 84.7773 59.3988C84.1371 59.4455 83.3703 59.7928 82.4825 60.1949L82.4524 60.2085L82.4163 60.2249C81.41 60.6819 80.2788 61.1956 79.3976 61.1956C78.1675 61.1956 77.7732 60.971 77.7143 60.9296C77.523 60.7198 77.2022 60.6814 76.9667 60.8468C76.7078 61.0301 76.646 61.3847 76.8255 61.6448C76.9049 61.76 77.0756 61.9107 77.3876 62.0408C77.4435 62.2063 77.5848 62.7323 77.6171 63.8937C77.6613 65.5043 77.7819 67.1267 78.7914 69.2485C79.5477 70.8385 80.0863 71.3645 80.566 71.8285C80.7043 71.9614 80.8397 72.0944 80.9839 72.257C81.5843 72.9455 81.7638 73.1524 81.6961 73.9415C81.6667 74.2666 80.5955 74.5118 80.1393 74.6153L80.1362 74.6182Z" fill="#545454"/>
<path d="M96.7667 49.9004C96.7991 49.927 96.8374 49.9595 96.8756 50.0038C96.9698 50.1102 96.9963 50.2166 96.9786 50.3171C96.5808 50.6578 96.6365 51.0803 96.6632 51.2827L96.6637 51.2864L96.6652 51.2977C96.682 51.4236 96.6917 51.4965 96.6431 51.6085C96.5813 51.7562 96.4989 51.901 96.4194 52.0459C96.237 52.3709 96.0192 52.761 95.9515 53.2368C95.9309 53.2338 95.9103 53.2279 95.8927 53.225L95.8886 53.2242C95.5593 53.1622 95.1109 53.0778 94.6743 53.2131C93.6589 53.5323 92.0139 55.6009 92.5082 57.2529C92.52 57.2943 92.5436 57.3327 92.5642 57.3682C92.5907 57.5455 92.6289 57.7316 92.6848 57.9237C92.7113 58.0094 92.7172 58.0745 92.7201 58.1158C92.5024 58.1011 91.905 57.8203 91.1868 56.8392C89.8478 55.0069 89.7301 53.8189 89.7301 53.813C89.7271 53.7717 89.7183 53.7303 89.7065 53.6919C89.6889 53.6298 89.6624 53.5648 89.6329 53.4968C89.9008 53.1481 90.0214 52.7226 90.0479 52.3059C90.5776 52.1197 91.1898 51.7414 91.4281 51.1326C91.4988 51.1504 91.5606 51.1622 91.6135 51.1711C91.6577 51.1799 91.6959 51.1858 91.7254 51.1947C91.7783 51.2124 91.8343 51.2183 91.8902 51.2183C92.1374 51.2183 92.361 51.0588 92.4376 50.8105C92.5288 50.5091 92.3551 50.187 92.055 50.0983C92.0008 50.082 91.9341 50.0682 91.8572 50.0522L91.8372 50.0481C91.4134 49.9653 91.1515 49.8767 91.0838 49.3713C91.0573 49.1792 91.0897 49.0995 91.0985 49.0906C91.1221 49.0669 91.2309 49.0463 91.2986 49.0551C91.4252 49.0729 91.5517 49.0492 91.6636 48.9842C91.7195 48.9517 92.2139 48.6591 92.6053 48.0503C92.829 47.7046 93.7942 47.0929 94.5212 46.8416C94.8714 46.7204 95.1157 46.5668 95.2922 46.4102C95.6719 46.7352 96.1839 47.3056 96.2105 48.0325C96.2576 49.2235 96.3576 49.5545 96.7637 49.9003L96.7667 49.9004Z" fill="#545454"/>
<path d="M89.2154 47.022C89.804 45.8754 91.2755 45.2637 92.4733 45.1632C93.5799 45.0686 94.1596 45.3819 94.4392 45.6213C94.3685 45.6656 94.2803 45.7129 94.1478 45.7572C93.4062 46.0143 92.0995 46.7235 91.6463 47.4269C91.4962 47.6603 91.3197 47.8199 91.2078 47.9086C90.9606 47.9174 90.5839 47.9854 90.2926 48.275C90.0866 48.4789 89.86 48.8631 89.9483 49.5251C90.0101 49.989 90.1837 50.3141 90.3926 50.5505C90.4133 50.8106 90.1543 50.9997 89.9041 51.1209C89.8923 51.0943 89.8865 51.0677 89.8717 51.0441C88.9065 49.4098 88.6828 48.0564 89.2125 47.025L89.2154 47.022Z" fill="#545454"/>
<path d="M99.3481 67.8059C97.7118 69.245 95.7753 70.3621 95.2015 70.3621C95.0072 70.3621 94.5687 69.6972 94.3127 68.92C94.607 68.0896 94.9219 67.0701 95.1779 65.69C95.2868 65.1019 95.4074 64.57 95.5281 64.0765C95.7459 64.833 95.9401 65.7964 95.9666 66.8603C95.6841 66.9164 95.4957 66.9549 95.4928 66.9549L95.7105 68.0808C95.7105 68.0808 96.8877 67.8533 97.8383 67.6257C98.9095 67.3686 100.469 66.3224 100.469 65.2704C100.469 65.1876 100.481 65.1256 100.49 65.0576C100.74 65.8496 101.123 66.1806 101.276 66.2811C100.725 66.615 100.246 67.0169 99.3451 67.8089L99.3481 67.8059Z" fill="#545454"/>
<path d="M102.841 65.2792C102.812 65.3945 102.738 65.5629 102.447 65.6929C102.353 65.7343 102.27 65.7727 102.185 65.8141C102.185 65.6191 102.097 65.4329 101.911 65.3294C101.908 65.3265 101.682 65.1521 101.529 64.5493C101.426 64.1297 101.611 63.9642 101.673 63.9198C101.823 63.8282 101.908 63.6775 101.932 63.515C102.106 63.6007 102.259 63.7071 102.341 63.775C102.732 64.3158 102.93 64.9157 102.835 65.2822L102.841 65.2792Z" fill="#545454"/>
</g>
<path opacity="0.5" d="M156.707 76.7071C157.098 76.3166 157.098 75.6834 156.707 75.2929L150.343 68.9289C149.953 68.5384 149.319 68.5384 148.929 68.9289C148.538 69.3195 148.538 69.9526 148.929 70.3431L154.586 76L148.929 81.6569C148.538 82.0474 148.538 82.6805 148.929 83.0711C149.319 83.4616 149.953 83.4616 150.343 83.0711L156.707 76.7071ZM109 76L109 77L114.875 77L114.875 76L114.875 75L109 75L109 76ZM126.625 76L126.625 77L138.375 77L138.375 76L138.375 75L126.625 75L126.625 76ZM150.125 76L150.125 77L156 77L156 76L156 75L150.125 75L150.125 76ZM156.707 76.7071C157.098 76.3166 157.098 75.6834 156.707 75.2929L150.343 68.9289C149.953 68.5384 149.319 68.5384 148.929 68.9289C148.538 69.3195 148.538 69.9526 148.929 70.3431L154.586 76L148.929 81.6569C148.538 82.0474 148.538 82.6805 148.929 83.0711C149.319 83.4616 149.953 83.4616 150.343 83.0711L156.707 76.7071ZM109 76L109 77L114.875 77L114.875 76L114.875 75L109 75L109 76ZM126.625 76L126.625 77L138.375 77L138.375 76L138.375 75L126.625 75L126.625 76ZM150.125 76L150.125 77L156 77L156 76L156 75L150.125 75L150.125 76Z" fill="white"/>
<path opacity="0.5" d="M261.707 76.7071C262.098 76.3166 262.098 75.6834 261.707 75.2929L255.343 68.9289C254.953 68.5384 254.319 68.5384 253.929 68.9289C253.538 69.3195 253.538 69.9526 253.929 70.3431L259.586 76L253.929 81.6569C253.538 82.0474 253.538 82.6805 253.929 83.0711C254.319 83.4616 254.953 83.4616 255.343 83.0711L261.707 76.7071ZM214 76L214 77L219.875 77L219.875 76L219.875 75L214 75L214 76ZM231.625 76L231.625 77L243.375 77L243.375 76L243.375 75L231.625 75L231.625 76ZM255.125 76L255.125 77L261 77L261 76L261 75L255.125 75L255.125 76ZM261.707 76.7071C262.098 76.3166 262.098 75.6834 261.707 75.2929L255.343 68.9289C254.953 68.5384 254.319 68.5384 253.929 68.9289C253.538 69.3195 253.538 69.9526 253.929 70.3431L259.586 76L253.929 81.6569C253.538 82.0474 253.538 82.6805 253.929 83.0711C254.319 83.4616 254.953 83.4616 255.343 83.0711L261.707 76.7071ZM214 76L214 77L219.875 77L219.875 76L219.875 75L214 75L214 76ZM231.625 76L231.625 77L243.375 77L243.375 76L243.375 75L231.625 75L231.625 76ZM255.125 76L255.125 77L261 77L261 76L261 75L255.125 75L255.125 76Z" fill="white"/>
<defs>
<linearGradient id="paint0_linear_71_19" x1="197" y1="51.7326" x2="197" y2="181" gradientUnits="userSpaceOnUse">
<stop offset="0.403846" stop-color="#001AFF" stop-opacity="0"/>
<stop offset="0.649038" stop-color="#0011AD" stop-opacity="0.34"/>
<stop offset="1" stop-color="#000F99"/>
</linearGradient>
</defs>
</svg>
