<svg width="2864" height="4558" viewBox="0 0 2864 4558" fill="none" xmlns="http://www.w3.org/2000/svg">
<path d="M1707.76 3135.56C1662.56 3097.45 1649.44 2254.94 1728.45 2206.06C1826.36 2137.89 2065.7 2040.65 2239.72 2197.06C2341.09 2280.51 2234.29 2858.65 2151.77 3130.5C2143.08 3327.12 2041.45 3656.54 1704.52 3401.26C1513.89 3421.69 901.237 3318.45 901.237 3318.45C870.075 3343.7 789.046 3384.66 714.23 3346.56C622.913 3231.5 710.641 3117.45 765.919 3074.81C806.675 3091.51 992.904 3155.91 1283.35 3082.16C1403.11 3025.3 1621.53 3109.05 1707.76 3135.56Z" stroke="#1B371D" stroke-width="30"/>
<mask id="path-2-inside-1_44_696" fill="white">
<path d="M432.597 3736.15C446.598 3711.54 462.187 3667.04 490.588 3617.45L444.355 3609.48C436.463 3608.13 431.177 3600.61 432.549 3592.75C432.684 3591.93 432.902 3591.16 433.166 3590.41C435.458 3583.84 442.2 3579.7 449.269 3580.92L497.32 3589.19C502.577 3590.1 509.19 3587.22 512.185 3582.82C513.893 3580.35 515.623 3577.87 517.392 3575.37C520.47 3571.02 518.778 3566.79 513.535 3565.89L489.302 3561.71C481.413 3560.36 476.14 3552.85 477.481 3544.97C477.63 3544.16 477.819 3543.38 478.083 3542.63C480.37 3536.08 487.111 3531.93 494.201 3533.15L534.13 3540.02C539.402 3540.94 546.461 3538.39 550.038 3534.41C552.524 3531.62 555.085 3528.84 557.711 3526.08C561.372 3522.2 560.158 3518.41 554.896 3517.52L534.259 3513.96C526.355 3512.61 521.063 3505.1 522.438 3497.22C522.589 3496.41 522.758 3495.64 523.02 3494.89C525.308 3488.34 532.077 3484.2 539.153 3485.41L581.631 3492.73C586.882 3493.65 594.44 3491.58 598.554 3488.21C602.502 3485.02 606.563 3481.85 610.71 3478.72C614.951 3475.5 614.214 3472.24 608.957 3471.34L579.2 3466.2C571.311 3464.86 566.033 3457.36 567.408 3449.48C567.53 3448.66 567.733 3447.88 567.991 3447.14C570.283 3440.58 577.038 3436.44 584.123 3437.67L657.94 3450.39C662.01 3448.76 665.933 3447.31 669.27 3446.25C697.499 3437.23 750.03 3417.86 769.544 3393.52C789.954 3368.04 777.127 3337.42 759.436 3325.62C750.535 3319.71 732.77 3318.43 722.099 3318.2C715.479 3318.06 707.935 3318.81 700.946 3321.63C691.05 3325.61 682.143 3325.32 678.338 3315.36C669.328 3292.04 655.331 3249.01 654.524 3205.48C652.936 3119.68 696.332 3119.91 696.332 3119.91C696.332 3119.91 756.669 3122.12 785.689 3102.05C794.471 3095.99 802.486 3079.88 803.597 3069.29C803.968 3065.52 803.781 3061.87 803.337 3058.3C766.157 3052.05 672.292 3048.81 576.515 3144.57C452.222 3268.75 333.957 3561.18 312.408 3616.19C310.454 3621.17 309.575 3620.93 310.462 3615.68C317.021 3577.23 345.313 3429.25 411.349 3295.29C492.568 3130.66 597.367 2989.64 751.242 2996.88C748.496 2994.96 745.927 2993.15 743.745 2991.51C725.012 2977.47 713.144 2966.38 667.791 2949.1C657.815 2945.32 644.048 2935.86 635.854 2929.02C626.078 2920.83 611.004 2910.51 590.645 2902.73C570.375 2894.99 552.879 2888.9 540.656 2884.81C530.542 2881.43 514.605 2882.98 506.46 2889.87C500.616 2894.78 494.115 2901.33 488.644 2909.54C482.708 2918.42 472.915 2931.96 466.5 2940.51C463.718 2944.2 460.906 2948.64 458.466 2953.82C453.933 2963.49 451.182 2975.68 449.393 2980C447.616 2984.32 444.082 2987.08 441.48 2986.18C438.878 2985.27 434.941 2989.8 432.669 2996.3C430.397 3002.81 430.64 3010.9 433.174 3014.38C435.726 3017.86 436.839 3023.4 435.667 3026.76C434.495 3030.11 430.806 3031.9 427.464 3030.73C424.109 3029.56 419.668 3033.53 417.541 3039.62C415.414 3045.71 415.984 3053.34 418.848 3056.68C421.658 3060.03 423.086 3065.31 421.986 3068.46C420.891 3071.59 416.449 3075 412.079 3076.06C407.694 3077.13 402.594 3082.42 400.689 3087.88C398.784 3093.33 399.383 3100.41 401.989 3103.67C404.614 3106.95 402.895 3111.87 398.148 3114.67C393.399 3117.49 387.466 3125.74 384.905 3133.07C382.345 3140.41 382.166 3147.99 384.521 3149.99C386.896 3151.98 387.743 3156.67 386.422 3160.46C385.105 3164.23 381.236 3168.23 377.752 3169.37C374.298 3170.52 370.745 3177.48 369.775 3184.9C368.838 3192.34 370.602 3200.96 373.709 3204.17C376.819 3207.38 376.147 3211.54 372.193 3213.46C368.216 3215.34 362.186 3222.21 358.744 3228.79C355.264 3235.33 353.548 3244.09 354.907 3248.33C356.248 3252.56 355.869 3258.54 354.099 3261.67C352.275 3264.79 348.281 3266.45 345.131 3265.35C341.966 3264.25 337.4 3269.15 334.913 3276.28C332.419 3283.42 331.373 3291.83 332.604 3295.09C333.824 3298.34 333.304 3303.68 331.423 3307.02C329.56 3310.37 326.329 3312.49 324.23 3311.76C322.132 3311.03 319.203 3314 317.664 3318.41C316.121 3322.83 315.223 3329.76 315.649 3333.91C316.092 3338.06 315.386 3343.36 314.08 3345.72C312.782 3348.1 309.854 3349.37 307.532 3348.56C305.228 3347.75 300.516 3355.26 297 3365.33L296.468 3366.86C292.947 3376.94 292.836 3386.04 296.178 3387.21C299.533 3388.38 301.242 3392.23 300.003 3395.77C298.758 3399.34 295.01 3401.28 291.67 3400.11C288.312 3398.94 283.101 3405.13 280.024 3413.94C276.947 3422.75 275.247 3433.61 276.229 3438.2C277.235 3442.78 275.273 3448.4 271.851 3450.73C268.453 3453.06 262.903 3462.97 259.46 3472.83C256.016 3482.69 255.009 3493.22 257.202 3496.34C259.399 3499.46 261.029 3505.19 260.854 3509.11C260.63 3513.03 257.637 3516.76 254.123 3517.41C250.594 3518.07 246.528 3527.15 244.974 3537.72L244.533 3540.88C243.023 3551.44 244.667 3562.16 248.236 3564.82C251.773 3567.46 254.337 3571.61 253.948 3574.06C253.557 3576.51 249.968 3579.66 245.956 3581.08C241.93 3582.49 238.294 3589.63 237.861 3596.99C237.395 3604.36 241.494 3612.86 246.995 3615.96C252.499 3619.06 256.912 3625.56 256.823 3630.47C256.764 3635.39 253.3 3638.18 249.104 3636.72C244.903 3635.25 241.734 3642.72 241.977 3653.37C242.271 3664.12 245.882 3673.96 250.083 3675.42C254.281 3676.89 257.828 3680.98 257.97 3684.56C258.129 3688.15 256.199 3692.06 253.661 3693.29C251.114 3694.51 250.495 3700.6 252.314 3706.89C254.102 3713.17 258.072 3719.9 261.12 3721.91C264.181 3723.92 268.377 3734.09 272.657 3743.87C281.52 3764.05 302.211 3794.33 347.927 3799.08C417.441 3806.29 402.822 3788.4 432.597 3736.15Z"/>
</mask>
<path d="M432.597 3736.15C446.598 3711.54 462.187 3667.04 490.588 3617.45L444.355 3609.48C436.463 3608.13 431.177 3600.61 432.549 3592.75C432.684 3591.93 432.902 3591.16 433.166 3590.41C435.458 3583.84 442.2 3579.7 449.269 3580.92L497.32 3589.19C502.577 3590.1 509.19 3587.22 512.185 3582.82C513.893 3580.35 515.623 3577.87 517.392 3575.37C520.47 3571.02 518.778 3566.79 513.535 3565.89L489.302 3561.71C481.413 3560.36 476.14 3552.85 477.481 3544.97C477.63 3544.16 477.819 3543.38 478.083 3542.63C480.37 3536.08 487.111 3531.93 494.201 3533.15L534.13 3540.02C539.402 3540.94 546.461 3538.39 550.038 3534.41C552.524 3531.62 555.085 3528.84 557.711 3526.08C561.372 3522.2 560.158 3518.41 554.896 3517.52L534.259 3513.96C526.355 3512.61 521.063 3505.1 522.438 3497.22C522.589 3496.41 522.758 3495.64 523.02 3494.89C525.308 3488.34 532.077 3484.2 539.153 3485.41L581.631 3492.73C586.882 3493.65 594.44 3491.58 598.554 3488.21C602.502 3485.02 606.563 3481.85 610.71 3478.72C614.951 3475.5 614.214 3472.24 608.957 3471.34L579.2 3466.2C571.311 3464.86 566.033 3457.36 567.408 3449.48C567.53 3448.66 567.733 3447.88 567.991 3447.14C570.283 3440.58 577.038 3436.44 584.123 3437.67L657.94 3450.39C662.01 3448.76 665.933 3447.31 669.27 3446.25C697.499 3437.23 750.03 3417.86 769.544 3393.52C789.954 3368.04 777.127 3337.42 759.436 3325.62C750.535 3319.71 732.77 3318.43 722.099 3318.2C715.479 3318.06 707.935 3318.81 700.946 3321.63C691.05 3325.61 682.143 3325.32 678.338 3315.36C669.328 3292.04 655.331 3249.01 654.524 3205.48C652.936 3119.68 696.332 3119.91 696.332 3119.91C696.332 3119.91 756.669 3122.12 785.689 3102.05C794.471 3095.99 802.486 3079.88 803.597 3069.29C803.968 3065.52 803.781 3061.87 803.337 3058.3C766.157 3052.05 672.292 3048.81 576.515 3144.57C452.222 3268.75 333.957 3561.18 312.408 3616.19C310.454 3621.17 309.575 3620.93 310.462 3615.68C317.021 3577.23 345.313 3429.25 411.349 3295.29C492.568 3130.66 597.367 2989.64 751.242 2996.88C748.496 2994.96 745.927 2993.15 743.745 2991.51C725.012 2977.47 713.144 2966.38 667.791 2949.1C657.815 2945.32 644.048 2935.86 635.854 2929.02C626.078 2920.83 611.004 2910.51 590.645 2902.73C570.375 2894.99 552.879 2888.9 540.656 2884.81C530.542 2881.43 514.605 2882.98 506.46 2889.87C500.616 2894.78 494.115 2901.33 488.644 2909.54C482.708 2918.42 472.915 2931.96 466.5 2940.51C463.718 2944.2 460.906 2948.64 458.466 2953.82C453.933 2963.49 451.182 2975.68 449.393 2980C447.616 2984.32 444.082 2987.08 441.48 2986.18C438.878 2985.27 434.941 2989.8 432.669 2996.3C430.397 3002.81 430.64 3010.9 433.174 3014.38C435.726 3017.86 436.839 3023.4 435.667 3026.76C434.495 3030.11 430.806 3031.9 427.464 3030.73C424.109 3029.56 419.668 3033.53 417.541 3039.62C415.414 3045.71 415.984 3053.34 418.848 3056.68C421.658 3060.03 423.086 3065.31 421.986 3068.46C420.891 3071.59 416.449 3075 412.079 3076.06C407.694 3077.13 402.594 3082.42 400.689 3087.88C398.784 3093.33 399.383 3100.41 401.989 3103.67C404.614 3106.95 402.895 3111.87 398.148 3114.67C393.399 3117.49 387.466 3125.74 384.905 3133.07C382.345 3140.41 382.166 3147.99 384.521 3149.99C386.896 3151.98 387.743 3156.67 386.422 3160.46C385.105 3164.23 381.236 3168.23 377.752 3169.37C374.298 3170.52 370.745 3177.48 369.775 3184.9C368.838 3192.34 370.602 3200.96 373.709 3204.17C376.819 3207.38 376.147 3211.54 372.193 3213.46C368.216 3215.34 362.186 3222.21 358.744 3228.79C355.264 3235.33 353.548 3244.09 354.907 3248.33C356.248 3252.56 355.869 3258.54 354.099 3261.67C352.275 3264.79 348.281 3266.45 345.131 3265.35C341.966 3264.25 337.4 3269.15 334.913 3276.28C332.419 3283.42 331.373 3291.83 332.604 3295.09C333.824 3298.34 333.304 3303.68 331.423 3307.02C329.56 3310.37 326.329 3312.49 324.23 3311.76C322.132 3311.03 319.203 3314 317.664 3318.41C316.121 3322.83 315.223 3329.76 315.649 3333.91C316.092 3338.06 315.386 3343.36 314.08 3345.72C312.782 3348.1 309.854 3349.37 307.532 3348.56C305.228 3347.75 300.516 3355.26 297 3365.33L296.468 3366.86C292.947 3376.94 292.836 3386.04 296.178 3387.21C299.533 3388.38 301.242 3392.23 300.003 3395.77C298.758 3399.34 295.01 3401.28 291.67 3400.11C288.312 3398.94 283.101 3405.13 280.024 3413.94C276.947 3422.75 275.247 3433.61 276.229 3438.2C277.235 3442.78 275.273 3448.4 271.851 3450.73C268.453 3453.06 262.903 3462.97 259.46 3472.83C256.016 3482.69 255.009 3493.22 257.202 3496.34C259.399 3499.46 261.029 3505.19 260.854 3509.11C260.63 3513.03 257.637 3516.76 254.123 3517.41C250.594 3518.07 246.528 3527.15 244.974 3537.72L244.533 3540.88C243.023 3551.44 244.667 3562.16 248.236 3564.82C251.773 3567.46 254.337 3571.61 253.948 3574.06C253.557 3576.51 249.968 3579.66 245.956 3581.08C241.93 3582.49 238.294 3589.63 237.861 3596.99C237.395 3604.36 241.494 3612.86 246.995 3615.96C252.499 3619.06 256.912 3625.56 256.823 3630.47C256.764 3635.39 253.3 3638.18 249.104 3636.72C244.903 3635.25 241.734 3642.72 241.977 3653.37C242.271 3664.12 245.882 3673.96 250.083 3675.42C254.281 3676.89 257.828 3680.98 257.97 3684.56C258.129 3688.15 256.199 3692.06 253.661 3693.29C251.114 3694.51 250.495 3700.6 252.314 3706.89C254.102 3713.17 258.072 3719.9 261.12 3721.91C264.181 3723.92 268.377 3734.09 272.657 3743.87C281.52 3764.05 302.211 3794.33 347.927 3799.08C417.441 3806.29 402.822 3788.4 432.597 3736.15Z" fill="#1B371D" stroke="white" stroke-width="20" mask="url(#path-2-inside-1_44_696)"/>
<path d="M2120.72 2168.71C2141.3 2170.78 2161.87 2173.28 2182.12 2176.13L2180.72 2186.03C2201.41 2188.95 2221.76 2192.22 2241.41 2195.76L2243.18 2185.91C2264.36 2189.72 2284.73 2193.83 2303.88 2198.1L2301.71 2207.86C2323.36 2212.69 2343.4 2217.73 2361.18 2222.78L2363.91 2213.16C2387.75 2219.92 2407.68 2226.74 2422.22 2233.14L2418.19 2242.29C2424.79 2245.2 2429.94 2247.89 2433.63 2250.29C2437.58 2252.85 2438.89 2254.46 2439.12 2254.85C2442.22 2260.21 2446.18 2268.74 2450.68 2280.48L2460.01 2276.9C2465.66 2291.62 2471.93 2310.69 2478.31 2333.72L2468.67 2336.39C2473.37 2353.38 2478.14 2372.58 2482.76 2393.83L2492.53 2391.71C2496.46 2409.82 2500.28 2429.39 2503.85 2450.32L2494 2452C2497.16 2470.51 2500.13 2490.1 2502.82 2510.7L2512.73 2509.41C2515.2 2528.35 2517.43 2548.13 2519.36 2568.7L2509.4 2569.63C2511.18 2588.7 2512.7 2608.45 2513.89 2628.84L2523.87 2628.26C2525 2647.58 2525.84 2667.49 2526.35 2687.93L2526.35 2687.93L2516.35 2688.17C2516.83 2707.49 2517 2727.29 2516.84 2747.54L2526.83 2747.62C2526.67 2767.11 2526.2 2787.01 2525.37 2807.3L2525.37 2807.3L2515.38 2806.89C2514.58 2826.3 2513.47 2846.07 2512 2866.18L2521.97 2866.91C2520.54 2886.43 2518.78 2906.28 2516.66 2926.41L2506.72 2925.37C2505.69 2935.15 2504.57 2945 2503.37 2954.91L2503.33 2955.25L2503.31 2955.58C2503.13 2958.82 2503.14 2963.55 2503.49 2969.16L2513.47 2968.55C2513.9 2975.52 2514.9 2984.16 2516.9 2993.17L2516.89 2993.17L2507.13 2995.33C2508.07 2999.58 2509.23 3003.93 2510.65 3008.27C2511.36 3010.48 2511.9 3014.83 2511.78 3021.64C2511.67 3028.19 2510.98 3036.18 2509.8 3045.12L2519.71 3046.43C2516.41 3071.48 2509.58 3102.3 2502.14 3127.54L2492.55 3124.71C2487.93 3140.38 2483.24 3153.25 2479.28 3160.99L2478.9 3161.73C2476.35 3166.55 2471.96 3175.09 2466.53 3186.08L2475.5 3190.51C2468.89 3203.89 2460.71 3220.97 2452.44 3239.4L2452.44 3239.4L2443.31 3235.31C2436.04 3251.55 2428.67 3268.88 2422.22 3285.74L2431.56 3289.31L2431.57 3289.31C2424.48 3307.84 2418.54 3325.72 2415.14 3340.79L2405.38 3338.58C2403.02 3349.03 2401.64 3358.95 2402.13 3367.29C2400.92 3377.04 2399.34 3386.82 2397.42 3396.6L2407.23 3398.53C2403.23 3418.84 2397.81 3439.11 2391.32 3459.18L2381.81 3456.11C2375.51 3475.6 2368.16 3494.95 2360.08 3514.01L2369.29 3517.91C2361.09 3537.25 2352.17 3556.26 2342.85 3574.78L2333.92 3570.29C2324.43 3589.14 2314.53 3607.51 2304.55 3625.23L2313.27 3630.14C2302.64 3649.01 2291.96 3667.13 2281.63 3684.31L2273.06 3679.16C2261.56 3698.3 2250.58 3716.14 2240.5 3732.78L2249.05 3737.96L2249.06 3737.96C2236.65 3758.44 2225.83 3776.72 2217.7 3792.32L2217.7 3792.32L2208.83 3787.7C2203.43 3798.08 2199.01 3807.61 2196.07 3816.05L2195.51 3817.72C2192.34 3827.29 2189.54 3836.71 2187.07 3845.97L2196.73 3848.54C2191.5 3868.14 2187.79 3886.99 2185.29 3905.06L2175.38 3903.69C2172.53 3924.27 2171.21 3943.86 2171 3962.44L2180.99 3962.55L2181 3962.55C2180.76 3983.03 2181.88 4002.25 2183.76 4020.16L2183.76 4020.16L2173.81 4021.2C2176.04 4042.39 2179.3 4061.72 2182.62 4079.03L2192.44 4077.16L2192.44 4077.15C2196.65 4099.17 2200.98 4118.11 2203.42 4133.79L2193.54 4135.33C2194.6 4142.13 2195.23 4147.95 2195.38 4152.93L2173.89 4153.9L2174.35 4163.89L2113.04 4166.67L2112.59 4156.68L2051.28 4159.46L2051.73 4169.44L1990.42 4172.22L1989.97 4162.23L1928.66 4165.01L1929.12 4175L1867.81 4177.78L1867.36 4167.79L1853.51 4168.42C1855.95 4163.26 1858.31 4158.12 1860.6 4152.99L1851.46 4148.92L1851.46 4148.92C1860.79 4127.99 1868.88 4107.23 1875.89 4086.74L1875.89 4086.74L1885.35 4089.97C1892.86 4067.99 1899.13 4046.29 1904.34 4025L1894.62 4022.63C1900.08 4000.31 1904.35 3978.43 1907.64 3957.11L1907.65 3957.12L1917.53 3958.64C1921.11 3935.54 1923.55 3913.09 1925.11 3891.45L1915.14 3890.73L1915.14 3890.73C1916.82 3867.47 1917.48 3845.15 1917.46 3823.95L1917.46 3823.95L1927.46 3823.94C1927.43 3799.93 1926.52 3777.36 1925.19 3756.52L1915.21 3757.15L1915.21 3757.15C1913.64 3732.39 1911.49 3710.04 1909.55 3690.55L1909.55 3690.55L1919.5 3689.56C1918.28 3677.29 1917.15 3666.28 1916.3 3656.49L1915.93 3652.14C1915.09 3642.03 1914.45 3632.3 1913.99 3622.94L1904 3623.43C1902.77 3598.56 1902.79 3576.13 1903.82 3555.63L1913.81 3556.13C1915.04 3531.55 1917.75 3509.86 1921.5 3490.17L1911.67 3488.3C1916.27 3464.17 1922.4 3442.87 1929.33 3422.87L1938.77 3426.15C1946.26 3404.55 1954.68 3384.48 1963.27 3363.5L1954.02 3359.71C1962.24 3339.6 1970.46 3319.04 1977.78 3296.2L1977.78 3296.2L1987.31 3299.25C1990.48 3289.37 1993.49 3279.06 1996.26 3268.18L1996.82 3265.99C1999.75 3254.3 2003.03 3242.93 2006.46 3231.78L1996.9 3228.85C2004.26 3204.87 2012.15 3182.2 2018.34 3160L2018.34 3160L2027.97 3162.69C2034.74 3138.43 2039.69 3114.12 2039.64 3089L2029.64 3089.01L2029.64 3089.01C2029.6 3066.46 2025.32 3043.45 2014.45 3019.1L2014.45 3019.1L2023.58 3015.02C2018.82 3004.37 2012.89 2993.54 2005.64 2982.48C2001.56 2974.71 1997.35 2965.9 1993.05 2956.14L1983.9 2960.18C1976.55 2943.55 1969 2924.42 1961.33 2903.37L1970.72 2899.95C1964.21 2882.08 1957.61 2862.79 1950.97 2842.43L1941.46 2845.53C1935.37 2826.85 1929.26 2807.3 1923.18 2787.17L1932.76 2784.28C1927 2765.23 1921.27 2745.65 1915.61 2725.78L1905.99 2728.52C1900.45 2709.09 1894.98 2689.39 1889.6 2669.65L1899.25 2667.02C1893.9 2647.35 1888.64 2627.62 1883.52 2608.07L1873.84 2610.6C1868.61 2590.62 1863.52 2570.81 1858.61 2551.42L1868.3 2548.96C1863.17 2528.7 1858.24 2508.88 1853.54 2489.78L1843.83 2492.17C1838.72 2471.36 1833.89 2451.4 1829.41 2432.65L1839.14 2430.33C1834 2408.79 1829.31 2388.84 1825.16 2371.01L1815.42 2373.27C1809.78 2348.97 1805.14 2328.59 1801.74 2313.47L1811.49 2311.27C1809.38 2301.87 1807.74 2294.51 1806.63 2289.49C1806.07 2286.99 1805.65 2285.07 1805.36 2283.77C1805.22 2283.13 1805.11 2282.64 1805.04 2282.31C1805.01 2282.15 1804.98 2282.03 1804.96 2281.95C1804.95 2281.91 1804.95 2281.87 1804.94 2281.85C1804.94 2281.84 1804.94 2281.84 1804.94 2281.83C1804.94 2281.83 1804.94 2281.83 1804.94 2281.83L1804.94 2281.82L1804.84 2281.37L1804.69 2280.92L1804.39 2279.96C1801.34 2270.11 1800.08 2261.33 1800.26 2253.52L1790.26 2253.3C1790.74 2231.5 1800.91 2214.32 1818.39 2201.05L1824.43 2209.01C1837.28 2199.25 1855.05 2191.46 1877.03 2185.63L1874.47 2175.97C1891.82 2171.37 1911.27 2168.05 1932.23 2165.86L1935.57 2165.52L1936.55 2175.47C1955.64 2173.59 1976.04 2172.63 1997.31 2172.45L1997.23 2162.46C2017.25 2162.29 2037.98 2162.82 2059.05 2163.94L2058.52 2173.93C2078.7 2174.99 2099.21 2176.61 2119.73 2178.66L2120.72 2168.71Z" fill="#124B19" stroke="#51FF00" stroke-width="20" stroke-dasharray="60 60"/>
<mask id="path-4-inside-2_44_696" fill="white">
<path d="M2611.81 4275.45C2584.2 4269.24 2537.08 4267.3 2481.36 4254.6L2487.22 4301.15C2488.23 4309.09 2482.58 4316.34 2474.66 4317.32C2473.84 4317.43 2473.04 4317.44 2472.24 4317.41C2465.3 4317.13 2459.36 4311.89 2458.47 4304.77L2452.37 4256.4C2451.71 4251.11 2447.02 4245.62 2441.94 4244.04C2439.08 4243.13 2436.2 4242.19 2433.29 4241.23C2428.24 4239.56 2424.69 4242.41 2425.35 4247.68L2428.42 4272.08C2429.43 4280.02 2423.79 4287.26 2415.86 4288.27C2415.04 4288.36 2414.24 4288.41 2413.44 4288.38C2406.51 4288.1 2400.58 4282.86 2399.67 4275.73L2394.61 4235.53C2393.94 4230.22 2389.45 4224.21 2384.6 4221.95C2381.2 4220.38 2377.8 4218.74 2374.39 4217.04C2369.61 4214.67 2366.34 4216.94 2367.02 4222.23L2369.64 4243.01C2370.65 4250.96 2365.01 4258.21 2357.07 4259.19C2356.26 4259.29 2355.47 4259.35 2354.67 4259.32C2347.74 4259.04 2341.81 4253.77 2340.9 4246.65L2335.52 4203.88C2334.87 4198.59 2330.68 4191.97 2326.25 4189.01C2322.06 4186.17 2317.83 4183.21 2313.63 4180.16C2309.32 4177.04 2306.42 4178.69 2307.08 4183.98L2310.85 4213.94C2311.86 4221.88 2306.23 4229.12 2298.29 4230.1C2297.47 4230.22 2296.67 4230.26 2295.89 4230.22C2288.94 4229.95 2283.01 4224.69 2282.12 4217.56L2272.76 4143.24C2270.02 4139.82 2267.49 4136.49 2265.5 4133.61C2248.64 4109.24 2214.79 4064.64 2185.82 4053.07C2155.49 4040.98 2129.95 4062.18 2123.82 4082.54C2120.76 4092.78 2124.72 4110.14 2127.61 4120.42C2129.41 4126.79 2132.33 4133.79 2137.06 4139.65C2143.75 4147.96 2146.07 4156.56 2137.65 4163.1C2117.98 4178.52 2080.89 4204.46 2039.49 4217.93C1957.89 4244.47 1945.45 4202.89 1945.45 4202.89C1945.45 4202.89 1929.97 4144.53 1902.31 4122.63C1893.95 4115.99 1876.2 4113.02 1865.75 4115.05C1862.04 4115.79 1858.6 4117.04 1855.31 4118.5C1860.18 4155.89 1884.46 4246.62 2003.98 4310.31C2159 4392.99 2473.22 4420.83 2532.12 4425.4C2537.45 4425.82 2537.48 4426.73 2532.2 4427.41C2493.51 4432.35 2343.71 4448.44 2196.32 4424.34C2015.16 4394.66 1849.71 4335.54 1811.76 4186.24C1810.72 4189.43 1809.74 4192.42 1808.81 4194.98C1800.84 4217 1793.69 4231.58 1790.39 4280C1789.68 4290.65 1784.65 4306.57 1780.49 4316.41C1775.51 4328.15 1770.03 4345.58 1768.53 4367.32C1767.04 4388.96 1766.31 4407.48 1765.97 4420.36C1765.68 4431.02 1771.81 4445.81 1780.78 4451.59C1787.18 4455.75 1795.35 4460.06 1804.79 4462.9C1815.01 4465.99 1830.83 4471.41 1840.87 4475.05C1845.21 4476.64 1850.28 4478.03 1855.95 4478.85C1866.52 4480.37 1878.98 4479.45 1883.63 4479.9C1888.29 4480.34 1891.96 4482.91 1891.85 4485.67C1891.74 4488.42 1897.22 4490.86 1904.11 4491.14C1910.99 4491.42 1918.66 4488.82 1921.25 4485.39C1923.83 4481.93 1928.81 4479.25 1932.36 4479.39C1935.92 4479.53 1938.7 4482.54 1938.55 4486.08C1938.41 4489.63 1943.51 4492.72 1949.95 4492.98C1956.4 4493.24 1963.53 4490.47 1965.89 4486.75C1968.28 4483.09 1972.91 4480.18 1976.24 4480.32C1979.56 4480.45 1984.11 4483.71 1986.4 4487.57C1988.71 4491.46 1995.25 4494.79 2001.03 4495.02C2006.8 4495.26 2013.4 4492.62 2015.76 4489.17C2018.12 4485.71 2023.33 4485.92 2027.4 4489.64C2031.48 4493.36 2041.1 4496.63 2048.86 4496.94C2056.62 4497.25 2063.93 4495.21 2065.16 4492.38C2066.37 4489.52 2070.61 4487.35 2074.61 4487.51C2078.6 4487.67 2083.56 4490.2 2085.67 4493.2C2087.78 4496.17 2095.46 4497.54 2102.85 4496.3C2110.23 4495.03 2117.97 4490.83 2120.13 4486.92C2122.3 4483.01 2126.47 4482.44 2129.46 4485.66C2132.42 4488.91 2140.75 4492.68 2148.04 4494.05C2155.32 4495.47 2164.2 4494.56 2167.86 4492.02C2171.51 4489.51 2177.34 4488.13 2180.85 4488.91C2184.37 4489.74 2187.12 4493.08 2186.99 4496.41C2186.85 4499.76 2192.88 4502.7 2200.42 4503C2207.98 4503.3 2216.33 4501.85 2219.09 4499.72C2221.84 4497.61 2227.1 4496.55 2230.85 4497.37C2234.59 4498.18 2237.56 4500.65 2237.48 4502.87C2237.39 4505.09 2241.09 4507.03 2245.75 4507.21C2250.43 4507.4 2257.32 4506.24 2261.17 4504.62C2265.01 4502.98 2270.28 4502.12 2272.92 4502.68C2275.58 4503.22 2277.64 4505.65 2277.54 4508.11C2277.45 4510.55 2286 4512.87 2296.66 4513.29L2298.27 4513.36C2308.94 4513.79 2317.68 4511.24 2317.82 4507.7C2317.96 4504.15 2321.15 4501.39 2324.9 4501.54C2328.67 4501.7 2331.63 4504.71 2331.48 4508.25C2331.34 4511.8 2338.78 4514.98 2348.11 4515.36C2357.43 4515.73 2368.31 4514.19 2372.41 4511.91C2376.5 4509.62 2382.45 4509.85 2385.68 4512.45C2388.9 4515.02 2399.99 4517.44 2410.43 4517.85C2420.87 4518.27 2431.23 4516.17 2433.58 4513.16C2435.93 4510.15 2440.93 4506.92 2444.73 4505.94C2448.55 4505.01 2452.99 4506.79 2454.63 4509.96C2456.29 4513.14 2466.16 4514.38 2476.73 4512.79L2479.88 4512.29C2490.42 4510.65 2500.2 4505.95 2501.7 4501.76C2503.2 4497.61 2506.42 4493.95 2508.87 4493.6C2511.33 4493.26 2515.38 4495.78 2517.91 4499.2C2520.44 4502.64 2528.33 4504.04 2535.5 4502.31C2542.68 4500.6 2549.61 4494.2 2550.97 4488.04C2552.33 4481.87 2557.27 4475.75 2561.99 4474.4C2566.72 4473.03 2570.39 4475.53 2570.21 4479.97C2570.04 4484.41 2578.1 4485.27 2588.22 4481.93C2598.42 4478.51 2606.78 4472.19 2606.95 4467.74C2607.13 4463.3 2610.01 4458.71 2613.4 4457.53C2616.78 4456.33 2621.08 4457.04 2623 4459.11C2624.91 4461.19 2630.92 4460.01 2636.4 4456.43C2641.89 4452.89 2647.17 4447.13 2648.2 4443.63C2649.23 4440.11 2657.74 4433.13 2665.84 4426.19C2682.56 4411.83 2705.49 4383.2 2696.7 4338.09C2683.33 4269.49 2670.48 4288.7 2611.81 4275.45Z"/>
</mask>
<path d="M2611.81 4275.45C2584.2 4269.24 2537.08 4267.3 2481.36 4254.6L2487.22 4301.15C2488.23 4309.09 2482.58 4316.34 2474.66 4317.32C2473.84 4317.43 2473.04 4317.44 2472.24 4317.41C2465.3 4317.13 2459.36 4311.89 2458.47 4304.77L2452.37 4256.4C2451.71 4251.11 2447.02 4245.62 2441.94 4244.04C2439.08 4243.13 2436.2 4242.19 2433.29 4241.23C2428.24 4239.56 2424.69 4242.41 2425.35 4247.68L2428.42 4272.08C2429.43 4280.02 2423.79 4287.26 2415.86 4288.27C2415.04 4288.36 2414.24 4288.41 2413.44 4288.38C2406.51 4288.1 2400.58 4282.86 2399.67 4275.73L2394.61 4235.53C2393.94 4230.22 2389.45 4224.21 2384.6 4221.95C2381.2 4220.38 2377.8 4218.74 2374.39 4217.04C2369.61 4214.67 2366.34 4216.94 2367.02 4222.23L2369.64 4243.01C2370.65 4250.96 2365.01 4258.21 2357.07 4259.19C2356.26 4259.29 2355.47 4259.35 2354.67 4259.32C2347.74 4259.04 2341.81 4253.77 2340.9 4246.65L2335.52 4203.88C2334.87 4198.59 2330.68 4191.97 2326.25 4189.01C2322.06 4186.17 2317.83 4183.21 2313.63 4180.16C2309.32 4177.04 2306.42 4178.69 2307.08 4183.98L2310.85 4213.94C2311.86 4221.88 2306.23 4229.12 2298.29 4230.1C2297.47 4230.22 2296.67 4230.26 2295.89 4230.22C2288.94 4229.95 2283.01 4224.69 2282.12 4217.56L2272.76 4143.24C2270.02 4139.82 2267.49 4136.49 2265.5 4133.61C2248.64 4109.24 2214.79 4064.64 2185.82 4053.07C2155.49 4040.98 2129.95 4062.18 2123.82 4082.54C2120.76 4092.78 2124.72 4110.14 2127.61 4120.42C2129.41 4126.79 2132.33 4133.79 2137.06 4139.65C2143.75 4147.96 2146.07 4156.56 2137.65 4163.1C2117.98 4178.52 2080.89 4204.46 2039.49 4217.93C1957.89 4244.47 1945.45 4202.89 1945.45 4202.89C1945.45 4202.89 1929.97 4144.53 1902.31 4122.63C1893.95 4115.99 1876.2 4113.02 1865.75 4115.05C1862.04 4115.79 1858.6 4117.04 1855.31 4118.5C1860.18 4155.89 1884.46 4246.62 2003.98 4310.31C2159 4392.99 2473.22 4420.83 2532.12 4425.4C2537.45 4425.82 2537.48 4426.73 2532.2 4427.41C2493.51 4432.35 2343.71 4448.44 2196.32 4424.34C2015.16 4394.66 1849.71 4335.54 1811.76 4186.24C1810.72 4189.43 1809.74 4192.42 1808.81 4194.98C1800.84 4217 1793.69 4231.58 1790.39 4280C1789.68 4290.65 1784.65 4306.57 1780.49 4316.41C1775.51 4328.15 1770.03 4345.58 1768.53 4367.32C1767.04 4388.96 1766.31 4407.48 1765.97 4420.36C1765.68 4431.02 1771.81 4445.81 1780.78 4451.59C1787.18 4455.75 1795.35 4460.06 1804.79 4462.9C1815.01 4465.99 1830.83 4471.41 1840.87 4475.05C1845.21 4476.64 1850.28 4478.03 1855.95 4478.85C1866.52 4480.37 1878.98 4479.45 1883.63 4479.9C1888.29 4480.34 1891.96 4482.91 1891.85 4485.67C1891.74 4488.42 1897.22 4490.86 1904.11 4491.14C1910.99 4491.42 1918.66 4488.82 1921.25 4485.39C1923.83 4481.93 1928.81 4479.25 1932.36 4479.39C1935.92 4479.53 1938.7 4482.54 1938.55 4486.08C1938.41 4489.63 1943.51 4492.72 1949.95 4492.98C1956.4 4493.24 1963.53 4490.47 1965.89 4486.75C1968.28 4483.09 1972.91 4480.18 1976.24 4480.32C1979.56 4480.45 1984.11 4483.71 1986.4 4487.57C1988.71 4491.46 1995.25 4494.79 2001.03 4495.02C2006.8 4495.26 2013.4 4492.62 2015.76 4489.17C2018.12 4485.71 2023.33 4485.92 2027.4 4489.64C2031.48 4493.36 2041.1 4496.63 2048.86 4496.94C2056.62 4497.25 2063.93 4495.21 2065.16 4492.38C2066.37 4489.52 2070.61 4487.35 2074.61 4487.51C2078.6 4487.67 2083.56 4490.2 2085.67 4493.2C2087.78 4496.17 2095.46 4497.54 2102.85 4496.3C2110.23 4495.03 2117.97 4490.83 2120.13 4486.92C2122.3 4483.01 2126.47 4482.44 2129.46 4485.66C2132.42 4488.91 2140.75 4492.68 2148.04 4494.05C2155.32 4495.47 2164.2 4494.56 2167.86 4492.02C2171.51 4489.51 2177.34 4488.13 2180.85 4488.91C2184.37 4489.74 2187.12 4493.08 2186.99 4496.41C2186.85 4499.76 2192.88 4502.7 2200.42 4503C2207.98 4503.3 2216.33 4501.85 2219.09 4499.72C2221.84 4497.61 2227.1 4496.55 2230.85 4497.37C2234.59 4498.18 2237.56 4500.65 2237.48 4502.87C2237.39 4505.09 2241.09 4507.03 2245.75 4507.21C2250.43 4507.4 2257.32 4506.24 2261.17 4504.62C2265.01 4502.98 2270.28 4502.12 2272.92 4502.68C2275.58 4503.22 2277.64 4505.65 2277.54 4508.11C2277.45 4510.55 2286 4512.87 2296.66 4513.29L2298.27 4513.36C2308.94 4513.79 2317.68 4511.24 2317.82 4507.7C2317.96 4504.15 2321.15 4501.39 2324.9 4501.54C2328.67 4501.7 2331.63 4504.71 2331.48 4508.25C2331.34 4511.8 2338.78 4514.98 2348.11 4515.36C2357.43 4515.73 2368.31 4514.19 2372.41 4511.91C2376.5 4509.62 2382.45 4509.85 2385.68 4512.45C2388.9 4515.02 2399.99 4517.44 2410.43 4517.85C2420.87 4518.27 2431.23 4516.17 2433.58 4513.16C2435.93 4510.15 2440.93 4506.92 2444.73 4505.94C2448.55 4505.01 2452.99 4506.79 2454.63 4509.96C2456.29 4513.14 2466.16 4514.38 2476.73 4512.79L2479.88 4512.29C2490.42 4510.65 2500.2 4505.95 2501.7 4501.76C2503.2 4497.61 2506.42 4493.95 2508.87 4493.6C2511.33 4493.26 2515.38 4495.78 2517.91 4499.2C2520.44 4502.64 2528.33 4504.04 2535.5 4502.31C2542.68 4500.6 2549.61 4494.2 2550.97 4488.04C2552.33 4481.87 2557.27 4475.75 2561.99 4474.4C2566.72 4473.03 2570.39 4475.53 2570.21 4479.97C2570.04 4484.41 2578.1 4485.27 2588.22 4481.93C2598.42 4478.51 2606.78 4472.19 2606.95 4467.74C2607.13 4463.3 2610.01 4458.71 2613.4 4457.53C2616.78 4456.33 2621.08 4457.04 2623 4459.11C2624.91 4461.19 2630.92 4460.01 2636.4 4456.43C2641.89 4452.89 2647.17 4447.13 2648.2 4443.63C2649.23 4440.11 2657.74 4433.13 2665.84 4426.19C2682.56 4411.83 2705.49 4383.2 2696.7 4338.09C2683.33 4269.49 2670.48 4288.7 2611.81 4275.45Z" fill="#1B371D" stroke="white" stroke-width="20" mask="url(#path-4-inside-2_44_696)"/>
<path d="M2172.61 2401.47L2159.5 4504.8" stroke="#95FF00" stroke-width="10"/>
<path d="M2184.8 2370.71C2201.2 2375.86 2210.38 2393.74 2205.23 2410.68C2200.08 2427.63 2182.58 2437.13 2166.18 2431.99C2149.78 2426.84 2140.6 2408.96 2145.75 2392.02C2150.9 2375.07 2168.4 2365.56 2184.8 2370.71Z" fill="#95FF00" stroke="white" stroke-width="2"/>
<path d="M2189.81 2354.23C2215.03 2362.15 2229.15 2389.64 2221.23 2415.7C2213.31 2441.76 2186.4 2456.38 2161.17 2448.46C2135.95 2440.55 2121.84 2413.05 2129.75 2387C2137.67 2360.94 2164.58 2346.32 2189.81 2354.23Z" stroke="#95FF00" stroke-width="3"/>
<path d="M2396.39 36.041C2473.37 18.6983 2547.28 11.047 2608.85 16.9932C2670.71 22.968 2717.62 42.3791 2744.23 76.5645C2774.37 115.277 2794.34 143.098 2807.38 163.362C2820.55 183.832 2826.1 195.767 2828.19 202.877C2829.19 206.266 2829.26 208.108 2829.22 208.967C2829.18 209.686 2829.05 210.21 2828.68 211.083C2828.38 211.765 2823.29 220.145 2823.29 229.699V232.229L2824.12 234.617C2839.72 279.579 2851.21 371.973 2848.65 487.557C2846.1 602.651 2829.66 739.097 2790.54 871.638C2692.27 1204.59 2552.17 1545.84 2529.05 1945.94C2528.98 1946.27 2528.89 1946.67 2528.79 1947.13C2528.46 1948.66 2527.97 1950.91 2527.33 1953.8C2526.06 1959.59 2524.21 1967.94 2521.89 1978.17C2517.25 1998.64 2510.75 2026.62 2503.3 2056.7C2488.26 2117.43 2469.79 2184.89 2455.2 2217.28C2454.69 2218.42 2453.16 2220.65 2449.16 2223.68C2445.24 2226.65 2439.66 2229.85 2432.23 2233.14C2417.35 2239.75 2396.73 2246.03 2371.2 2251.92C2320.24 2263.66 2252.07 2273.28 2176.52 2281.18C2029.43 2296.55 1856.23 2305.19 1731.89 2310.59C1659.81 2163.41 1638.68 2059.11 1639.01 1981.72C1639.34 1902.92 1661.82 1850.79 1678.42 1806.56L1678.8 1805.54L1679.03 1804.48C1707.5 1673.62 1768.5 1434.63 1815.73 1207.78C1839.44 1093.88 1859.92 981.979 1871.49 886.444C1882.97 791.615 1885.98 710.67 1873.31 659.979C1850.64 569.231 1873.46 483.249 1905.67 406.145C1921.81 367.498 1939.94 331.911 1955.75 298.79C1970.21 268.504 1982.99 239.781 1989.03 214.218C2084.37 141.308 2244.52 70.253 2396.39 36.041Z" fill="#1E1E1E" stroke="#1B371D" stroke-width="30"/>
<path d="M2167.68 2400.5L2167.68 1263.67" stroke="white" stroke-opacity="0.75" stroke-width="15" stroke-linecap="round" stroke-dasharray="60 60"/>
<path d="M1885.46 4517.35L1897.9 4522.83L1915.29 4517.09M1932.85 4517.79C1932.71 4521.34 1937.88 4524.44 1944.42 4524.7C1950.96 4524.96 1958.2 4522.19 1960.59 4518.48M1981.4 4519.32C1983.75 4523.2 1990.39 4526.54 1996.25 4526.77C2002.11 4527.01 2008.8 4524.38 2011.19 4520.93C2013.59 4517.47 2018.88 4517.68 2023.01 4521.41C2027.15 4525.13 2036.91 4528.4 2044.79 4528.72C2052.66 4529.04 2060.08 4527 2061.32 4524.16C2062.55 4521.31 2066.85 4519.14 2070.91 4519.3C2074.96 4519.46 2080 4522 2082.14 4525C2084.28 4527.97 2092.08 4529.34 2099.57 4528.11C2107.06 4526.84 2114.91 4522.64 2117.11 4518.74M2145.43 4525.89C2152.82 4527.32 2161.82 4526.41 2165.53 4523.87C2169.25 4521.36 2175.15 4519.98 2178.72 4520.76C2182.29 4521.6 2185.09 4524.94 2184.95 4528.27C2184.82 4531.62 2190.93 4534.56 2198.59 4534.87C2206.26 4535.18 2214.73 4533.73 2217.53 4531.6C2220.32 4529.49 2225.66 4528.43 2229.46 4529.26C2233.26 4530.07 2236.28 4532.54 2236.19 4534.76C2236.1 4536.98 2239.85 4538.92 2244.58 4539.11C2249.33 4539.3 2256.33 4538.14 2260.23 4536.52C2264.13 4534.89 2269.47 4534.03 2272.15 4534.59C2274.85 4535.13 2276.95 4537.57 2276.85 4540.03C2276.75 4542.46 2285.44 4544.79 2296.25 4545.22L2297.89 4545.29C2308.71 4545.72 2317.58 4543.18 2317.72 4539.64C2317.86 4536.09 2321.09 4533.33 2324.9 4533.49C2328.73 4533.64 2331.73 4536.66 2331.58 4540.19C2331.44 4543.75 2338.99 4546.93 2348.46 4547.31C2357.92 4547.69 2368.96 4546.16 2373.12 4543.88C2377.27 4541.59 2383.3 4541.83 2386.58 4544.42M2435.19 4545.16C2437.57 4542.15 2442.64 4538.93 2446.5 4537.95C2450.37 4537.03 2454.88 4538.8 2456.55 4541.98C2458.23 4545.16 2468.25 4546.41 2478.97 4544.82L2482.17 4544.32C2492.86 4542.69 2502.78 4538 2504.3 4533.81C2505.82 4529.66 2509.09 4526 2511.58 4525.65C2514.07 4525.32 2518.19 4527.83 2520.76 4531.26C2523.32 4534.7 2531.33 4536.1 2538.6 4534.37C2545.89 4532.67 2552.92 4526.28 2554.3 4520.11C2555.68 4513.94 2560.68 4507.83 2565.47 4506.49C2570.26 4505.11 2574 4507.61 2573.82 4512.05C2573.64 4516.5 2581.83 4517.36 2592.09 4514.02C2602.44 4510.61 2610.91 4504.3 2611.09 4499.85C2611.27 4495.41 2614.19 4490.82 2617.62 4489.64C2621.06 4488.45 2625.42 4489.16 2627.37 4491.23C2629.31 4493.31 2635.4 4492.13 2640.97 4488.56C2646.53 4485.02 2651.88 4479.26 2652.93 4475.76C2653.98 4472.25 2662.61 4465.27 2670.82 4458.33" stroke="#51FF00" stroke-width="20"/>
<path d="M1885.46 4517.35L1897.9 4522.83L1915.29 4517.09M1932.85 4517.79C1932.71 4521.34 1937.88 4524.44 1944.42 4524.7C1950.96 4524.96 1958.2 4522.19 1960.59 4518.48M1981.4 4519.32C1983.75 4523.2 1990.39 4526.54 1996.25 4526.77C2002.11 4527.01 2008.8 4524.38 2011.19 4520.93C2013.59 4517.47 2018.88 4517.68 2023.01 4521.41C2027.15 4525.13 2036.91 4528.4 2044.79 4528.72C2052.66 4529.04 2060.08 4527 2061.32 4524.16C2062.55 4521.31 2066.85 4519.14 2070.91 4519.3C2074.96 4519.46 2080 4522 2082.14 4525C2084.28 4527.97 2092.08 4529.34 2099.57 4528.11C2107.06 4526.84 2114.91 4522.64 2117.11 4518.74M2145.43 4525.89C2152.82 4527.32 2161.82 4526.41 2165.53 4523.87C2169.25 4521.36 2175.15 4519.98 2178.72 4520.76C2182.29 4521.6 2185.08 4524.94 2184.95 4528.27C2184.82 4531.62 2190.93 4534.56 2198.59 4534.87C2206.26 4535.18 2214.73 4533.73 2217.53 4531.6C2220.32 4529.49 2225.66 4528.43 2229.46 4529.26C2233.26 4530.07 2236.28 4532.54 2236.19 4534.76C2236.1 4536.98 2239.85 4538.92 2244.58 4539.11C2249.33 4539.3 2256.33 4538.14 2260.23 4536.52C2264.13 4534.89 2269.47 4534.03 2272.15 4534.59C2274.85 4535.13 2276.95 4537.57 2276.85 4540.03C2276.75 4542.46 2285.44 4544.79 2296.25 4545.22L2297.89 4545.29C2308.71 4545.72 2317.58 4543.18 2317.72 4539.64C2317.86 4536.09 2321.09 4533.33 2324.9 4533.49C2328.73 4533.64 2331.73 4536.66 2331.58 4540.19C2331.44 4543.75 2338.99 4546.93 2348.46 4547.31C2357.92 4547.69 2368.96 4546.16 2373.12 4543.88C2377.27 4541.59 2383.3 4541.83 2386.58 4544.42M2435.19 4545.16C2437.57 4542.15 2442.64 4538.93 2446.5 4537.95C2450.37 4537.03 2454.88 4538.8 2456.55 4541.98C2458.23 4545.16 2468.25 4546.41 2478.97 4544.82L2482.17 4544.32C2492.86 4542.69 2502.78 4538 2504.3 4533.81C2505.82 4529.66 2509.09 4526 2511.58 4525.65C2514.07 4525.32 2518.19 4527.83 2520.75 4531.26C2523.32 4534.7 2531.33 4536.1 2538.6 4534.37C2545.89 4532.67 2552.92 4526.28 2554.3 4520.11C2555.67 4513.94 2560.67 4507.83 2565.47 4506.49C2570.26 4505.11 2574 4507.61 2573.82 4512.05C2573.64 4516.5 2581.83 4517.36 2592.09 4514.02C2602.44 4510.61 2610.91 4504.3 2611.09 4499.85C2611.27 4495.41 2614.19 4490.82 2617.62 4489.64C2621.06 4488.45 2625.42 4489.16 2627.37 4491.23C2629.31 4493.31 2635.4 4492.13 2640.97 4488.56C2646.53 4485.02 2651.88 4479.26 2652.93 4475.76C2653.98 4472.25 2662.61 4465.27 2670.82 4458.33" stroke="#51FF00" stroke-width="20"/>
</svg>
