<svg width="3355" height="4569" viewBox="0 0 3355 4569" fill="none" xmlns="http://www.w3.org/2000/svg">
<path d="M1541.16 3135.56C1495.95 3097.45 1482.83 2254.94 1561.85 2206.06C1659.76 2137.89 1899.09 2040.65 2073.12 2197.06C2174.49 2280.51 2067.68 2858.65 1985.17 3130.5C1976.47 3327.12 1874.85 3656.54 1537.91 3401.26C1347.28 3421.69 734.632 3318.45 734.632 3318.45C703.47 3343.7 622.441 3384.66 547.625 3346.56C456.308 3231.5 544.035 3117.45 599.314 3074.81C640.069 3091.51 826.299 3155.91 1116.74 3082.16C1236.51 3025.3 1454.92 3109.05 1541.16 3135.56Z" stroke="#1B371D" stroke-width="30"/>
<mask id="path-2-inside-1_50_875" fill="white">
<path d="M265.991 3736.15C279.992 3711.54 295.581 3667.04 323.982 3617.45L277.749 3609.48C269.858 3608.13 264.572 3600.61 265.943 3592.75C266.079 3591.93 266.297 3591.16 266.561 3590.41C268.853 3583.84 275.594 3579.7 282.663 3580.92L330.714 3589.19C335.971 3590.1 342.584 3587.22 345.579 3582.82C347.287 3580.35 349.017 3577.87 350.786 3575.37C353.864 3571.02 352.172 3566.79 346.929 3565.89L322.697 3561.71C314.807 3560.36 309.535 3552.85 310.875 3544.97C311.025 3544.16 311.213 3543.38 311.477 3542.63C313.764 3536.08 320.505 3531.93 327.595 3533.15L367.524 3540.02C372.796 3540.94 379.855 3538.39 383.433 3534.41C385.919 3531.62 388.479 3528.84 391.105 3526.08C394.766 3522.2 393.552 3518.41 388.29 3517.52L367.653 3513.96C359.749 3512.61 354.457 3505.1 355.832 3497.22C355.983 3496.41 356.152 3495.64 356.415 3494.89C358.702 3488.34 365.471 3484.2 372.547 3485.41L415.026 3492.73C420.277 3493.65 427.835 3491.58 431.948 3488.21C435.896 3485.02 439.958 3481.85 444.104 3478.72C448.345 3475.5 447.608 3472.24 442.351 3471.34L412.595 3466.2C404.705 3464.86 399.427 3457.36 400.803 3449.48C400.924 3448.66 401.127 3447.88 401.385 3447.14C403.677 3440.58 410.433 3436.44 417.517 3437.67L491.334 3450.39C495.404 3448.76 499.328 3447.31 502.665 3446.25C530.893 3437.23 583.424 3417.86 602.938 3393.52C623.348 3368.04 610.522 3337.42 592.83 3325.62C583.93 3319.71 566.164 3318.43 555.493 3318.2C548.874 3318.06 541.33 3318.81 534.341 3321.63C524.444 3325.61 515.537 3325.32 511.732 3315.36C502.722 3292.04 488.725 3249.01 487.918 3205.48C486.331 3119.68 529.727 3119.91 529.727 3119.91C529.727 3119.91 590.063 3122.12 619.083 3102.05C627.865 3095.99 635.881 3079.88 636.992 3069.29C637.362 3065.52 637.175 3061.87 636.732 3058.3C599.552 3052.05 505.686 3048.81 409.91 3144.57C285.616 3268.75 167.351 3561.18 145.802 3616.19C143.848 3621.17 142.969 3620.93 143.856 3615.68C150.415 3577.23 178.707 3429.25 244.744 3295.29C325.962 3130.66 430.761 2989.64 584.636 2996.88C581.89 2994.96 579.321 2993.15 577.139 2991.51C558.406 2977.47 546.539 2966.38 501.185 2949.1C491.21 2945.32 477.442 2935.86 469.249 2929.02C459.472 2920.83 444.398 2910.51 424.039 2902.73C403.769 2894.99 386.273 2888.9 374.051 2884.81C363.936 2881.43 348 2882.98 339.855 2889.87C334.01 2894.78 327.51 2901.33 322.038 2909.54C316.102 2918.42 306.309 2931.96 299.895 2940.51C297.113 2944.2 294.3 2948.64 291.86 2953.82C287.327 2963.49 284.576 2975.68 282.787 2980C281.01 2984.32 277.477 2987.08 274.874 2986.18C272.272 2985.27 268.335 2989.8 266.063 2996.3C263.791 3002.81 264.034 3010.9 266.568 3014.38C269.121 3017.86 270.233 3023.4 269.061 3026.76C267.889 3030.11 264.201 3031.9 260.858 3030.73C257.503 3029.56 253.063 3033.53 250.935 3039.62C248.808 3045.71 249.378 3053.34 252.242 3056.68C255.052 3060.03 256.48 3065.31 255.38 3068.46C254.286 3071.59 249.843 3075 245.474 3076.06C241.089 3077.13 235.989 3082.42 234.083 3087.88C232.178 3093.33 232.777 3100.41 235.384 3103.67C238.009 3106.95 236.29 3111.87 231.542 3114.67C226.793 3117.49 220.861 3125.74 218.3 3133.07C215.739 3140.41 215.56 3147.99 217.915 3149.99C220.29 3151.98 221.138 3156.67 219.816 3160.46C218.5 3164.23 214.63 3168.23 211.146 3169.37C207.692 3170.52 204.14 3177.48 203.169 3184.9C202.232 3192.34 203.997 3200.96 207.103 3204.17C210.214 3207.38 209.541 3211.54 205.587 3213.46C201.61 3215.34 195.58 3222.21 192.138 3228.79C188.658 3235.33 186.942 3244.09 188.302 3248.33C189.642 3252.56 189.263 3258.54 187.494 3261.67C185.669 3264.79 181.675 3266.45 178.526 3265.35C175.361 3264.25 170.795 3269.15 168.307 3276.28C165.813 3283.42 164.767 3291.83 165.998 3295.09C167.219 3298.34 166.699 3303.68 164.818 3307.02C162.955 3310.37 159.723 3312.49 157.625 3311.76C155.527 3311.03 152.597 3314 151.059 3318.41C149.515 3322.83 148.618 3329.76 149.043 3333.91C149.487 3338.06 148.78 3343.36 147.474 3345.72C146.176 3348.1 143.249 3349.37 140.926 3348.56C138.623 3347.75 133.91 3355.26 130.394 3365.33L129.862 3366.86C126.341 3376.94 126.23 3386.04 129.573 3387.21C132.928 3388.38 134.636 3392.23 133.397 3395.77C132.153 3399.34 128.404 3401.28 125.065 3400.11C121.707 3398.94 116.495 3405.13 113.418 3413.94C110.341 3422.75 108.641 3433.61 109.623 3438.2C110.629 3442.78 108.667 3448.4 105.246 3450.73C101.847 3453.06 96.2978 3462.97 92.8541 3472.83C89.4105 3482.69 88.403 3493.22 90.5965 3496.34C92.7931 3499.46 94.4234 3505.19 94.248 3509.11C94.0238 3513.03 91.031 3516.76 87.5175 3517.41C83.9883 3518.07 79.9224 3527.15 78.3679 3537.72L77.9276 3540.88C76.4174 3551.44 78.0615 3562.16 81.63 3564.82C85.1675 3567.46 87.7313 3571.61 87.3422 3574.06C86.951 3576.51 83.3626 3579.66 79.3508 3581.08C75.324 3582.49 71.6886 3589.63 71.255 3596.99C70.7891 3604.36 74.8888 3612.86 80.389 3615.96C85.8929 3619.06 90.3063 3625.56 90.2177 3630.47C90.1586 3635.39 86.6944 3638.18 82.4983 3636.72C78.2976 3635.25 75.1279 3642.72 75.3715 3653.37C75.6654 3664.12 79.2768 3673.96 83.4775 3675.42C87.6751 3676.89 91.2222 3680.98 91.3644 3684.56C91.5231 3688.15 89.5936 3692.06 87.0548 3693.29C84.5079 3694.51 83.8894 3700.6 85.7084 3706.89C87.496 3713.17 91.466 3719.9 94.5143 3721.91C97.5751 3723.92 101.771 3734.09 106.051 3743.87C114.914 3764.05 135.605 3794.33 181.321 3799.08C250.836 3806.29 236.217 3788.4 265.991 3736.15Z"/>
</mask>
<path d="M265.991 3736.15C279.992 3711.54 295.581 3667.04 323.982 3617.45L277.749 3609.48C269.858 3608.13 264.572 3600.61 265.943 3592.75C266.079 3591.93 266.297 3591.16 266.561 3590.41C268.853 3583.84 275.594 3579.7 282.663 3580.92L330.714 3589.19C335.971 3590.1 342.584 3587.22 345.579 3582.82C347.287 3580.35 349.017 3577.87 350.786 3575.37C353.864 3571.02 352.172 3566.79 346.929 3565.89L322.697 3561.71C314.807 3560.36 309.535 3552.85 310.875 3544.97C311.025 3544.16 311.213 3543.38 311.477 3542.63C313.764 3536.08 320.505 3531.93 327.595 3533.15L367.524 3540.02C372.796 3540.94 379.855 3538.39 383.433 3534.41C385.919 3531.62 388.479 3528.84 391.105 3526.08C394.766 3522.2 393.552 3518.41 388.29 3517.52L367.653 3513.96C359.749 3512.61 354.457 3505.1 355.832 3497.22C355.983 3496.41 356.152 3495.64 356.415 3494.89C358.702 3488.34 365.471 3484.2 372.547 3485.41L415.026 3492.73C420.277 3493.65 427.835 3491.58 431.948 3488.21C435.896 3485.02 439.958 3481.85 444.104 3478.72C448.345 3475.5 447.608 3472.24 442.351 3471.34L412.595 3466.2C404.705 3464.86 399.427 3457.36 400.803 3449.48C400.924 3448.66 401.127 3447.88 401.385 3447.14C403.677 3440.58 410.433 3436.44 417.517 3437.67L491.334 3450.39C495.404 3448.76 499.328 3447.31 502.665 3446.25C530.893 3437.23 583.424 3417.86 602.938 3393.52C623.348 3368.04 610.522 3337.42 592.83 3325.62C583.93 3319.71 566.164 3318.43 555.493 3318.2C548.874 3318.06 541.33 3318.81 534.341 3321.63C524.444 3325.61 515.537 3325.32 511.732 3315.36C502.722 3292.04 488.725 3249.01 487.918 3205.48C486.331 3119.68 529.727 3119.91 529.727 3119.91C529.727 3119.91 590.063 3122.12 619.083 3102.05C627.865 3095.99 635.881 3079.88 636.992 3069.29C637.362 3065.52 637.175 3061.87 636.732 3058.3C599.552 3052.05 505.686 3048.81 409.91 3144.57C285.616 3268.75 167.351 3561.18 145.802 3616.19C143.848 3621.17 142.969 3620.93 143.856 3615.68C150.415 3577.23 178.707 3429.25 244.744 3295.29C325.962 3130.66 430.761 2989.64 584.636 2996.88C581.89 2994.96 579.321 2993.15 577.139 2991.51C558.406 2977.47 546.539 2966.38 501.185 2949.1C491.21 2945.32 477.442 2935.86 469.249 2929.02C459.472 2920.83 444.398 2910.51 424.039 2902.73C403.769 2894.99 386.273 2888.9 374.051 2884.81C363.936 2881.43 348 2882.98 339.855 2889.87C334.01 2894.78 327.51 2901.33 322.038 2909.54C316.102 2918.42 306.309 2931.96 299.895 2940.51C297.113 2944.2 294.3 2948.64 291.86 2953.82C287.327 2963.49 284.576 2975.68 282.787 2980C281.01 2984.32 277.477 2987.08 274.874 2986.18C272.272 2985.27 268.335 2989.8 266.063 2996.3C263.791 3002.81 264.034 3010.9 266.568 3014.38C269.121 3017.86 270.233 3023.4 269.061 3026.76C267.889 3030.11 264.201 3031.9 260.858 3030.73C257.503 3029.56 253.063 3033.53 250.935 3039.62C248.808 3045.71 249.378 3053.34 252.242 3056.68C255.052 3060.03 256.48 3065.31 255.38 3068.46C254.286 3071.59 249.843 3075 245.474 3076.06C241.089 3077.13 235.989 3082.42 234.083 3087.88C232.178 3093.33 232.777 3100.41 235.384 3103.67C238.009 3106.95 236.29 3111.87 231.542 3114.67C226.793 3117.49 220.861 3125.74 218.3 3133.07C215.739 3140.41 215.56 3147.99 217.915 3149.99C220.29 3151.98 221.138 3156.67 219.816 3160.46C218.5 3164.23 214.63 3168.23 211.146 3169.37C207.692 3170.52 204.14 3177.48 203.169 3184.9C202.232 3192.34 203.997 3200.96 207.103 3204.17C210.214 3207.38 209.541 3211.54 205.587 3213.46C201.61 3215.34 195.58 3222.21 192.138 3228.79C188.658 3235.33 186.942 3244.09 188.302 3248.33C189.642 3252.56 189.263 3258.54 187.494 3261.67C185.669 3264.79 181.675 3266.45 178.526 3265.35C175.361 3264.25 170.795 3269.15 168.307 3276.28C165.813 3283.42 164.767 3291.83 165.998 3295.09C167.219 3298.34 166.699 3303.68 164.818 3307.02C162.955 3310.37 159.723 3312.49 157.625 3311.76C155.527 3311.03 152.597 3314 151.059 3318.41C149.515 3322.83 148.618 3329.76 149.043 3333.91C149.487 3338.06 148.78 3343.36 147.474 3345.72C146.176 3348.1 143.249 3349.37 140.926 3348.56C138.623 3347.75 133.91 3355.26 130.394 3365.33L129.862 3366.86C126.341 3376.94 126.23 3386.04 129.573 3387.21C132.928 3388.38 134.636 3392.23 133.397 3395.77C132.153 3399.34 128.404 3401.28 125.065 3400.11C121.707 3398.94 116.495 3405.13 113.418 3413.94C110.341 3422.75 108.641 3433.61 109.623 3438.2C110.629 3442.78 108.667 3448.4 105.246 3450.73C101.847 3453.06 96.2978 3462.97 92.8541 3472.83C89.4105 3482.69 88.403 3493.22 90.5965 3496.34C92.7931 3499.46 94.4234 3505.19 94.248 3509.11C94.0238 3513.03 91.031 3516.76 87.5175 3517.41C83.9883 3518.07 79.9224 3527.15 78.3679 3537.72L77.9276 3540.88C76.4174 3551.44 78.0615 3562.16 81.63 3564.82C85.1675 3567.46 87.7313 3571.61 87.3422 3574.06C86.951 3576.51 83.3626 3579.66 79.3508 3581.08C75.324 3582.49 71.6886 3589.63 71.255 3596.99C70.7891 3604.36 74.8888 3612.86 80.389 3615.96C85.8929 3619.06 90.3063 3625.56 90.2177 3630.47C90.1586 3635.39 86.6944 3638.18 82.4983 3636.72C78.2976 3635.25 75.1279 3642.72 75.3715 3653.37C75.6654 3664.12 79.2768 3673.96 83.4775 3675.42C87.6751 3676.89 91.2222 3680.98 91.3644 3684.56C91.5231 3688.15 89.5936 3692.06 87.0548 3693.29C84.5079 3694.51 83.8894 3700.6 85.7084 3706.89C87.496 3713.17 91.466 3719.9 94.5143 3721.91C97.5751 3723.92 101.771 3734.09 106.051 3743.87C114.914 3764.05 135.605 3794.33 181.321 3799.08C250.836 3806.29 236.217 3788.4 265.991 3736.15Z" fill="#1B371D" stroke="white" stroke-width="20" mask="url(#path-2-inside-1_50_875)"/>
<path d="M2487.78 2842.88C2488.21 2849.84 2489.22 2858.49 2491.21 2867.5L2491.21 2867.5L2481.45 2869.66C2482.39 2873.9 2483.55 2878.26 2484.96 2882.6C2487.17 2889.36 2490.45 2904.14 2493.51 2922.78L2503.38 2921.16C2507.64 2947.15 2511.3 2979.52 2511.06 3006.05L2501.06 3005.96C2500.91 3023.17 2499.03 3035.85 2495.79 3042.53L2495.47 3043.16C2493.08 3047.69 2492.38 3053.09 2492.29 3058.08C2492.19 3063.29 2492.74 3069.2 2493.7 3075.48L2503.59 3073.97L2503.59 3073.97C2505.75 3088.17 2510.39 3106.22 2515.95 3125.58L2515.95 3125.58L2506.34 3128.35C2511.12 3144.98 2516.59 3162.58 2521.7 3179.34L2531.27 3176.42C2536.91 3194.91 2542.2 3212.63 2545.87 3227.46L2536.16 3229.86C2538.55 3239.5 2540.11 3247.44 2540.68 3253.35C2539.27 3264.97 2538.04 3275.89 2536.96 3286.19L2546.91 3287.23L2546.91 3287.23C2544.14 3313.67 2542.43 3335.88 2541.49 3354.89L2541.49 3354.9L2531.5 3354.4C2530.05 3383.49 2530.39 3405.3 2531.56 3423.37L2541.54 3422.72L2541.54 3422.72C2543.31 3449.83 2546.98 3468.01 2549.11 3490.1L2539.15 3491.06C2540.1 3500.86 2540.73 3511.43 2540.73 3524C2540.73 3534.99 2541.47 3546.59 2542.84 3558.66L2552.77 3557.54L2552.77 3557.54C2555.1 3578.15 2559.31 3600.44 2564.89 3623.75L2564.89 3623.75L2555.16 3626.08C2560.24 3647.29 2566.42 3669.29 2573.3 3691.58L2582.86 3688.63L2582.86 3688.63C2589.38 3709.76 2596.57 3731.2 2604.08 3752.55L2594.65 3755.87C2602.19 3777.28 2610.04 3798.57 2617.89 3819.34L2627.25 3815.8L2627.25 3815.8C2635.43 3837.45 2643.62 3858.55 2651.43 3878.63L2651.43 3878.63L2642.11 3882.25C2650.85 3904.73 2659.09 3925.85 2666.35 3945.02L2675.7 3941.48C2685.14 3966.45 2692.91 3988.15 2697.85 4005.12L2688.25 4007.92C2690.37 4015.21 2691.9 4021.39 2692.79 4026.43C2693.25 4028.96 2693.51 4031.05 2693.63 4032.75L2676.02 4045.11L2681.77 4053.29L2638.18 4083.87L2632.44 4075.69L2588.85 4106.27L2594.6 4114.46L2551.01 4145.04L2545.27 4136.86L2501.69 4167.44L2507.43 4175.62L2463.84 4206.21L2458.1 4198.02L2448.52 4204.74C2447.23 4198.96 2445.98 4193.25 2444.77 4187.61L2434.99 4189.71C2430.21 4167.51 2425.96 4146.36 2422.07 4126.1L2431.89 4124.21C2427.62 4101.97 2423.79 4080.78 2420.15 4060.41L2410.3 4062.17C2406.33 4039.94 2402.6 4018.73 2398.81 3998.23L2398.81 3998.23L2408.64 3996.42C2404.58 3974.43 2400.43 3953.2 2395.82 3932.39L2386.06 3934.55L2386.06 3934.55C2381.34 3913.21 2376.15 3892.35 2370.08 3871.59L2379.68 3868.78C2373.62 3848.07 2366.69 3827.41 2358.49 3806.45L2349.17 3810.09L2349.17 3810.09C2341.57 3790.68 2332.88 3771.01 2322.76 3750.76L2322.76 3750.76L2331.7 3746.29C2326.92 3736.71 2321.82 3727.01 2316.37 3717.16C2312.23 3709.66 2307.74 3701.29 2303 3692.18L2294.13 3696.79C2286.18 3681.51 2277.57 3664.16 2268.79 3645.32L2277.85 3641.09C2270.23 3624.74 2262.48 3607.25 2254.92 3589.01L2245.68 3592.83C2238.54 3575.59 2231.56 3557.66 2225.03 3539.36L2234.45 3536C2228.11 3518.25 2222.21 3500.17 2216.98 3482.04L2207.37 3484.81C2202.01 3466.23 2197.34 3447.58 2193.63 3429.17L2203.43 3427.19C2199.62 3408.23 2196.85 3389.6 2195.41 3371.64L2185.45 3372.43C2183.85 3352.5 2183.84 3333.28 2185.8 3315.19L2195.74 3316.27C2196.69 3307.51 2198.12 3299.08 2200.06 3291.04L2200.45 3289.43C2203.27 3278.18 2204.29 3266.53 2203.84 3254.64L2203.79 3253.48L2193.8 3253.94L2193.8 3253.94C2192.85 3233.5 2187.26 3211.77 2178.46 3189.36L2178.46 3189.36L2187.77 3185.71C2179.86 3165.57 2169.49 3145.05 2157.72 3124.6L2149.05 3129.59C2138.23 3110.78 2126.11 3091.88 2113.47 3073.21L2113.47 3073.21L2121.76 3067.6C2109.14 3048.96 2096.04 3030.58 2083.24 3012.82L2075.13 3018.66C2061.58 2999.87 2048.32 2981.68 2036.23 2964.5L2044.41 2958.75C2037.77 2949.31 2031.52 2940.21 2025.8 2931.51L2025.41 2930.92L2024.95 2930.39C2018.78 2923.39 2012.23 2915.41 2005.34 2906.56L1997.45 2912.71C1985.79 2897.73 1973.29 2880.44 1960.2 2861.36L1968.44 2855.7C1957.24 2839.38 1945.58 2821.73 1933.62 2803.07L1925.21 2808.47C1914.19 2791.28 1902.93 2773.27 1891.55 2754.69L1900.08 2749.47C1889.28 2731.84 1878.37 2713.7 1867.44 2695.26L1858.84 2700.36C1848.15 2682.32 1837.45 2664 1826.84 2645.62L1835.5 2640.62C1824.91 2622.29 1814.41 2603.89 1804.1 2585.64L1795.39 2590.56C1784.84 2571.89 1774.48 2553.38 1764.41 2535.24L1773.15 2530.38C1762.61 2511.41 1752.4 2492.84 1742.61 2474.94L1733.84 2479.73C1723.19 2460.23 1713.05 2441.52 1703.57 2423.93L1712.38 2419.19C1701.47 2398.94 1691.45 2380.17 1682.54 2363.38L1673.71 2368.07C1661.58 2345.22 1651.51 2326.04 1644.06 2311.79L1652.92 2307.16C1648.29 2298.3 1644.68 2291.35 1642.23 2286.62C1641 2284.25 1640.07 2282.44 1639.44 2281.22C1639.21 2280.78 1639.02 2280.42 1638.88 2280.14C1635.79 2270.21 1634.51 2261.38 1634.68 2253.52L1624.69 2253.3C1625.17 2231.5 1635.34 2214.32 1652.82 2201.05L1658.86 2209.01C1671.71 2199.25 1689.48 2191.46 1711.46 2185.63L1708.9 2175.97C1726.25 2171.37 1745.7 2168.05 1766.66 2165.86L1770 2165.52L1770.98 2175.47C1790.07 2173.59 1810.47 2172.63 1831.74 2172.45L1831.66 2162.46C1851.68 2162.29 1872.41 2162.82 1893.48 2163.94L1892.95 2173.93C1913.13 2174.99 1933.64 2176.61 1954.16 2178.66L1955.15 2168.71C1975.73 2170.78 1996.3 2173.28 2016.55 2176.13L2015.15 2186.03C2035.84 2188.95 2056.19 2192.22 2075.84 2195.76L2077.61 2185.91C2098.79 2189.72 2119.16 2193.83 2138.31 2198.1L2136.14 2207.86C2157.79 2212.69 2177.83 2217.73 2195.61 2222.78L2198.34 2213.16C2222.18 2219.92 2242.11 2226.74 2256.65 2233.14L2252.62 2242.29C2259.22 2245.2 2264.37 2247.89 2268.06 2250.29C2272.01 2252.85 2273.32 2254.46 2273.54 2254.85C2277.91 2262.38 2283.94 2271.2 2290.9 2281.42L2299.17 2275.8C2308.49 2289.48 2320.02 2306.46 2332.89 2328.08L2332.89 2328.08L2324.3 2333.19C2333.49 2348.61 2343.37 2366.42 2353.62 2387.13L2362.58 2382.69C2370.96 2399.61 2379.58 2418.43 2388.28 2439.41L2379.04 2443.24C2386.33 2460.82 2393.67 2479.96 2400.96 2500.8L2410.4 2497.5C2416.83 2515.89 2423.22 2535.58 2429.49 2556.68L2419.91 2559.53C2425.47 2578.23 2430.94 2598.06 2436.28 2619.09L2445.97 2616.63C2450.84 2635.81 2455.59 2655.98 2460.2 2677.19L2450.42 2679.31C2454.62 2698.65 2458.69 2718.86 2462.61 2740L2472.44 2738.18C2476.08 2757.84 2479.59 2778.3 2482.94 2799.57L2473.07 2801.13C2474.6 2810.89 2476.11 2820.84 2477.58 2830.96C2477.46 2834.13 2477.49 2838.46 2477.8 2843.49L2487.78 2842.88Z" fill="#6E0808" stroke="#FF0000" stroke-width="20" stroke-dasharray="60 60"/>
<mask id="path-4-inside-2_50_875" fill="white">
<path d="M3179.6 4053.71C3151.55 4057.5 3106.72 4072.11 3050.06 4079.62L3071.78 4121.21C3075.49 4128.3 3072.73 4137.06 3065.64 4140.75C3064.91 4141.13 3064.17 4141.42 3063.41 4141.67C3056.8 4143.83 3049.41 4140.99 3046.09 4134.63L3023.52 4091.41C3021.05 4086.69 3014.74 4083.18 3009.43 4083.46C3006.43 4083.6 3003.41 4083.73 3000.35 4083.85C2995.02 4084.04 2992.69 4087.95 2995.16 4092.66L3006.53 4114.46C3010.25 4121.55 3007.48 4130.3 3000.4 4134.01C2999.67 4134.38 2998.93 4134.71 2998.17 4134.96C2991.58 4137.11 2984.19 4134.27 2980.86 4127.9L2962.1 4091.98C2959.63 4087.24 2953.32 4083.17 2947.99 4082.74C2944.26 4082.46 2940.5 4082.11 2936.71 4081.7C2931.4 4081.14 2929.12 4084.41 2931.61 4089.13L2941.3 4107.69C2945.02 4114.8 2942.27 4123.56 2935.17 4127.25C2934.43 4127.62 2933.72 4127.95 2932.96 4128.2C2926.37 4130.35 2918.97 4127.48 2915.64 4121.12L2895.68 4082.92C2893.23 4078.18 2887 4073.43 2881.82 4072.21C2876.9 4071 2871.91 4069.7 2866.9 4068.3C2861.78 4066.88 2859.63 4069.45 2862.1 4074.17L2876.07 4100.94C2879.79 4108.03 2877.03 4116.78 2869.93 4120.46C2869.21 4120.87 2868.47 4121.17 2867.72 4121.42C2861.11 4123.58 2853.72 4120.72 2850.4 4114.34L2815.73 4047.95C2811.97 4045.7 2808.43 4043.46 2805.57 4041.45C2781.27 4024.48 2734 3994.48 2702.82 3993.73C2670.17 3992.97 2653.62 4021.74 2654.97 4042.96C2655.67 4053.63 2665.43 4068.52 2671.73 4077.14C2675.63 4082.49 2680.81 4088.03 2687.29 4091.88C2696.45 4097.33 2701.62 4104.59 2696.02 4113.65C2682.95 4134.96 2657.23 4172.2 2623.12 4199.25C2555.88 4252.57 2529.73 4217.93 2529.73 4217.93C2529.73 4217.93 2494.88 4168.63 2461.32 4157.74C2451.18 4154.43 2433.51 4157.83 2424.41 4163.38C2421.19 4165.37 2418.41 4167.73 2415.84 4170.25C2433.42 4203.6 2487.8 4280.18 2622.03 4298.22C2796.15 4321.68 3100.37 4238.27 3157.17 4222.02C3162.31 4220.56 3162.65 4221.4 3157.94 4223.88C3123.4 4241.99 2988.6 4309.29 2842.05 4338.06C2661.9 4373.38 2486.22 4375.64 2398.62 4248.92C2398.76 4252.27 2398.88 4255.41 2398.9 4258.14C2399.11 4281.55 2397.49 4297.72 2411.26 4344.25C2414.31 4354.48 2415.15 4371.16 2414.68 4381.82C2414.1 4394.56 2415.04 4412.81 2421.21 4433.71C2427.36 4454.52 2433.13 4472.12 2437.29 4484.32C2440.74 4494.41 2451.64 4506.14 2462.06 4508.43C2469.51 4510.1 2478.67 4511.29 2488.51 4510.66C2499.17 4509.99 2515.88 4509.56 2526.56 4509.48C2531.18 4509.45 2536.42 4508.99 2542.02 4507.78C2552.45 4505.52 2563.81 4500.31 2568.33 4499.12C2572.85 4497.9 2577.19 4499.04 2578.04 4501.66C2578.9 4504.28 2584.89 4504.66 2591.44 4502.52C2597.99 4500.38 2604.28 4495.27 2605.5 4491.15C2606.72 4487.01 2610.45 4482.76 2613.83 4481.66C2617.21 4480.55 2620.86 4482.4 2621.96 4485.77C2623.07 4489.15 2628.92 4490.27 2635.05 4488.26C2641.18 4486.26 2646.9 4481.17 2647.82 4476.87C2648.78 4472.6 2652.11 4468.27 2655.28 4467.23C2658.43 4466.2 2663.84 4467.66 2667.33 4470.49C2670.85 4473.33 2678.14 4474.18 2683.64 4472.38C2689.13 4470.58 2694.39 4465.81 2695.4 4461.76C2696.41 4457.69 2701.37 4456.07 2706.48 4458.14C2711.6 4460.21 2721.76 4459.92 2729.14 4457.51C2736.52 4455.09 2742.66 4450.63 2742.82 4447.55C2742.96 4444.45 2746.18 4440.93 2749.99 4439.69C2753.78 4438.45 2759.32 4439.09 2762.33 4441.17C2765.34 4443.22 2773.03 4441.82 2779.52 4438.09C2786 4434.32 2791.78 4427.69 2792.45 4423.27C2793.11 4418.85 2796.83 4416.86 2800.76 4418.84C2804.66 4420.86 2813.78 4421.49 2821.1 4420.23C2828.41 4419.03 2836.42 4415.08 2838.96 4411.43C2841.51 4407.79 2846.49 4404.47 2850.05 4403.98C2853.64 4403.53 2857.39 4405.7 2858.42 4408.87C2859.46 4412.06 2866.14 4412.71 2873.31 4410.36C2880.5 4408.01 2887.82 4403.74 2889.67 4400.78C2891.51 4397.84 2896.07 4395.01 2899.86 4394.48C2903.66 4393.93 2907.3 4395.21 2907.99 4397.33C2908.68 4399.44 2912.83 4399.96 2917.26 4398.51C2921.71 4397.06 2927.77 4393.56 2930.81 4390.71C2933.84 4387.84 2938.48 4385.19 2941.15 4384.79C2943.83 4384.38 2946.61 4385.94 2947.38 4388.27C2948.14 4390.59 2956.96 4389.78 2967.1 4386.47L2968.63 4385.97C2978.79 4382.65 2986.09 4377.22 2984.99 4373.85C2983.88 4370.48 2985.91 4366.78 2989.48 4365.61C2993.07 4364.44 2996.88 4366.24 2997.98 4369.6C2999.09 4372.99 3007.17 4373.37 3016.04 4370.47C3024.91 4367.57 3034.57 4362.34 3037.62 4358.77C3040.66 4355.2 3046.31 4353.35 3050.25 4354.65C3054.16 4355.94 3065.4 4354.34 3075.33 4351.09C3085.26 4347.85 3094.24 4342.26 3095.39 4338.62C3096.54 4334.98 3100.1 4330.21 3103.33 4327.97C3106.58 4325.77 3111.36 4325.89 3114.01 4328.29C3116.67 4330.69 3126.36 4328.42 3135.7 4323.24L3138.48 4321.67C3147.79 4316.47 3155.32 4308.65 3155.26 4304.2C3155.22 4299.79 3156.96 4295.23 3159.15 4294.06C3161.33 4292.88 3166.01 4293.82 3169.57 4296.15C3173.14 4298.5 3181.02 4297.05 3187.13 4292.93C3193.27 4288.83 3197.54 4280.42 3196.67 4274.16C3195.79 4267.91 3198.28 4260.46 3202.24 4257.55C3206.19 4254.61 3210.51 4255.67 3211.89 4259.89C3213.27 4264.12 3221.13 4262.11 3229.45 4255.46C3237.82 4248.7 3243.45 4239.86 3242.06 4235.63C3240.68 4231.41 3241.79 4226.1 3244.55 4223.82C3247.3 4221.51 3251.58 4220.68 3254.1 4221.95C3256.61 4223.23 3261.83 4220.03 3265.72 4214.77C3269.63 4209.54 3272.57 4202.3 3272.32 4198.66C3272.06 4195 3277.61 4185.49 3282.78 4176.16C3293.44 4156.87 3304.96 4122.05 3281 4082.83C3244.56 4023.19 3239.2 4045.67 3179.6 4053.71Z"/>
</mask>
<path d="M3179.6 4053.71C3151.55 4057.5 3106.72 4072.11 3050.06 4079.62L3071.78 4121.21C3075.49 4128.3 3072.73 4137.06 3065.64 4140.75C3064.91 4141.13 3064.17 4141.42 3063.41 4141.67C3056.8 4143.83 3049.41 4140.99 3046.09 4134.63L3023.52 4091.41C3021.05 4086.69 3014.74 4083.18 3009.43 4083.46C3006.43 4083.6 3003.41 4083.73 3000.35 4083.85C2995.02 4084.04 2992.69 4087.95 2995.16 4092.66L3006.53 4114.46C3010.25 4121.55 3007.48 4130.3 3000.4 4134.01C2999.67 4134.38 2998.93 4134.71 2998.17 4134.96C2991.58 4137.11 2984.19 4134.27 2980.86 4127.9L2962.1 4091.98C2959.63 4087.24 2953.32 4083.17 2947.99 4082.74C2944.26 4082.46 2940.5 4082.11 2936.71 4081.7C2931.4 4081.14 2929.12 4084.41 2931.61 4089.13L2941.3 4107.69C2945.02 4114.8 2942.27 4123.56 2935.17 4127.25C2934.43 4127.62 2933.72 4127.95 2932.96 4128.2C2926.37 4130.35 2918.97 4127.48 2915.64 4121.12L2895.68 4082.92C2893.23 4078.18 2887 4073.43 2881.82 4072.21C2876.9 4071 2871.91 4069.7 2866.9 4068.3C2861.78 4066.88 2859.63 4069.45 2862.1 4074.17L2876.07 4100.94C2879.79 4108.03 2877.03 4116.78 2869.93 4120.46C2869.21 4120.87 2868.47 4121.17 2867.72 4121.42C2861.11 4123.58 2853.72 4120.72 2850.4 4114.34L2815.73 4047.95C2811.97 4045.7 2808.43 4043.46 2805.57 4041.45C2781.27 4024.48 2734 3994.48 2702.82 3993.73C2670.17 3992.97 2653.62 4021.74 2654.97 4042.96C2655.67 4053.63 2665.43 4068.52 2671.73 4077.14C2675.63 4082.49 2680.81 4088.03 2687.29 4091.88C2696.45 4097.33 2701.62 4104.59 2696.02 4113.65C2682.95 4134.96 2657.23 4172.2 2623.12 4199.25C2555.88 4252.57 2529.73 4217.93 2529.73 4217.93C2529.73 4217.93 2494.88 4168.63 2461.32 4157.74C2451.18 4154.43 2433.51 4157.83 2424.41 4163.38C2421.19 4165.37 2418.41 4167.73 2415.84 4170.25C2433.42 4203.6 2487.8 4280.18 2622.03 4298.22C2796.15 4321.68 3100.37 4238.27 3157.17 4222.02C3162.31 4220.56 3162.65 4221.4 3157.94 4223.88C3123.4 4241.99 2988.6 4309.29 2842.05 4338.06C2661.9 4373.38 2486.22 4375.64 2398.62 4248.92C2398.76 4252.27 2398.88 4255.41 2398.9 4258.14C2399.11 4281.55 2397.49 4297.72 2411.26 4344.25C2414.31 4354.48 2415.15 4371.16 2414.68 4381.82C2414.1 4394.56 2415.04 4412.81 2421.21 4433.71C2427.36 4454.52 2433.13 4472.12 2437.29 4484.32C2440.74 4494.41 2451.64 4506.14 2462.06 4508.43C2469.51 4510.1 2478.67 4511.29 2488.51 4510.66C2499.17 4509.99 2515.88 4509.56 2526.56 4509.48C2531.18 4509.45 2536.42 4508.99 2542.02 4507.78C2552.45 4505.52 2563.81 4500.31 2568.33 4499.12C2572.85 4497.9 2577.19 4499.04 2578.04 4501.66C2578.9 4504.28 2584.89 4504.66 2591.44 4502.52C2597.99 4500.38 2604.28 4495.27 2605.5 4491.15C2606.72 4487.01 2610.45 4482.76 2613.83 4481.66C2617.21 4480.55 2620.86 4482.4 2621.96 4485.77C2623.07 4489.15 2628.92 4490.27 2635.05 4488.26C2641.18 4486.26 2646.9 4481.17 2647.82 4476.87C2648.78 4472.6 2652.11 4468.27 2655.28 4467.23C2658.43 4466.2 2663.84 4467.66 2667.33 4470.49C2670.85 4473.33 2678.14 4474.18 2683.64 4472.38C2689.13 4470.58 2694.39 4465.81 2695.4 4461.76C2696.41 4457.69 2701.37 4456.07 2706.48 4458.14C2711.6 4460.21 2721.76 4459.92 2729.14 4457.51C2736.52 4455.09 2742.66 4450.63 2742.82 4447.55C2742.96 4444.45 2746.18 4440.93 2749.99 4439.69C2753.78 4438.45 2759.32 4439.09 2762.33 4441.17C2765.34 4443.22 2773.03 4441.82 2779.52 4438.09C2786 4434.32 2791.78 4427.69 2792.45 4423.27C2793.11 4418.85 2796.83 4416.86 2800.76 4418.84C2804.66 4420.86 2813.78 4421.49 2821.1 4420.23C2828.41 4419.03 2836.42 4415.08 2838.96 4411.43C2841.51 4407.79 2846.49 4404.47 2850.05 4403.98C2853.64 4403.53 2857.39 4405.7 2858.42 4408.87C2859.46 4412.06 2866.14 4412.71 2873.31 4410.36C2880.5 4408.01 2887.82 4403.74 2889.67 4400.78C2891.51 4397.84 2896.07 4395.01 2899.86 4394.48C2903.66 4393.93 2907.3 4395.21 2907.99 4397.33C2908.68 4399.44 2912.83 4399.96 2917.26 4398.51C2921.71 4397.06 2927.77 4393.56 2930.81 4390.71C2933.84 4387.84 2938.48 4385.19 2941.15 4384.79C2943.83 4384.38 2946.61 4385.94 2947.38 4388.27C2948.14 4390.59 2956.96 4389.78 2967.1 4386.47L2968.63 4385.97C2978.79 4382.65 2986.09 4377.22 2984.99 4373.85C2983.88 4370.48 2985.91 4366.78 2989.48 4365.61C2993.07 4364.44 2996.88 4366.24 2997.98 4369.6C2999.09 4372.99 3007.17 4373.37 3016.04 4370.47C3024.91 4367.57 3034.57 4362.34 3037.62 4358.77C3040.66 4355.2 3046.31 4353.35 3050.25 4354.65C3054.16 4355.94 3065.4 4354.34 3075.33 4351.09C3085.26 4347.85 3094.24 4342.26 3095.39 4338.62C3096.54 4334.98 3100.1 4330.21 3103.33 4327.97C3106.58 4325.77 3111.36 4325.89 3114.01 4328.29C3116.67 4330.69 3126.36 4328.42 3135.7 4323.24L3138.48 4321.67C3147.79 4316.47 3155.32 4308.65 3155.26 4304.2C3155.22 4299.79 3156.96 4295.23 3159.15 4294.06C3161.33 4292.88 3166.01 4293.82 3169.57 4296.15C3173.14 4298.5 3181.02 4297.05 3187.13 4292.93C3193.27 4288.83 3197.54 4280.42 3196.67 4274.16C3195.79 4267.91 3198.28 4260.46 3202.24 4257.55C3206.19 4254.61 3210.51 4255.67 3211.89 4259.89C3213.27 4264.12 3221.13 4262.11 3229.45 4255.46C3237.82 4248.7 3243.45 4239.86 3242.06 4235.63C3240.68 4231.41 3241.79 4226.1 3244.55 4223.82C3247.3 4221.51 3251.58 4220.68 3254.1 4221.95C3256.61 4223.23 3261.83 4220.03 3265.72 4214.77C3269.63 4209.54 3272.57 4202.3 3272.32 4198.66C3272.06 4195 3277.61 4185.49 3282.78 4176.16C3293.44 4156.87 3304.96 4122.05 3281 4082.83C3244.56 4023.19 3239.2 4045.67 3179.6 4053.71Z" fill="#1B371D" stroke="white" stroke-width="20" mask="url(#path-4-inside-2_50_875)"/>
<path d="M2072.74 2487.68L2859 4403" stroke="#FF0000" stroke-width="10"/>
<path d="M2080.92 2455.86C2097.57 2460.15 2107.66 2477.53 2103.4 2494.72C2099.13 2511.91 2082.14 2522.31 2065.5 2518.02C2048.85 2513.73 2038.76 2496.35 2043.03 2479.16C2047.29 2461.97 2064.28 2451.57 2080.92 2455.86Z" fill="#FF0000" stroke="white" stroke-width="2"/>
<path d="M2085.07 2439.15C2110.67 2445.75 2126.19 2472.48 2119.63 2498.91C2113.07 2525.34 2086.95 2541.33 2061.35 2534.73C2035.75 2528.13 2020.23 2501.4 2026.79 2474.97C2033.35 2448.54 2059.47 2432.55 2085.07 2439.15Z" stroke="#FF0000" stroke-width="3"/>
<path d="M2230.82 36.041C2307.81 18.6983 2381.71 11.047 2443.28 16.9932C2505.15 22.968 2552.05 42.3791 2578.66 76.5645C2608.8 115.277 2628.77 143.098 2641.81 163.362C2654.98 183.832 2660.53 195.767 2662.62 202.877C2663.62 206.266 2663.69 208.108 2663.65 208.967C2663.61 209.686 2663.48 210.21 2663.11 211.083C2662.81 211.765 2657.72 220.145 2657.72 229.699V232.229L2658.55 234.617C2674.15 279.579 2685.64 371.973 2683.08 487.557C2680.53 602.651 2664.09 739.097 2624.97 871.638C2526.7 1204.59 2386.6 1545.84 2363.48 1945.94C2363.41 1946.27 2363.32 1946.67 2363.22 1947.13C2362.89 1948.66 2362.4 1950.91 2361.76 1953.8C2360.49 1959.59 2358.64 1967.94 2356.32 1978.17C2351.68 1998.64 2345.18 2026.62 2337.73 2056.7C2322.69 2117.43 2304.22 2184.89 2289.63 2217.28C2289.12 2218.42 2287.59 2220.65 2283.59 2223.68C2279.67 2226.65 2274.09 2229.85 2266.66 2233.14C2251.78 2239.75 2231.16 2246.03 2205.63 2251.92C2154.67 2263.66 2086.5 2273.28 2010.95 2281.18C1863.86 2296.55 1690.66 2305.19 1566.32 2310.59C1494.24 2163.41 1473.11 2059.11 1473.44 1981.72C1473.77 1902.92 1496.25 1850.79 1512.85 1806.56L1513.23 1805.54L1513.46 1804.48C1541.93 1673.62 1602.93 1434.63 1650.16 1207.78C1673.87 1093.88 1694.35 981.979 1705.92 886.444C1717.4 791.615 1720.41 710.67 1707.74 659.979C1685.07 569.231 1707.89 483.249 1740.1 406.145C1756.24 367.498 1774.37 331.911 1790.18 298.79C1804.64 268.504 1817.42 239.781 1823.46 214.218C1918.8 141.308 2078.95 70.253 2230.82 36.041Z" fill="#1E1E1E" stroke="#1B371D" stroke-width="30"/>
<path d="M2580.18 4530.06L2593.75 4530.83L2608.02 4519.34M2624.71 4513.83C2625.82 4517.21 2631.75 4518.29 2637.97 4516.23C2644.19 4514.18 2649.99 4509.05 2650.93 4504.74M2670.71 4498.21C2674.26 4501.02 2681.66 4501.82 2687.22 4499.98C2692.79 4498.14 2698.13 4493.33 2699.17 4489.26C2700.19 4485.18 2705.22 4483.52 2710.39 4485.55C2715.58 4487.58 2725.87 4487.22 2733.36 4484.75C2740.84 4482.28 2747.07 4477.77 2747.24 4474.68C2747.38 4471.58 2750.65 4468.03 2754.51 4466.76C2758.36 4465.49 2763.96 4466.09 2767.02 4468.15C2770.07 4470.18 2777.85 4468.73 2784.44 4464.95C2791.01 4461.13 2796.88 4454.44 2797.56 4450.01M2826.6 4446.76C2834.01 4445.5 2842.13 4441.49 2844.71 4437.81C2847.3 4434.15 2852.35 4430.79 2855.96 4430.27C2859.6 4429.8 2863.39 4431.94 2864.44 4435.11C2865.49 4438.3 2872.25 4438.9 2879.52 4436.5C2886.81 4434.09 2894.23 4429.76 2896.11 4426.79C2897.98 4423.83 2902.61 4420.97 2906.45 4420.41C2910.3 4419.83 2913.99 4421.08 2914.69 4423.2C2915.38 4425.31 2919.58 4425.8 2924.08 4424.32C2928.59 4422.83 2934.73 4419.28 2937.82 4416.4C2940.89 4413.51 2945.59 4410.82 2948.3 4410.4C2951.02 4409.97 2953.84 4411.51 2954.61 4413.84C2955.37 4416.16 2964.32 4415.29 2974.6 4411.9L2976.15 4411.38C2986.44 4407.99 2993.85 4402.49 2992.74 4399.13C2991.63 4395.76 2993.68 4392.04 2997.31 4390.85C3000.94 4389.65 3004.81 4391.42 3005.92 4394.78C3007.03 4398.16 3015.22 4398.49 3024.22 4395.52C3033.21 4392.55 3043 4387.24 3046.1 4383.65C3049.18 4380.04 3054.91 4378.15 3058.9 4379.43M3104.67 4363.05C3105.84 4359.4 3109.46 4354.59 3112.73 4352.33C3116.02 4350.1 3120.87 4350.18 3123.55 4352.57C3126.25 4354.96 3136.06 4352.61 3145.54 4347.35L3148.36 4345.76C3157.8 4340.48 3165.44 4332.6 3165.39 4328.15C3165.36 4323.73 3167.13 4319.15 3169.34 4317.96C3171.56 4316.76 3176.3 4317.68 3179.9 4319.98C3183.51 4322.31 3191.5 4320.8 3197.7 4316.63C3203.93 4312.48 3208.27 4304.02 3207.39 4297.77C3206.52 4291.51 3209.05 4284.03 3213.07 4281.09C3217.07 4278.11 3221.45 4279.15 3222.84 4283.37C3224.24 4287.59 3232.2 4285.52 3240.64 4278.8C3249.13 4271.97 3254.85 4263.08 3253.45 4258.85C3252.06 4254.63 3253.19 4249.31 3255.99 4247C3258.78 4244.67 3263.12 4243.81 3265.67 4245.06C3268.22 4246.33 3273.51 4243.08 3277.46 4237.79C3281.43 4232.52 3284.42 4225.25 3284.17 4221.6C3283.92 4217.94 3289.55 4208.38 3294.8 4199" stroke="#FF0000" stroke-width="20"/>
<path d="M2034.32 4475.68L2016.96 1263.33" stroke="white" stroke-opacity="0.75" stroke-width="15" stroke-linecap="round" stroke-dasharray="60 60"/>
<path d="M2035 3772C2122.5 3797.5 2462.3 3647.7 2519.5 3580.5" stroke="#FF0000" stroke-width="10"/>
</svg>
