<svg width="3122" height="4545" viewBox="0 0 3122 4545" fill="none" xmlns="http://www.w3.org/2000/svg">
<path d="M1541.16 3135.56C1495.95 3097.45 1482.83 2254.94 1561.85 2206.06C1659.76 2137.89 1899.09 2040.65 2073.12 2197.06C2174.49 2280.51 2067.68 2858.65 1985.17 3130.5C1976.47 3327.12 1874.85 3656.54 1537.91 3401.26C1347.28 3421.69 734.632 3318.45 734.632 3318.45C703.47 3343.7 622.441 3384.66 547.625 3346.56C456.308 3231.5 544.035 3117.45 599.314 3074.81C640.069 3091.51 826.299 3155.91 1116.74 3082.16C1236.51 3025.3 1454.92 3109.05 1541.16 3135.56Z" stroke="#1B371D" stroke-width="30"/>
<mask id="path-2-inside-1_50_874" fill="white">
<path d="M265.992 3736.15C279.992 3711.54 295.582 3667.04 323.982 3617.45L277.749 3609.48C269.858 3608.13 264.572 3600.61 265.944 3592.75C266.079 3591.93 266.297 3591.16 266.561 3590.41C268.853 3583.84 275.594 3579.7 282.664 3580.92L330.714 3589.19C335.971 3590.1 342.584 3587.22 345.579 3582.82C347.288 3580.35 349.018 3577.87 350.786 3575.37C353.865 3571.02 352.173 3566.79 346.93 3565.89L322.697 3561.71C314.808 3560.36 309.535 3552.85 310.876 3544.97C311.025 3544.16 311.214 3543.38 311.478 3542.63C313.765 3536.08 320.506 3531.93 327.596 3533.15L367.525 3540.02C372.797 3540.94 379.855 3538.39 383.433 3534.41C385.919 3531.62 388.48 3528.84 391.106 3526.08C394.766 3522.2 393.552 3518.41 388.291 3517.52L367.654 3513.96C359.749 3512.61 354.458 3505.1 355.833 3497.22C355.983 3496.41 356.152 3495.64 356.415 3494.89C358.702 3488.34 365.471 3484.2 372.548 3485.41L415.026 3492.73C420.277 3493.65 427.835 3491.58 431.949 3488.21C435.897 3485.02 439.958 3481.85 444.105 3478.72C448.345 3475.5 447.609 3472.24 442.352 3471.34L412.595 3466.2C404.705 3464.86 399.428 3457.36 400.803 3449.48C400.925 3448.66 401.127 3447.88 401.386 3447.14C403.678 3440.58 410.433 3436.44 417.518 3437.67L491.335 3450.39C495.404 3448.76 499.328 3447.31 502.665 3446.25C530.894 3437.23 583.425 3417.86 602.938 3393.52C623.349 3368.04 610.522 3337.42 592.83 3325.62C583.93 3319.71 566.164 3318.43 555.494 3318.2C548.874 3318.06 541.33 3318.81 534.341 3321.63C524.445 3325.61 515.538 3325.32 511.732 3315.36C502.723 3292.04 488.726 3249.01 487.918 3205.48C486.331 3119.68 529.727 3119.91 529.727 3119.91C529.727 3119.91 590.063 3122.12 619.083 3102.05C627.866 3095.99 635.881 3079.88 636.992 3069.29C637.363 3065.52 637.176 3061.87 636.732 3058.3C599.552 3052.05 505.687 3048.81 409.91 3144.57C285.617 3268.75 167.351 3561.18 145.802 3616.19C143.848 3621.17 142.969 3620.93 143.857 3615.68C150.416 3577.23 178.708 3429.25 244.744 3295.29C325.962 3130.66 430.762 2989.64 584.636 2996.88C581.89 2994.96 579.322 2993.15 577.14 2991.51C558.406 2977.47 546.539 2966.38 501.185 2949.1C491.21 2945.32 477.443 2935.86 469.249 2929.02C459.473 2920.83 444.399 2910.51 424.04 2902.73C403.77 2894.99 386.274 2888.9 374.051 2884.81C363.936 2881.43 348 2882.98 339.855 2889.87C334.011 2894.78 327.51 2901.33 322.038 2909.54C316.103 2918.42 306.31 2931.96 299.895 2940.51C297.113 2944.2 294.301 2948.64 291.861 2953.82C287.328 2963.49 284.577 2975.68 282.788 2980C281.011 2984.32 277.477 2987.08 274.875 2986.18C272.273 2985.27 268.335 2989.8 266.063 2996.3C263.791 3002.81 264.035 3010.9 266.569 3014.38C269.121 3017.86 270.233 3023.4 269.062 3026.76C267.89 3030.11 264.201 3031.9 260.858 3030.73C257.503 3029.56 253.063 3033.53 250.936 3039.62C248.809 3045.71 249.379 3053.34 252.243 3056.68C255.053 3060.03 256.48 3065.31 255.38 3068.46C254.286 3071.59 249.844 3075 245.474 3076.06C241.089 3077.13 235.989 3082.42 234.084 3087.88C232.178 3093.33 232.777 3100.41 235.384 3103.67C238.009 3106.95 236.29 3111.87 231.543 3114.67C226.794 3117.49 220.861 3125.74 218.3 3133.07C215.739 3140.41 215.561 3147.99 217.915 3149.99C220.291 3151.98 221.138 3156.67 219.816 3160.46C218.5 3164.23 214.631 3168.23 211.147 3169.37C207.693 3170.52 204.14 3177.48 203.17 3184.9C202.232 3192.34 203.997 3200.96 207.104 3204.17C210.214 3207.38 209.542 3211.54 205.587 3213.46C201.611 3215.34 195.58 3222.21 192.138 3228.79C188.659 3235.33 186.943 3244.09 188.302 3248.33C189.642 3252.56 189.264 3258.54 187.494 3261.67C185.67 3264.79 181.675 3266.45 178.526 3265.35C175.361 3264.25 170.795 3269.15 168.307 3276.28C165.813 3283.42 164.768 3291.83 165.998 3295.09C167.219 3298.34 166.699 3303.68 164.818 3307.02C162.955 3310.37 159.723 3312.49 157.625 3311.76C155.527 3311.03 152.597 3314 151.059 3318.41C149.516 3322.83 148.618 3329.76 149.043 3333.91C149.487 3338.06 148.781 3343.36 147.474 3345.72C146.177 3348.1 143.249 3349.37 140.927 3348.56C138.623 3347.75 133.91 3355.26 130.394 3365.33L129.863 3366.86C126.342 3376.94 126.23 3386.04 129.573 3387.21C132.928 3388.38 134.637 3392.23 133.398 3395.77C132.153 3399.34 128.405 3401.28 125.065 3400.11C121.707 3398.94 116.496 3405.13 113.419 3413.94C110.342 3422.75 108.642 3433.61 109.624 3438.2C110.63 3442.78 108.667 3448.4 105.246 3450.73C101.848 3453.06 96.2983 3462.97 92.8546 3472.83C89.411 3482.69 88.4035 3493.22 90.597 3496.34C92.7936 3499.46 94.4238 3505.19 94.2484 3509.11C94.0243 3513.03 91.0315 3516.76 87.518 3517.41C83.9888 3518.07 79.9228 3527.15 78.3684 3537.72L77.9281 3540.88C76.4179 3551.44 78.062 3562.16 81.6305 3564.82C85.168 3567.46 87.7318 3571.61 87.3427 3574.06C86.9515 3576.51 83.3631 3579.66 79.3513 3581.08C75.3245 3582.49 71.6891 3589.63 71.2554 3596.99C70.7896 3604.36 74.8893 3612.86 80.3895 3615.96C85.8934 3619.06 90.3068 3625.56 90.2182 3630.47C90.159 3635.39 86.6949 3638.18 82.4988 3636.72C78.2981 3635.25 75.1284 3642.72 75.3719 3653.37C75.6659 3664.12 79.2773 3673.96 83.478 3675.42C87.6756 3676.89 91.2227 3680.98 91.3649 3684.56C91.5235 3688.15 89.5941 3692.06 87.0553 3693.29C84.5084 3694.51 83.8899 3700.6 85.7089 3706.89C87.4965 3713.17 91.4665 3719.9 94.5148 3721.91C97.5756 3723.92 101.772 3734.09 106.052 3743.87C114.914 3764.05 135.606 3794.33 181.322 3799.08C250.836 3806.29 236.217 3788.4 265.992 3736.15Z"/>
</mask>
<path d="M265.992 3736.15C279.992 3711.54 295.582 3667.04 323.982 3617.45L277.749 3609.48C269.858 3608.13 264.572 3600.61 265.944 3592.75C266.079 3591.93 266.297 3591.16 266.561 3590.41C268.853 3583.84 275.594 3579.7 282.664 3580.92L330.714 3589.19C335.971 3590.1 342.584 3587.22 345.579 3582.82C347.288 3580.35 349.018 3577.87 350.786 3575.37C353.865 3571.02 352.173 3566.79 346.93 3565.89L322.697 3561.71C314.808 3560.36 309.535 3552.85 310.876 3544.97C311.025 3544.16 311.214 3543.38 311.478 3542.63C313.765 3536.08 320.506 3531.93 327.596 3533.15L367.525 3540.02C372.797 3540.94 379.855 3538.39 383.433 3534.41C385.919 3531.62 388.48 3528.84 391.106 3526.08C394.766 3522.2 393.552 3518.41 388.291 3517.52L367.654 3513.96C359.749 3512.61 354.458 3505.1 355.833 3497.22C355.983 3496.41 356.152 3495.64 356.415 3494.89C358.702 3488.34 365.471 3484.2 372.548 3485.41L415.026 3492.73C420.277 3493.65 427.835 3491.58 431.949 3488.21C435.897 3485.02 439.958 3481.85 444.105 3478.72C448.345 3475.5 447.609 3472.24 442.352 3471.34L412.595 3466.2C404.705 3464.86 399.428 3457.36 400.803 3449.48C400.925 3448.66 401.127 3447.88 401.386 3447.14C403.678 3440.58 410.433 3436.44 417.518 3437.67L491.335 3450.39C495.404 3448.76 499.328 3447.31 502.665 3446.25C530.894 3437.23 583.425 3417.86 602.938 3393.52C623.349 3368.04 610.522 3337.42 592.83 3325.62C583.93 3319.71 566.164 3318.43 555.494 3318.2C548.874 3318.06 541.33 3318.81 534.341 3321.63C524.445 3325.61 515.538 3325.32 511.732 3315.36C502.723 3292.04 488.726 3249.01 487.918 3205.48C486.331 3119.68 529.727 3119.91 529.727 3119.91C529.727 3119.91 590.063 3122.12 619.083 3102.05C627.866 3095.99 635.881 3079.88 636.992 3069.29C637.363 3065.52 637.176 3061.87 636.732 3058.3C599.552 3052.05 505.687 3048.81 409.91 3144.57C285.617 3268.75 167.351 3561.18 145.802 3616.19C143.848 3621.17 142.969 3620.93 143.857 3615.68C150.416 3577.23 178.708 3429.25 244.744 3295.29C325.962 3130.66 430.762 2989.64 584.636 2996.88C581.89 2994.96 579.322 2993.15 577.14 2991.51C558.406 2977.47 546.539 2966.38 501.185 2949.1C491.21 2945.32 477.443 2935.86 469.249 2929.02C459.473 2920.83 444.399 2910.51 424.04 2902.73C403.77 2894.99 386.274 2888.9 374.051 2884.81C363.936 2881.43 348 2882.98 339.855 2889.87C334.011 2894.78 327.51 2901.33 322.038 2909.54C316.103 2918.42 306.31 2931.96 299.895 2940.51C297.113 2944.2 294.301 2948.64 291.861 2953.82C287.328 2963.49 284.577 2975.68 282.788 2980C281.011 2984.32 277.477 2987.08 274.875 2986.18C272.273 2985.27 268.335 2989.8 266.063 2996.3C263.791 3002.81 264.035 3010.9 266.569 3014.38C269.121 3017.86 270.233 3023.4 269.062 3026.76C267.89 3030.11 264.201 3031.9 260.858 3030.73C257.503 3029.56 253.063 3033.53 250.936 3039.62C248.809 3045.71 249.379 3053.34 252.243 3056.68C255.053 3060.03 256.48 3065.31 255.38 3068.46C254.286 3071.59 249.844 3075 245.474 3076.06C241.089 3077.13 235.989 3082.42 234.084 3087.88C232.178 3093.33 232.777 3100.41 235.384 3103.67C238.009 3106.95 236.29 3111.87 231.543 3114.67C226.794 3117.49 220.861 3125.74 218.3 3133.07C215.739 3140.41 215.561 3147.99 217.915 3149.99C220.291 3151.98 221.138 3156.67 219.816 3160.46C218.5 3164.23 214.631 3168.23 211.147 3169.37C207.693 3170.52 204.14 3177.48 203.17 3184.9C202.232 3192.34 203.997 3200.96 207.104 3204.17C210.214 3207.38 209.542 3211.54 205.587 3213.46C201.611 3215.34 195.58 3222.21 192.138 3228.79C188.659 3235.33 186.943 3244.09 188.302 3248.33C189.642 3252.56 189.264 3258.54 187.494 3261.67C185.67 3264.79 181.675 3266.45 178.526 3265.35C175.361 3264.25 170.795 3269.15 168.307 3276.28C165.813 3283.42 164.768 3291.83 165.998 3295.09C167.219 3298.34 166.699 3303.68 164.818 3307.02C162.955 3310.37 159.723 3312.49 157.625 3311.76C155.527 3311.03 152.597 3314 151.059 3318.41C149.516 3322.83 148.618 3329.76 149.043 3333.91C149.487 3338.06 148.781 3343.36 147.474 3345.72C146.177 3348.1 143.249 3349.37 140.927 3348.56C138.623 3347.75 133.91 3355.26 130.394 3365.33L129.863 3366.86C126.342 3376.94 126.23 3386.04 129.573 3387.21C132.928 3388.38 134.637 3392.23 133.398 3395.77C132.153 3399.34 128.405 3401.28 125.065 3400.11C121.707 3398.94 116.496 3405.13 113.419 3413.94C110.342 3422.75 108.642 3433.61 109.624 3438.2C110.63 3442.78 108.667 3448.4 105.246 3450.73C101.848 3453.06 96.2983 3462.97 92.8546 3472.83C89.411 3482.69 88.4035 3493.22 90.597 3496.34C92.7936 3499.46 94.4238 3505.19 94.2484 3509.11C94.0243 3513.03 91.0315 3516.76 87.518 3517.41C83.9888 3518.07 79.9228 3527.15 78.3684 3537.72L77.9281 3540.88C76.4179 3551.44 78.062 3562.16 81.6305 3564.82C85.168 3567.46 87.7318 3571.61 87.3427 3574.06C86.9515 3576.51 83.3631 3579.66 79.3513 3581.08C75.3245 3582.49 71.6891 3589.63 71.2554 3596.99C70.7896 3604.36 74.8893 3612.86 80.3895 3615.96C85.8934 3619.06 90.3068 3625.56 90.2182 3630.47C90.159 3635.39 86.6949 3638.18 82.4988 3636.72C78.2981 3635.25 75.1284 3642.72 75.3719 3653.37C75.6659 3664.12 79.2773 3673.96 83.478 3675.42C87.6756 3676.89 91.2227 3680.98 91.3649 3684.56C91.5235 3688.15 89.5941 3692.06 87.0553 3693.29C84.5084 3694.51 83.8899 3700.6 85.7089 3706.89C87.4965 3713.17 91.4665 3719.9 94.5148 3721.91C97.5756 3723.92 101.772 3734.09 106.052 3743.87C114.914 3764.05 135.606 3794.33 181.322 3799.08C250.836 3806.29 236.217 3788.4 265.992 3736.15Z" fill="#1B371D" stroke="white" stroke-width="20" mask="url(#path-2-inside-1_50_874)"/>
<path d="M2473.48 3517.87C2472.41 3545.87 2471.68 3564.94 2467.23 3586.63L2457.44 3584.62C2455.57 3593.72 2453 3603.39 2449.37 3614.6L2448.63 3616.86C2445.53 3626.24 2442.79 3635.79 2440.36 3645.48L2450.06 3647.91L2450.06 3647.91C2445.41 3666.48 2441.94 3685.63 2439.45 3705.06L2429.53 3703.79C2427.03 3723.25 2425.5 3742.94 2424.72 3762.61L2434.72 3763L2434.72 3763C2433.95 3782.47 2433.92 3801.95 2434.44 3821.15L2434.44 3821.15L2424.44 3821.42C2424.98 3841.35 2426.1 3860.97 2427.57 3879.97L2437.54 3879.2L2437.54 3879.2C2439.09 3899.29 2441.05 3918.72 2443.13 3937.12L2433.2 3938.25C2435.56 3959.06 2438.09 3978.55 2440.39 3996.15L2450.31 3994.85L2450.31 3994.85C2453.28 4017.47 2455.89 4037.08 2457.34 4052.56L2447.38 4053.49C2448.24 4062.72 2448.63 4069.96 2448.52 4075.27L2424.18 4088.16L2428.86 4097L2370.34 4128L2365.66 4119.16L2307.13 4150.16L2311.81 4159L2253.29 4190L2248.61 4181.16L2233.93 4188.94C2233.89 4185.15 2233.84 4181.38 2233.76 4177.62L2223.77 4177.81C2223.41 4159.07 2222.7 4140.62 2221.68 4122.48L2221.68 4122.48L2231.67 4121.92C2230.61 4103.07 2229.22 4084.54 2227.54 4066.37L2217.58 4067.28L2217.58 4067.28C2215.85 4048.57 2213.82 4030.23 2211.53 4012.27L2221.45 4011.01C2219.06 3992.21 2216.39 3973.83 2213.5 3955.91L2203.63 3957.5C2200.62 3938.84 2197.37 3920.67 2193.95 3903.02L2193.96 3903.02L2203.78 3901.12C2200.15 3882.38 2196.33 3864.23 2192.4 3846.69L2182.64 3848.88L2182.64 3848.88C2178.46 3830.22 2174.15 3812.26 2169.81 3795.03L2169.81 3795.03L2179.51 3792.59C2174.77 3773.79 2169.99 3755.86 2165.3 3738.87L2155.66 3741.53L2155.66 3741.53C2150.43 3722.61 2145.31 3704.84 2140.47 3688.29L2140.47 3688.29L2150.07 3685.48C2144.35 3665.93 2139.12 3648.45 2134.46 3632.47L2124.86 3635.27C2118.71 3614.16 2113.72 3596.22 2110.53 3581.71L2120.29 3579.57C2117.88 3568.62 2116.68 3560.34 2116.65 3554.45C2116.61 3545.12 2116.27 3535.77 2115.72 3526.38L2105.74 3526.95L2105.74 3526.95C2104.7 3508.97 2102.9 3490.71 2100.93 3472.03L2110.88 3470.99C2108.99 3453.05 2106.97 3434.94 2105.34 3416.31L2095.38 3417.19C2093.81 3399.33 2092.58 3381.02 2092.16 3362.15L2102.16 3361.93C2101.77 3344.36 2102.09 3326.36 2103.49 3307.8L2093.51 3307.05C2094.84 3289.44 2097.13 3271.31 2100.68 3252.6L2100.71 3252.44L2110.54 3254.31C2111.98 3246.73 2113.64 3239.05 2115.53 3231.27L2116.35 3227.93C2118.6 3218.97 2120.29 3210.09 2121.47 3201.3L2111.56 3199.98L2111.55 3199.98C2113.9 3182.37 2114.06 3165.14 2112.34 3148.14L2112.34 3148.14L2122.29 3147.14C2120.48 3129.29 2116.7 3111.76 2111.33 3094.39L2101.78 3097.35L2101.78 3097.35C2096.79 3081.23 2090.37 3065.17 2082.78 3049.03L2082.78 3049.03L2091.83 3044.78C2084.54 3029.26 2076.23 3013.73 2067.17 2998.08L2058.52 3003.09L2058.52 3003.09C2050.09 2988.53 2040.96 2973.8 2031.34 2958.8L2031.34 2958.8L2039.76 2953.4C2035.12 2946.16 2030.36 2938.86 2025.52 2931.51L2025.14 2930.92L2024.68 2930.39C2018.51 2923.39 2011.96 2915.41 2005.07 2906.56L1997.18 2912.71C1985.52 2897.73 1973.02 2880.44 1959.92 2861.36L1968.17 2855.7C1956.97 2839.38 1945.31 2821.73 1933.35 2803.07L1924.93 2808.47C1913.92 2791.28 1902.66 2773.27 1891.28 2754.69L1899.8 2749.47C1889.01 2731.84 1878.1 2713.7 1867.17 2695.26L1858.57 2700.36C1847.88 2682.32 1837.18 2664 1826.57 2645.62L1835.23 2640.62C1824.64 2622.29 1814.14 2603.89 1803.82 2585.64L1795.12 2590.56C1784.57 2571.89 1774.21 2553.38 1764.13 2535.24L1772.87 2530.38C1762.34 2511.41 1752.12 2492.84 1742.34 2474.94L1733.57 2479.73C1722.91 2460.23 1712.77 2441.52 1703.3 2423.93L1712.1 2419.19C1701.2 2398.94 1691.18 2380.17 1682.27 2363.38L1673.44 2368.07C1661.31 2345.22 1651.23 2326.04 1643.79 2311.79L1652.65 2307.16C1648.02 2298.3 1644.41 2291.35 1641.96 2286.62C1640.73 2284.25 1639.79 2282.44 1639.16 2281.22C1638.94 2280.78 1638.75 2280.42 1638.61 2280.14C1635.52 2270.21 1634.24 2261.38 1634.41 2253.52L1624.41 2253.3C1624.9 2231.5 1635.06 2214.32 1652.54 2201.05L1658.59 2209.01C1671.44 2199.25 1689.21 2191.46 1711.19 2185.63L1708.62 2175.97C1725.98 2171.37 1745.43 2168.05 1766.39 2165.86L1769.73 2165.52L1770.71 2175.47C1789.8 2173.59 1810.2 2172.63 1831.47 2172.45L1831.39 2162.46C1851.41 2162.29 1872.14 2162.82 1893.21 2163.94L1892.68 2173.93C1912.86 2174.99 1933.37 2176.61 1953.88 2178.66L1954.88 2168.71C1975.46 2170.78 1996.03 2173.28 2016.27 2176.13L2014.88 2186.03C2035.57 2188.95 2055.92 2192.22 2075.57 2195.76L2077.34 2185.91C2098.51 2189.72 2118.89 2193.83 2138.04 2198.1L2135.86 2207.86C2157.52 2212.69 2177.55 2217.73 2195.34 2222.78L2198.07 2213.16C2221.91 2219.92 2241.84 2226.74 2256.38 2233.14L2252.35 2242.29C2258.95 2245.2 2264.09 2247.89 2267.79 2250.29C2271.74 2252.85 2273.05 2254.46 2273.27 2254.85C2277.64 2262.38 2283.67 2271.2 2290.63 2281.42L2298.9 2275.8C2308.21 2289.48 2319.75 2306.46 2332.62 2328.08L2332.62 2328.08L2324.03 2333.19C2333.21 2348.61 2343.09 2366.42 2353.35 2387.13L2362.31 2382.69C2370.69 2399.61 2379.31 2418.43 2388 2439.41L2378.77 2443.24C2386.05 2460.82 2393.39 2479.96 2400.69 2500.8L2410.12 2497.5C2416.56 2515.89 2422.94 2535.58 2429.22 2556.68L2419.63 2559.53C2425.19 2578.23 2430.67 2598.06 2436.01 2619.09L2445.7 2616.63C2450.57 2635.81 2455.32 2655.98 2459.92 2677.19L2450.15 2679.31C2454.35 2698.65 2458.42 2718.86 2462.33 2740L2472.16 2738.18C2475.81 2757.84 2479.32 2778.3 2482.67 2799.57L2472.79 2801.13C2474.33 2810.89 2475.84 2820.84 2477.31 2830.96C2477.19 2834.13 2477.22 2838.46 2477.53 2843.49L2487.51 2842.88C2487.94 2849.84 2488.94 2858.49 2490.94 2867.5L2490.94 2867.5L2481.18 2869.66C2482.12 2873.9 2483.27 2878.26 2484.69 2882.6C2486.9 2889.36 2490.18 2904.14 2493.24 2922.78L2503.1 2921.16C2507.37 2947.15 2511.03 2979.52 2510.79 3006.05L2500.79 3005.96C2500.64 3023.17 2498.75 3035.85 2495.52 3042.53L2495.2 3043.16C2493.1 3047.13 2491.62 3053.02 2490.42 3059.21C2489.15 3065.76 2487.98 3073.88 2486.9 3083.11L2496.83 3084.27L2496.83 3084.27C2494.48 3104.38 2492.48 3130.61 2490.88 3158.8L2490.88 3158.8L2480.9 3158.23C2479.51 3182.66 2478.43 3208.54 2477.67 3233.18L2487.66 3233.49L2487.66 3233.49C2486.81 3261.26 2486.37 3287.48 2486.39 3308.25L2486.39 3308.25L2476.39 3308.26C2476.41 3324.08 2476.69 3337.07 2477.29 3345.27C2475.86 3357.13 2474.58 3368.29 2473.44 3378.82L2483.39 3379.89L2483.39 3379.89C2480.5 3406.67 2478.52 3429.32 2477.11 3448.81L2477.11 3448.81L2467.14 3448.09C2465.03 3477.17 2464.19 3499.28 2463.49 3517.49L2473.48 3517.87Z" fill="#696E08" stroke="#FFFB00" stroke-width="20" stroke-dasharray="60 60"/>
<mask id="path-4-inside-2_50_874" fill="white">
<path d="M2991.64 4166.4C2963.35 4165.38 2916.69 4172.17 2859.58 4169.96L2873.92 4214.63C2876.38 4222.24 2872.16 4230.41 2864.56 4232.84C2863.77 4233.09 2862.99 4233.26 2862.2 4233.37C2855.32 4234.38 2848.52 4230.33 2846.33 4223.49L2831.42 4177.07C2829.79 4171.99 2824.17 4167.47 2818.89 4166.85C2815.91 4166.48 2812.91 4166.09 2809.87 4165.68C2804.59 4164.97 2801.63 4168.42 2803.26 4173.49L2810.77 4196.9C2813.23 4204.52 2809.01 4212.67 2801.41 4215.13C2800.62 4215.37 2799.84 4215.57 2799.05 4215.68C2792.19 4216.69 2785.39 4212.63 2783.18 4205.79L2770.79 4167.21C2769.16 4162.12 2763.64 4157.04 2758.46 4155.71C2754.83 4154.8 2751.18 4153.81 2747.52 4152.77C2742.38 4151.32 2739.58 4154.15 2741.23 4159.23L2747.63 4179.16C2750.09 4186.8 2745.89 4194.96 2738.27 4197.39C2737.48 4197.63 2736.72 4197.84 2735.93 4197.96C2729.07 4198.96 2722.26 4194.88 2720.06 4188.04L2706.88 4147C2705.27 4141.92 2699.93 4136.18 2695.04 4134.1C2690.39 4132.07 2685.69 4129.94 2681 4127.72C2676.19 4125.45 2673.64 4127.61 2675.27 4132.69L2684.49 4161.44C2686.96 4169.06 2682.75 4177.21 2675.13 4179.64C2674.35 4179.91 2673.57 4180.09 2672.79 4180.2C2665.91 4181.21 2659.11 4177.14 2656.92 4170.29L2634.02 4098.97C2630.69 4096.12 2627.59 4093.31 2625.11 4090.84C2604.05 4070 2562.55 4032.41 2531.95 4026.38C2499.91 4020.09 2478.71 4045.63 2476.44 4066.78C2475.32 4077.4 2482.41 4093.74 2487.15 4103.31C2490.09 4109.24 2494.25 4115.58 2499.98 4120.47C2508.09 4127.4 2511.96 4135.43 2504.89 4143.41C2488.4 4162.19 2456.73 4194.52 2418.53 4215.39C2343.21 4256.52 2323.32 4217.95 2323.32 4217.95C2323.32 4217.95 2297.34 4163.45 2266.12 4147.02C2256.68 4142.04 2238.69 4142.4 2228.79 4146.32C2225.28 4147.73 2222.13 4149.59 2219.17 4151.63C2230.85 4187.48 2271.44 4272.18 2400.65 4312.74C2568.27 4365.41 2882.23 4334.84 2940.96 4328.47C2946.28 4327.9 2946.47 4328.79 2941.41 4330.43C2904.29 4342.42 2760.03 4385.86 2610.72 4389.35C2427.2 4393.58 2253.68 4365.99 2188.85 4226.25C2188.42 4229.57 2188.01 4232.68 2187.57 4235.38C2183.79 4258.48 2179.46 4274.14 2185.14 4322.34C2186.4 4332.93 2184.4 4349.51 2182.13 4359.94C2179.39 4372.4 2177.22 4390.54 2179.76 4412.18C2182.28 4433.74 2184.98 4452.06 2187.02 4464.79C2188.7 4475.32 2197.46 4488.73 2207.34 4492.76C2214.39 4495.67 2223.21 4498.39 2233.02 4499.44C2243.64 4500.59 2260.18 4503 2270.72 4504.73C2275.28 4505.49 2280.52 4505.92 2286.24 4505.69C2296.91 4505.23 2308.99 4502.02 2313.64 4501.61C2318.3 4501.18 2322.38 4503.04 2322.78 4505.76C2323.18 4508.49 2329.02 4509.88 2335.84 4508.89C2342.66 4507.89 2349.72 4503.92 2351.62 4500.07C2353.53 4496.2 2357.93 4492.64 2361.45 4492.13C2364.96 4491.61 2368.25 4494.06 2368.76 4497.56C2369.28 4501.08 2374.85 4503.17 2381.24 4502.24C2387.62 4501.3 2394.12 4497.26 2395.75 4493.18C2397.42 4489.14 2401.44 4485.43 2404.74 4484.95C2408.03 4484.46 2413.1 4486.82 2416.07 4490.21C2419.05 4493.6 2426.09 4495.67 2431.81 4494.83C2437.53 4493.99 2443.53 4490.19 2445.21 4486.36C2446.9 4482.52 2452.06 4481.77 2456.74 4484.68C2461.44 4487.58 2471.5 4489.02 2479.18 4487.9C2486.87 4486.77 2493.67 4483.42 2494.35 4480.4C2495.02 4477.38 2498.78 4474.45 2502.75 4473.87C2506.7 4473.29 2512.04 4474.87 2514.67 4477.43C2517.28 4479.96 2525.09 4479.89 2532.12 4477.31C2539.15 4474.7 2545.98 4469.14 2547.38 4464.9C2548.79 4460.66 2552.79 4459.33 2556.32 4461.94C2559.83 4464.6 2568.71 4466.76 2576.13 4466.77C2583.54 4466.82 2592.1 4464.29 2595.23 4461.12C2598.36 4457.97 2603.83 4455.54 2607.42 4455.66C2611.04 4455.83 2614.36 4458.6 2614.84 4461.9C2615.33 4465.22 2621.79 4467 2629.26 4465.9C2636.74 4464.81 2644.68 4461.84 2647.01 4459.24C2649.32 4456.65 2654.29 4454.64 2658.12 4454.76C2661.95 4454.86 2665.33 4456.74 2665.65 4458.94C2665.98 4461.14 2669.97 4462.36 2674.59 4461.69C2679.22 4461.01 2685.78 4458.59 2689.26 4456.29C2692.74 4453.98 2697.75 4452.15 2700.45 4452.22C2703.17 4452.26 2705.65 4454.27 2706 4456.71C2706.36 4459.12 2715.19 4459.82 2725.75 4458.28L2727.34 4458.04C2737.91 4456.49 2746.03 4452.38 2745.51 4448.88C2745 4445.36 2747.62 4442.06 2751.34 4441.52C2755.07 4440.97 2758.53 4443.39 2759.04 4446.89C2759.56 4450.41 2767.46 4452.17 2776.69 4450.81C2785.93 4449.46 2796.33 4445.94 2799.95 4442.95C2803.54 4439.94 2809.43 4439.07 2813.08 4441.03C2816.72 4442.96 2828.07 4443.29 2838.41 4441.78C2848.74 4440.26 2858.54 4436.28 2860.29 4432.89C2862.04 4429.5 2866.37 4425.4 2869.92 4423.74C2873.5 4422.13 2878.19 4423.05 2880.39 4425.87C2882.61 4428.69 2892.54 4428.09 2902.63 4424.57L2905.64 4423.5C2915.69 4419.95 2924.44 4413.53 2925.14 4409.14C2925.85 4404.77 2928.34 4400.58 2930.69 4399.79C2933.04 4399 2937.49 4400.73 2940.61 4403.63C2943.72 4406.54 2951.73 4406.46 2958.46 4403.43C2965.21 4400.44 2970.84 4392.87 2971.04 4386.56C2971.24 4380.24 2974.96 4373.32 2979.36 4371.13C2983.75 4368.9 2987.82 4370.68 2988.46 4375.08C2989.11 4379.48 2997.2 4378.83 3006.52 4373.68C3015.92 4368.45 3022.96 4360.69 3022.32 4356.29C3021.68 4351.89 3023.66 4346.85 3026.77 4345.06C3029.88 4343.26 3034.23 4343.16 3036.5 4344.84C3038.76 4346.54 3044.44 4344.27 3049.18 4339.74C3053.92 4335.25 3058.04 4328.62 3058.41 4324.98C3058.78 4321.34 3065.85 4312.91 3072.53 4304.59C3086.32 4287.39 3103.58 4255.03 3086.62 4212.31C3060.83 4147.36 3051.74 4168.6 2991.64 4166.4Z"/>
</mask>
<path d="M2991.64 4166.4C2963.35 4165.38 2916.69 4172.17 2859.58 4169.96L2873.92 4214.63C2876.38 4222.24 2872.16 4230.41 2864.56 4232.84C2863.77 4233.09 2862.99 4233.26 2862.2 4233.37C2855.32 4234.38 2848.52 4230.33 2846.33 4223.49L2831.42 4177.07C2829.79 4171.99 2824.17 4167.47 2818.89 4166.85C2815.91 4166.48 2812.91 4166.09 2809.87 4165.68C2804.59 4164.97 2801.63 4168.42 2803.26 4173.49L2810.77 4196.9C2813.23 4204.52 2809.01 4212.67 2801.41 4215.13C2800.62 4215.37 2799.84 4215.57 2799.05 4215.68C2792.19 4216.69 2785.39 4212.63 2783.18 4205.79L2770.79 4167.21C2769.16 4162.12 2763.64 4157.04 2758.46 4155.71C2754.83 4154.8 2751.18 4153.81 2747.52 4152.77C2742.38 4151.32 2739.58 4154.15 2741.23 4159.23L2747.63 4179.16C2750.09 4186.8 2745.89 4194.96 2738.27 4197.39C2737.48 4197.63 2736.72 4197.84 2735.93 4197.96C2729.07 4198.96 2722.26 4194.88 2720.06 4188.04L2706.88 4147C2705.27 4141.92 2699.93 4136.18 2695.04 4134.1C2690.39 4132.07 2685.69 4129.94 2681 4127.72C2676.19 4125.45 2673.64 4127.61 2675.27 4132.69L2684.49 4161.44C2686.96 4169.06 2682.75 4177.21 2675.13 4179.64C2674.35 4179.91 2673.57 4180.09 2672.79 4180.2C2665.91 4181.21 2659.11 4177.14 2656.92 4170.29L2634.02 4098.97C2630.69 4096.12 2627.59 4093.31 2625.11 4090.84C2604.05 4070 2562.55 4032.41 2531.95 4026.38C2499.91 4020.09 2478.71 4045.63 2476.44 4066.78C2475.32 4077.4 2482.41 4093.74 2487.15 4103.31C2490.09 4109.24 2494.25 4115.58 2499.98 4120.47C2508.09 4127.4 2511.96 4135.43 2504.89 4143.41C2488.4 4162.19 2456.73 4194.52 2418.53 4215.39C2343.21 4256.52 2323.32 4217.95 2323.32 4217.95C2323.32 4217.95 2297.34 4163.45 2266.12 4147.02C2256.68 4142.04 2238.69 4142.4 2228.79 4146.32C2225.28 4147.73 2222.13 4149.59 2219.17 4151.63C2230.85 4187.48 2271.44 4272.18 2400.65 4312.74C2568.27 4365.41 2882.23 4334.84 2940.96 4328.47C2946.28 4327.9 2946.47 4328.79 2941.41 4330.43C2904.29 4342.42 2760.03 4385.86 2610.72 4389.35C2427.2 4393.58 2253.68 4365.99 2188.85 4226.25C2188.42 4229.57 2188.01 4232.68 2187.57 4235.38C2183.79 4258.48 2179.46 4274.14 2185.14 4322.34C2186.4 4332.93 2184.4 4349.51 2182.13 4359.94C2179.39 4372.4 2177.22 4390.54 2179.76 4412.18C2182.28 4433.74 2184.98 4452.06 2187.02 4464.79C2188.7 4475.32 2197.46 4488.73 2207.34 4492.76C2214.39 4495.67 2223.21 4498.39 2233.02 4499.44C2243.64 4500.59 2260.18 4503 2270.72 4504.73C2275.28 4505.49 2280.52 4505.92 2286.24 4505.69C2296.91 4505.23 2308.99 4502.02 2313.64 4501.61C2318.3 4501.18 2322.38 4503.04 2322.78 4505.76C2323.18 4508.49 2329.02 4509.88 2335.84 4508.89C2342.66 4507.89 2349.72 4503.92 2351.62 4500.07C2353.53 4496.2 2357.93 4492.64 2361.45 4492.13C2364.96 4491.61 2368.25 4494.06 2368.76 4497.56C2369.28 4501.08 2374.85 4503.17 2381.24 4502.24C2387.62 4501.3 2394.12 4497.26 2395.75 4493.18C2397.42 4489.14 2401.44 4485.43 2404.74 4484.95C2408.03 4484.46 2413.1 4486.82 2416.07 4490.21C2419.05 4493.6 2426.09 4495.67 2431.81 4494.83C2437.53 4493.99 2443.53 4490.19 2445.21 4486.36C2446.9 4482.52 2452.06 4481.77 2456.74 4484.68C2461.44 4487.58 2471.5 4489.02 2479.18 4487.9C2486.87 4486.77 2493.67 4483.42 2494.35 4480.4C2495.02 4477.38 2498.78 4474.45 2502.75 4473.87C2506.7 4473.29 2512.04 4474.87 2514.67 4477.43C2517.28 4479.96 2525.09 4479.89 2532.12 4477.31C2539.15 4474.7 2545.98 4469.14 2547.38 4464.9C2548.79 4460.66 2552.79 4459.33 2556.32 4461.94C2559.83 4464.6 2568.71 4466.76 2576.13 4466.77C2583.54 4466.82 2592.1 4464.29 2595.23 4461.12C2598.36 4457.97 2603.83 4455.54 2607.42 4455.66C2611.04 4455.83 2614.36 4458.6 2614.84 4461.9C2615.33 4465.22 2621.79 4467 2629.26 4465.9C2636.74 4464.81 2644.68 4461.84 2647.01 4459.24C2649.32 4456.65 2654.29 4454.64 2658.12 4454.76C2661.95 4454.86 2665.33 4456.74 2665.65 4458.94C2665.98 4461.14 2669.97 4462.36 2674.59 4461.69C2679.22 4461.01 2685.78 4458.59 2689.26 4456.29C2692.74 4453.98 2697.75 4452.15 2700.45 4452.22C2703.17 4452.26 2705.65 4454.27 2706 4456.71C2706.36 4459.12 2715.19 4459.82 2725.75 4458.28L2727.34 4458.04C2737.91 4456.49 2746.03 4452.38 2745.51 4448.88C2745 4445.36 2747.62 4442.06 2751.34 4441.52C2755.07 4440.97 2758.53 4443.39 2759.04 4446.89C2759.56 4450.41 2767.46 4452.17 2776.69 4450.81C2785.93 4449.46 2796.33 4445.94 2799.95 4442.95C2803.54 4439.94 2809.43 4439.07 2813.08 4441.03C2816.72 4442.96 2828.07 4443.29 2838.41 4441.78C2848.74 4440.26 2858.54 4436.28 2860.29 4432.89C2862.04 4429.5 2866.37 4425.4 2869.92 4423.74C2873.5 4422.13 2878.19 4423.05 2880.39 4425.87C2882.61 4428.69 2892.54 4428.09 2902.63 4424.57L2905.64 4423.5C2915.69 4419.95 2924.44 4413.53 2925.14 4409.14C2925.85 4404.77 2928.34 4400.58 2930.69 4399.79C2933.04 4399 2937.49 4400.73 2940.61 4403.63C2943.72 4406.54 2951.73 4406.46 2958.46 4403.43C2965.21 4400.44 2970.84 4392.87 2971.04 4386.56C2971.24 4380.24 2974.96 4373.32 2979.36 4371.13C2983.75 4368.9 2987.82 4370.68 2988.46 4375.08C2989.11 4379.48 2997.2 4378.83 3006.52 4373.68C3015.92 4368.45 3022.96 4360.69 3022.32 4356.29C3021.68 4351.89 3023.66 4346.85 3026.77 4345.06C3029.88 4343.26 3034.23 4343.16 3036.5 4344.84C3038.76 4346.54 3044.44 4344.27 3049.18 4339.74C3053.92 4335.25 3058.04 4328.62 3058.41 4324.98C3058.78 4321.34 3065.85 4312.91 3072.53 4304.59C3086.32 4287.39 3103.58 4255.03 3086.62 4212.31C3060.83 4147.36 3051.74 4168.6 2991.64 4166.4Z" fill="#1B371D" stroke="white" stroke-width="20" mask="url(#path-4-inside-2_50_874)"/>
<path d="M2029.65 2433.26L2585.39 4457.58" stroke="#FFD400" stroke-width="10"/>
<path d="M2037.84 2401.44C2054.49 2405.74 2064.58 2423.12 2060.31 2440.31C2056.04 2457.49 2039.06 2467.89 2022.41 2463.6C2005.76 2459.31 1995.67 2441.93 1999.94 2424.74C2004.21 2407.55 2021.19 2397.15 2037.84 2401.44Z" fill="#95FF00" stroke="white" stroke-width="2"/>
<path d="M2041.99 2384.73C2067.59 2391.33 2083.1 2418.06 2076.54 2444.49C2069.98 2470.92 2043.86 2486.91 2018.26 2480.31C1992.66 2473.71 1977.15 2446.99 1983.71 2420.56C1990.27 2394.13 2016.39 2378.13 2041.99 2384.73Z" stroke="#95FF00" stroke-width="3"/>
<path d="M2230.55 36.041C2307.53 18.6983 2381.44 11.047 2443.01 16.9932C2504.87 22.968 2551.77 42.3791 2578.39 76.5645C2608.53 115.277 2628.5 143.098 2641.53 163.362C2654.7 183.832 2660.26 195.767 2662.35 202.877C2663.35 206.266 2663.42 208.108 2663.38 208.967C2663.34 209.686 2663.21 210.21 2662.83 211.083C2662.54 211.765 2657.45 220.145 2657.45 229.699V232.229L2658.28 234.617C2673.88 279.579 2685.36 371.973 2682.8 487.557C2680.26 602.651 2663.82 739.097 2624.7 871.638C2526.42 1204.59 2386.33 1545.84 2363.21 1945.94C2363.13 1946.27 2363.05 1946.67 2362.95 1947.13C2362.61 1948.66 2362.12 1950.91 2361.49 1953.8C2360.22 1959.59 2358.36 1967.94 2356.04 1978.17C2351.4 1998.64 2344.9 2026.62 2337.46 2056.7C2322.42 2117.43 2303.95 2184.89 2289.36 2217.28C2288.85 2218.42 2287.32 2220.65 2283.32 2223.68C2279.4 2226.65 2273.82 2229.85 2266.38 2233.14C2251.5 2239.75 2230.89 2246.03 2205.35 2251.92C2154.4 2263.66 2086.23 2273.28 2010.67 2281.18C1863.59 2296.55 1690.39 2305.19 1566.04 2310.59C1493.97 2163.41 1472.84 2059.11 1473.17 1981.72C1473.5 1902.92 1495.98 1850.79 1512.58 1806.56L1512.96 1805.54L1513.19 1804.48C1541.66 1673.62 1602.66 1434.63 1649.88 1207.78C1673.59 1093.88 1694.08 981.979 1705.64 886.444C1717.12 791.615 1720.13 710.67 1707.47 659.979C1684.8 569.231 1707.62 483.249 1739.83 406.145C1755.97 367.498 1774.09 331.911 1789.91 298.79C1804.36 268.504 1817.15 239.781 1823.18 214.218C1918.52 141.308 2078.68 70.253 2230.55 36.041Z" fill="#1E1E1E" stroke="#1B371D" stroke-width="30"/>
<path d="M2334.52 4530.51L2347.76 4533.59L2363.78 4524.72M2381.17 4522.16C2381.69 4525.68 2387.34 4527.76 2393.82 4526.8C2400.3 4525.85 2406.9 4521.79 2408.56 4517.7M2429.17 4514.66C2432.19 4518.04 2439.33 4520.09 2445.14 4519.24C2450.94 4518.38 2457.02 4514.56 2458.74 4510.73C2460.45 4506.88 2465.69 4506.11 2470.44 4509C2475.2 4511.89 2485.4 4513.3 2493.2 4512.16C2501 4511.01 2507.9 4507.63 2508.6 4504.61C2509.28 4501.59 2513.1 4498.65 2517.12 4498.06C2521.13 4497.47 2526.55 4499.02 2529.21 4501.58C2531.86 4504.1 2539.78 4504 2546.92 4501.41C2554.05 4498.77 2560.98 4493.19 2562.41 4488.94M2591.57 4490.72C2599.09 4490.76 2607.78 4488.19 2610.95 4485.02C2614.13 4481.86 2619.68 4479.41 2623.33 4479.52C2627 4479.68 2630.36 4482.44 2630.85 4485.74C2631.34 4489.06 2637.89 4490.81 2645.47 4489.7C2653.06 4488.58 2661.12 4485.58 2663.48 4482.97C2665.83 4480.38 2670.88 4478.35 2674.77 4478.46C2678.65 4478.55 2682.08 4480.42 2682.4 4482.62C2682.72 4484.82 2686.77 4486.03 2691.46 4485.34C2696.16 4484.64 2702.82 4482.21 2706.35 4479.9C2709.88 4477.57 2714.97 4475.73 2717.71 4475.79C2720.46 4475.82 2722.98 4477.83 2723.33 4480.26C2723.69 4482.67 2732.65 4483.35 2743.36 4481.77L2744.98 4481.53C2755.7 4479.95 2763.94 4475.81 2763.43 4472.31C2762.91 4468.79 2765.57 4465.48 2769.34 4464.93C2773.13 4464.37 2776.64 4466.78 2777.15 4470.28C2777.67 4473.8 2785.68 4475.53 2795.05 4474.15C2804.42 4472.77 2814.98 4469.22 2818.65 4466.21C2822.3 4463.19 2828.28 4462.31 2831.98 4464.25M2879.88 4455.97C2881.66 4452.57 2886.05 4448.45 2889.66 4446.78C2893.29 4445.16 2898.05 4446.07 2900.28 4448.88C2902.53 4451.69 2912.6 4451.06 2922.84 4447.51L2925.9 4446.43C2936.1 4442.85 2944.98 4436.4 2945.69 4432C2946.42 4427.64 2948.95 4423.44 2951.33 4422.64C2953.72 4421.84 2958.23 4423.56 2961.39 4426.45C2964.55 4429.35 2972.68 4429.24 2979.5 4426.2C2986.35 4423.18 2992.08 4415.59 2992.29 4409.28C2992.5 4402.96 2996.28 4396.02 3000.74 4393.81C3005.2 4391.57 3009.33 4393.34 3009.97 4397.74C3010.62 4402.14 3018.83 4401.47 3028.3 4396.29C3037.83 4391.02 3044.99 4383.24 3044.34 4378.84C3043.69 4374.44 3045.71 4369.39 3048.87 4367.6C3052.02 4365.79 3056.44 4365.68 3058.74 4367.35C3061.03 4369.03 3066.8 4366.75 3071.61 4362.21C3076.42 4357.7 3080.61 4351.05 3080.99 4347.41C3081.37 4343.77 3088.56 4335.31 3095.34 4326.97" stroke="#FFFB00" stroke-width="20"/>
<path d="M2034.04 4475.68L2016.68 1263.33" stroke="white" stroke-opacity="0.75" stroke-width="15" stroke-linecap="round" stroke-dasharray="60 60"/>
<path d="M2033.5 3917.5C2121 3943 2349.3 3896.2 2406.5 3829" stroke="#FFD400" stroke-width="10"/>
</svg>
