<svg width="1943" height="1379" viewBox="0 0 1943 1379" fill="none" xmlns="http://www.w3.org/2000/svg">
<path d="M1515.65 57.7109C1557.78 36.8828 1628.85 14.3708 1703.75 15.0137C1778.3 15.6536 1855.49 39.1306 1912.93 108.805L1913.13 109.057L1913.35 109.299C1919.28 115.882 1924.16 128.048 1926.43 147.404C1928.65 166.393 1928.13 190.351 1925.12 218.395C1919.09 274.429 1903.35 344.532 1882.07 419.283C1839.55 568.707 1775.59 734.425 1725.95 838.823L1725.14 840.528L1724.78 842.382C1717.22 880.983 1704.09 925.404 1685.05 966.4C1665.95 1007.54 1641.37 1044.23 1611.43 1068.48C1581.94 1092.38 1547.32 1104.23 1506.26 1096.62C1464.5 1088.88 1414.11 1060.63 1354.74 999.788L1350.58 995.53L1344.64 995.277L1342.85 995.195C1305.1 993.336 1247.4 982.594 1181.03 967.064C1113.91 951.363 1038.96 931.022 968.769 910.848C898.599 890.68 833.308 870.716 785.553 855.791C761.678 848.329 742.194 842.129 728.684 837.797C721.929 835.631 716.668 833.931 713.099 832.774C711.314 832.196 709.952 831.754 709.038 831.456C708.581 831.307 708.236 831.194 708.006 831.119C707.891 831.082 707.804 831.054 707.747 831.035C707.719 831.026 707.698 831.018 707.684 831.014C707.677 831.011 707.671 831.01 707.668 831.009C707.664 831.01 707.601 831.2 703 845.264L707.664 831.008L701.229 828.902L695.395 832.335C682.893 839.689 660.192 848.92 634.332 851.594C609.583 854.153 582.959 850.634 559.378 834.892C534.134 788.934 539.987 748.957 557.443 716.688C573.912 686.245 600.94 662.49 623.114 648.619C667.717 673.299 810.728 738.378 1042.99 715.189L1044.45 715.044L1045.85 714.62C1092.66 700.443 1156.14 714.383 1218.97 737.993C1281.19 761.371 1338.29 792.363 1372.51 808.787L1390.27 785.36L1390.44 785.562C1391.23 786.527 1391.11 786.862 1390.63 785.389C1390.21 784.057 1389.71 781.954 1389.25 778.907C1388.32 772.823 1387.72 764.332 1387.52 753.498C1387.13 731.91 1388.33 702.591 1390.93 667.901C1396.11 598.613 1406.74 509.089 1420.57 419.656C1434.41 330.185 1451.38 241.211 1469.17 172.927C1478.08 138.724 1487.08 110.18 1495.82 89.4922C1500.2 79.1252 1504.33 71.1937 1508.08 65.6445C1509.94 62.8885 1511.55 60.9608 1512.86 59.6807C1513.51 59.0531 1514.02 58.6393 1514.38 58.3779C1514.75 58.1197 1514.92 58.0443 1514.91 58.0508L1515.28 57.8906L1515.65 57.7109Z" fill="#124B19" stroke="#51FF00" stroke-width="30"/>
<mask id="path-2-inside-1_34_488" fill="white">
<path d="M253.397 1209.18C270.078 1187.69 290.988 1147.48 324.782 1104.18L281.888 1090.29C274.564 1087.93 270.563 1080.05 272.942 1072.76C273.182 1072 273.495 1071.3 273.849 1070.62C276.926 1064.69 283.906 1061.66 290.464 1063.79L335.046 1078.22C339.923 1079.8 346.608 1077.97 350.058 1074.2C352.021 1072.08 354.006 1069.95 356.03 1067.81C359.553 1064.1 358.52 1059.85 353.655 1058.27L331.174 1050.98C323.853 1048.62 319.863 1040.76 322.214 1033.45C322.467 1032.7 322.753 1031.98 323.107 1031.3C326.178 1025.38 333.157 1022.36 339.736 1024.48L376.782 1036.48C381.673 1038.07 388.735 1036.61 392.682 1033.32C395.43 1030.99 398.244 1028.71 401.12 1026.43C405.133 1023.24 404.496 1019.47 399.612 1017.9L380.466 1011.7C373.131 1009.33 369.122 1001.47 371.506 994.163C371.76 993.414 372.026 992.703 372.379 992.022C375.45 986.104 382.455 983.091 389.022 985.209L428.432 997.976C433.302 999.572 440.775 998.633 445.15 995.984C449.34 993.495 453.638 991.029 458.01 988.617C462.483 986.139 462.228 982.938 457.351 981.357L429.744 972.408C422.422 970.051 418.425 962.197 420.811 954.886C421.038 954.123 421.337 953.414 421.684 952.745C424.761 946.814 431.754 943.795 438.325 945.933L506.811 968.122C510.905 967.127 514.836 966.283 518.155 965.734C546.242 961.011 598.863 949.756 620.752 929.27C643.65 907.815 635.631 876.933 620.413 863.289C612.753 856.449 596.027 852.806 585.906 851.134C579.628 850.098 572.349 849.78 565.315 851.506C555.357 853.935 546.923 852.443 544.663 842.452C539.278 819.039 531.842 776.182 537.02 734.665C547.231 652.827 588.484 658.971 588.484 658.971C588.484 658.971 645.582 669.316 675.931 654.186C685.114 649.626 694.94 635.393 697.444 625.468C698.311 621.934 698.632 618.438 698.698 614.979C664.181 603.954 575.327 588.051 471.13 666.06C335.922 767.213 183.461 1029.26 155.445 1078.65C152.907 1083.11 152.103 1082.77 153.664 1077.89C165.157 1042.21 212.289 905.3 293.411 786.885C393.168 641.364 512.132 521.523 657.528 549.435C655.178 547.232 652.982 545.159 651.13 543.301C635.226 527.386 625.452 515.21 584.667 492.573C575.694 487.613 563.888 476.739 557.028 469.11C548.847 459.982 535.917 448.103 517.61 437.925C499.384 427.792 483.573 419.604 472.503 414.047C463.343 409.446 447.971 408.744 439.28 414.188C433.049 418.06 425.97 423.407 419.643 430.467C412.784 438.101 401.617 449.652 394.347 456.902C391.197 460.032 387.914 463.874 384.885 468.472C379.252 477.045 374.97 488.269 372.677 492.133C370.396 496.003 366.657 498.149 364.306 496.929C361.955 495.709 357.59 499.48 354.54 505.359C351.49 511.238 350.615 518.973 352.551 522.623C354.504 526.282 354.804 531.711 353.232 534.743C351.658 537.776 347.905 538.965 344.885 537.398C341.853 535.825 337.087 538.998 334.231 544.502C331.375 550.007 330.875 557.344 333.143 560.911C335.359 564.484 335.996 569.698 334.519 572.544C333.05 575.376 328.358 578.011 324.056 578.425C319.738 578.846 314.164 583.178 311.606 588.108C309.048 593.038 308.651 599.852 310.685 603.314C312.735 606.785 310.427 611.234 305.528 613.254C300.625 615.288 293.854 622.322 290.416 628.948C286.978 635.575 285.772 642.765 287.739 644.99C289.727 647.207 289.892 651.786 288.118 655.206C286.35 658.612 282.122 661.896 278.652 662.503C275.209 663.125 270.879 669.255 268.942 676.185C267.034 683.132 267.534 691.58 270.052 695.056C272.572 698.534 271.364 702.4 267.34 703.687C263.3 704.932 256.625 710.641 252.452 716.428C248.247 722.181 245.418 730.278 246.132 734.497C246.829 738.707 245.653 744.337 243.542 747.073C241.379 749.799 237.353 750.831 234.507 749.354C231.647 747.87 226.633 751.916 223.292 758.354C219.944 764.807 217.801 772.664 218.525 775.939C219.243 779.193 218.019 784.205 215.773 787.125C213.543 790.055 210.179 791.633 208.283 790.649C206.387 789.665 203.194 792.095 201.128 796.076C199.056 800.07 197.255 806.545 197.093 810.549C196.948 814.56 195.552 819.498 193.987 821.569C192.426 823.66 189.468 824.464 187.37 823.376C185.288 822.296 179.779 828.796 175.059 837.894L174.345 839.27C169.618 848.38 168.269 857.023 171.289 858.59C174.321 860.163 175.42 864.058 173.757 867.265C172.086 870.485 168.255 871.82 165.237 870.254C162.203 868.68 156.399 873.857 152.268 881.819C148.137 889.781 145.037 899.874 145.345 904.374C145.676 908.869 143.042 913.946 139.467 915.701C135.916 917.453 129.284 926.119 124.66 935.029C120.037 943.94 117.64 953.819 119.3 957.089C120.964 960.36 121.732 966.032 121.03 969.737C120.281 973.435 116.924 976.577 113.493 976.713C110.045 976.858 104.937 984.94 102.014 994.784L101.163 997.733C98.2844 1007.57 98.3833 1017.99 101.415 1021.01C104.419 1024.01 106.291 1028.31 105.586 1030.58C104.879 1032.86 101.036 1035.36 97.0259 1036.16C93.0021 1036.96 88.568 1043.25 87.1498 1050.2C85.6999 1057.15 88.4392 1065.79 93.2482 1069.49C98.0607 1073.19 101.371 1079.98 100.616 1084.64C99.8869 1089.31 96.2106 1091.49 92.419 1089.53C88.6232 1087.56 84.5875 1094.23 83.3639 1104.39C82.1748 1114.66 84.2666 1124.51 88.0625 1126.48C91.8555 1128.45 94.6706 1132.83 94.3167 1136.26C93.9773 1139.69 91.6083 1143.14 89.0243 1143.97C86.435 1144.78 85.0149 1150.49 85.886 1156.72C86.7285 1162.94 89.5862 1169.88 92.2117 1172.21C94.8482 1174.55 97.4501 1184.8 100.187 1194.68C105.861 1215.09 121.409 1246.72 164.25 1257.49C229.396 1273.85 217.933 1254.83 253.397 1209.18Z"/>
</mask>
<path d="M253.397 1209.18C270.078 1187.69 290.988 1147.48 324.782 1104.18L281.888 1090.29C274.564 1087.93 270.563 1080.05 272.942 1072.76C273.182 1072 273.495 1071.3 273.849 1070.62C276.926 1064.69 283.906 1061.66 290.464 1063.79L335.046 1078.22C339.923 1079.8 346.608 1077.97 350.058 1074.2C352.021 1072.08 354.006 1069.95 356.03 1067.81C359.553 1064.1 358.52 1059.85 353.655 1058.27L331.174 1050.98C323.853 1048.62 319.863 1040.76 322.214 1033.45C322.467 1032.7 322.753 1031.98 323.107 1031.3C326.178 1025.38 333.157 1022.36 339.736 1024.48L376.782 1036.48C381.673 1038.07 388.735 1036.61 392.682 1033.32C395.43 1030.99 398.244 1028.71 401.12 1026.43C405.133 1023.24 404.496 1019.47 399.612 1017.9L380.466 1011.7C373.131 1009.33 369.122 1001.47 371.506 994.163C371.76 993.414 372.026 992.703 372.379 992.022C375.45 986.104 382.455 983.091 389.022 985.209L428.432 997.976C433.302 999.572 440.775 998.633 445.15 995.984C449.34 993.495 453.638 991.029 458.01 988.617C462.483 986.139 462.228 982.938 457.351 981.357L429.744 972.408C422.422 970.051 418.425 962.197 420.811 954.886C421.038 954.123 421.337 953.414 421.684 952.745C424.761 946.814 431.754 943.795 438.325 945.933L506.811 968.122C510.905 967.127 514.836 966.283 518.155 965.734C546.242 961.011 598.863 949.756 620.752 929.27C643.65 907.815 635.631 876.933 620.413 863.289C612.753 856.449 596.027 852.806 585.906 851.134C579.628 850.098 572.349 849.78 565.315 851.506C555.357 853.935 546.923 852.443 544.663 842.452C539.278 819.039 531.842 776.182 537.02 734.665C547.231 652.827 588.484 658.971 588.484 658.971C588.484 658.971 645.582 669.316 675.931 654.186C685.114 649.626 694.94 635.393 697.444 625.468C698.311 621.934 698.632 618.438 698.698 614.979C664.181 603.954 575.327 588.051 471.13 666.06C335.922 767.213 183.461 1029.26 155.445 1078.65C152.907 1083.11 152.103 1082.77 153.664 1077.89C165.157 1042.21 212.289 905.3 293.411 786.885C393.168 641.364 512.132 521.523 657.528 549.435C655.178 547.232 652.982 545.159 651.13 543.301C635.226 527.386 625.452 515.21 584.667 492.573C575.694 487.613 563.888 476.739 557.028 469.11C548.847 459.982 535.917 448.103 517.61 437.925C499.384 427.792 483.573 419.604 472.503 414.047C463.343 409.446 447.971 408.744 439.28 414.188C433.049 418.06 425.97 423.407 419.643 430.467C412.784 438.101 401.617 449.652 394.347 456.902C391.197 460.032 387.914 463.874 384.885 468.472C379.252 477.045 374.97 488.269 372.677 492.133C370.396 496.003 366.657 498.149 364.306 496.929C361.955 495.709 357.59 499.48 354.54 505.359C351.49 511.238 350.615 518.973 352.551 522.623C354.504 526.282 354.804 531.711 353.232 534.743C351.658 537.776 347.905 538.965 344.885 537.398C341.853 535.825 337.087 538.998 334.231 544.502C331.375 550.007 330.875 557.344 333.143 560.911C335.359 564.484 335.996 569.698 334.519 572.544C333.05 575.376 328.358 578.011 324.056 578.425C319.738 578.846 314.164 583.178 311.606 588.108C309.048 593.038 308.651 599.852 310.685 603.314C312.735 606.785 310.427 611.234 305.528 613.254C300.625 615.288 293.854 622.322 290.416 628.948C286.978 635.575 285.772 642.765 287.739 644.99C289.727 647.207 289.892 651.786 288.118 655.206C286.35 658.612 282.122 661.896 278.652 662.503C275.209 663.125 270.879 669.255 268.942 676.185C267.034 683.132 267.534 691.58 270.052 695.056C272.572 698.534 271.364 702.4 267.34 703.687C263.3 704.932 256.625 710.641 252.452 716.428C248.247 722.181 245.418 730.278 246.132 734.497C246.829 738.707 245.653 744.337 243.542 747.073C241.379 749.799 237.353 750.831 234.507 749.354C231.647 747.87 226.633 751.916 223.292 758.354C219.944 764.807 217.801 772.664 218.525 775.939C219.243 779.193 218.019 784.205 215.773 787.125C213.543 790.055 210.179 791.633 208.283 790.649C206.387 789.665 203.194 792.095 201.128 796.076C199.056 800.07 197.255 806.545 197.093 810.549C196.948 814.56 195.552 819.498 193.987 821.569C192.426 823.66 189.468 824.464 187.37 823.376C185.288 822.296 179.779 828.796 175.059 837.894L174.345 839.27C169.618 848.38 168.269 857.023 171.289 858.59C174.321 860.163 175.42 864.058 173.757 867.265C172.086 870.485 168.255 871.82 165.237 870.254C162.203 868.68 156.399 873.857 152.268 881.819C148.137 889.781 145.037 899.874 145.345 904.374C145.676 908.869 143.042 913.946 139.467 915.701C135.916 917.453 129.284 926.119 124.66 935.029C120.037 943.94 117.64 953.819 119.3 957.089C120.964 960.36 121.732 966.032 121.03 969.737C120.281 973.435 116.924 976.577 113.493 976.713C110.045 976.858 104.937 984.94 102.014 994.784L101.163 997.733C98.2844 1007.57 98.3833 1017.99 101.415 1021.01C104.419 1024.01 106.291 1028.31 105.586 1030.58C104.879 1032.86 101.036 1035.36 97.0259 1036.16C93.0021 1036.96 88.568 1043.25 87.1498 1050.2C85.6999 1057.15 88.4392 1065.79 93.2482 1069.49C98.0607 1073.19 101.371 1079.98 100.616 1084.64C99.8869 1089.31 96.2106 1091.49 92.419 1089.53C88.6232 1087.56 84.5875 1094.23 83.3639 1104.39C82.1748 1114.66 84.2666 1124.51 88.0625 1126.48C91.8555 1128.45 94.6706 1132.83 94.3167 1136.26C93.9773 1139.69 91.6083 1143.14 89.0243 1143.97C86.435 1144.78 85.0149 1150.49 85.886 1156.72C86.7285 1162.94 89.5862 1169.88 92.2117 1172.21C94.8482 1174.55 97.4501 1184.8 100.187 1194.68C105.861 1215.09 121.409 1246.72 164.25 1257.49C229.396 1273.85 217.933 1254.83 253.397 1209.18Z" fill="#1B371D" stroke="white" stroke-width="20" mask="url(#path-2-inside-1_34_488)"/>
<path d="M614.612 722.494C630.385 727.338 639.3 744.445 634.456 760.741C629.612 777.036 612.87 786.264 597.097 781.421C581.324 776.577 572.409 759.469 577.253 743.174C582.097 726.878 598.84 717.65 614.612 722.494Z" fill="#51FF00" stroke="white" stroke-width="2"/>
<path d="M619.322 706.65C643.579 714.099 657.287 740.407 649.838 765.465C642.39 790.523 616.644 804.714 592.387 797.265C568.131 789.815 554.422 763.508 561.871 738.45C569.319 713.392 595.066 699.201 619.322 706.65Z" stroke="#51FF00" stroke-width="3"/>
<path d="M1552.61 945.494C1568.39 950.338 1577.3 967.445 1572.46 983.741C1567.61 1000.04 1550.87 1009.26 1535.1 1004.42C1519.32 999.577 1510.41 982.469 1515.25 966.174C1520.1 949.878 1536.84 940.65 1552.61 945.494Z" fill="#51FF00" stroke="white" stroke-width="2"/>
<path d="M1557.32 929.65C1581.58 937.099 1595.29 963.407 1587.84 988.465C1580.39 1013.52 1554.64 1027.71 1530.39 1020.26C1506.13 1012.82 1492.42 986.508 1499.87 961.45C1507.32 936.392 1533.07 922.201 1557.32 929.65Z" stroke="#51FF00" stroke-width="3"/>
<line x1="607.156" y1="747.4" x2="1545.16" y2="970.4" stroke="#02E80E" stroke-width="10"/>
<line x1="1719.91" y1="98.22" x2="1548.91" y2="976.22" stroke="#02E80E" stroke-width="10"/>
<path d="M1723.61 67.4942C1739.39 72.338 1748.3 89.4452 1743.46 105.741C1738.61 122.036 1721.87 131.264 1706.1 126.421C1690.32 121.577 1681.41 104.469 1686.25 88.1738C1691.1 71.8782 1707.84 62.6504 1723.61 67.4942Z" fill="#51FF00" stroke="white" stroke-width="2"/>
<path d="M1728.32 51.6499C1752.58 59.0993 1766.29 85.4065 1758.84 110.465C1751.39 135.523 1725.64 149.714 1701.39 142.265C1677.13 134.815 1663.42 108.508 1670.87 83.4497C1678.32 58.3916 1704.07 44.2007 1728.32 51.6499Z" stroke="#51FF00" stroke-width="3"/>
<path d="M1648.5 452C1300.5 452 1127.5 692.667 1048 850.5L1549.5 970L1648.5 452Z" fill="#00FF1F" fill-opacity="0.38" stroke="#02E80E" stroke-width="10"/>
</svg>
