<svg width="1793" height="1503" viewBox="0 0 1793 1503" fill="none" xmlns="http://www.w3.org/2000/svg">
<path d="M1247.18 854.297C1223.55 779.676 1303.83 153 1371.5 124C1441.5 93.9997 1620.5 29.9999 1758.42 167.264C1830.42 247.264 1686.28 710.166 1586.28 920.5C1502.68 1303.7 1305.83 1184.67 1217 1079C897 922 666.425 502.809 666.425 502.809C633.87 498.255 564.008 472.612 545 406.47C562.885 287.393 680.294 276.169 736.763 285.441C749.549 319.202 815.099 466.819 1021.72 599.608C1119.98 638.468 1212.42 785.085 1247.18 854.297Z" fill="#6E0808" stroke="#FF0000" stroke-width="30"/>
<path d="M691.612 365.23C707.385 370.074 716.3 387.181 711.456 403.477C706.612 419.772 689.869 429 674.096 424.156C658.324 419.313 649.409 402.205 654.253 385.91C659.097 369.614 675.839 360.386 691.612 365.23Z" fill="#FF0000" stroke="white" stroke-width="2"/>
<path d="M696.322 349.386C720.579 356.835 734.287 383.142 726.838 408.2C719.39 433.258 693.644 447.449 669.387 440C645.131 432.551 631.422 406.244 638.871 381.186C646.319 356.127 672.066 341.937 696.322 349.386Z" stroke="#FF0000" stroke-width="3"/>
<path d="M1406.61 1015.23C1422.39 1020.07 1431.3 1037.18 1426.46 1053.48C1421.61 1069.77 1404.87 1079 1389.1 1074.16C1373.32 1069.31 1364.41 1052.21 1369.25 1035.91C1374.1 1019.61 1390.84 1010.39 1406.61 1015.23Z" fill="#FF0000" stroke="white" stroke-width="2"/>
<path d="M1411.32 999.386C1435.58 1006.84 1449.29 1033.14 1441.84 1058.2C1434.39 1083.26 1408.64 1097.45 1384.39 1090C1360.13 1082.55 1346.42 1056.24 1353.87 1031.19C1361.32 1006.13 1387.07 991.937 1411.32 999.386Z" stroke="#FF0000" stroke-width="3"/>
<path d="M1574.61 135.23C1590.38 140.074 1599.3 157.181 1594.46 173.477C1589.61 189.772 1572.87 199 1557.1 194.156C1541.32 189.313 1532.41 172.205 1537.25 155.91C1542.1 139.614 1558.84 130.386 1574.61 135.23Z" fill="#FF0000" stroke="white" stroke-width="2"/>
<path d="M1579.32 119.386C1603.58 126.835 1617.29 153.142 1609.84 178.2C1602.39 203.258 1576.64 217.449 1552.39 210C1528.13 202.551 1514.42 176.244 1521.87 151.186C1529.32 126.127 1555.07 111.937 1579.32 119.386Z" stroke="#FF0004" stroke-width="3"/>
<path d="M1566 165L1398 1047.5" stroke="#FF0000" stroke-width="10"/>
<line x1="1394.64" y1="1048.7" x2="679.637" y2="398.7" stroke="#FF0000" stroke-width="10"/>
<mask id="path-10-inside-1_42_687" fill="white">
<path d="M145.442 702.981C167.819 687.506 199.862 655.46 245.124 624.34L208.402 598.175C202.129 593.722 200.683 585.008 205.149 578.767C205.605 578.117 206.115 577.542 206.658 576.998C211.378 572.268 218.945 571.484 224.557 575.49L262.726 602.675C266.901 605.65 273.83 605.909 278.254 603.352C280.765 601.921 283.296 600.494 285.87 599.065C290.348 596.58 290.643 592.216 286.478 589.251L267.234 575.532C260.962 571.078 259.526 562.376 263.969 556.112C264.435 555.473 264.923 554.877 265.467 554.332C270.177 549.613 277.743 548.829 283.377 552.836L315.093 575.428C319.279 578.416 326.452 579.153 331.208 577.199C334.526 575.813 337.9 574.478 341.326 573.177C346.113 571.341 346.641 567.552 342.456 564.587L326.065 552.908C319.782 548.444 318.326 539.741 322.8 533.489C323.268 532.85 323.736 532.252 324.277 531.71C328.987 526.991 336.574 526.226 342.198 530.222L375.938 554.261C380.101 557.248 387.51 558.603 392.479 557.394C397.225 556.282 402.065 555.224 406.961 554.239C411.973 553.224 412.693 550.094 408.518 547.118L384.885 530.274C378.612 525.822 377.166 517.129 381.641 510.875C382.088 510.216 382.586 509.63 383.118 509.096C387.838 504.367 395.415 503.593 401.039 507.61L459.668 549.386C463.872 549.67 467.874 550.049 471.205 550.524C499.411 554.475 552.979 559.582 580.019 546.636C608.314 533.07 609.963 501.206 599.558 483.613C594.313 474.785 579.459 466.276 570.312 461.634C564.636 458.757 557.79 456.263 550.563 455.79C540.336 455.11 532.743 451.147 533.595 440.94C535.507 416.992 541.317 373.884 558.753 335.852C593.126 260.883 630.616 279.161 630.616 279.161C630.616 279.161 681.951 306.214 715.447 300.923C725.577 299.338 739.232 288.723 744.607 280.012C746.498 276.903 747.856 273.666 748.96 270.388C719.364 249.483 639.418 207.57 516.572 250.594C357.185 306.354 132.912 510.35 91.3286 549.014C87.5637 552.508 86.9021 551.935 89.8571 547.759C111.557 517.194 197.718 400.818 310.725 312.316C449.66 203.575 599.182 125.105 729.431 195.49C727.854 192.682 726.383 190.044 725.176 187.715C714.801 167.751 709.146 153.197 677.067 119.333C670.004 111.901 662.019 97.9778 657.773 88.6379C652.719 77.4703 643.965 62.2497 629.572 47.0338C615.242 31.8836 602.628 19.3157 593.745 10.6839C586.395 3.5397 571.947 -1.75764 562.021 0.817757C554.913 2.6346 546.552 5.60238 538.394 10.4308C529.555 15.645 515.428 23.2985 506.314 28.0243C502.367 30.0606 498.081 32.736 493.807 36.2093C485.855 42.6891 478.392 52.1032 475.043 55.0982C471.703 58.102 467.492 59.0222 465.617 57.1511C463.742 55.2799 458.444 57.5624 453.766 62.2504C449.087 66.9383 445.925 74.051 446.672 78.1146C447.433 82.1917 446.085 87.4594 443.673 89.877C441.259 92.2956 437.322 92.3007 434.914 89.897C432.496 87.4844 426.996 89.0748 422.615 93.4642C418.235 97.8536 415.549 104.7 416.639 108.784C417.676 112.859 416.714 118.023 414.449 120.292C412.195 122.55 406.928 123.651 402.701 122.75C398.457 121.852 391.837 124.305 387.914 128.236C383.99 132.168 381.56 138.546 382.458 142.46C383.368 146.387 379.828 149.935 374.547 150.386C369.259 150.85 360.685 155.52 355.412 160.804C350.139 166.088 346.824 172.582 348.03 175.295C349.258 178.008 348.038 182.424 345.316 185.152C342.605 187.868 337.584 189.726 334.093 189.261C330.622 188.817 324.648 193.359 320.714 199.384C316.804 205.435 314.738 213.642 316.092 217.715C317.448 221.79 315.132 225.113 310.908 225.129C306.681 225.1 298.597 228.535 292.875 232.797C287.133 237.018 281.998 243.888 281.409 248.125C280.806 252.351 277.99 257.365 275.153 259.339C272.27 261.287 268.12 261.059 265.85 258.794C263.57 256.518 257.57 258.867 252.447 264.001C247.312 269.146 242.902 275.993 242.607 279.335C242.313 282.654 239.636 287.065 236.615 289.173C233.607 291.297 229.924 291.788 228.412 290.279C226.9 288.77 223.123 290.126 219.956 293.3C216.777 296.486 213.11 302.118 211.751 305.887C210.404 309.669 207.587 313.958 205.471 315.461C203.354 316.986 200.291 316.862 198.617 315.192C196.957 313.536 189.747 318.076 182.507 325.331L181.412 326.428C174.162 333.693 170.273 341.529 172.682 343.932C175.099 346.345 174.975 350.391 172.424 352.947C169.861 355.515 165.806 355.635 163.399 353.234C160.98 350.819 153.887 354.009 147.551 360.358C141.214 366.707 135.22 375.399 134.158 379.782C133.121 384.168 129.081 388.217 125.144 388.815C121.23 389.417 112.296 395.684 105.205 402.79C98.1143 409.895 92.8544 418.595 93.4535 422.212C94.0549 425.832 93.0801 431.472 91.295 434.794C89.4676 438.096 85.3205 440.081 82.0075 439.178C78.6767 438.278 71.3721 444.448 65.6213 452.955L63.9222 455.511C58.217 464.022 55.1722 473.996 57.156 477.783C59.1174 481.549 59.6097 486.209 58.2516 488.169C56.8914 490.129 52.4742 491.356 48.4082 490.914C44.3322 490.459 38.208 495.13 34.7654 501.325C31.2915 507.513 31.3018 516.58 34.7737 521.557C38.2488 526.535 39.3627 534.003 37.239 538.221C35.1366 542.46 30.9752 543.431 27.9516 540.413C24.9247 537.393 19.0681 542.539 14.8406 551.866C10.6155 561.301 9.64514 571.324 12.6721 574.344C15.6967 577.363 17.063 582.386 15.694 585.547C14.336 588.722 11.0377 591.3 8.3244 591.312C5.61107 591.306 2.5389 596.321 1.49344 602.526C0.42464 608.711 1.05993 616.191 2.86261 619.202C4.67418 622.222 4.0694 632.781 3.70476 643.028C2.9717 664.199 8.27461 699.048 45.8886 722.21C103.089 757.418 97.8832 735.83 145.442 702.981Z"/>
</mask>
<path d="M145.442 702.981C167.819 687.506 199.862 655.46 245.124 624.34L208.402 598.175C202.129 593.722 200.683 585.008 205.149 578.767C205.605 578.117 206.115 577.542 206.658 576.998C211.378 572.268 218.945 571.484 224.557 575.49L262.726 602.675C266.901 605.65 273.83 605.909 278.254 603.352C280.765 601.921 283.296 600.494 285.87 599.065C290.348 596.58 290.643 592.216 286.478 589.251L267.234 575.532C260.962 571.078 259.526 562.376 263.969 556.112C264.435 555.473 264.923 554.877 265.467 554.332C270.177 549.613 277.743 548.829 283.377 552.836L315.093 575.428C319.279 578.416 326.452 579.153 331.208 577.199C334.526 575.813 337.9 574.478 341.326 573.177C346.113 571.341 346.641 567.552 342.456 564.587L326.065 552.908C319.782 548.444 318.326 539.741 322.8 533.489C323.268 532.85 323.736 532.252 324.277 531.71C328.987 526.991 336.574 526.226 342.198 530.222L375.938 554.261C380.101 557.248 387.51 558.603 392.479 557.394C397.225 556.282 402.065 555.224 406.961 554.239C411.973 553.224 412.693 550.094 408.518 547.118L384.885 530.274C378.612 525.822 377.166 517.129 381.641 510.875C382.088 510.216 382.586 509.63 383.118 509.096C387.838 504.367 395.415 503.593 401.039 507.61L459.668 549.386C463.872 549.67 467.874 550.049 471.205 550.524C499.411 554.475 552.979 559.582 580.019 546.636C608.314 533.07 609.963 501.206 599.558 483.613C594.313 474.785 579.459 466.276 570.312 461.634C564.636 458.757 557.79 456.263 550.563 455.79C540.336 455.11 532.743 451.147 533.595 440.94C535.507 416.992 541.317 373.884 558.753 335.852C593.126 260.883 630.616 279.161 630.616 279.161C630.616 279.161 681.951 306.214 715.447 300.923C725.577 299.338 739.232 288.723 744.607 280.012C746.498 276.903 747.856 273.666 748.96 270.388C719.364 249.483 639.418 207.57 516.572 250.594C357.185 306.354 132.912 510.35 91.3286 549.014C87.5637 552.508 86.9021 551.935 89.8571 547.759C111.557 517.194 197.718 400.818 310.725 312.316C449.66 203.575 599.182 125.105 729.431 195.49C727.854 192.682 726.383 190.044 725.176 187.715C714.801 167.751 709.146 153.197 677.067 119.333C670.004 111.901 662.019 97.9778 657.773 88.6379C652.719 77.4703 643.965 62.2497 629.572 47.0338C615.242 31.8836 602.628 19.3157 593.745 10.6839C586.395 3.5397 571.947 -1.75764 562.021 0.817757C554.913 2.6346 546.552 5.60238 538.394 10.4308C529.555 15.645 515.428 23.2985 506.314 28.0243C502.367 30.0606 498.081 32.736 493.807 36.2093C485.855 42.6891 478.392 52.1032 475.043 55.0982C471.703 58.102 467.492 59.0222 465.617 57.1511C463.742 55.2799 458.444 57.5624 453.766 62.2504C449.087 66.9383 445.925 74.051 446.672 78.1146C447.433 82.1917 446.085 87.4594 443.673 89.877C441.259 92.2956 437.322 92.3007 434.914 89.897C432.496 87.4844 426.996 89.0748 422.615 93.4642C418.235 97.8536 415.549 104.7 416.639 108.784C417.676 112.859 416.714 118.023 414.449 120.292C412.195 122.55 406.928 123.651 402.701 122.75C398.457 121.852 391.837 124.305 387.914 128.236C383.99 132.168 381.56 138.546 382.458 142.46C383.368 146.387 379.828 149.935 374.547 150.386C369.259 150.85 360.685 155.52 355.412 160.804C350.139 166.088 346.824 172.582 348.03 175.295C349.258 178.008 348.038 182.424 345.316 185.152C342.605 187.868 337.584 189.726 334.093 189.261C330.622 188.817 324.648 193.359 320.714 199.384C316.804 205.435 314.738 213.642 316.092 217.715C317.448 221.79 315.132 225.113 310.908 225.129C306.681 225.1 298.597 228.535 292.875 232.797C287.133 237.018 281.998 243.888 281.409 248.125C280.806 252.351 277.99 257.365 275.153 259.339C272.27 261.287 268.12 261.059 265.85 258.794C263.57 256.518 257.57 258.867 252.447 264.001C247.312 269.146 242.902 275.993 242.607 279.335C242.313 282.654 239.636 287.065 236.615 289.173C233.607 291.297 229.924 291.788 228.412 290.279C226.9 288.77 223.123 290.126 219.956 293.3C216.777 296.486 213.11 302.118 211.751 305.887C210.404 309.669 207.587 313.958 205.471 315.461C203.354 316.986 200.291 316.862 198.617 315.192C196.957 313.536 189.747 318.076 182.507 325.331L181.412 326.428C174.162 333.693 170.273 341.529 172.682 343.932C175.099 346.345 174.975 350.391 172.424 352.947C169.861 355.515 165.806 355.635 163.399 353.234C160.98 350.819 153.887 354.009 147.551 360.358C141.214 366.707 135.22 375.399 134.158 379.782C133.121 384.168 129.081 388.217 125.144 388.815C121.23 389.417 112.296 395.684 105.205 402.79C98.1143 409.895 92.8544 418.595 93.4535 422.212C94.0549 425.832 93.0801 431.472 91.295 434.794C89.4676 438.096 85.3205 440.081 82.0075 439.178C78.6767 438.278 71.3721 444.448 65.6213 452.955L63.9222 455.511C58.217 464.022 55.1722 473.996 57.156 477.783C59.1174 481.549 59.6097 486.209 58.2516 488.169C56.8914 490.129 52.4742 491.356 48.4082 490.914C44.3322 490.459 38.208 495.13 34.7654 501.325C31.2915 507.513 31.3018 516.58 34.7737 521.557C38.2488 526.535 39.3627 534.003 37.239 538.221C35.1366 542.46 30.9752 543.431 27.9516 540.413C24.9247 537.393 19.0681 542.539 14.8406 551.866C10.6155 561.301 9.64514 571.324 12.6721 574.344C15.6967 577.363 17.063 582.386 15.694 585.547C14.336 588.722 11.0377 591.3 8.3244 591.312C5.61107 591.306 2.5389 596.321 1.49344 602.526C0.42464 608.711 1.05993 616.191 2.86261 619.202C4.67418 622.222 4.0694 632.781 3.70476 643.028C2.9717 664.199 8.27461 699.048 45.8886 722.21C103.089 757.418 97.8832 735.83 145.442 702.981Z" fill="#1B371D" stroke="white" stroke-width="20" mask="url(#path-10-inside-1_42_687)"/>
<path d="M1503.6 492C1322 492 1187 492 1007.5 699.5L1398.1 1047.5L1503.6 492Z" fill="#FF0000" fill-opacity="0.41" stroke="#E80202" stroke-width="10"/>
</svg>
