<svg width="1977" height="1122" viewBox="0 0 1977 1122" fill="none" xmlns="http://www.w3.org/2000/svg">
<mask id="path-1-inside-1_42_671" fill="white">
<path d="M240.311 883.073C261.197 865.639 290.213 830.827 332.476 795.743L293.54 773.005C286.89 769.137 284.662 760.59 288.545 753.97C288.941 753.282 289.396 752.664 289.889 752.072C294.161 746.935 301.627 745.47 307.578 748.953L348.048 772.576C352.475 775.162 359.399 774.793 363.574 771.846C365.945 770.195 368.337 768.545 370.771 766.889C375.006 764.01 374.906 759.637 370.489 757.061L350.084 745.137C343.435 741.268 341.218 732.731 345.077 726.091C345.484 725.413 345.916 724.775 346.408 724.183C350.672 719.058 358.136 717.594 364.11 721.074L397.738 740.708C402.176 743.305 409.387 743.39 413.947 741.015C417.126 739.334 420.365 737.7 423.66 736.094C428.261 733.834 428.445 730.012 424.009 727.438L406.629 717.288C399.969 713.41 397.731 704.874 401.622 698.243C402.03 697.565 402.442 696.927 402.933 696.338C407.196 691.212 414.683 689.765 420.646 693.237L456.42 714.127C460.837 716.726 468.338 717.405 473.177 715.752C477.803 714.215 482.528 712.724 487.314 711.302C492.214 709.837 492.648 706.655 488.221 704.069L463.163 689.429C456.513 685.563 454.287 677.036 458.179 670.404C458.564 669.707 459.007 669.078 459.489 668.498C463.762 663.362 471.238 661.906 477.201 665.399L539.367 701.704C543.579 701.607 547.6 701.622 550.959 701.794C579.407 703.18 633.218 703.424 658.977 688.087C685.93 672.018 684.692 640.136 672.739 623.555C666.718 615.238 651.155 608.106 641.626 604.31C635.713 601.957 628.67 600.092 621.43 600.275C611.183 600.522 603.263 597.262 603.189 587.019C602.928 562.997 604.818 519.54 618.745 480.088C646.201 402.319 685.19 417.133 685.19 417.133C685.19 417.133 738.76 439.435 771.641 431.138C781.585 428.644 794.225 416.838 798.791 407.677C800.393 404.41 801.453 401.064 802.256 397.698C770.892 379.555 687.485 345.04 569.03 398.992C415.336 468.93 210.42 692.363 172.502 734.628C169.068 738.448 168.357 737.936 170.923 733.511C189.771 701.109 265.06 577.422 369.605 479.067C498.142 358.213 639.959 266.549 776.037 324.873C774.212 322.218 772.509 319.725 771.097 317.514C758.96 298.569 752.012 284.586 717.004 253.761C709.297 246.998 700.086 233.853 695.014 224.935C688.971 214.27 678.877 199.903 663.167 186.05C647.527 172.257 633.829 160.881 624.202 153.088C616.236 146.637 601.368 142.667 591.716 146.129C584.801 148.581 576.743 152.293 569.054 157.839C560.723 163.831 547.346 172.73 538.696 178.26C534.949 180.645 530.922 183.697 526.98 187.542C519.646 194.714 513.065 204.764 510.001 208.05C506.946 211.343 502.834 212.64 500.798 210.946C498.762 209.252 493.692 212.004 489.457 217.096C485.221 222.187 482.714 229.557 483.826 233.536C484.953 237.528 484.086 242.896 481.902 245.522C479.717 248.149 475.797 248.509 473.181 246.333C470.555 244.149 465.221 246.23 461.255 250.998C457.289 255.765 455.234 262.826 456.688 266.795C458.089 270.759 457.597 275.989 455.547 278.454C453.507 280.906 448.36 282.478 444.07 281.964C439.761 281.453 433.391 284.494 429.838 288.764C426.286 293.034 424.443 299.606 425.691 303.422C426.952 307.252 423.747 311.104 418.529 312.031C413.305 312.971 405.188 318.397 400.414 324.136C395.64 329.875 392.926 336.642 394.372 339.235C395.84 341.826 395.024 346.335 392.56 349.297C390.106 352.247 385.273 354.551 381.754 354.404C378.258 354.275 372.718 359.339 369.346 365.695C365.998 372.074 364.682 380.434 366.399 384.368C368.118 388.304 366.112 391.823 361.906 392.22C357.694 392.573 349.953 396.725 344.64 401.488C339.303 406.21 334.811 413.516 334.607 417.789C334.388 422.052 332.037 427.3 329.39 429.522C326.695 431.723 322.541 431.871 320.076 429.821C317.599 427.76 311.836 430.642 307.198 436.217C302.549 441.806 298.777 449.024 298.785 452.378C298.791 455.71 296.524 460.345 293.707 462.718C290.903 465.105 287.279 465.927 285.637 464.561C283.995 463.195 280.356 464.887 277.488 468.334C274.611 471.794 271.468 477.735 270.454 481.611C269.456 485.499 267.038 490.025 265.066 491.714C263.095 493.423 260.034 493.577 258.216 492.065C256.413 490.565 249.643 495.739 243.088 503.618L242.096 504.81C235.533 512.701 232.368 520.856 234.985 523.032C237.61 525.216 237.853 529.256 235.542 532.033C233.222 534.822 229.194 535.308 226.581 533.134C223.953 530.948 217.177 534.766 211.441 541.662C205.705 548.558 200.52 557.755 199.859 562.217C199.223 566.679 195.565 571.076 191.698 572.028C187.855 572.981 179.524 580.03 173.104 587.747C166.685 595.465 162.233 604.604 163.156 608.153C164.082 611.703 163.621 617.408 162.144 620.878C160.622 624.331 156.672 626.683 153.291 626.084C149.892 625.488 143.175 632.293 138.217 641.286L136.756 643.985C131.843 652.976 129.712 663.185 132.03 666.777C134.324 670.35 135.236 674.947 134.06 677.022C132.883 679.097 128.595 680.717 124.505 680.645C120.405 680.561 114.728 685.765 111.859 692.246C108.959 698.723 109.789 707.752 113.696 712.395C117.607 717.038 119.392 724.376 117.658 728.768C115.947 733.18 111.891 734.522 108.607 731.791C105.319 729.056 99.9517 734.711 96.5847 744.382C93.2296 754.16 93.1692 764.229 96.4568 766.964C99.7419 769.697 101.557 774.576 100.479 777.848C99.4135 781.132 96.3618 783.998 93.6606 784.255C90.9578 784.494 88.3515 789.766 87.8713 796.041C87.3659 802.297 88.6747 809.689 90.7422 812.525C92.8193 815.369 93.1714 825.939 93.7345 836.177C94.9181 857.328 103.349 891.554 142.903 911.222C203.052 941.116 195.916 920.087 240.311 883.073Z"/>
</mask>
<path d="M240.311 883.073C261.197 865.639 290.213 830.827 332.476 795.743L293.54 773.005C286.89 769.137 284.662 760.59 288.545 753.97C288.941 753.282 289.396 752.664 289.889 752.072C294.161 746.935 301.627 745.47 307.578 748.953L348.048 772.576C352.475 775.162 359.399 774.793 363.574 771.846C365.945 770.195 368.337 768.545 370.771 766.889C375.006 764.01 374.906 759.637 370.489 757.061L350.084 745.137C343.435 741.268 341.218 732.731 345.077 726.091C345.484 725.413 345.916 724.775 346.408 724.183C350.672 719.058 358.136 717.594 364.11 721.074L397.738 740.708C402.176 743.305 409.387 743.39 413.947 741.015C417.126 739.334 420.365 737.7 423.66 736.094C428.261 733.834 428.445 730.012 424.009 727.438L406.629 717.288C399.969 713.41 397.731 704.874 401.622 698.243C402.03 697.565 402.442 696.927 402.933 696.338C407.196 691.212 414.683 689.765 420.646 693.237L456.42 714.127C460.837 716.726 468.338 717.405 473.177 715.752C477.803 714.215 482.528 712.724 487.314 711.302C492.214 709.837 492.648 706.655 488.221 704.069L463.163 689.429C456.513 685.563 454.287 677.036 458.179 670.404C458.564 669.707 459.007 669.078 459.489 668.498C463.762 663.362 471.238 661.906 477.201 665.399L539.367 701.704C543.579 701.607 547.6 701.622 550.959 701.794C579.407 703.18 633.218 703.424 658.977 688.087C685.93 672.018 684.692 640.136 672.739 623.555C666.718 615.238 651.155 608.106 641.626 604.31C635.713 601.957 628.67 600.092 621.43 600.275C611.183 600.522 603.263 597.262 603.189 587.019C602.928 562.997 604.818 519.54 618.745 480.088C646.201 402.319 685.19 417.133 685.19 417.133C685.19 417.133 738.76 439.435 771.641 431.138C781.585 428.644 794.225 416.838 798.791 407.677C800.393 404.41 801.453 401.064 802.256 397.698C770.892 379.555 687.485 345.04 569.03 398.992C415.336 468.93 210.42 692.363 172.502 734.628C169.068 738.448 168.357 737.936 170.923 733.511C189.771 701.109 265.06 577.422 369.605 479.067C498.142 358.213 639.959 266.549 776.037 324.873C774.212 322.218 772.509 319.725 771.097 317.514C758.96 298.569 752.012 284.586 717.004 253.761C709.297 246.998 700.086 233.853 695.014 224.935C688.971 214.27 678.877 199.903 663.167 186.05C647.527 172.257 633.829 160.881 624.202 153.088C616.236 146.637 601.368 142.667 591.716 146.129C584.801 148.581 576.743 152.293 569.054 157.839C560.723 163.831 547.346 172.73 538.696 178.26C534.949 180.645 530.922 183.697 526.98 187.542C519.646 194.714 513.065 204.764 510.001 208.05C506.946 211.343 502.834 212.64 500.798 210.946C498.762 209.252 493.692 212.004 489.457 217.096C485.221 222.187 482.714 229.557 483.826 233.536C484.953 237.528 484.086 242.896 481.902 245.522C479.717 248.149 475.797 248.509 473.181 246.333C470.555 244.149 465.221 246.23 461.255 250.998C457.289 255.765 455.234 262.826 456.688 266.795C458.089 270.759 457.597 275.989 455.547 278.454C453.507 280.906 448.36 282.478 444.07 281.964C439.761 281.453 433.391 284.494 429.838 288.764C426.286 293.034 424.443 299.606 425.691 303.422C426.952 307.252 423.747 311.104 418.529 312.031C413.305 312.971 405.188 318.397 400.414 324.136C395.64 329.875 392.926 336.642 394.372 339.235C395.84 341.826 395.024 346.335 392.56 349.297C390.106 352.247 385.273 354.551 381.754 354.404C378.258 354.275 372.718 359.339 369.346 365.695C365.998 372.074 364.682 380.434 366.399 384.368C368.118 388.304 366.112 391.823 361.906 392.22C357.694 392.573 349.953 396.725 344.64 401.488C339.303 406.21 334.811 413.516 334.607 417.789C334.388 422.052 332.037 427.3 329.39 429.522C326.695 431.723 322.541 431.871 320.076 429.821C317.599 427.76 311.836 430.642 307.198 436.217C302.549 441.806 298.777 449.024 298.785 452.378C298.791 455.71 296.524 460.345 293.707 462.718C290.903 465.105 287.279 465.927 285.637 464.561C283.995 463.195 280.356 464.887 277.488 468.334C274.611 471.794 271.468 477.735 270.454 481.611C269.456 485.499 267.038 490.025 265.066 491.714C263.095 493.423 260.034 493.577 258.216 492.065C256.413 490.565 249.643 495.739 243.088 503.618L242.096 504.81C235.533 512.701 232.368 520.856 234.985 523.032C237.61 525.216 237.853 529.256 235.542 532.033C233.222 534.822 229.194 535.308 226.581 533.134C223.953 530.948 217.177 534.766 211.441 541.662C205.705 548.558 200.52 557.755 199.859 562.217C199.223 566.679 195.565 571.076 191.698 572.028C187.855 572.981 179.524 580.03 173.104 587.747C166.685 595.465 162.233 604.604 163.156 608.153C164.082 611.703 163.621 617.408 162.144 620.878C160.622 624.331 156.672 626.683 153.291 626.084C149.892 625.488 143.175 632.293 138.217 641.286L136.756 643.985C131.843 652.976 129.712 663.185 132.03 666.777C134.324 670.35 135.236 674.947 134.06 677.022C132.883 679.097 128.595 680.717 124.505 680.645C120.405 680.561 114.728 685.765 111.859 692.246C108.959 698.723 109.789 707.752 113.696 712.395C117.607 717.038 119.392 724.376 117.658 728.768C115.947 733.18 111.891 734.522 108.607 731.791C105.319 729.056 99.9517 734.711 96.5847 744.382C93.2296 754.16 93.1692 764.229 96.4568 766.964C99.7419 769.697 101.557 774.576 100.479 777.848C99.4135 781.132 96.3618 783.998 93.6606 784.255C90.9578 784.494 88.3515 789.766 87.8713 796.041C87.3659 802.297 88.6747 809.689 90.7422 812.525C92.8193 815.369 93.1714 825.939 93.7345 836.177C94.9181 857.328 103.349 891.554 142.903 911.222C203.052 941.116 195.916 920.087 240.311 883.073Z" fill="#1B371D" stroke="white" stroke-width="20" mask="url(#path-1-inside-1_42_671)"/>
<path d="M1548.29 57.7109C1590.42 36.8828 1661.48 14.3708 1736.38 15.0137C1810.94 15.6536 1888.13 39.1307 1945.56 108.805L1945.77 109.057L1945.99 109.299C1951.98 115.957 1957.04 128.328 1959.65 147.947C1962.2 167.184 1962.16 191.461 1959.73 219.852C1954.89 276.583 1940.72 347.598 1921.05 423.231C1881.72 574.469 1820.99 741.868 1771.45 846.06L1770.71 847.617L1770.34 849.303C1728.99 1038.88 1654.81 1098.81 1587.26 1105.4C1552.35 1108.8 1516.44 1098.49 1483.37 1080.4C1450.35 1062.33 1421.11 1036.98 1399.98 1011.85L1397.52 1008.92L1393.96 1007.53L1389.86 1005.92C1216.11 937.373 1062.08 840.587 951.076 760.529C895.18 720.215 850.295 684.213 819.413 658.316C803.974 645.37 792.041 634.954 783.988 627.794C779.962 624.214 776.906 621.448 774.867 619.587C773.848 618.657 773.082 617.953 772.577 617.486C772.325 617.253 772.138 617.079 772.017 616.966C771.956 616.909 771.911 616.869 771.883 616.843C771.869 616.83 771.86 616.821 771.854 616.815C771.852 616.813 771.85 616.812 771.849 616.811H771.85L766.292 611.613L758.815 613.027C744.564 615.724 720.079 616.74 694.837 610.517C670.679 604.561 646.81 592.253 629.937 569.467C621.709 517.682 640.729 482.035 668.063 457.564C693.852 434.478 727.318 421.255 752.875 415.693C786.513 453.995 899.116 563.576 1125.55 620.247L1126.97 620.603L1128.43 620.677C1152.43 621.893 1179.03 631.274 1206.86 646.479C1234.56 661.617 1262.58 682.025 1289.22 704.198C1342.63 748.639 1388.92 798.771 1415.32 825.533L1437.27 805.096L1437.43 805.295C1438.22 806.245 1438.08 806.544 1437.57 804.986C1437.11 803.582 1436.57 801.394 1436.06 798.254C1435.03 791.986 1434.29 783.252 1433.9 772.135C1433.12 749.978 1433.78 719.866 1435.7 684.245C1439.55 613.089 1448.4 521.085 1460.44 429.181C1472.49 337.235 1487.68 245.791 1504.14 175.656C1512.39 140.526 1520.84 111.219 1529.21 90.0068C1533.41 79.3747 1537.39 71.262 1541.05 65.6074C1542.87 62.799 1544.43 60.8553 1545.7 59.582C1546.99 58.2851 1547.63 58.0152 1547.55 58.0508L1547.92 57.8906L1548.29 57.7109Z" fill="#FFCC00" fill-opacity="0.2" stroke="#FFFB00" stroke-width="30"/>
<path d="M715.612 486.23C731.385 491.074 740.3 508.181 735.456 524.477C730.612 540.772 713.869 550 698.096 545.156C682.323 540.313 673.409 523.205 678.252 506.91C683.096 490.614 699.839 481.386 715.612 486.23Z" fill="#FFD400" stroke="white" stroke-width="2"/>
<path d="M720.322 470.386C744.578 477.835 758.286 504.142 750.838 529.2C743.389 554.258 717.643 568.449 693.387 561C669.13 553.551 655.422 527.244 662.87 502.186C670.319 477.127 696.065 462.937 720.322 470.386Z" stroke="#FFD400" stroke-width="3"/>
<path d="M1587.07 945.23C1602.84 950.074 1611.76 967.181 1606.91 983.477C1602.07 999.772 1585.33 1009 1569.55 1004.16C1553.78 999.313 1544.87 982.205 1549.71 965.91C1554.55 949.614 1571.3 940.386 1587.07 945.23Z" fill="#FFD400" stroke="white" stroke-width="2"/>
<path d="M1591.78 929.386C1616.04 936.835 1629.75 963.142 1622.3 988.2C1614.85 1013.26 1589.1 1027.45 1564.85 1020C1540.59 1012.55 1526.88 986.244 1534.33 961.186C1541.78 936.127 1567.52 921.937 1591.78 929.386Z" stroke="#FFD400" stroke-width="3"/>
<path d="M707.5 519L1578 983.5" stroke="#FFD400" stroke-width="10"/>
<path d="M1748.5 97.5L1583.91 1000.92" stroke="#FFD400" stroke-width="10"/>
<path d="M1757.61 67.23C1773.38 72.0739 1782.3 89.1811 1777.45 105.477C1772.61 121.772 1755.87 131 1740.1 126.156C1724.32 121.313 1715.41 104.205 1720.25 87.9097C1725.1 71.614 1741.84 62.3862 1757.61 67.23Z" fill="#FFD400" stroke="white" stroke-width="2"/>
<path d="M1762.32 51.3858C1786.58 58.8351 1800.29 85.1424 1792.84 110.2C1785.39 135.258 1759.64 149.449 1735.39 142C1711.13 134.551 1697.42 108.244 1704.87 83.1855C1712.32 58.1274 1738.06 43.9366 1762.32 51.3858Z" stroke="#FFD400" stroke-width="3"/>
<path d="M1673.5 499C1384 443.5 1251.5 612.5 1191 775.5L1579.5 979.5L1673.5 499Z" fill="#FFD400" fill-opacity="0.38" stroke="#FFD400" stroke-width="10"/>
</svg>
