<svg width="1913" height="1652" viewBox="0 0 1913 1652" fill="none" xmlns="http://www.w3.org/2000/svg">
<path d="M1485.65 57.7109C1527.78 36.8828 1598.85 14.3708 1673.75 15.0137C1748.3 15.6536 1825.49 39.1306 1882.93 108.805L1883.13 109.057L1883.35 109.299C1889.28 115.882 1894.16 128.048 1896.43 147.404C1898.65 166.393 1898.13 190.351 1895.12 218.395C1889.09 274.429 1873.35 344.532 1852.07 419.283C1809.55 568.707 1745.59 734.425 1695.95 838.823L1695.14 840.528L1694.78 842.382C1686.97 882.298 1679.34 924.071 1667.63 963.196C1655.93 1002.31 1640.51 1037.42 1617.92 1064.13C1595.66 1090.46 1566.07 1109.11 1524.55 1115.08C1482.54 1121.12 1427.33 1114.3 1354.17 1087.42L1351.98 1086.61L1349.64 1086.51L1345.87 1086.36C1265.44 1083.16 1099.85 1083.18 953.792 1084C879.512 1084.42 810.143 1085.04 759.347 1085.56C733.948 1085.82 713.19 1086.06 698.781 1086.23C691.577 1086.31 685.959 1086.38 682.143 1086.43C680.235 1086.45 678.776 1086.47 677.795 1086.48C677.304 1086.49 676.933 1086.49 676.684 1086.5C676.559 1086.5 676.465 1086.5 676.402 1086.5C676.371 1086.5 676.347 1086.5 676.331 1086.5C676.323 1086.5 676.317 1086.5 676.313 1086.5C676.309 1086.5 676.307 1086.5 676.501 1101.5L676.307 1086.5L672.327 1086.55L668.896 1088.57C656.394 1095.93 633.693 1105.16 607.833 1107.83C583.084 1110.39 556.46 1106.87 532.878 1091.13C507.634 1045.17 513.488 1005.19 530.944 972.925C547.658 942.029 575.247 918.022 597.601 904.243C601.97 905.62 606.615 906.433 611.271 906.917C619.42 907.764 628.916 907.727 639.518 907.111C660.69 905.882 688.184 902.212 721.649 897.312C788.915 887.462 882.225 872.346 1003.99 860.189L1005.45 860.044L1006.85 859.62C1058.84 843.873 1128.14 823.582 1192.58 811.182C1224.82 804.98 1255.41 800.838 1281.76 800.142C1308.49 799.435 1329.09 802.345 1342.51 808.787L1360.27 785.36L1360.44 785.562C1361.23 786.527 1361.11 786.862 1360.64 785.389C1360.21 784.057 1359.71 781.954 1359.25 778.907C1358.32 772.823 1357.72 764.332 1357.53 753.498C1357.13 731.91 1358.33 702.591 1360.93 667.901C1366.11 598.613 1376.74 509.089 1390.57 419.656C1404.41 330.185 1421.38 241.211 1439.17 172.927C1448.08 138.724 1457.08 110.18 1465.82 89.4922C1470.2 79.1252 1474.33 71.1937 1478.08 65.6445C1479.94 62.8885 1481.55 60.9608 1482.86 59.6807C1483.51 59.053 1484.02 58.6392 1484.38 58.3779C1484.75 58.1171 1484.93 58.0426 1484.91 58.0508L1485.28 57.8906L1485.65 57.7109Z" fill="#FFCC00" fill-opacity="0.2" stroke="#FFFB00" stroke-width="30"/>
<line x1="1514.2" y1="981.996" x2="597.202" y2="1019" stroke="#FFD400" stroke-width="10"/>
<mask id="path-3-inside-1_37_544" fill="white">
<path d="M255.398 1495.63C270.121 1472.75 287.409 1430.86 317.259 1384.75L273.308 1374.68C265.806 1372.98 261.126 1365.49 262.854 1358.01C263.027 1357.23 263.276 1356.51 263.569 1355.8C266.112 1349.62 272.798 1345.99 279.518 1347.53L325.198 1357.99C330.196 1359.13 336.693 1356.71 339.797 1352.65C341.566 1350.37 343.356 1348.08 345.184 1345.77C348.365 1341.76 346.963 1337.61 341.978 1336.47L318.942 1331.19C311.442 1329.49 306.775 1322 308.473 1314.51C308.659 1313.74 308.881 1313.01 309.174 1312.29C311.711 1306.13 318.397 1302.5 325.138 1304.04L363.096 1312.73C368.107 1313.88 375.015 1311.81 378.656 1308.18C381.188 1305.62 383.791 1303.1 386.455 1300.58C390.171 1297.05 389.205 1293.34 384.202 1292.21L364.584 1287.72C357.069 1286.01 352.383 1278.53 354.115 1271.04C354.302 1270.27 354.504 1269.54 354.796 1268.83C357.334 1262.67 364.046 1259.05 370.774 1260.58L411.156 1269.83C416.147 1270.99 423.508 1269.39 427.633 1266.37C431.588 1263.52 435.651 1260.69 439.794 1257.9C444.032 1255.04 443.496 1251.87 438.498 1250.73L410.21 1244.24C402.71 1242.54 398.037 1235.07 399.769 1227.57C399.929 1226.79 400.164 1226.06 400.451 1225.37C402.994 1219.19 409.693 1215.56 416.428 1217.11L486.601 1233.19C490.592 1231.84 494.433 1230.65 497.691 1229.81C525.253 1222.63 576.679 1206.79 596.679 1184.45C617.599 1161.07 606.892 1131.01 590.531 1118.76C582.299 1112.62 565.317 1110.46 555.088 1109.69C548.743 1109.21 541.464 1109.53 534.61 1111.87C524.904 1115.17 516.372 1114.42 513.241 1104.67C505.815 1081.82 494.634 1039.79 496.136 997.977C499.102 915.557 540.736 918.045 540.736 918.045C540.736 918.045 598.522 923.322 627.422 905.579C636.167 900.228 644.702 885.185 646.322 875.078C646.875 871.481 646.887 867.971 646.648 864.52C611.295 856.577 521.385 848.559 424.462 935.44C298.685 1048.11 169.89 1322.56 146.332 1374.22C144.197 1378.89 143.366 1378.62 144.492 1373.63C152.798 1337.08 187.691 1196.54 258.072 1071.44C344.628 917.705 452.578 787.854 599.867 802.855C597.332 800.867 594.962 798.996 592.953 797.309C575.71 782.856 564.902 771.587 522.282 752.63C512.907 748.479 500.189 738.686 492.684 731.691C483.731 723.319 469.805 712.625 450.674 704.099C431.626 695.609 415.155 688.845 403.639 684.284C394.11 680.509 378.735 681.163 370.558 687.351C364.692 691.756 358.111 697.706 352.431 705.296C346.27 713.503 336.163 725.993 329.561 733.855C326.698 737.25 323.767 741.366 321.154 746.214C316.298 755.249 313.02 766.807 311.077 770.858C309.146 774.914 305.61 777.38 303.16 776.372C300.711 775.363 296.695 779.504 294.174 785.629C291.654 791.754 291.464 799.535 293.714 803.001C295.981 806.474 296.758 811.855 295.458 815.014C294.158 818.173 290.525 819.689 287.378 818.394C284.22 817.094 279.751 820.674 277.391 826.409C275.03 832.143 275.179 839.496 277.752 842.849C280.274 846.213 281.367 851.351 280.147 854.316C278.933 857.266 274.491 860.304 270.243 861.095C265.979 861.895 260.808 866.7 258.694 871.837C256.58 876.973 256.784 883.796 259.115 887.065C261.463 890.342 259.556 894.976 254.853 897.42C250.148 899.878 244.023 907.481 241.182 914.385C238.341 921.288 237.773 928.557 239.928 930.599C242.103 932.633 242.671 937.18 241.204 940.743C239.744 944.291 235.821 947.934 232.418 948.845C229.043 949.767 225.27 956.255 223.95 963.328C222.662 970.416 223.904 978.787 226.718 982.029C229.534 985.271 228.671 989.229 224.776 990.865C220.862 992.46 214.715 998.735 211.068 1004.87C207.386 1010.97 205.281 1019.28 206.364 1023.42C207.429 1027.56 206.753 1033.27 204.891 1036.18C202.977 1039.08 199.056 1040.47 196.092 1039.25C193.112 1038.02 188.474 1042.49 185.713 1049.2C182.946 1055.92 181.503 1063.94 182.513 1067.13C183.515 1070.31 182.736 1075.41 180.756 1078.52C178.794 1081.63 175.581 1083.5 173.606 1082.69C171.631 1081.88 168.663 1084.58 166.957 1088.72C165.244 1092.89 164.02 1099.49 164.211 1103.5C164.42 1107.51 163.465 1112.55 162.088 1114.75C160.718 1116.97 157.842 1118.03 155.656 1117.13C153.487 1116.24 148.572 1123.2 144.671 1132.68L144.081 1134.11C140.174 1143.6 139.591 1152.33 142.738 1153.62C145.896 1154.92 147.335 1158.71 145.96 1162.05C144.579 1165.4 140.88 1167.07 137.737 1165.78C134.575 1164.47 129.25 1170.14 125.836 1178.44C122.422 1186.73 120.223 1197.06 120.925 1201.51C121.651 1205.96 119.474 1211.25 116.069 1213.32C112.686 1215.37 106.842 1224.59 103.021 1233.87C99.2003 1243.15 97.6825 1253.21 99.6242 1256.32C101.569 1259.43 102.834 1265.01 102.46 1268.76C102.04 1272.51 98.9727 1275.94 95.567 1276.38C92.1457 1276.82 87.7687 1285.33 85.7239 1295.39L85.1359 1298.4C83.1344 1308.45 84.1511 1318.83 87.4366 1321.56C90.6931 1324.29 92.9364 1328.4 92.4348 1330.73C91.9311 1333.07 88.3231 1335.89 84.3988 1337.05C80.4606 1338.19 76.5981 1344.85 75.7969 1351.9C74.9643 1358.94 78.454 1367.31 83.5702 1370.58C88.6899 1373.84 92.5851 1380.31 92.2431 1385.02C91.9288 1389.74 88.4585 1392.23 84.5084 1390.61C80.5538 1388.98 77.1213 1395.98 76.7977 1406.21C76.5173 1416.55 79.4684 1426.18 83.4229 1427.8C87.3745 1429.43 90.5643 1433.54 90.5134 1436.99C90.478 1440.44 88.422 1444.09 85.921 1445.14C83.4131 1446.18 82.501 1451.99 83.9175 1458.12C85.3044 1464.24 88.7623 1470.9 91.5825 1472.99C94.4145 1475.08 97.9089 1485.07 101.505 1494.67C108.954 1514.5 127.227 1544.64 170.85 1551.59C237.183 1562.15 224.09 1544.21 255.398 1495.63Z"/>
</mask>
<path d="M255.398 1495.63C270.121 1472.75 287.409 1430.86 317.259 1384.75L273.308 1374.68C265.806 1372.98 261.126 1365.49 262.854 1358.01C263.027 1357.23 263.276 1356.51 263.569 1355.8C266.112 1349.62 272.798 1345.99 279.518 1347.53L325.198 1357.99C330.196 1359.13 336.693 1356.71 339.797 1352.65C341.566 1350.37 343.356 1348.08 345.184 1345.77C348.365 1341.76 346.963 1337.61 341.978 1336.47L318.942 1331.19C311.442 1329.49 306.775 1322 308.473 1314.51C308.659 1313.74 308.881 1313.01 309.174 1312.29C311.711 1306.13 318.397 1302.5 325.138 1304.04L363.096 1312.73C368.107 1313.88 375.015 1311.81 378.656 1308.18C381.188 1305.62 383.791 1303.1 386.455 1300.58C390.171 1297.05 389.205 1293.34 384.202 1292.21L364.584 1287.72C357.069 1286.01 352.383 1278.53 354.115 1271.04C354.302 1270.27 354.504 1269.54 354.796 1268.83C357.334 1262.67 364.046 1259.05 370.774 1260.58L411.156 1269.83C416.147 1270.99 423.508 1269.39 427.633 1266.37C431.588 1263.52 435.651 1260.69 439.794 1257.9C444.032 1255.04 443.496 1251.87 438.498 1250.73L410.21 1244.24C402.71 1242.54 398.037 1235.07 399.769 1227.57C399.929 1226.79 400.164 1226.06 400.451 1225.37C402.994 1219.19 409.693 1215.56 416.428 1217.11L486.601 1233.19C490.592 1231.84 494.433 1230.65 497.691 1229.81C525.253 1222.63 576.679 1206.79 596.679 1184.45C617.599 1161.07 606.892 1131.01 590.531 1118.76C582.299 1112.62 565.317 1110.46 555.088 1109.69C548.743 1109.21 541.464 1109.53 534.61 1111.87C524.904 1115.17 516.372 1114.42 513.241 1104.67C505.815 1081.82 494.634 1039.79 496.136 997.977C499.102 915.557 540.736 918.045 540.736 918.045C540.736 918.045 598.522 923.322 627.422 905.579C636.167 900.228 644.702 885.185 646.322 875.078C646.875 871.481 646.887 867.971 646.648 864.52C611.295 856.577 521.385 848.559 424.462 935.44C298.685 1048.11 169.89 1322.56 146.332 1374.22C144.197 1378.89 143.366 1378.62 144.492 1373.63C152.798 1337.08 187.691 1196.54 258.072 1071.44C344.628 917.705 452.578 787.854 599.867 802.855C597.332 800.867 594.962 798.996 592.953 797.309C575.71 782.856 564.902 771.587 522.282 752.63C512.907 748.479 500.189 738.686 492.684 731.691C483.731 723.319 469.805 712.625 450.674 704.099C431.626 695.609 415.155 688.845 403.639 684.284C394.11 680.509 378.735 681.163 370.558 687.351C364.692 691.756 358.111 697.706 352.431 705.296C346.27 713.503 336.163 725.993 329.561 733.855C326.698 737.25 323.767 741.366 321.154 746.214C316.298 755.249 313.02 766.807 311.077 770.858C309.146 774.914 305.61 777.38 303.16 776.372C300.711 775.363 296.695 779.504 294.174 785.629C291.654 791.754 291.464 799.535 293.714 803.001C295.981 806.474 296.758 811.855 295.458 815.014C294.158 818.173 290.525 819.689 287.378 818.394C284.22 817.094 279.751 820.674 277.391 826.409C275.03 832.143 275.179 839.496 277.752 842.849C280.274 846.213 281.367 851.351 280.147 854.316C278.933 857.266 274.491 860.304 270.243 861.095C265.979 861.895 260.808 866.7 258.694 871.837C256.58 876.973 256.784 883.796 259.115 887.065C261.463 890.342 259.556 894.976 254.853 897.42C250.148 899.878 244.023 907.481 241.182 914.385C238.341 921.288 237.773 928.557 239.928 930.599C242.103 932.633 242.671 937.18 241.204 940.743C239.744 944.291 235.821 947.934 232.418 948.845C229.043 949.767 225.27 956.255 223.95 963.328C222.662 970.416 223.904 978.787 226.718 982.029C229.534 985.271 228.671 989.229 224.776 990.865C220.862 992.46 214.715 998.735 211.068 1004.87C207.386 1010.97 205.281 1019.28 206.364 1023.42C207.429 1027.56 206.753 1033.27 204.891 1036.18C202.977 1039.08 199.056 1040.47 196.092 1039.25C193.112 1038.02 188.474 1042.49 185.713 1049.2C182.946 1055.92 181.503 1063.94 182.513 1067.13C183.515 1070.31 182.736 1075.41 180.756 1078.52C178.794 1081.63 175.581 1083.5 173.606 1082.69C171.631 1081.88 168.663 1084.58 166.957 1088.72C165.244 1092.89 164.02 1099.49 164.211 1103.5C164.42 1107.51 163.465 1112.55 162.088 1114.75C160.718 1116.97 157.842 1118.03 155.656 1117.13C153.487 1116.24 148.572 1123.2 144.671 1132.68L144.081 1134.11C140.174 1143.6 139.591 1152.33 142.738 1153.62C145.896 1154.92 147.335 1158.71 145.96 1162.05C144.579 1165.4 140.88 1167.07 137.737 1165.78C134.575 1164.47 129.25 1170.14 125.836 1178.44C122.422 1186.73 120.223 1197.06 120.925 1201.51C121.651 1205.96 119.474 1211.25 116.069 1213.32C112.686 1215.37 106.842 1224.59 103.021 1233.87C99.2003 1243.15 97.6825 1253.21 99.6242 1256.32C101.569 1259.43 102.834 1265.01 102.46 1268.76C102.04 1272.51 98.9727 1275.94 95.567 1276.38C92.1457 1276.82 87.7687 1285.33 85.7239 1295.39L85.1359 1298.4C83.1344 1308.45 84.1511 1318.83 87.4366 1321.56C90.6931 1324.29 92.9364 1328.4 92.4348 1330.73C91.9311 1333.07 88.3231 1335.89 84.3988 1337.05C80.4606 1338.19 76.5981 1344.85 75.7969 1351.9C74.9643 1358.94 78.454 1367.31 83.5702 1370.58C88.6899 1373.84 92.5851 1380.31 92.2431 1385.02C91.9288 1389.74 88.4585 1392.23 84.5084 1390.61C80.5538 1388.98 77.1213 1395.98 76.7977 1406.21C76.5173 1416.55 79.4684 1426.18 83.4229 1427.8C87.3745 1429.43 90.5643 1433.54 90.5134 1436.99C90.478 1440.44 88.422 1444.09 85.921 1445.14C83.4131 1446.18 82.501 1451.99 83.9175 1458.12C85.3044 1464.24 88.7623 1470.9 91.5825 1472.99C94.4145 1475.08 97.9089 1485.07 101.505 1494.67C108.954 1514.5 127.227 1544.64 170.85 1551.59C237.183 1562.15 224.09 1544.21 255.398 1495.63Z" fill="#1B371D" stroke="white" stroke-width="20" mask="url(#path-3-inside-1_37_544)"/>
<path d="M1522.61 947.23C1538.39 952.074 1547.3 969.181 1542.46 985.477C1537.61 1001.77 1520.87 1011 1505.1 1006.16C1489.32 1001.31 1480.41 984.205 1485.25 967.91C1490.1 951.614 1506.84 942.386 1522.61 947.23Z" fill="#FFD400" stroke="white" stroke-width="2"/>
<path d="M1527.32 931.386C1551.58 938.835 1565.29 965.142 1557.84 990.2C1550.39 1015.26 1524.64 1029.45 1500.39 1022C1476.13 1014.55 1462.42 988.244 1469.87 963.186C1477.32 938.127 1503.07 923.937 1527.32 931.386Z" stroke="#FFD400" stroke-width="3"/>
<path d="M605.612 984.23C621.385 989.074 630.3 1006.18 625.456 1022.48C620.612 1038.77 603.87 1048 588.097 1043.16C572.324 1038.31 563.409 1021.21 568.253 1004.91C573.097 988.614 589.84 979.386 605.612 984.23Z" fill="#FFD400" stroke="white" stroke-width="2"/>
<path d="M610.323 968.386C634.579 975.835 648.287 1002.14 640.839 1027.2C633.39 1052.26 607.644 1066.45 583.388 1059C559.131 1051.55 545.423 1025.24 552.871 1000.19C560.32 975.127 586.066 960.937 610.323 968.386Z" stroke="#FFD400" stroke-width="3"/>
<path d="M1693.61 68.23C1709.39 73.0739 1718.3 90.1811 1713.46 106.477C1708.61 122.772 1691.87 132 1676.1 127.156C1660.32 122.313 1651.41 105.205 1656.25 88.9097C1661.1 72.614 1677.84 63.3862 1693.61 68.23Z" fill="#FFD400" stroke="white" stroke-width="2"/>
<path d="M1698.32 52.3858C1722.58 59.8351 1736.29 86.1424 1728.84 111.2C1721.39 136.258 1695.64 150.449 1671.39 143C1647.13 135.551 1633.42 109.244 1640.87 84.1855C1648.32 59.1274 1674.07 44.9366 1698.32 52.3858Z" stroke="#FFD400" stroke-width="3"/>
<line x1="1689.9" y1="98.9868" x2="1506.9" y2="1007.99" stroke="#FFD400" stroke-width="10"/>
<path d="M1619 443C1168.6 448.2 1020.67 812.5 1000.5 1001.5L1522.5 980L1619 443Z" fill="#FFD400" fill-opacity="0.41" stroke="#FFD400" stroke-width="10"/>
</svg>
