<svg width="1596" height="2049" viewBox="0 0 1596 2049" fill="none" xmlns="http://www.w3.org/2000/svg">
<path d="M1168.28 57.7109C1210.42 36.8828 1281.48 14.3708 1356.38 15.0137C1430.94 15.6536 1508.13 39.1305 1565.56 108.805L1565.77 109.057L1565.99 109.299C1571.91 115.882 1576.8 128.048 1579.06 147.404C1581.29 166.393 1580.77 190.351 1577.75 218.395C1571.73 274.429 1555.98 344.532 1534.71 419.283C1492.18 568.707 1428.22 734.425 1378.59 838.823L1377.78 840.528L1377.42 842.382C1362.2 920.105 1329.97 1005.46 1282.9 1064.63C1259.44 1094.13 1232.81 1116.48 1203.43 1128.6C1174.35 1140.61 1141.72 1142.96 1105.08 1131.22L1098.18 1129L1092.16 1133.03C1060.75 1154.05 1008.14 1179.68 945.968 1206.49C884.072 1233.19 813.615 1260.69 747.102 1285.5C680.61 1310.31 618.175 1332.4 572.356 1348.29C549.45 1356.23 530.704 1362.62 517.69 1367.02C511.183 1369.22 506.109 1370.93 502.665 1372.08C500.943 1372.66 499.629 1373.1 498.746 1373.39C498.305 1373.54 497.972 1373.65 497.75 1373.72C497.639 1373.76 497.555 1373.79 497.5 1373.81L497.424 1373.83C497.421 1373.83 497.42 1373.83 502.143 1388.07L497.42 1373.83L491.032 1375.95L488.368 1382.13C482.628 1395.45 469.767 1416.31 450.484 1433.75C432.029 1450.44 408.47 1463.33 380.144 1464.56C332.623 1442.4 313.725 1406.69 308.741 1370.34C304.04 1336.05 311.81 1300.92 321.504 1276.62C372.071 1270.18 525.901 1238.18 699.583 1082.24L700.673 1081.27L701.552 1080.09C733.279 1037.89 799.566 970.432 867.336 911.638C901.128 882.321 934.944 855.459 964.628 835.174C994.979 814.433 1019 801.999 1033.75 799.245L1059.68 794.404L1042.85 775.266C1042.79 775.111 1042.72 774.901 1042.63 774.626C1042.2 773.319 1041.71 771.251 1041.25 768.249C1040.33 762.254 1039.74 753.886 1039.55 743.204C1039.17 721.921 1040.4 693.03 1043.02 658.849C1048.27 590.577 1058.98 502.405 1072.89 414.321C1086.8 326.2 1103.85 238.577 1121.69 171.31C1130.63 137.616 1139.65 109.495 1148.4 89.1064C1152.78 78.8904 1156.91 71.0734 1160.66 65.5986C1162.52 62.8798 1164.13 60.9723 1165.44 59.7012C1166.09 59.0775 1166.6 58.6626 1166.98 58.3975C1167.35 58.1374 1167.54 58.0535 1167.55 58.0508L1167.92 57.8906L1168.28 57.7109Z" fill="#6E0808" stroke="#FF0000" stroke-width="30"/>
<mask id="path-2-inside-1_34_509" fill="white">
<path d="M281.11 1949.89C284.655 1922.92 282.402 1877.66 289.707 1823.22L245.666 1832.88C238.154 1834.54 230.724 1829.77 229.094 1822.27C228.919 1821.49 228.834 1820.73 228.795 1819.96C228.457 1813.29 232.954 1807.15 239.69 1805.68L285.459 1795.63C290.467 1794.53 295.309 1789.57 296.382 1784.57C297.007 1781.75 297.648 1778.91 298.315 1776.05C299.479 1771.06 296.442 1767.91 291.448 1769.01L268.362 1774.07C260.851 1775.73 253.435 1770.95 251.774 1763.46C251.613 1762.68 251.499 1761.92 251.46 1761.15C251.122 1754.49 255.619 1748.36 262.37 1746.87L300.405 1738.52C305.428 1737.42 310.789 1732.6 312.532 1727.76C313.731 1724.37 315.006 1720.97 316.341 1717.56C318.193 1712.78 315.738 1709.85 310.731 1710.96L291.072 1715.27C283.547 1716.93 276.117 1712.17 274.484 1704.66C274.325 1703.88 274.196 1703.14 274.157 1702.37C273.819 1695.71 278.344 1689.57 285.082 1688.09L325.546 1679.21C330.555 1678.12 336.531 1673.54 338.97 1669.05C341.33 1664.78 343.794 1660.48 346.35 1656.19C348.961 1651.8 347.123 1649.16 342.116 1650.26L313.767 1656.47C306.257 1658.14 298.842 1653.38 297.209 1645.86C297.02 1645.09 296.92 1644.33 296.882 1643.57C296.543 1636.9 301.054 1630.76 307.807 1629.29L378.124 1613.86C381.156 1610.93 384.123 1608.22 386.711 1606.07C408.569 1587.81 448.306 1551.53 456.855 1522.79C465.787 1492.71 443.272 1470.1 423.246 1466.01C413.181 1463.98 396.904 1469.28 387.324 1472.94C381.382 1475.22 374.939 1478.62 369.738 1483.66C362.37 1490.79 354.337 1493.76 347.341 1486.28C330.871 1468.79 302.812 1435.55 286.318 1397.1C253.809 1321.3 292.519 1305.78 292.519 1305.78C292.519 1305.78 347.027 1285.87 365.584 1257.49C371.207 1248.92 372.502 1231.67 369.651 1221.84C368.615 1218.35 367.127 1215.17 365.437 1212.15C330.077 1220.07 245.352 1251.2 194.804 1371.15C129.174 1526.73 129.894 1829.9 130.65 1886.68C130.714 1891.82 129.845 1891.92 128.732 1886.93C120.636 1850.33 92.1845 1708.35 102.414 1565.18C115.04 1389.2 157.213 1225.69 296.806 1176.37C293.665 1175.65 290.723 1174.97 288.186 1174.3C266.423 1168.6 251.838 1163.02 205.204 1164.08C194.954 1164.33 179.273 1160.9 169.5 1157.78C157.829 1154.03 140.67 1150.31 119.73 1150.77C98.8811 1151.22 81.0989 1152.14 68.738 1152.93C58.5086 1153.59 44.8852 1160.74 40.133 1169.83C36.7099 1176.32 33.2991 1184.51 31.4033 1193.8C29.3367 1203.85 25.5302 1219.46 22.9167 1229.39C21.7777 1233.68 20.8843 1238.65 20.5913 1244.15C20.0584 1254.39 22.0292 1266.24 22.0018 1270.74C21.9871 1275.23 19.8429 1278.97 17.1974 1279.1C14.5519 1279.24 12.6887 1284.7 13.0244 1291.31C13.36 1297.93 16.5107 1305.04 20.025 1307.22C23.5581 1309.39 26.5588 1313.92 26.7319 1317.34C26.905 1320.75 24.267 1323.67 20.8685 1323.84C17.4575 1324.01 14.9449 1329.16 15.2592 1335.35C15.5735 1341.55 18.8468 1348.13 22.6058 1350.07C26.3224 1352.03 29.5051 1356.21 29.6675 1359.41C29.8292 1362.6 27.11 1367.24 23.6057 1369.77C20.0912 1372.31 17.4673 1378.87 17.7488 1384.42C18.0303 1389.96 21.1283 1396.05 24.6319 1398.01C28.1544 1399.97 28.4083 1404.97 25.1994 1409.19C21.9943 1413.42 19.7022 1422.91 20.0805 1430.37C20.4588 1437.82 23.0488 1444.64 25.8695 1445.57C28.7052 1446.48 31.1598 1450.34 31.3551 1454.19C31.5495 1458.02 29.5575 1462.99 26.8694 1465.27C24.2112 1467.55 23.5694 1475.02 25.3961 1481.98C27.2574 1488.94 31.9548 1495.98 35.8831 1497.71C39.8146 1499.44 40.7241 1503.39 37.9003 1506.53C35.0419 1509.64 32.163 1517.94 31.4833 1525.05C30.7587 1532.13 32.4057 1540.55 35.152 1543.83C37.8795 1547.12 39.7069 1552.57 39.2662 1556C38.776 1559.44 35.8213 1562.36 32.6193 1562.53C29.4016 1562.69 27.1164 1568.71 27.484 1575.96C27.8524 1583.22 29.9692 1591.08 32.2484 1593.54C34.5111 1595.99 35.985 1600.93 35.5211 1604.59C35.0762 1608.24 32.9684 1611.3 30.8354 1611.41C28.7023 1611.52 27.1728 1615.23 27.4 1619.71C27.6281 1624.2 29.3431 1630.7 31.2246 1634.24C33.125 1637.78 34.414 1642.74 34.1083 1645.32C33.8175 1647.91 31.6702 1650.1 29.3092 1650.22C26.967 1650.34 25.4939 1658.73 26.0133 1668.97L26.0919 1670.52C26.612 1680.77 29.8114 1688.91 33.2099 1688.74C36.6209 1688.56 39.537 1691.37 39.72 1694.98C39.9039 1698.6 37.2711 1701.69 33.8758 1701.86C30.4616 1702.03 28.0666 1709.43 28.5211 1718.39C28.9757 1727.35 31.3962 1737.63 33.9336 1741.35C36.4891 1745.07 36.779 1750.78 34.5803 1754.1C32.3999 1757.4 31.0504 1768.23 31.5591 1778.26C32.0678 1788.28 34.9873 1798.02 38.0713 1800.01C41.1584 1801.99 44.6856 1806.5 45.9501 1810.05C47.1714 1813.62 45.86 1818.03 42.9675 1819.88C40.0647 1821.74 39.7363 1831.3 42.184 1841.27L42.9385 1844.25C45.4192 1854.19 50.7699 1863.14 54.9091 1864.21C59.0169 1865.28 62.8023 1868.05 63.3441 1870.37C63.8844 1872.69 61.8292 1876.79 58.7727 1879.51C55.7003 1882.22 55.0528 1889.9 57.3348 1896.61C59.591 1903.34 66.3198 1909.41 72.3395 1910.18C78.3621 1910.94 84.6467 1915.13 86.3485 1919.54C88.0801 1923.94 86.0066 1927.68 81.7405 1927.89C77.4696 1928.11 77.3546 1935.91 81.4323 1945.3C85.5908 1954.76 92.3702 1962.21 96.641 1961.99C100.909 1961.78 105.55 1964.13 106.975 1967.27C108.416 1970.41 108.115 1974.58 106.302 1976.6C104.477 1978.61 106.133 1984.25 110.032 1989.19C113.899 1994.14 119.871 1998.69 123.313 1999.37C126.768 2000.05 134.19 2007.59 141.542 2014.74C156.745 2029.49 186.139 2048.94 228.553 2036.6C293.044 2017.83 273.546 2007.2 281.11 1949.89Z"/>
</mask>
<path d="M281.11 1949.89C284.655 1922.92 282.402 1877.66 289.707 1823.22L245.666 1832.88C238.154 1834.54 230.724 1829.77 229.094 1822.27C228.919 1821.49 228.834 1820.73 228.795 1819.96C228.457 1813.29 232.954 1807.15 239.69 1805.68L285.459 1795.63C290.467 1794.53 295.309 1789.57 296.382 1784.57C297.007 1781.75 297.648 1778.91 298.315 1776.05C299.479 1771.06 296.442 1767.91 291.448 1769.01L268.362 1774.07C260.851 1775.73 253.435 1770.95 251.774 1763.46C251.613 1762.68 251.499 1761.92 251.46 1761.15C251.122 1754.49 255.619 1748.36 262.37 1746.87L300.405 1738.52C305.428 1737.42 310.789 1732.6 312.532 1727.76C313.731 1724.37 315.006 1720.97 316.341 1717.56C318.193 1712.78 315.738 1709.85 310.731 1710.96L291.072 1715.27C283.547 1716.93 276.117 1712.17 274.484 1704.66C274.325 1703.88 274.196 1703.14 274.157 1702.37C273.819 1695.71 278.344 1689.57 285.082 1688.09L325.546 1679.21C330.555 1678.12 336.531 1673.54 338.97 1669.05C341.33 1664.78 343.794 1660.48 346.35 1656.19C348.961 1651.8 347.123 1649.16 342.116 1650.26L313.767 1656.47C306.257 1658.14 298.842 1653.38 297.209 1645.86C297.02 1645.09 296.92 1644.33 296.882 1643.57C296.543 1636.9 301.054 1630.76 307.807 1629.29L378.124 1613.86C381.156 1610.93 384.123 1608.22 386.711 1606.07C408.569 1587.81 448.306 1551.53 456.855 1522.79C465.787 1492.71 443.272 1470.1 423.246 1466.01C413.181 1463.98 396.904 1469.28 387.324 1472.94C381.382 1475.22 374.939 1478.62 369.738 1483.66C362.37 1490.79 354.337 1493.76 347.341 1486.28C330.871 1468.79 302.812 1435.55 286.318 1397.1C253.809 1321.3 292.519 1305.78 292.519 1305.78C292.519 1305.78 347.027 1285.87 365.584 1257.49C371.207 1248.92 372.502 1231.67 369.651 1221.84C368.615 1218.35 367.127 1215.17 365.437 1212.15C330.077 1220.07 245.352 1251.2 194.804 1371.15C129.174 1526.73 129.894 1829.9 130.65 1886.68C130.714 1891.82 129.845 1891.92 128.732 1886.93C120.636 1850.33 92.1845 1708.35 102.414 1565.18C115.04 1389.2 157.213 1225.69 296.806 1176.37C293.665 1175.65 290.723 1174.97 288.186 1174.3C266.423 1168.6 251.838 1163.02 205.204 1164.08C194.954 1164.33 179.273 1160.9 169.5 1157.78C157.829 1154.03 140.67 1150.31 119.73 1150.77C98.8811 1151.22 81.0989 1152.14 68.738 1152.93C58.5086 1153.59 44.8852 1160.74 40.133 1169.83C36.7099 1176.32 33.2991 1184.51 31.4033 1193.8C29.3367 1203.85 25.5302 1219.46 22.9167 1229.39C21.7777 1233.68 20.8843 1238.65 20.5913 1244.15C20.0584 1254.39 22.0292 1266.24 22.0018 1270.74C21.9871 1275.23 19.8429 1278.97 17.1974 1279.1C14.5519 1279.24 12.6887 1284.7 13.0244 1291.31C13.36 1297.93 16.5107 1305.04 20.025 1307.22C23.5581 1309.39 26.5588 1313.92 26.7319 1317.34C26.905 1320.75 24.267 1323.67 20.8685 1323.84C17.4575 1324.01 14.9449 1329.16 15.2592 1335.35C15.5735 1341.55 18.8468 1348.13 22.6058 1350.07C26.3224 1352.03 29.5051 1356.21 29.6675 1359.41C29.8292 1362.6 27.11 1367.24 23.6057 1369.77C20.0912 1372.31 17.4673 1378.87 17.7488 1384.42C18.0303 1389.96 21.1283 1396.05 24.6319 1398.01C28.1544 1399.97 28.4083 1404.97 25.1994 1409.19C21.9943 1413.42 19.7022 1422.91 20.0805 1430.37C20.4588 1437.82 23.0488 1444.64 25.8695 1445.57C28.7052 1446.48 31.1598 1450.34 31.3551 1454.19C31.5495 1458.02 29.5575 1462.99 26.8694 1465.27C24.2112 1467.55 23.5694 1475.02 25.3961 1481.98C27.2574 1488.94 31.9548 1495.98 35.8831 1497.71C39.8146 1499.44 40.7241 1503.39 37.9003 1506.53C35.0419 1509.64 32.163 1517.94 31.4833 1525.05C30.7587 1532.13 32.4057 1540.55 35.152 1543.83C37.8795 1547.12 39.7069 1552.57 39.2662 1556C38.776 1559.44 35.8213 1562.36 32.6193 1562.53C29.4016 1562.69 27.1164 1568.71 27.484 1575.96C27.8524 1583.22 29.9692 1591.08 32.2484 1593.54C34.5111 1595.99 35.985 1600.93 35.5211 1604.59C35.0762 1608.24 32.9684 1611.3 30.8354 1611.41C28.7023 1611.52 27.1728 1615.23 27.4 1619.71C27.6281 1624.2 29.3431 1630.7 31.2246 1634.24C33.125 1637.78 34.414 1642.74 34.1083 1645.32C33.8175 1647.91 31.6702 1650.1 29.3092 1650.22C26.967 1650.34 25.4939 1658.73 26.0133 1668.97L26.0919 1670.52C26.612 1680.77 29.8114 1688.91 33.2099 1688.74C36.6209 1688.56 39.537 1691.37 39.72 1694.98C39.9039 1698.6 37.2711 1701.69 33.8758 1701.86C30.4616 1702.03 28.0666 1709.43 28.5211 1718.39C28.9757 1727.35 31.3962 1737.63 33.9336 1741.35C36.4891 1745.07 36.779 1750.78 34.5803 1754.1C32.3999 1757.4 31.0504 1768.23 31.5591 1778.26C32.0678 1788.28 34.9873 1798.02 38.0713 1800.01C41.1584 1801.99 44.6856 1806.5 45.9501 1810.05C47.1714 1813.62 45.86 1818.03 42.9675 1819.88C40.0647 1821.74 39.7363 1831.3 42.184 1841.27L42.9385 1844.25C45.4192 1854.19 50.7699 1863.14 54.9091 1864.21C59.0169 1865.28 62.8023 1868.05 63.3441 1870.37C63.8844 1872.69 61.8292 1876.79 58.7727 1879.51C55.7003 1882.22 55.0528 1889.9 57.3348 1896.61C59.591 1903.34 66.3198 1909.41 72.3395 1910.18C78.3621 1910.94 84.6467 1915.13 86.3485 1919.54C88.0801 1923.94 86.0066 1927.68 81.7405 1927.89C77.4696 1928.11 77.3546 1935.91 81.4323 1945.3C85.5908 1954.76 92.3702 1962.21 96.641 1961.99C100.909 1961.78 105.55 1964.13 106.975 1967.27C108.416 1970.41 108.115 1974.58 106.302 1976.6C104.477 1978.61 106.133 1984.25 110.032 1989.19C113.899 1994.14 119.871 1998.69 123.313 1999.37C126.768 2000.05 134.19 2007.59 141.542 2014.74C156.745 2029.49 186.139 2048.94 228.553 2036.6C293.044 2017.83 273.546 2007.2 281.11 1949.89Z" fill="#1B371D" stroke="white" stroke-width="20" mask="url(#path-2-inside-1_34_509)"/>
<path d="M376.612 1329.23C392.385 1334.07 401.3 1351.18 396.456 1367.48C391.612 1383.77 374.869 1393 359.096 1388.16C343.324 1383.31 334.409 1366.21 339.253 1349.91C344.097 1333.61 360.839 1324.39 376.612 1329.23Z" fill="#FF0000" stroke="white" stroke-width="2"/>
<path d="M381.322 1313.39C405.579 1320.84 419.287 1347.14 411.838 1372.2C404.39 1397.26 378.644 1411.45 354.387 1404C330.131 1396.55 316.422 1370.24 323.871 1345.19C331.319 1320.13 357.066 1305.94 381.322 1313.39Z" stroke="#FF0000" stroke-width="3"/>
<path d="M1212.61 949.23C1228.39 954.074 1237.3 971.181 1232.46 987.477C1227.61 1003.77 1210.87 1013 1195.1 1008.16C1179.32 1003.31 1170.41 986.205 1175.25 969.91C1180.1 953.614 1196.84 944.386 1212.61 949.23Z" fill="#FF0000" stroke="white" stroke-width="2"/>
<path d="M1217.32 933.386C1241.58 940.835 1255.29 967.142 1247.84 992.2C1240.39 1017.26 1214.64 1031.45 1190.39 1024C1166.13 1016.55 1152.42 990.244 1159.87 965.186C1167.32 940.127 1193.07 925.937 1217.32 933.386Z" stroke="#FF0000" stroke-width="3"/>
<path d="M1382.61 69.23C1398.38 74.0739 1407.3 91.1811 1402.46 107.477C1397.61 123.772 1380.87 133 1365.1 128.156C1349.32 123.313 1340.41 106.205 1345.25 89.9097C1350.1 73.614 1366.84 64.3862 1382.61 69.23Z" fill="#FF0000" stroke="white" stroke-width="2"/>
<path d="M1387.32 53.3858C1411.58 60.8351 1425.29 87.1424 1417.84 112.2C1410.39 137.258 1384.64 151.449 1360.39 144C1336.13 136.551 1322.42 110.244 1329.87 85.1855C1337.32 60.1274 1363.07 45.9366 1387.32 53.3858Z" stroke="#FF0004" stroke-width="3"/>
<line x1="1374.91" y1="96.9538" x2="1203.72" y2="977.917" stroke="#FF0000" stroke-width="10"/>
<line x1="1205.08" y1="980.549" x2="370.076" y2="1361.55" stroke="#FF0000" stroke-width="10"/>
<path d="M1310 424.5C778 500.5 729 957.167 771 1176L1204.5 980L1310 424.5Z" fill="#FF0000" fill-opacity="0.41" stroke="#E80202" stroke-width="10"/>
</svg>
