<svg width="1215" height="1215" viewBox="0 0 1215 1215" fill="none" xmlns="http://www.w3.org/2000/svg">
<path d="M97.6509 743.014L134.328 173.659C131.159 119.384 176.059 113.251 198.905 116.969L436.68 180.196C476.721 192.729 474.523 224.046 468.418 238.138L367.74 640.394C372.661 626.616 558.005 686.273 647.447 720.272C682.791 731.556 727.914 722.025 746.058 715.849L892.757 648.78C964.214 649.551 963.172 707.054 953.719 735.709L924.482 757.008C955.336 763.117 1039.01 777.246 1076 787.082C1111.96 796.018 1110.87 832.239 1105.83 849.233C1161.55 906.796 1110.7 942.201 1078.31 952.708C1074.93 981.982 1019.7 1004.7 1002.38 993.02C993.633 1025.9 956.968 1019.97 942.762 1013.31L736.73 945.954C736.73 945.954 665.492 922.297 647.932 922.342L230.268 891.428C165.547 883.647 100.963 792.612 97.6509 743.014Z" fill="#838A00" stroke="black"/>
<path d="M423.014 207.782C435.322 211.055 442.727 223.601 439.64 235.959L333.785 659.683C354.745 659.319 386.269 665.292 423.667 675.236C480.159 690.258 550.037 714.342 617.087 739.337C623.457 741.713 629.914 743.765 636.428 745.497C681.457 757.471 729.366 754.1 772.55 735.547C802.555 722.655 892.247 683.238 892.247 683.238C898.287 680.599 904.751 680.254 910.664 681.827C918.639 683.948 925.607 689.551 929.166 697.699C935.372 711.889 928.894 728.416 914.705 734.618L876.36 752.451C872.672 754.167 870.479 758.033 870.903 762.079C871.316 766.019 874.119 769.282 877.927 770.295C878.028 770.322 878.132 770.349 878.234 770.372L1055.02 811.187C1055.07 811.199 1055.11 811.21 1055.15 811.221C1070.06 815.185 1079.84 827.138 1075.93 842.072C1073.37 851.822 1066.86 855.642 1057.89 858.398L1078.97 863.925C1079.01 863.934 1079.04 863.942 1079.07 863.951C1093.99 867.918 1102.9 883.211 1098.98 898.157C1095.06 913.136 1079.73 922.096 1064.75 918.168L1038.91 911.392C1045.38 918.199 1048.3 928.074 1045.75 937.824C1041.82 952.803 1026.49 961.762 1011.51 957.835L966.508 946.035C972.977 952.842 976.796 959.368 974.239 969.117C970.312 984.096 956.764 986.355 941.789 982.429C937.876 981.404 929.748 979.442 918.025 976.325C884.938 967.527 823.265 949.527 747.318 917.447C733.519 911.619 719.442 906.79 705.114 902.98C684.276 897.439 662.912 894.056 641.157 892.896C522.784 886.587 381.28 878.959 258.698 863.931C251.732 863.076 244.93 861.754 238.323 859.997C170.771 842.034 123.522 778.703 127.399 707.046L156.663 166.006C157.043 158.997 160.557 152.535 166.235 148.407C171.913 144.279 179.146 142.931 185.932 144.735L423.014 207.782ZM437.877 151.886L200.794 88.843C177.075 82.536 152.089 87.1951 132.234 101.621C112.382 116.048 100.232 138.377 98.9098 162.886L69.6356 703.919C67.0516 751.673 81.1647 799.219 109.38 837.799C137.341 876.031 177.851 903.769 223.447 915.893C232.659 918.343 242.146 920.175 251.651 921.342C377.417 936.762 521.943 944.468 638.07 950.658C655.698 951.599 673.253 954.364 690.241 958.881C701.894 961.98 713.522 965.965 724.802 970.733C783.603 995.573 845.274 1016.84 903.148 1032.23C911.342 1034.4 917.984 1036.07 922.379 1037.18C924.357 1037.68 925.939 1038.07 927.103 1038.38C946.337 1043.42 964.365 1043.18 980.689 1037.65C993.408 1033.34 1004.37 1026.04 1012.93 1016.42C1045.35 1018.58 1076.24 1002.03 1092.58 974.379C1122.02 967 1146.69 944.218 1154.92 912.836C1162.64 883.385 1153.99 853.376 1134.64 832.529C1133.45 796.724 1108.63 765.605 1070.01 755.336C1069.9 755.306 1069.65 755.241 1069.54 755.211C1069.04 755.081 1068.54 754.956 1068.03 754.841L985.08 735.692C991.695 715.603 990.698 694.068 982.158 674.537C971.625 650.426 950.981 632.708 925.526 625.939C906.853 620.974 886.808 622.502 869.085 630.246C868.078 630.688 779.159 669.76 749.718 682.411C718.78 695.706 683.824 698.26 651.289 689.609C646.575 688.356 641.863 686.855 637.286 685.147C556.885 655.174 490.013 633.035 438.525 619.344C426.709 616.201 415.729 613.501 405.502 611.224L495.747 249.98C506.436 207.219 480.473 163.213 437.877 151.886Z" fill="#FFFB00"/>
<circle cx="721.044" cy="839.507" r="19.5204" fill="#FFD400" stroke="white" stroke-width="2"/>
<circle cx="721.044" cy="839.507" r="30.0313" stroke="#FFD500" stroke-width="3"/>
<circle cx="291.238" cy="254.787" r="19.5204" fill="#FFD400" stroke="white" stroke-width="2"/>
<circle cx="291.237" cy="254.788" r="30.0313" stroke="#FFD500" stroke-width="3"/>
<circle cx="227.45" cy="788.18" r="19.5204" fill="#FFD400" stroke="white" stroke-width="2"/>
<circle cx="227.45" cy="788.179" r="30.0313" stroke="#FFD500" stroke-width="3"/>
<path d="M278.5 354.5L227 784.063L614 829C614 630.882 428.238 357.251 278.5 354.5Z" fill="#FFD400" fill-opacity="0.41" stroke="#FFD400" stroke-width="3"/>
<line y1="-2.5" x2="541.038" y2="-2.5" transform="matrix(0.118074 -0.993005 0.992987 0.11822 229.714 792.253)" stroke="#FFD400" stroke-width="5"/>
<line y1="-2.5" x2="494.004" y2="-2.5" transform="matrix(0.994499 0.10475 -0.10462 0.994512 229.714 792.253)" stroke="#FFD400" stroke-width="5"/>
</svg>
