<svg width="1215" height="1249" viewBox="0 0 1215 1249" fill="none" xmlns="http://www.w3.org/2000/svg">
<g clip-path="url(#clip0_9_125)">
<path d="M157.827 1015.03L182.5 362.794C154.56 314.411 192.03 288.922 214.258 282.225L442.5 362.794C484.24 356.576 496.747 386.275 497.783 401.902L388.472 774.324C386.519 759.509 598.574 744.454 694.585 736.072C731.531 730.786 767.63 702.081 781.062 688.39L881.741 561.97C946.243 531.065 971.896 584.272 976.66 614.738L960.263 647.21C990.785 639.164 1072.43 615.108 1110.18 607.767C1146.6 600.051 1162.37 633.76 1165.7 651.578C1242.34 679.727 1213.06 734.699 1188.84 758.667C1199.34 787.016 1160.27 832.286 1139.32 829.238C1146.67 863.263 1111.02 874.048 1095.18 874.225L879.086 903.586C879.086 903.586 786.109 901.183 770.365 908.993L345.5 1092.5C283.803 1114 183.733 1059.06 157.827 1015.03Z" fill="#8A0000" fill-opacity="0.74" stroke="black"/>
<path d="M469.816 372.94C482.484 371.123 494.508 379.963 496.818 392.794L355.303 801.254C374.404 792.585 431.328 796.529 469.819 791.009C527.962 782.67 602.175 777.521 674.169 774.353C681.009 774.053 687.794 773.415 694.498 772.453C740.844 765.806 783.446 743.605 815.388 709.024C837.581 684.995 903.556 612.343 903.556 612.343C908.005 607.464 913.799 604.573 919.885 603.7C928.093 602.523 936.826 605.016 943.487 611.254C955.095 622.114 956.026 640.208 945.574 651.67L917.778 683.651C915.105 686.729 914.7 691.23 916.774 694.862C918.793 698.398 922.726 700.348 926.646 699.786C926.75 699.771 926.857 699.756 926.96 699.737L1106.34 667.822C1106.38 667.815 1106.43 667.809 1106.47 667.802C1121.81 665.602 1135.77 672.941 1138.39 688.521C1140.1 698.693 1135.72 704.865 1128.62 711.019L1150.29 707.832C1150.32 707.827 1150.36 707.823 1150.39 707.818C1165.75 705.615 1180.3 716.435 1182.92 732.027C1185.55 747.654 1175.2 762.157 1159.81 764.421L1133.25 768.325C1142.03 772.148 1148.83 780.259 1150.54 790.43C1153.17 806.057 1142.82 820.56 1127.42 822.824L1081.17 829.624C1089.95 833.447 1096.17 838.058 1097.89 848.229C1100.51 863.856 1089.01 871.36 1073.62 873.623C1069.6 874.215 1061.32 875.603 1049.25 877.333C1015.2 882.217 951.055 889.818 867.94 889.867C852.839 889.877 837.899 890.936 823.152 893.051C801.705 896.127 780.673 901.439 760.207 908.993C648.851 950.101 484.901 1030.6 366.049 1065.2C359.295 1067.16 352.496 1068.62 345.696 1069.6C276.17 1079.57 119.5 953.5 140.5 887.5L194.847 363.653C192.278 356.92 192.815 349.455 196.312 343.322C199.809 337.19 205.891 333.05 212.875 332.048L469.816 372.94ZM460.198 314.544L215.725 256.152C191.313 259.653 157.835 291.46 145.603 312.897C133.375 334.332 131.511 360.128 140.5 383.669L86.1409 907.514C86.1409 974.5 164.022 1048.48 206 1073.5C247.6 1098.29 308.375 1134.73 355.303 1128C364.784 1126.64 374.262 1124.59 383.478 1121.91C505.417 1086.42 672.177 1004.79 781.419 964.462C798.003 958.342 815.278 953.964 832.764 951.456C844.757 949.736 857.096 948.859 869.442 948.853C933.794 948.817 999.293 944.281 1058.86 935.738C1067.29 934.529 1074.09 933.459 1078.59 932.75C1080.61 932.432 1082.23 932.176 1083.42 932C1103.19 929.093 1119.65 921.7 1132.34 910.025C1142.23 900.927 1149.26 889.71 1153.12 877.273C1183.79 866.422 1205.27 838.605 1208.77 806.152C1232.75 787.522 1245.92 756.327 1240.41 723.587C1235.25 692.862 1214.81 668.117 1188.35 656.23C1172.36 623.078 1136.6 603.719 1096.85 609.419C1096.74 609.436 1096.48 609.472 1096.37 609.488C1095.85 609.566 1095.34 609.648 1094.82 609.742L1010.66 624.717C1008.38 603.223 998.494 583.396 982.519 568.448C962.806 549.991 936.467 541.555 910.268 545.312C891.05 548.069 873.275 557.468 860.219 571.782C859.478 572.597 794.071 644.619 772.294 668.197C749.412 692.974 718.367 709.262 684.881 714.065C680.03 714.761 675.077 715.224 670.162 715.439C583.833 719.236 513.19 725.017 460.198 732.617C448.036 734.362 436.826 736.188 426.485 738.114L554.192 383.669C546.207 339.265 504.039 308.256 460.198 314.544Z" fill="#FF0000"/>
<path d="M804.896 825.524C815.504 827.358 822.701 837.699 820.907 848.668C819.113 859.636 809.022 866.989 798.414 865.156C787.806 863.322 780.61 852.981 782.405 842.013C784.199 831.044 794.289 823.691 804.896 825.524Z" fill="#FF0000" stroke="white" stroke-width="2"/>
<path d="M806.641 814.855C822.962 817.676 834.032 833.586 831.273 850.459C828.513 867.332 812.99 878.645 796.669 875.824C780.348 873.003 769.279 857.093 772.039 840.221C774.799 823.348 790.321 812.034 806.641 814.855Z" stroke="#FF0000" stroke-width="3"/>
<path d="M325.896 398.524C336.504 400.358 343.701 410.699 341.907 421.667C340.113 432.636 330.022 439.989 319.414 438.156C308.806 436.322 301.61 425.981 303.405 415.012C305.199 404.044 315.289 396.691 325.896 398.524Z" fill="#FF0000" stroke="white" stroke-width="2"/>
<path d="M327.641 387.855C343.962 390.676 355.032 406.586 352.273 423.459C349.513 440.332 333.99 451.645 317.669 448.824C301.348 446.003 290.279 430.093 293.039 413.221C295.799 396.348 311.321 385.034 327.641 387.855Z" stroke="#FF0000" stroke-width="3"/>
<path d="M272.897 955.524C283.505 957.358 290.701 967.699 288.907 978.667C287.113 989.636 277.022 996.989 266.414 995.156C255.807 993.322 248.611 982.981 250.405 972.012C252.199 961.044 262.289 953.691 272.897 955.524Z" fill="#FF0000" stroke="white" stroke-width="2"/>
<path d="M274.642 944.855C290.963 947.676 302.033 963.586 299.273 980.459C296.513 997.332 280.99 1008.65 264.669 1005.82C248.349 1003 237.279 987.093 240.039 970.22C242.799 953.348 258.321 942.034 274.642 944.855Z" stroke="#FF0000" stroke-width="3"/>
<path d="M314.5 493L269 982L708.5 869C687 662.5 463.449 493 314.5 493Z" fill="#FF0000" fill-opacity="0.41" stroke="#FF0000" stroke-width="3"/>
<line x1="268.511" y1="982.762" x2="322.518" y2="417.761" stroke="#FF0000" stroke-width="5"/>
<line x1="269.377" y1="979.579" x2="801.377" y2="842.579" stroke="#FF0000" stroke-width="5"/>
</g>
<defs>
<clipPath id="clip0_9_125">
<rect width="1215" height="1249" fill="white"/>
</clipPath>
</defs>
</svg>
