<svg width="1364" height="1393" viewBox="0 0 1364 1393" fill="none" xmlns="http://www.w3.org/2000/svg">
<g clip-path="url(#clip0_9_158)">
<path d="M158 976.5L187.467 374.621C165.87 323.093 206.263 302.547 229.159 298.715L485.607 391.214C527.798 390.325 536.448 421.368 535.5 437L445.38 817.234C445.316 802.29 657.572 814.172 753.873 817.998C791.191 817.427 830.63 793.518 845.685 781.635L961.543 668.962C1029.44 646.462 1048.15 702.486 1049.03 733.31L1028.66 763.447C1059.95 759.325 1143.98 745.788 1182.36 743.279C1219.46 740.231 1230.84 775.663 1231.89 793.76C1304.36 831.374 1268.36 882.203 1241.31 902.915C1248.14 932.364 1203.65 972.33 1183.25 966.656C1186.24 1001.34 1149.51 1007.53 1133.78 1005.7L915.709 1007.5C915.709 1007.5 823.782 993.358 807.178 999.114L362.517 1127.42C298.597 1140.94 178.131 1023.45 158 976.5Z" fill="#838A00" fill-opacity="0.74" stroke="black"/>
<path d="M484.621 409.385C497.417 409.185 508.227 419.474 508.895 432.495L409.072 839.753C429.116 833.569 485.084 844.68 523.964 844.071C582.695 843.152 656.964 847.429 728.78 853.391C735.603 853.958 742.414 854.183 749.186 854.077C796 853.344 841.068 836.708 877.127 806.445C902.18 785.416 976.813 721.689 976.813 721.689C981.843 717.413 987.956 715.277 994.104 715.181C1002.39 715.051 1010.74 718.629 1016.56 725.659C1026.7 737.9 1025.34 755.966 1013.52 766.014L981.903 794.224C978.862 796.938 977.891 801.352 979.49 805.217C981.046 808.98 984.7 811.412 988.66 811.35C988.764 811.349 988.873 811.347 988.977 811.342L1170.95 802.366C1171 802.366 1171.04 802.365 1171.09 802.364C1186.58 802.122 1199.5 811.167 1200.13 826.953C1200.54 837.26 1195.41 842.827 1187.59 848.035L1209.49 847.614C1209.53 847.613 1209.56 847.613 1209.59 847.612C1225.1 847.369 1238.17 859.943 1238.8 875.741C1239.43 891.575 1227.34 904.653 1211.78 904.952L1184.94 905.467C1193.16 910.368 1198.88 919.274 1199.29 929.58C1199.92 945.414 1187.82 958.492 1172.27 958.791L1125.53 959.688C1133.75 964.589 1139.34 969.95 1139.75 980.256C1140.38 996.09 1128.02 1002.08 1112.47 1002.38C1108.41 1002.46 1100.02 1002.79 1087.83 1002.98C1053.43 1003.52 988.842 1002.94 906.388 992.482C891.406 990.582 876.452 989.743 861.556 989.976C839.893 990.315 818.358 992.925 797.101 997.83C681.441 1024.53 508.626 1083.65 386.354 1102.94C379.405 1104.03 372.477 1104.62 365.608 1104.73C295.379 1105.83 155.909 960.957 185.087 898.142L213.034 365.4C211.337 358.397 212.814 351.059 217.058 345.418C221.302 339.777 227.859 336.44 234.914 336.329L484.621 409.385ZM482.464 350.242L247.338 261.403C222.68 261.789 185.448 289.107 170.604 308.824C155.763 328.542 150.652 353.894 156.592 378.384L128.633 911.122C120.162 977.57 188.062 1060.81 226.54 1090.93C264.67 1120.79 320.349 1164.62 367.753 1163.88C377.329 1163.73 386.99 1162.89 396.471 1161.4C521.919 1141.61 697.663 1081.73 811.128 1055.54C828.353 1051.56 846.043 1049.4 863.705 1049.13C875.819 1048.94 888.171 1049.63 900.419 1051.18C964.258 1059.29 1029.8 1063.07 1089.97 1062.13C1098.49 1061.99 1105.37 1061.79 1109.92 1061.66C1111.97 1061.6 1113.6 1061.55 1114.81 1061.53C1134.79 1061.14 1152.05 1055.89 1166.12 1045.91C1177.08 1038.14 1185.47 1027.9 1190.87 1016.05C1222.67 1009.17 1247.5 984.29 1255.07 952.54C1281.21 937.092 1298.22 907.812 1296.9 874.638C1295.66 843.507 1278.51 816.376 1253.77 801.239C1242.1 766.33 1209.07 742.604 1168.93 743.233C1168.81 743.235 1168.55 743.239 1168.44 743.241C1167.92 743.253 1167.4 743.268 1166.87 743.296L1081.5 747.509C1081.94 725.898 1074.65 704.981 1060.69 688.132C1043.47 667.331 1018.41 655.631 991.948 656.046C972.535 656.349 953.714 663.426 938.953 675.974C938.115 676.689 864.125 739.861 839.542 760.496C813.71 782.181 780.855 794.412 747.03 794.942C742.129 795.018 737.158 794.851 732.255 794.443C646.139 787.293 575.332 784.094 521.804 784.932C509.52 785.124 498.169 785.519 487.666 786.121L566.962 430.698C564.657 385.641 526.749 349.549 482.464 350.242Z" fill="#FFFB00"/>
<path d="M851.987 920.683C862.278 923.843 868.109 935.012 864.942 945.665C861.775 956.319 850.835 962.337 840.544 959.176C830.254 956.016 824.424 944.848 827.59 934.194C830.757 923.541 841.696 917.523 851.987 920.683Z" fill="#FFD400" stroke="white" stroke-width="2"/>
<path d="M855.067 910.32C870.9 915.183 879.869 932.365 874.998 948.753C870.126 965.142 853.297 974.401 837.464 969.539C821.631 964.676 812.663 947.494 817.534 931.106C822.406 914.718 839.234 905.458 855.067 910.32Z" stroke="#FFD400" stroke-width="3"/>
<path d="M361.475 424.064C371.766 427.224 377.597 438.393 374.43 449.046C371.263 459.7 360.323 465.718 350.033 462.558C339.742 459.397 333.912 448.229 337.078 437.576C340.245 426.922 351.184 420.904 361.475 424.064Z" fill="#FFD400" stroke="white" stroke-width="2"/>
<path d="M364.555 413.702C380.388 418.564 389.357 435.746 384.486 452.134C379.615 468.523 362.785 477.782 346.952 472.92C331.12 468.058 322.151 450.876 327.022 434.487C331.894 418.099 348.722 408.839 364.555 413.702Z" stroke="#FFD400" stroke-width="3"/>
<path d="M307.818 982.362C318.109 985.523 323.94 996.691 320.774 1007.34C317.607 1018 306.667 1024.02 296.376 1020.86C286.086 1017.7 280.255 1006.53 283.422 995.874C286.589 985.221 297.528 979.202 307.818 982.362Z" fill="#FFD400" stroke="white" stroke-width="2"/>
<path d="M310.899 972C326.732 976.862 335.701 994.044 330.83 1010.43C325.958 1026.82 309.129 1036.08 293.296 1031.22C277.463 1026.36 268.495 1009.17 273.366 992.786C278.237 976.397 295.066 967.138 310.899 972Z" stroke="#FFD400" stroke-width="3"/>
<path d="M347 537L300.605 1008.13L750.866 951.619C755.653 744.058 494.753 555.836 347 537Z" fill="#FFD400" fill-opacity="0.41" stroke="#FFD400" stroke-width="3"/>
<line x1="301.973" y1="1009.14" x2="355.511" y2="442.765" stroke="#FFD400" stroke-width="5"/>
<line x1="301.284" y1="1005.78" x2="846.338" y2="937.155" stroke="#FFD400" stroke-width="5"/>
</g>
<defs>
<clipPath id="clip0_9_158">
<rect width="1215" height="1249" fill="white" transform="translate(157.947) rotate(7.26498)"/>
</clipPath>
</defs>
</svg>
