<svg width="1215" height="1249" viewBox="0 0 1215 1249" fill="none" xmlns="http://www.w3.org/2000/svg">
<path d="M67.369 706.587L160 100.5C165.875 44.9389 211.17 46.375 233.084 54.0383L464.493 102.618C501.902 122.149 494.54 153.522 486.184 166.767L350.735 648.595C357.873 635.466 538.196 748.06 620.762 797.772C653.747 815.236 699.825 813.266 718.741 810.097L874.532 767.112C944.871 780.074 934.308 838.19 920.235 865.628L887.871 882.236C917.285 893.688 997.455 922.275 1032.3 938.55C1066.29 953.74 1059.2 990.273 1051.41 1006.64C1096.82 1074.5 1040.81 1101.72 1007.12 1106.85C998.931 1135.95 940.699 1149.56 925.551 1134.77C911.478 1166.61 876.303 1154.35 863.398 1145.18L671.388 1041.78C671.388 1041.78 597.621 985.129 580.296 982.181L173.54 879.648C111.006 860.728 62.4112 757.432 67.369 706.587Z" fill="#8A0000" fill-opacity="0.74" stroke="black"/>
<path d="M452.956 129.142C464.551 134.558 469.773 148.539 464.68 160.54L320.376 679.393C341.106 682.597 371.203 694.026 406.434 710.482C459.653 735.34 524.572 771.666 586.549 808.434C592.438 811.929 598.464 815.11 604.601 817.976C647.021 837.79 694.826 842.539 740.489 831.092C772.216 823.137 867.203 798.467 867.203 798.467C873.597 796.821 880.028 797.574 885.599 800.176C893.111 803.685 899.054 810.553 901.213 819.42C904.979 834.863 895.851 850.514 880.83 854.382L840.059 865.923C836.137 867.035 833.334 870.58 833.081 874.754C832.834 878.819 835.058 882.604 838.645 884.28C838.74 884.324 838.838 884.37 838.935 884.411L1006.51 955.922C1006.55 955.942 1006.59 955.96 1006.63 955.979C1020.67 962.538 1028.34 976.323 1022 990.795C1017.86 1000.24 1010.81 1003.01 1001.5 1004.27L1021.38 1013.47C1021.41 1013.48 1021.44 1013.5 1021.47 1013.51C1035.53 1020.08 1041.78 1037.1 1035.44 1051.58C1029.08 1066.1 1012.48 1072.57 998.363 1066.03L974.001 1054.76C979.252 1062.76 980.501 1073.27 976.363 1082.72C970.006 1097.24 953.404 1103.7 939.284 1097.17L896.859 1077.54C902.11 1085.54 904.794 1092.81 900.656 1102.25C894.299 1116.77 880.564 1116.75 866.447 1110.22C862.759 1108.51 855.068 1105.14 844.024 1099.98C812.854 1085.42 755.02 1056.66 685.444 1011.19C672.802 1002.93 659.721 995.638 646.223 989.333C626.592 980.164 606.085 973.093 584.824 968.208C469.135 941.634 330.854 909.781 212.461 873.651C205.733 871.597 199.244 869.097 193.02 866.19C129.382 836.465 93.2883 764.209 108.993 692.228L186.436 85.6081C187.973 78.5674 192.51 72.6147 198.794 69.398C205.078 66.1812 212.434 66.0473 218.827 69.0332L452.956 129.142ZM476.882 75.0111L242.751 14.906C220.407 4.46927 194.994 4.93325 173.021 16.1733C151.052 27.415 135.368 47.9794 130 72.6002L52.5482 679.212C42.0816 727.182 48.1152 777.787 69.5428 821.707C90.7767 865.232 126.127 900.256 169.081 920.319C177.759 924.373 186.811 927.848 195.991 930.651C317.459 967.721 458.709 1000.17 572.201 1026.24C589.43 1030.2 606.282 1035.99 622.287 1043.47C633.264 1048.59 644.07 1054.62 654.404 1061.37C708.271 1096.58 765.563 1128.65 820.084 1154.11C827.804 1157.72 834.077 1160.54 838.227 1162.41C840.095 1163.25 841.59 1163.93 842.687 1164.43C860.819 1172.83 878.638 1175.65 895.652 1172.83C908.91 1170.63 920.93 1165.09 930.97 1156.8C962.58 1164.52 995.786 1153 1016.48 1127.76C1046.75 1125.3 1074.85 1106.41 1088.17 1076C1100.67 1047.46 1097.11 1015.56 1081.48 991.129C1086.25 954.629 1066.93 918.85 1030.55 901.858C1030.44 901.809 1030.21 901.7 1030.11 901.651C1029.63 901.433 1029.16 901.221 1028.68 901.018L950.052 867.467C959.907 848.228 962.495 826.227 957.312 804.972C950.922 778.734 933.502 757.253 909.522 746.052C891.931 737.836 871.91 735.969 853.148 740.798C852.081 741.074 757.915 765.527 726.783 773.333C694.069 781.537 659.174 778.169 628.524 763.852C624.083 761.778 619.685 759.454 615.454 756.942C541.136 712.851 478.859 679.009 430.355 656.353C419.223 651.154 408.843 646.544 399.135 642.493L517.685 184.319C535.317 142.791 517.01 93.7546 476.882 75.0111Z" fill="#FF0000"/>
<path d="M669.564 899.536C680.172 901.37 687.368 911.711 685.574 922.679C683.78 933.648 673.689 941.001 663.081 939.168C652.473 937.334 645.278 926.992 647.072 916.024C648.866 905.056 658.956 897.703 669.564 899.536Z" fill="#FF0000" stroke="white" stroke-width="2"/>
<path d="M671.309 888.867C687.63 891.688 698.7 907.598 695.94 924.471C693.18 941.344 677.657 952.657 661.336 949.836C645.016 947.015 633.946 931.105 636.706 914.232C639.466 897.359 654.988 886.046 671.309 888.867Z" stroke="#FF0000" stroke-width="3"/>
<path d="M349.391 168.975C359.999 170.809 367.196 181.151 365.401 192.119C363.607 203.087 353.516 210.441 342.909 208.607C332.301 206.773 325.105 196.432 326.899 185.464C328.693 174.495 338.783 167.142 349.391 168.975Z" fill="#FF0000" stroke="white" stroke-width="2"/>
<path d="M351.136 158.306C367.457 161.127 378.527 177.037 375.767 193.91C373.008 210.783 357.484 222.096 341.164 219.275C324.843 216.454 313.774 200.544 316.533 183.672C319.293 166.799 334.816 155.485 351.136 158.306Z" stroke="#FF0000" stroke-width="3"/>
<path d="M200.564 751.505C211.172 753.338 218.369 763.68 216.575 774.648C214.78 785.616 204.69 792.97 194.082 791.136C183.474 789.303 176.278 778.961 178.072 767.993C179.866 757.025 189.956 749.671 200.564 751.505Z" fill="#FF0000" stroke="white" stroke-width="2"/>
<path d="M202.309 740.836C218.63 743.657 229.7 759.567 226.94 776.44C224.181 793.313 208.657 804.626 192.337 801.805C176.016 798.984 164.947 783.074 167.706 766.201C170.466 749.329 185.989 738.015 202.309 740.836Z" stroke="#FF0000" stroke-width="3"/>
<path d="M319.5 277.5L197 754.5L600 871.5C632.851 676.125 466.709 305.043 319.5 277.5Z" fill="#FF0000" fill-opacity="0.41" stroke="#FF0000" stroke-width="3"/>
<line x1="194.58" y1="755.371" x2="343.587" y2="182.856" stroke="#FF0000" stroke-width="5"/>
<line x1="197.71" y1="753.604" x2="666.71" y2="892.604" stroke="#FF0000" stroke-width="5"/>
</svg>
