<svg width="1215" height="1215" viewBox="0 0 1215 1215" fill="none" xmlns="http://www.w3.org/2000/svg">
<path d="M118.291 794.042L174 230C165.383 176.32 209.438 165.698 232.542 167.097L475.474 206.064C516.574 214.502 517.539 245.882 512.885 260.517L376.676 664.752C380.184 650.548 570.593 691.243 663.003 716.064C699.305 723.732 743.239 709.707 760.668 701.735L899.87 620.238C971.041 613.811 975.794 671.126 969.273 700.588L942.33 724.722C973.642 727.693 1058.31 733.328 1096.1 739.389C1132.79 744.658 1135.35 780.806 1132.04 798.221C1193.28 849.882 1146.25 890.226 1115.08 903.941C1114.66 933.406 1062 961.568 1043.59 951.693C1038.2 985.283 1001.13 983.079 986.32 977.884L774.554 931.611C774.554 931.611 701.297 915.246 683.83 917.058L265.176 928.351C200 927.125 126.58 843.055 118.291 794.042Z" fill="#124B19" stroke="black"/>
<path d="M466.48 231.839C479.055 233.856 487.685 245.593 485.859 258.198L344.836 687.362C365.653 684.89 397.617 687.659 435.826 693.788C493.544 703.046 565.491 719.972 634.717 738.09C641.295 739.812 647.925 741.204 654.58 742.271C700.586 749.651 747.912 741.473 789.009 718.667C817.564 702.82 902.832 654.573 902.832 654.573C908.576 651.339 914.971 650.346 921.013 651.315C929.161 652.622 936.658 657.496 941.019 665.244C948.622 678.737 943.841 695.833 930.348 703.431L893.994 725.034C890.497 727.113 888.704 731.18 889.534 735.163C890.341 739.041 893.458 742.005 897.349 742.63C897.452 742.646 897.559 742.663 897.662 742.676L1077.66 765.484C1077.71 765.491 1077.75 765.498 1077.8 765.505C1093.03 767.948 1103.96 778.856 1101.57 794.108C1100.01 804.066 1093.92 808.522 1085.26 812.167L1106.8 815.543C1106.83 815.549 1106.86 815.554 1106.9 815.559C1122.14 818.004 1132.55 832.323 1130.15 847.587C1127.76 862.885 1113.41 873.342 1098.11 870.943L1071.72 866.803C1078.84 872.924 1082.75 882.454 1081.18 892.412C1078.78 907.71 1064.43 918.167 1049.14 915.767L1003.17 908.559C1010.29 914.68 1014.75 920.788 1013.19 930.745C1010.79 946.044 997.538 949.655 982.244 947.256C978.247 946.631 969.963 945.497 957.985 943.576C924.181 938.154 861.009 926.455 782.219 902.183C767.903 897.774 753.411 894.387 738.773 892.039C717.483 888.624 695.887 887.409 674.125 888.445C555.718 894.085 414.166 900.743 290.694 898.132C283.676 897.983 276.776 897.352 270.025 896.269C201.009 885.199 147.624 826.946 144.267 755.264L197.277 217.091C196.949 210.079 199.795 203.296 205.028 198.617C210.262 193.938 217.322 191.869 224.255 192.981L466.48 231.839ZM475.641 174.731L233.415 135.877C209.182 131.99 184.792 139.141 166.489 155.492C148.191 171.845 138.351 195.283 139.503 219.801L86.4819 757.968C88.7187 805.739 107.547 851.622 139.503 887.166C171.171 922.389 214.268 945.907 260.853 953.379C270.264 954.889 279.888 955.757 289.462 955.961C416.141 958.641 560.709 951.757 676.869 946.224C694.503 945.386 712.246 946.369 729.603 949.153C741.508 951.063 753.479 953.858 765.182 957.465C826.184 976.259 889.683 991.205 948.812 1000.69C957.184 1002.03 963.961 1003.03 968.444 1003.68C970.462 1003.98 972.076 1004.21 973.265 1004.4C992.91 1007.48 1010.82 1005.42 1026.51 998.281C1038.73 992.716 1048.9 984.342 1056.45 973.908C1088.92 972.794 1117.98 953.217 1131.45 924.066C1160.01 913.76 1182.26 888.611 1187.29 856.559C1192 826.481 1180.38 797.495 1159.02 778.703C1154.24 743.198 1126.41 714.737 1086.95 708.408C1086.84 708.39 1086.59 708.35 1086.47 708.331C1085.96 708.253 1085.45 708.178 1084.93 708.115L1000.47 697.415C1005.03 676.762 1001.87 655.436 991.41 636.864C978.503 613.937 956.179 598.387 930.172 594.215C911.095 591.155 891.306 594.693 874.452 604.182C873.494 604.724 788.962 652.549 760.943 668.1C731.501 684.442 696.98 690.503 663.739 685.171C658.923 684.398 654.084 683.38 649.358 682.142C566.348 660.415 497.587 645.121 444.982 636.683C432.91 634.747 421.713 633.165 411.309 631.93L543.093 266.5C549.422 222.879 519.161 181.711 475.641 174.731Z" fill="#2FFF00"/>
<circle cx="721.044" cy="839.507" r="19.5204" fill="#00FF0D" stroke="white" stroke-width="2"/>
<circle cx="721.044" cy="839.507" r="30.0313" stroke="#2FFF00" stroke-width="3"/>
<circle cx="333.531" cy="263.531" r="19.5204" fill="#00FF0D" stroke="white" stroke-width="2"/>
<circle cx="333.531" cy="263.531" r="30.0313" stroke="#2FFF00" stroke-width="3"/>
<circle cx="243.531" cy="812.532" r="19.5204" fill="#00FF0D" stroke="white" stroke-width="2"/>
<circle cx="243.531" cy="812.531" r="30.0313" stroke="#2FFF00" stroke-width="3"/>
<path d="M314 361L242 812.5L612.5 835.5C612.5 637.382 463.738 363.751 314 361Z" fill="#07CC1E" fill-opacity="0.62" stroke="#00FF0D" stroke-width="3"/>
<line x1="241.534" y1="816.59" x2="333.534" y2="263.59" stroke="#00FF0D" stroke-width="5"/>
<line x1="243.162" y1="811.505" x2="720.162" y2="842.505" stroke="#00FF0D" stroke-width="5"/>
</svg>
