<svg width="1196" height="2356" viewBox="0 0 1196 2356" fill="none" xmlns="http://www.w3.org/2000/svg">
<path d="M317.448 793.794C220.582 654.011 43.3122 145.93 43.3122 145.93C-48.5193 -54.5361 650.097 68.8851 684.68 114.769C719.262 160.652 806.386 340.702 806.386 703.961C806.905 711.666 810.077 731.653 818.617 749.967C829.291 772.859 818.617 875.54 806.386 907.544C796.601 933.147 748.953 1065.84 757.614 1108.24V1108.24C757.614 1290.9 757.614 1325.75 743.091 1398.06C708.721 1569.19 689.039 1834.5 689.039 1882.45L340.021 1941C371.602 1599.71 347.834 1569.51 340.021 1507.83C328.397 1416.06 323.936 1186.53 340.021 1058.29C352.51 958.718 392.168 882.028 317.448 793.794Z" fill="#124B19" stroke="#51FF00" stroke-width="70"/>
<mask id="path-2-inside-1_30_117" fill="white">
<path d="M1069.99 2102.28C1044.81 2091.99 1000.47 2082.64 949.682 2061.71L947.813 2106.76C947.508 2114.45 940.997 2120.42 933.33 2120.09C932.537 2120.06 931.777 2119.95 931.024 2119.79C924.485 2118.42 919.696 2112.51 919.988 2105.62L921.921 2058.8C922.134 2053.67 918.568 2047.73 914.009 2045.42C911.44 2044.1 908.862 2042.75 906.259 2041.38C901.733 2038.98 897.915 2041.12 897.706 2046.23L896.72 2069.84C896.414 2077.53 889.907 2083.48 882.234 2083.18C881.443 2083.14 880.677 2083.06 879.924 2082.9C873.399 2081.53 868.611 2075.62 868.891 2068.71L870.501 2029.8C870.718 2024.67 867.419 2018.25 863.185 2015.34C860.212 2013.31 857.252 2011.22 854.291 2009.06C850.139 2006.05 846.676 2007.67 846.478 2012.8L845.643 2032.91C845.334 2040.61 838.838 2046.58 831.157 2046.25C830.367 2046.2 829.61 2046.14 828.86 2045.98C822.335 2044.61 817.552 2038.67 817.829 2031.78L819.544 1990.39C819.774 1985.27 816.863 1978.32 813.137 1974.82C809.614 1971.45 806.085 1967.97 802.587 1964.41C798.999 1960.76 795.984 1961.87 795.771 1966.99L794.563 1995.99C794.259 2003.68 787.766 2009.63 780.083 2009.3C779.287 2009.28 778.524 2009.19 777.786 2009.03C771.247 2007.66 766.461 2001.74 766.756 1994.83L769.741 1922.9C767.684 1919.23 765.815 1915.67 764.395 1912.62C752.304 1886.83 727.333 1839.16 701.722 1823.58C674.907 1807.28 647.312 1823.3 638.255 1841.62C633.723 1850.84 634.705 1867.93 635.811 1878.12C636.499 1884.45 638.148 1891.55 641.699 1897.86C646.713 1906.8 647.539 1915.32 638.523 1920.18C617.416 1931.66 578.129 1950.33 536.747 1956.49C455.171 1968.63 450.013 1927.24 450.013 1927.24C450.013 1927.24 444.647 1869.46 421.924 1844.29C415.065 1836.67 398.717 1831.02 388.484 1831.28C384.847 1831.39 381.394 1832.02 378.044 1832.88C376.691 1869.09 385.231 1958.96 488.353 2038.38C622.096 2141.46 915.456 2217.96 970.554 2231.69C975.537 2232.93 975.417 2233.8 970.306 2233.61C932.85 2232.12 788.308 2223.48 652.46 2177.13C485.497 2120.11 338.114 2037.69 325.961 1890.14C324.469 1893 323.063 1895.67 321.77 1897.95C310.71 1917.54 301.605 1930.23 290.751 1975.59C288.382 1985.57 281.077 1999.86 275.571 2008.52C268.975 2018.85 261.003 2034.5 256.115 2054.86C251.247 2075.14 247.606 2092.57 245.225 2104.72C243.253 2114.78 246.704 2129.78 254.282 2136.69C259.685 2141.65 266.736 2147.04 275.236 2151.23C284.431 2155.79 298.556 2163.45 307.492 2168.5C311.353 2170.7 315.935 2172.83 321.178 2174.51C330.949 2177.64 342.91 2178.75 347.248 2179.92C351.589 2181.08 354.659 2184.1 354.115 2186.69C353.572 2189.29 358.376 2192.48 364.858 2193.84C371.34 2195.2 379.026 2193.96 382.022 2191.12C385.022 2188.25 390.171 2186.51 393.514 2187.21C396.858 2187.91 399.012 2191.2 398.313 2194.54C397.612 2197.88 401.948 2201.62 408.017 2202.89C414.087 2204.16 421.288 2202.68 424.115 2199.53C426.963 2196.44 431.814 2194.43 434.952 2195.08C438.074 2195.74 441.872 2199.55 443.426 2203.58C444.991 2207.63 450.66 2211.84 456.096 2212.98C461.532 2214.12 468.203 2212.67 470.991 2209.78C473.785 2206.87 478.689 2207.9 481.951 2212.08C485.227 2216.26 493.821 2220.89 501.127 2222.42C508.433 2223.95 515.683 2223.19 517.298 2220.69C518.9 2218.18 523.267 2216.79 527.038 2217.59C530.793 2218.37 535.091 2221.57 536.608 2224.74C538.132 2227.89 545.199 2230.42 552.394 2230.42C559.599 2230.4 567.602 2227.65 570.275 2224.29C572.948 2220.93 576.997 2221.05 579.317 2224.58C581.601 2228.14 588.892 2233.04 595.588 2235.5C602.259 2238.01 610.818 2238.56 614.69 2236.74C618.559 2234.94 624.297 2234.56 627.5 2235.86C630.707 2237.21 632.781 2240.81 632.123 2243.95C631.462 2247.1 636.706 2250.85 643.804 2252.33C650.919 2253.83 659.062 2253.78 662.023 2252.2C664.964 2250.64 670.121 2250.47 673.537 2251.85C676.959 2253.21 679.381 2256.03 678.943 2258.12C678.504 2260.21 681.703 2262.64 686.091 2263.56C690.495 2264.48 697.217 2264.48 701.116 2263.56C705.02 2262.62 710.151 2262.64 712.566 2263.59C715 2264.53 716.568 2267.17 716.083 2269.48C715.602 2271.77 723.342 2275.34 733.374 2277.44L734.891 2277.76C744.936 2279.87 753.623 2278.84 754.322 2275.51C755.023 2272.17 758.48 2270.07 762.015 2270.81C765.566 2271.55 767.881 2274.88 767.183 2278.21C766.481 2281.56 773.027 2285.76 781.805 2287.6C790.584 2289.44 801.139 2289.72 805.391 2288.21C809.632 2286.69 815.23 2287.86 817.88 2290.83C820.521 2293.78 830.65 2297.84 840.475 2299.91C850.299 2301.97 860.46 2301.62 863.163 2299.15C865.867 2296.67 871.125 2294.4 874.882 2294.08C878.646 2293.81 882.574 2296.2 883.627 2299.47C884.691 2302.75 893.848 2305.5 904.116 2305.68L907.185 2305.7C917.43 2305.84 927.448 2302.94 929.538 2299.21C931.622 2295.51 935.257 2292.55 937.641 2292.62C940.026 2292.69 943.465 2295.72 945.315 2299.37C947.16 2303.03 954.417 2305.61 961.486 2305.11C968.567 2304.65 976.158 2299.69 978.431 2294.06C980.704 2288.43 986.353 2283.42 991.046 2282.9C995.746 2282.34 998.831 2285.3 997.954 2289.48C997.076 2293.66 1004.59 2295.76 1014.71 2294.21C1024.92 2292.6 1033.85 2287.94 1034.72 2283.75C1035.6 2279.57 1039.06 2275.68 1042.46 2275.1C1045.86 2274.51 1049.82 2275.86 1051.31 2278.13C1052.79 2280.41 1058.67 2280.24 1064.44 2277.73C1070.2 2275.25 1076.12 2270.63 1077.66 2267.48C1079.2 2264.31 1088.38 2259.05 1097.16 2253.76C1115.3 2242.82 1141.6 2219.35 1140.46 2175.19C1138.73 2108.04 1123.48 2124.19 1069.99 2102.28Z"/>
</mask>
<path d="M1069.99 2102.28C1044.81 2091.99 1000.47 2082.64 949.682 2061.71L947.813 2106.76C947.508 2114.45 940.997 2120.42 933.33 2120.09C932.537 2120.06 931.777 2119.95 931.024 2119.79C924.485 2118.42 919.696 2112.51 919.988 2105.62L921.921 2058.8C922.134 2053.67 918.568 2047.73 914.009 2045.42C911.44 2044.1 908.862 2042.75 906.259 2041.38C901.733 2038.98 897.915 2041.12 897.706 2046.23L896.72 2069.84C896.414 2077.53 889.907 2083.48 882.234 2083.18C881.443 2083.14 880.677 2083.06 879.924 2082.9C873.399 2081.53 868.611 2075.62 868.891 2068.71L870.501 2029.8C870.718 2024.67 867.419 2018.25 863.185 2015.34C860.212 2013.31 857.252 2011.22 854.291 2009.06C850.139 2006.05 846.676 2007.67 846.478 2012.8L845.643 2032.91C845.334 2040.61 838.838 2046.58 831.157 2046.25C830.367 2046.2 829.61 2046.14 828.86 2045.98C822.335 2044.61 817.552 2038.67 817.829 2031.78L819.544 1990.39C819.774 1985.27 816.863 1978.32 813.137 1974.82C809.614 1971.45 806.085 1967.97 802.587 1964.41C798.999 1960.76 795.984 1961.87 795.771 1966.99L794.563 1995.99C794.259 2003.68 787.766 2009.63 780.083 2009.3C779.287 2009.28 778.524 2009.19 777.786 2009.03C771.247 2007.66 766.461 2001.74 766.756 1994.83L769.741 1922.9C767.684 1919.23 765.815 1915.67 764.395 1912.62C752.304 1886.83 727.333 1839.16 701.722 1823.58C674.907 1807.28 647.312 1823.3 638.255 1841.62C633.723 1850.84 634.705 1867.93 635.811 1878.12C636.499 1884.45 638.148 1891.55 641.699 1897.86C646.713 1906.8 647.539 1915.32 638.523 1920.18C617.416 1931.66 578.129 1950.33 536.747 1956.49C455.171 1968.63 450.013 1927.24 450.013 1927.24C450.013 1927.24 444.647 1869.46 421.924 1844.29C415.065 1836.67 398.717 1831.02 388.484 1831.28C384.847 1831.39 381.394 1832.02 378.044 1832.88C376.691 1869.09 385.231 1958.96 488.353 2038.38C622.096 2141.46 915.456 2217.96 970.554 2231.69C975.537 2232.93 975.417 2233.8 970.306 2233.61C932.85 2232.12 788.308 2223.48 652.46 2177.13C485.497 2120.11 338.114 2037.69 325.961 1890.14C324.469 1893 323.063 1895.67 321.77 1897.95C310.71 1917.54 301.605 1930.23 290.751 1975.59C288.382 1985.57 281.077 1999.86 275.571 2008.52C268.975 2018.85 261.003 2034.5 256.115 2054.86C251.247 2075.14 247.606 2092.57 245.225 2104.72C243.253 2114.78 246.704 2129.78 254.282 2136.69C259.685 2141.65 266.736 2147.04 275.236 2151.23C284.431 2155.79 298.556 2163.45 307.492 2168.5C311.353 2170.7 315.935 2172.83 321.178 2174.51C330.949 2177.64 342.91 2178.75 347.248 2179.92C351.589 2181.08 354.659 2184.1 354.115 2186.69C353.572 2189.29 358.376 2192.48 364.858 2193.84C371.34 2195.2 379.026 2193.96 382.022 2191.12C385.022 2188.25 390.171 2186.51 393.514 2187.21C396.858 2187.91 399.012 2191.2 398.313 2194.54C397.612 2197.88 401.948 2201.62 408.017 2202.89C414.087 2204.16 421.288 2202.68 424.115 2199.53C426.963 2196.44 431.814 2194.43 434.952 2195.08C438.074 2195.74 441.872 2199.55 443.426 2203.58C444.991 2207.63 450.66 2211.84 456.096 2212.98C461.532 2214.12 468.203 2212.67 470.991 2209.78C473.785 2206.87 478.689 2207.9 481.951 2212.08C485.227 2216.26 493.821 2220.89 501.127 2222.42C508.433 2223.95 515.683 2223.19 517.298 2220.69C518.9 2218.18 523.267 2216.79 527.038 2217.59C530.793 2218.37 535.091 2221.57 536.608 2224.74C538.132 2227.89 545.199 2230.42 552.394 2230.42C559.599 2230.4 567.602 2227.65 570.275 2224.29C572.948 2220.93 576.997 2221.05 579.317 2224.58C581.601 2228.14 588.892 2233.04 595.588 2235.5C602.259 2238.01 610.818 2238.56 614.69 2236.74C618.559 2234.94 624.297 2234.56 627.5 2235.86C630.707 2237.21 632.781 2240.81 632.123 2243.95C631.462 2247.1 636.706 2250.85 643.804 2252.33C650.919 2253.83 659.062 2253.78 662.023 2252.2C664.964 2250.64 670.121 2250.47 673.537 2251.85C676.959 2253.21 679.381 2256.03 678.943 2258.12C678.504 2260.21 681.703 2262.64 686.091 2263.56C690.495 2264.48 697.217 2264.48 701.116 2263.56C705.02 2262.62 710.151 2262.64 712.566 2263.59C715 2264.53 716.568 2267.17 716.083 2269.48C715.602 2271.77 723.342 2275.34 733.374 2277.44L734.891 2277.76C744.936 2279.87 753.623 2278.84 754.322 2275.51C755.023 2272.17 758.48 2270.07 762.015 2270.81C765.566 2271.55 767.881 2274.88 767.183 2278.21C766.481 2281.56 773.027 2285.76 781.805 2287.6C790.584 2289.44 801.139 2289.72 805.391 2288.21C809.632 2286.69 815.23 2287.86 817.88 2290.83C820.521 2293.78 830.65 2297.84 840.475 2299.91C850.299 2301.97 860.46 2301.62 863.163 2299.15C865.867 2296.67 871.125 2294.4 874.882 2294.08C878.646 2293.81 882.574 2296.2 883.627 2299.47C884.691 2302.75 893.848 2305.5 904.116 2305.68L907.185 2305.7C917.43 2305.84 927.448 2302.94 929.538 2299.21C931.622 2295.51 935.257 2292.55 937.641 2292.62C940.026 2292.69 943.465 2295.72 945.315 2299.37C947.16 2303.03 954.417 2305.61 961.486 2305.11C968.567 2304.65 976.158 2299.69 978.431 2294.06C980.704 2288.43 986.353 2283.42 991.046 2282.9C995.746 2282.34 998.831 2285.3 997.954 2289.48C997.076 2293.66 1004.59 2295.76 1014.71 2294.21C1024.92 2292.6 1033.85 2287.94 1034.72 2283.75C1035.6 2279.57 1039.06 2275.68 1042.46 2275.1C1045.86 2274.51 1049.82 2275.86 1051.31 2278.13C1052.79 2280.41 1058.67 2280.24 1064.44 2277.73C1070.2 2275.25 1076.12 2270.63 1077.66 2267.48C1079.2 2264.31 1088.38 2259.05 1097.16 2253.76C1115.3 2242.82 1141.6 2219.35 1140.46 2175.19C1138.73 2108.04 1123.48 2124.19 1069.99 2102.28Z" fill="#1B371D" stroke="white" stroke-width="20" mask="url(#path-2-inside-1_30_117)"/>
<line x1="400.392" y1="208.272" x2="599.392" y2="862.272" stroke="#95FF00" stroke-width="5"/>
<line x1="599.492" y1="863.199" x2="529.492" y2="1741.2" stroke="#95FF00" stroke-width="5"/>
<path d="M599 862.5L494 518C56.0002 696.5 225.5 1278.5 563 1331.5L599 862.5Z" fill="#00FF1F" fill-opacity="0.38" stroke="#02E80E" stroke-width="10"/>
<path d="M406.612 179.23C422.385 184.074 431.3 201.181 426.456 217.477C421.612 233.772 404.87 243 389.097 238.156C373.324 233.312 364.409 216.205 369.253 199.91C374.097 183.614 390.84 174.386 406.612 179.23Z" fill="#95FF00" stroke="white" stroke-width="2"/>
<path d="M411.322 163.386C435.579 170.835 449.287 197.142 441.838 222.2C434.39 247.258 408.644 261.449 384.387 254C360.131 246.551 346.422 220.244 353.871 195.185C361.319 170.127 387.066 155.936 411.322 163.386Z" stroke="#95FF00" stroke-width="3"/>
<path d="M535.612 1711.23C551.385 1716.07 560.3 1733.18 555.456 1749.48C550.612 1765.77 533.869 1775 518.096 1770.16C502.323 1765.31 493.409 1748.21 498.252 1731.91C503.096 1715.61 519.839 1706.39 535.612 1711.23Z" fill="#95FF00" stroke="white" stroke-width="2"/>
<path d="M540.322 1695.39C564.579 1702.83 578.287 1729.14 570.838 1754.2C563.39 1779.26 537.644 1793.45 513.387 1786C489.131 1778.55 475.422 1752.24 482.871 1727.19C490.319 1702.13 516.066 1687.94 540.322 1695.39Z" stroke="#95FF00" stroke-width="3"/>
<path d="M605.612 833.23C621.385 838.074 630.3 855.181 625.456 871.477C620.612 887.772 603.869 897 588.096 892.156C572.323 887.312 563.409 870.205 568.252 853.91C573.096 837.614 589.839 828.386 605.612 833.23Z" fill="#95FF00" stroke="white" stroke-width="2"/>
<path d="M610.322 817.386C634.579 824.835 648.287 851.142 640.838 876.2C633.39 901.258 607.644 915.449 583.387 908C559.131 900.551 545.422 874.244 552.871 849.185C560.319 824.127 586.066 809.936 610.322 817.386Z" stroke="#95FF00" stroke-width="3"/>
</svg>
