<svg width="1051" height="2379" viewBox="0 0 1051 2379" fill="none" xmlns="http://www.w3.org/2000/svg">
<path d="M329.246 809.028C146.979 545.718 37.6367 149.343 37.6367 149.343C-10.4913 -75.1517 615.844 95.7834 643.915 120.868C671.987 145.953 766.993 356.559 851.577 725.461C850.476 733.49 849.412 754.684 853.955 775.223C859.635 800.896 828.479 862.32 846.065 894.537C869.867 938.143 794.68 1067.27 779.066 1144.2C751.417 1280.42 756.575 1345.15 713.236 1430.83C635.043 1585.42 570.003 1867.19 559.991 1916.52L213.252 1968.12C315.46 1623.3 274.628 1475.82 279.85 1410.81C287.621 1314.1 322.417 1201.09 381.035 1070.64C424.182 974.628 346.928 934.459 329.246 809.028Z" fill="#6E0808" stroke="#FF0000" stroke-width="70"/>
<mask id="path-2-inside-1_31_196" fill="white">
<path d="M931.779 2127.14C906.204 2117.86 861.522 2110.3 809.939 2091.42L809.876 2136.51C809.879 2144.2 803.612 2150.43 795.938 2150.4C795.144 2150.41 794.38 2150.33 793.621 2150.2C787.033 2149.09 782.011 2143.37 782.027 2136.48L782.084 2089.62C782.091 2084.49 778.29 2078.69 773.642 2076.57C771.022 2075.35 768.392 2074.11 765.737 2072.84C761.118 2070.63 757.389 2072.92 757.384 2078.03L757.345 2101.66C757.346 2109.36 751.084 2115.57 743.404 2115.57C742.613 2115.56 741.844 2115.51 741.085 2115.38C734.511 2114.28 729.49 2108.56 729.493 2101.65L729.544 2062.71C729.555 2057.56 726.002 2051.29 721.655 2048.54C718.602 2046.64 715.561 2044.66 712.516 2042.63C708.247 2039.79 704.852 2041.55 704.859 2046.68L704.83 2066.8C704.829 2074.51 698.578 2080.74 690.89 2080.71C690.098 2080.7 689.34 2080.67 688.584 2080.54C682.009 2079.43 676.992 2073.69 676.993 2066.79L677.05 2025.36C677.074 2020.24 673.888 2013.41 670.024 2010.06C666.369 2006.84 662.704 2003.51 659.066 2000.08C655.335 1996.59 652.366 1997.81 652.359 2002.94L652.313 2031.96C652.316 2039.65 646.068 2045.87 638.377 2045.84C637.581 2045.86 636.815 2045.79 636.072 2045.67C629.483 2044.56 624.463 2038.83 624.482 2031.92L624.584 1959.93C622.381 1956.34 620.372 1952.85 618.831 1949.86C605.717 1924.58 578.857 1877.95 552.643 1863.41C525.197 1848.2 498.265 1865.3 489.949 1883.98C485.79 1893.36 487.456 1910.4 488.969 1920.55C489.91 1926.84 491.842 1933.87 495.642 1940.03C501.01 1948.76 502.177 1957.25 493.362 1962.46C472.732 1974.77 434.224 1995 393.122 2002.82C312.098 2018.21 305.286 1977.06 305.286 1977.06C305.286 1977.06 297.611 1919.54 273.899 1895.3C266.74 1887.96 250.179 1882.98 239.964 1883.64C236.334 1883.9 232.909 1884.67 229.597 1885.66C229.695 1921.9 241.826 2011.35 348.045 2086.58C485.809 2184.22 781.997 2248.92 837.6 2260.42C842.629 2261.47 842.544 2262.34 837.429 2262.35C799.944 2262.36 655.172 2259.52 517.576 2218.65C348.465 2168.36 197.9 2091.91 179.848 1944.96C178.472 1947.87 177.174 1950.6 175.974 1952.93C165.707 1972.95 157.117 1985.99 148.088 2031.76C146.121 2041.82 139.394 2056.39 134.238 2065.26C128.061 2075.85 120.723 2091.8 116.654 2112.35C112.602 2132.8 109.661 2150.36 107.769 2162.6C106.202 2172.73 110.25 2187.58 118.098 2194.18C123.696 2198.92 130.957 2204.02 139.618 2207.88C148.988 2212.06 163.409 2219.15 172.54 2223.84C176.486 2225.88 181.149 2227.82 186.456 2229.29C196.344 2232.02 208.34 2232.66 212.721 2233.65C217.105 2234.64 220.294 2237.54 219.854 2240.15C219.415 2242.76 224.343 2245.76 230.875 2246.86C237.406 2247.96 245.036 2246.41 247.916 2243.45C250.799 2240.47 255.874 2238.52 259.242 2239.09C262.611 2239.65 264.895 2242.86 264.331 2246.21C263.764 2249.58 268.246 2253.15 274.361 2254.17C280.477 2255.2 287.613 2253.43 290.312 2250.17C293.033 2246.97 297.8 2244.76 300.962 2245.29C304.108 2245.82 308.055 2249.48 309.769 2253.45C311.495 2257.43 317.328 2261.4 322.806 2262.33C328.283 2263.25 334.89 2261.53 337.561 2258.54C340.236 2255.52 345.177 2256.35 348.604 2260.4C352.045 2264.44 360.817 2268.72 368.178 2269.96C375.54 2271.2 382.754 2270.14 384.267 2267.59C385.768 2265.01 390.075 2263.45 393.875 2264.09C397.659 2264.73 402.081 2267.75 403.724 2270.86C405.372 2273.95 412.535 2276.19 419.725 2275.9C426.922 2275.59 434.809 2272.52 437.346 2269.06C439.882 2265.59 443.933 2265.55 446.392 2268.99C448.816 2272.45 456.299 2277.05 463.087 2279.25C469.853 2281.49 478.428 2281.69 482.223 2279.72C486.017 2277.76 491.736 2277.16 494.988 2278.33C498.246 2279.55 500.464 2283.06 499.932 2286.23C499.397 2289.4 504.786 2292.93 511.938 2294.14C519.108 2295.34 527.243 2294.97 530.138 2293.28C533.014 2291.6 538.16 2291.22 541.629 2292.47C545.102 2293.69 547.635 2296.41 547.281 2298.51C546.927 2300.62 550.22 2302.91 554.642 2303.66C559.079 2304.4 565.795 2304.13 569.654 2303.06C573.517 2301.96 578.645 2301.78 581.096 2302.63C583.566 2303.47 585.239 2306.04 584.846 2308.37C584.457 2310.69 592.334 2313.94 602.442 2315.64L603.971 2315.89C614.092 2317.6 622.732 2316.23 623.296 2312.87C623.863 2309.5 627.233 2307.26 630.795 2307.86C634.373 2308.46 636.819 2311.7 636.255 2315.05C635.688 2318.42 642.396 2322.36 651.241 2323.85C660.087 2325.34 670.644 2325.19 674.833 2323.52C679.009 2321.82 684.649 2322.77 687.417 2325.63C690.174 2328.48 700.457 2332.13 710.356 2333.8C720.256 2335.46 730.394 2334.71 732.996 2332.13C735.599 2329.54 740.762 2327.07 744.503 2326.6C748.253 2326.18 752.273 2328.41 753.456 2331.63C754.651 2334.87 763.911 2337.25 774.177 2337.01L777.245 2336.92C787.488 2336.64 797.382 2333.35 799.321 2329.54C801.254 2325.76 804.769 2322.66 807.153 2322.63C809.539 2322.6 813.097 2325.49 815.091 2329.06C817.081 2332.65 824.436 2334.94 831.48 2334.16C838.536 2333.4 845.922 2328.14 847.969 2322.43C850.014 2316.72 855.458 2311.48 860.126 2310.77C864.8 2310.03 868.001 2312.86 867.292 2317.07C866.582 2321.29 874.17 2323.08 884.222 2321.13C894.36 2319.11 903.093 2314.1 903.803 2309.88C904.512 2305.66 907.816 2301.64 911.186 2300.93C914.56 2300.2 918.572 2301.39 920.153 2303.6C921.719 2305.81 927.587 2305.41 933.251 2302.67C938.912 2299.96 944.643 2295.11 946.053 2291.9C947.466 2288.67 956.424 2283.05 964.989 2277.41C982.673 2265.75 1008.01 2241.24 1005.11 2197.16C1000.69 2130.14 986.102 2146.89 931.779 2127.14Z"/>
</mask>
<path d="M931.779 2127.14C906.204 2117.86 861.522 2110.3 809.939 2091.42L809.876 2136.51C809.879 2144.2 803.612 2150.43 795.938 2150.4C795.144 2150.41 794.38 2150.33 793.621 2150.2C787.033 2149.09 782.011 2143.37 782.027 2136.48L782.084 2089.62C782.091 2084.49 778.29 2078.69 773.642 2076.57C771.022 2075.35 768.392 2074.11 765.737 2072.84C761.118 2070.63 757.389 2072.92 757.384 2078.03L757.345 2101.66C757.346 2109.36 751.084 2115.57 743.404 2115.57C742.613 2115.56 741.844 2115.51 741.085 2115.38C734.511 2114.28 729.49 2108.56 729.493 2101.65L729.544 2062.71C729.555 2057.56 726.002 2051.29 721.655 2048.54C718.602 2046.64 715.561 2044.66 712.516 2042.63C708.247 2039.79 704.852 2041.55 704.859 2046.68L704.83 2066.8C704.829 2074.51 698.578 2080.74 690.89 2080.71C690.098 2080.7 689.34 2080.67 688.584 2080.54C682.009 2079.43 676.992 2073.69 676.993 2066.79L677.05 2025.36C677.074 2020.24 673.888 2013.41 670.024 2010.06C666.369 2006.84 662.704 2003.51 659.066 2000.08C655.335 1996.59 652.366 1997.81 652.359 2002.94L652.313 2031.96C652.316 2039.65 646.068 2045.87 638.377 2045.84C637.581 2045.86 636.815 2045.79 636.072 2045.67C629.483 2044.56 624.463 2038.83 624.482 2031.92L624.584 1959.93C622.381 1956.34 620.372 1952.85 618.831 1949.86C605.717 1924.58 578.857 1877.95 552.643 1863.41C525.197 1848.2 498.265 1865.3 489.949 1883.98C485.79 1893.36 487.456 1910.4 488.969 1920.55C489.91 1926.84 491.842 1933.87 495.642 1940.03C501.01 1948.76 502.177 1957.25 493.362 1962.46C472.732 1974.77 434.224 1995 393.122 2002.82C312.098 2018.21 305.286 1977.06 305.286 1977.06C305.286 1977.06 297.611 1919.54 273.899 1895.3C266.74 1887.96 250.179 1882.98 239.964 1883.64C236.334 1883.9 232.909 1884.67 229.597 1885.66C229.695 1921.9 241.826 2011.35 348.045 2086.58C485.809 2184.22 781.997 2248.92 837.6 2260.42C842.629 2261.47 842.544 2262.34 837.429 2262.35C799.944 2262.36 655.172 2259.52 517.576 2218.65C348.465 2168.36 197.9 2091.91 179.848 1944.96C178.472 1947.87 177.174 1950.6 175.974 1952.93C165.707 1972.95 157.117 1985.99 148.088 2031.76C146.121 2041.82 139.394 2056.39 134.238 2065.26C128.061 2075.85 120.723 2091.8 116.654 2112.35C112.602 2132.8 109.661 2150.36 107.769 2162.6C106.202 2172.73 110.25 2187.58 118.098 2194.18C123.696 2198.92 130.957 2204.02 139.618 2207.88C148.988 2212.06 163.409 2219.15 172.54 2223.84C176.486 2225.88 181.149 2227.82 186.456 2229.29C196.344 2232.02 208.34 2232.66 212.721 2233.65C217.105 2234.64 220.294 2237.54 219.854 2240.15C219.415 2242.76 224.343 2245.76 230.875 2246.86C237.406 2247.96 245.036 2246.41 247.916 2243.45C250.799 2240.47 255.874 2238.52 259.242 2239.09C262.611 2239.65 264.895 2242.86 264.331 2246.21C263.764 2249.58 268.246 2253.15 274.361 2254.17C280.477 2255.2 287.613 2253.43 290.312 2250.17C293.033 2246.97 297.8 2244.76 300.962 2245.29C304.108 2245.82 308.055 2249.48 309.769 2253.45C311.495 2257.43 317.328 2261.4 322.806 2262.33C328.283 2263.25 334.89 2261.53 337.561 2258.54C340.236 2255.52 345.177 2256.35 348.604 2260.4C352.045 2264.44 360.817 2268.72 368.178 2269.96C375.54 2271.2 382.754 2270.14 384.267 2267.59C385.768 2265.01 390.075 2263.45 393.875 2264.09C397.659 2264.73 402.081 2267.75 403.724 2270.86C405.372 2273.95 412.535 2276.19 419.725 2275.9C426.922 2275.59 434.809 2272.52 437.346 2269.06C439.882 2265.59 443.933 2265.55 446.392 2268.99C448.816 2272.45 456.299 2277.05 463.087 2279.25C469.853 2281.49 478.428 2281.69 482.223 2279.72C486.017 2277.76 491.736 2277.16 494.988 2278.33C498.246 2279.55 500.464 2283.06 499.932 2286.23C499.397 2289.4 504.786 2292.93 511.938 2294.14C519.108 2295.34 527.243 2294.97 530.138 2293.28C533.014 2291.6 538.16 2291.22 541.629 2292.47C545.102 2293.69 547.635 2296.41 547.281 2298.51C546.927 2300.62 550.22 2302.91 554.642 2303.66C559.079 2304.4 565.795 2304.13 569.654 2303.06C573.517 2301.96 578.645 2301.78 581.096 2302.63C583.566 2303.47 585.239 2306.04 584.846 2308.37C584.457 2310.69 592.334 2313.94 602.442 2315.64L603.971 2315.89C614.092 2317.6 622.732 2316.23 623.296 2312.87C623.863 2309.5 627.233 2307.26 630.795 2307.86C634.373 2308.46 636.819 2311.7 636.255 2315.05C635.688 2318.42 642.396 2322.36 651.241 2323.85C660.087 2325.34 670.644 2325.19 674.833 2323.52C679.009 2321.82 684.649 2322.77 687.417 2325.63C690.174 2328.48 700.457 2332.13 710.356 2333.8C720.256 2335.46 730.394 2334.71 732.996 2332.13C735.599 2329.54 740.762 2327.07 744.503 2326.6C748.253 2326.18 752.273 2328.41 753.456 2331.63C754.651 2334.87 763.911 2337.25 774.177 2337.01L777.245 2336.92C787.488 2336.64 797.382 2333.35 799.321 2329.54C801.254 2325.76 804.769 2322.66 807.153 2322.63C809.539 2322.6 813.097 2325.49 815.091 2329.06C817.081 2332.65 824.436 2334.94 831.48 2334.16C838.536 2333.4 845.922 2328.14 847.969 2322.43C850.014 2316.72 855.458 2311.48 860.126 2310.77C864.8 2310.03 868.001 2312.86 867.292 2317.07C866.582 2321.29 874.17 2323.08 884.222 2321.13C894.36 2319.11 903.093 2314.1 903.803 2309.88C904.512 2305.66 907.816 2301.64 911.186 2300.93C914.56 2300.2 918.572 2301.39 920.153 2303.6C921.719 2305.81 927.587 2305.41 933.251 2302.67C938.912 2299.96 944.643 2295.11 946.053 2291.9C947.466 2288.67 956.424 2283.05 964.989 2277.41C982.673 2265.75 1008.01 2241.24 1005.11 2197.16C1000.69 2130.14 986.102 2146.89 931.779 2127.14Z" fill="#1B371D" stroke="white" stroke-width="20" mask="url(#path-2-inside-1_31_196)"/>
<path d="M540.752 1317.62L640.752 856.621L466.252 417.621C85.5002 759 314 1157 540.752 1317.62Z" fill="#CC0707" fill-opacity="0.41" stroke="#FF0000" stroke-width="10"/>
<line x1="385.574" y1="211.194" x2="641.574" y2="852.194" stroke="#FF0000" stroke-width="5"/>
<line x1="641.692" y1="853.667" x2="427.692" y2="1810.67" stroke="#FF0000" stroke-width="5"/>
<path d="M433.844 1780.22C450.086 1785.21 459.266 1802.82 454.279 1819.6C449.291 1836.38 432.051 1845.88 415.809 1840.9C399.567 1835.91 390.388 1818.29 395.375 1801.51C400.363 1784.74 417.602 1775.23 433.844 1780.22Z" fill="#FF0000" stroke="white" stroke-width="2"/>
<path d="M438.694 1763.91C463.672 1771.58 477.785 1798.67 470.116 1824.47C462.447 1850.27 435.938 1864.88 410.96 1857.21C385.982 1849.54 371.869 1822.45 379.537 1796.65C387.206 1770.85 413.716 1756.24 438.694 1763.91Z" stroke="#FF0000" stroke-width="3"/>
<path d="M647.844 823.221C664.086 828.209 673.266 845.825 668.279 862.603C663.291 879.382 646.051 888.884 629.809 883.896C613.567 878.908 604.388 861.293 609.375 844.514C614.363 827.736 631.602 818.233 647.844 823.221Z" fill="#FF0000" stroke="white" stroke-width="2"/>
<path d="M652.694 806.908C677.672 814.578 691.785 841.667 684.116 867.467C676.447 893.268 649.938 907.88 624.96 900.21C599.982 892.539 585.869 865.451 593.537 839.651C601.206 813.85 627.716 799.237 652.694 806.908Z" stroke="#FF0000" stroke-width="3"/>
<path d="M392.844 193.221C409.086 198.209 418.266 215.825 413.279 232.603C408.291 249.382 391.051 258.884 374.809 253.896C358.567 248.908 349.388 231.293 354.375 214.514C359.363 197.736 376.602 188.233 392.844 193.221Z" fill="#FF0000" stroke="white" stroke-width="2"/>
<path d="M397.694 176.908C422.672 184.578 436.785 211.667 429.116 237.467C421.447 263.268 394.938 277.88 369.96 270.21C344.982 262.539 330.869 235.451 338.537 209.651C346.206 183.85 372.716 169.237 397.694 176.908Z" stroke="#FF0000" stroke-width="3"/>
</svg>
