<svg width="1104" height="2379" viewBox="0 0 1104 2379" fill="none" xmlns="http://www.w3.org/2000/svg">
<path d="M225.458 839.672C128.591 699.89 43.9999 136.055 43.9999 136.055C-47.8316 -64.411 653.418 90.171 688 136.055C722.582 181.938 783.048 401.77 747 743.5C747.519 751.205 750.692 771.193 759.231 789.506C769.905 812.398 726.627 921.418 714.396 953.422C704.612 979.026 656.963 1111.72 665.624 1154.11V1154.12C665.624 1336.78 665.624 1371.63 651.102 1443.94C616.732 1615.07 597.049 1880.38 597.049 1928.33L248.031 1974.55C279.612 1633.27 255.844 1615.39 248.031 1553.71C236.407 1461.94 231.945 1232.4 248.031 1104.17C260.52 1004.6 264.272 953.422 225.458 839.672Z" fill="#696E08" stroke="#FFFB00" stroke-width="70"/>
<mask id="path-2-inside-1_31_136" fill="white">
<path d="M985.527 2126.02C959.953 2116.74 915.27 2109.18 863.688 2090.3L863.624 2135.39C863.627 2143.08 857.36 2149.31 849.686 2149.28C848.892 2149.29 848.129 2149.2 847.37 2149.08C840.781 2147.97 835.759 2142.25 835.775 2135.36L835.832 2088.5C835.839 2083.37 832.038 2077.57 827.39 2075.45C824.77 2074.23 822.141 2072.99 819.485 2071.72C814.866 2069.51 811.138 2071.8 811.133 2076.91L811.093 2100.54C811.095 2108.23 804.832 2114.45 797.152 2114.45C796.361 2114.44 795.593 2114.39 794.834 2114.26C788.259 2113.15 783.238 2107.44 783.242 2100.53L783.292 2061.59C783.303 2056.44 779.75 2050.17 775.403 2047.42C772.351 2045.52 769.309 2043.54 766.264 2041.5C761.995 2038.66 758.601 2040.43 758.607 2045.56L758.579 2065.68C758.578 2073.39 752.326 2079.62 744.638 2079.59C743.847 2079.58 743.088 2079.55 742.332 2079.42C735.757 2078.31 730.74 2072.57 730.741 2065.67L730.798 2024.24C730.822 2019.12 727.636 2012.29 723.772 2008.94C720.117 2005.72 716.452 2002.38 712.814 1998.96C709.084 1995.47 706.115 1996.69 706.107 2001.82L706.061 2030.84C706.065 2038.53 699.816 2044.75 692.126 2044.72C691.33 2044.74 690.564 2044.67 689.82 2044.54C683.231 2043.44 678.212 2037.71 678.23 2030.8L678.333 1958.81C676.13 1955.21 674.12 1951.73 672.579 1948.74C659.465 1923.46 632.606 1876.83 606.391 1862.28C578.945 1847.07 552.013 1864.18 543.697 1882.85C539.538 1892.24 541.204 1909.28 542.717 1919.43C543.658 1925.72 545.59 1932.74 549.39 1938.91C554.758 1947.64 555.926 1956.13 547.111 1961.34C526.48 1973.65 487.973 1993.88 446.87 2001.69C365.846 2017.09 359.035 1975.94 359.035 1975.94C359.035 1975.94 351.36 1918.42 327.647 1894.18C320.488 1886.84 303.927 1881.86 293.712 1882.52C290.083 1882.78 286.658 1883.54 283.345 1884.54C283.444 1920.78 295.574 2010.23 401.793 2085.46C539.557 2183.1 835.745 2247.8 891.348 2259.3C896.377 2260.35 896.293 2261.22 891.177 2261.23C853.692 2261.24 708.92 2258.4 571.324 2217.52C402.213 2167.24 251.648 2090.79 233.597 1943.84C232.221 1946.75 230.922 1949.48 229.722 1951.81C219.455 1971.83 210.866 1984.87 201.837 2030.63C199.869 2040.7 193.142 2055.27 187.987 2064.14C181.81 2074.73 174.471 2090.68 170.402 2111.23C166.35 2131.68 163.41 2149.24 161.517 2161.48C159.95 2171.61 163.999 2186.46 171.847 2193.06C177.444 2197.8 184.706 2202.9 193.367 2206.75C202.737 2210.94 217.157 2218.02 226.288 2222.72C230.234 2224.76 234.897 2226.7 240.204 2228.17C250.092 2230.9 262.088 2231.54 266.47 2232.53C270.853 2233.51 274.042 2236.42 273.603 2239.03C273.163 2241.64 278.092 2244.64 284.623 2245.74C291.154 2246.83 298.784 2245.29 301.664 2242.33C304.547 2239.35 309.622 2237.4 312.99 2237.96C316.36 2238.53 318.644 2241.74 318.079 2245.09C317.512 2248.46 321.994 2252.02 328.11 2253.05C334.225 2254.08 341.361 2252.31 344.06 2249.05C346.781 2245.85 351.548 2243.64 354.71 2244.17C357.856 2244.7 361.804 2248.36 363.517 2252.33C365.243 2256.31 371.077 2260.28 376.554 2261.21C382.031 2262.13 388.638 2260.41 391.309 2257.42C393.984 2254.4 398.926 2255.23 402.352 2259.27C405.793 2263.32 414.565 2267.6 421.927 2268.84C429.288 2270.08 436.502 2269.02 438.015 2266.47C439.516 2263.89 443.823 2262.33 447.623 2262.97C451.407 2263.61 455.83 2266.62 457.473 2269.74C459.121 2272.83 466.284 2275.07 473.474 2274.78C480.671 2274.47 488.558 2271.4 491.094 2267.94C493.631 2264.47 497.681 2264.43 500.14 2267.87C502.565 2271.33 510.047 2275.93 516.836 2278.13C523.602 2280.37 532.176 2280.57 535.971 2278.6C539.766 2276.64 545.484 2276.04 548.737 2277.21C551.994 2278.43 554.212 2281.94 553.68 2285.1C553.145 2288.28 558.535 2291.81 565.687 2293.02C572.856 2294.22 580.991 2293.85 583.886 2292.16C586.762 2290.48 591.909 2290.1 595.377 2291.34C598.85 2292.57 601.384 2295.29 601.029 2297.39C600.675 2299.5 603.968 2301.79 608.39 2302.54C612.827 2303.28 619.543 2303.01 623.403 2301.94C627.266 2300.84 632.393 2300.65 634.845 2301.51C637.314 2302.35 638.987 2304.92 638.595 2307.25C638.205 2309.57 646.083 2312.81 656.19 2314.51L657.719 2314.77C667.84 2316.48 676.48 2315.11 677.045 2311.75C677.611 2308.38 680.981 2306.14 684.543 2306.74C688.121 2307.34 690.567 2310.58 690.003 2313.93C689.436 2317.3 696.144 2321.24 704.99 2322.73C713.835 2324.22 724.392 2324.07 728.581 2322.4C732.757 2320.7 738.398 2321.65 741.165 2324.51C743.922 2327.35 754.205 2331.01 764.105 2332.67C774.004 2334.34 784.142 2333.59 786.745 2331.01C789.347 2328.42 794.51 2325.95 798.252 2325.48C802.002 2325.06 806.022 2327.29 807.205 2330.51C808.4 2333.75 817.66 2336.13 827.926 2335.89L830.993 2335.8C841.236 2335.52 851.13 2332.22 853.069 2328.41C855.003 2324.63 858.517 2321.53 860.901 2321.51C863.287 2321.48 866.845 2324.37 868.84 2327.94C870.83 2331.53 878.184 2333.82 885.228 2333.03C892.284 2332.28 899.67 2327.02 901.717 2321.31C903.762 2315.59 909.206 2310.36 913.875 2309.65C918.548 2308.91 921.749 2311.74 921.04 2315.95C920.331 2320.17 927.918 2321.96 937.97 2320.01C948.108 2317.99 956.841 2312.97 957.551 2308.76C958.26 2304.54 961.564 2300.52 964.934 2299.81C968.308 2299.07 972.321 2300.27 973.901 2302.47C975.468 2304.69 981.335 2304.29 987 2301.55C992.66 2298.84 998.391 2293.99 999.801 2290.78C1001.21 2287.55 1010.17 2281.93 1018.74 2276.29C1036.42 2264.63 1061.76 2240.12 1058.86 2196.04C1054.43 2129.02 1039.85 2145.77 985.527 2126.02Z"/>
</mask>
<path d="M985.527 2126.02C959.953 2116.74 915.27 2109.18 863.688 2090.3L863.624 2135.39C863.627 2143.08 857.36 2149.31 849.686 2149.28C848.892 2149.29 848.129 2149.2 847.37 2149.08C840.781 2147.97 835.759 2142.25 835.775 2135.36L835.832 2088.5C835.839 2083.37 832.038 2077.57 827.39 2075.45C824.77 2074.23 822.141 2072.99 819.485 2071.72C814.866 2069.51 811.138 2071.8 811.133 2076.91L811.093 2100.54C811.095 2108.23 804.832 2114.45 797.152 2114.45C796.361 2114.44 795.593 2114.39 794.834 2114.26C788.259 2113.15 783.238 2107.44 783.242 2100.53L783.292 2061.59C783.303 2056.44 779.75 2050.17 775.403 2047.42C772.351 2045.52 769.309 2043.54 766.264 2041.5C761.995 2038.66 758.601 2040.43 758.607 2045.56L758.579 2065.68C758.578 2073.39 752.326 2079.62 744.638 2079.59C743.847 2079.58 743.088 2079.55 742.332 2079.42C735.757 2078.31 730.74 2072.57 730.741 2065.67L730.798 2024.24C730.822 2019.12 727.636 2012.29 723.772 2008.94C720.117 2005.72 716.452 2002.38 712.814 1998.96C709.084 1995.47 706.115 1996.69 706.107 2001.82L706.061 2030.84C706.065 2038.53 699.816 2044.75 692.126 2044.72C691.33 2044.74 690.564 2044.67 689.82 2044.54C683.231 2043.44 678.212 2037.71 678.23 2030.8L678.333 1958.81C676.13 1955.21 674.12 1951.73 672.579 1948.74C659.465 1923.46 632.606 1876.83 606.391 1862.28C578.945 1847.07 552.013 1864.18 543.697 1882.85C539.538 1892.24 541.204 1909.28 542.717 1919.43C543.658 1925.72 545.59 1932.74 549.39 1938.91C554.758 1947.64 555.926 1956.13 547.111 1961.34C526.48 1973.65 487.973 1993.88 446.87 2001.69C365.846 2017.09 359.035 1975.94 359.035 1975.94C359.035 1975.94 351.36 1918.42 327.647 1894.18C320.488 1886.84 303.927 1881.86 293.712 1882.52C290.083 1882.78 286.658 1883.54 283.345 1884.54C283.444 1920.78 295.574 2010.23 401.793 2085.46C539.557 2183.1 835.745 2247.8 891.348 2259.3C896.377 2260.35 896.293 2261.22 891.177 2261.23C853.692 2261.24 708.92 2258.4 571.324 2217.52C402.213 2167.24 251.648 2090.79 233.597 1943.84C232.221 1946.75 230.922 1949.48 229.722 1951.81C219.455 1971.83 210.866 1984.87 201.837 2030.63C199.869 2040.7 193.142 2055.27 187.987 2064.14C181.81 2074.73 174.471 2090.68 170.402 2111.23C166.35 2131.68 163.41 2149.24 161.517 2161.48C159.95 2171.61 163.999 2186.46 171.847 2193.06C177.444 2197.8 184.706 2202.9 193.367 2206.75C202.737 2210.94 217.157 2218.02 226.288 2222.72C230.234 2224.76 234.897 2226.7 240.204 2228.17C250.092 2230.9 262.088 2231.54 266.47 2232.53C270.853 2233.51 274.042 2236.42 273.603 2239.03C273.163 2241.64 278.092 2244.64 284.623 2245.74C291.154 2246.83 298.784 2245.29 301.664 2242.33C304.547 2239.35 309.622 2237.4 312.99 2237.96C316.36 2238.53 318.644 2241.74 318.079 2245.09C317.512 2248.46 321.994 2252.02 328.11 2253.05C334.225 2254.08 341.361 2252.31 344.06 2249.05C346.781 2245.85 351.548 2243.64 354.71 2244.17C357.856 2244.7 361.804 2248.36 363.517 2252.33C365.243 2256.31 371.077 2260.28 376.554 2261.21C382.031 2262.13 388.638 2260.41 391.309 2257.42C393.984 2254.4 398.926 2255.23 402.352 2259.27C405.793 2263.32 414.565 2267.6 421.927 2268.84C429.288 2270.08 436.502 2269.02 438.015 2266.47C439.516 2263.89 443.823 2262.33 447.623 2262.97C451.407 2263.61 455.83 2266.62 457.473 2269.74C459.121 2272.83 466.284 2275.07 473.474 2274.78C480.671 2274.47 488.558 2271.4 491.094 2267.94C493.631 2264.47 497.681 2264.43 500.14 2267.87C502.565 2271.33 510.047 2275.93 516.836 2278.13C523.602 2280.37 532.176 2280.57 535.971 2278.6C539.766 2276.64 545.484 2276.04 548.737 2277.21C551.994 2278.43 554.212 2281.94 553.68 2285.1C553.145 2288.28 558.535 2291.81 565.687 2293.02C572.856 2294.22 580.991 2293.85 583.886 2292.16C586.762 2290.48 591.909 2290.1 595.377 2291.34C598.85 2292.57 601.384 2295.29 601.029 2297.39C600.675 2299.5 603.968 2301.79 608.39 2302.54C612.827 2303.28 619.543 2303.01 623.403 2301.94C627.266 2300.84 632.393 2300.65 634.845 2301.51C637.314 2302.35 638.987 2304.92 638.595 2307.25C638.205 2309.57 646.083 2312.81 656.19 2314.51L657.719 2314.77C667.84 2316.48 676.48 2315.11 677.045 2311.75C677.611 2308.38 680.981 2306.14 684.543 2306.74C688.121 2307.34 690.567 2310.58 690.003 2313.93C689.436 2317.3 696.144 2321.24 704.99 2322.73C713.835 2324.22 724.392 2324.07 728.581 2322.4C732.757 2320.7 738.398 2321.65 741.165 2324.51C743.922 2327.35 754.205 2331.01 764.105 2332.67C774.004 2334.34 784.142 2333.59 786.745 2331.01C789.347 2328.42 794.51 2325.95 798.252 2325.48C802.002 2325.06 806.022 2327.29 807.205 2330.51C808.4 2333.75 817.66 2336.13 827.926 2335.89L830.993 2335.8C841.236 2335.52 851.13 2332.22 853.069 2328.41C855.003 2324.63 858.517 2321.53 860.901 2321.51C863.287 2321.48 866.845 2324.37 868.84 2327.94C870.83 2331.53 878.184 2333.82 885.228 2333.03C892.284 2332.28 899.67 2327.02 901.717 2321.31C903.762 2315.59 909.206 2310.36 913.875 2309.65C918.548 2308.91 921.749 2311.74 921.04 2315.95C920.331 2320.17 927.918 2321.96 937.97 2320.01C948.108 2317.99 956.841 2312.97 957.551 2308.76C958.26 2304.54 961.564 2300.52 964.934 2299.81C968.308 2299.07 972.321 2300.27 973.901 2302.47C975.468 2304.69 981.335 2304.29 987 2301.55C992.66 2298.84 998.391 2293.99 999.801 2290.78C1001.21 2287.55 1010.17 2281.93 1018.74 2276.29C1036.42 2264.63 1061.76 2240.12 1058.86 2196.04C1054.43 2129.02 1039.85 2145.77 985.527 2126.02Z" fill="#1B371D" stroke="white" stroke-width="20" mask="url(#path-2-inside-1_31_136)"/>
<line x1="412.474" y1="231.641" x2="507.248" y2="885.196" stroke="#FFD400" stroke-width="5"/>
<line x1="507.266" y1="885.753" x2="437.266" y2="1763.75" stroke="#FFD400" stroke-width="5"/>
<path d="M506.774 885.055L456 538C20.5 671.5 133.274 1301.05 470.774 1354.05L506.774 885.055Z" fill="#957D0E" fill-opacity="0.38" stroke="#FFD400" stroke-width="10"/>
<path d="M418.612 202.23C434.385 207.074 443.3 224.181 438.456 240.477C433.612 256.772 416.869 266 401.096 261.156C385.324 256.312 376.409 239.205 381.253 222.91C386.097 206.614 402.839 197.386 418.612 202.23Z" fill="#FFD400" stroke="white" stroke-width="2"/>
<path d="M423.322 186.386C447.579 193.835 461.287 220.142 453.838 245.2C446.39 270.258 420.644 284.449 396.387 277C372.131 269.551 358.422 243.244 365.871 218.185C373.319 193.127 399.066 178.936 423.322 186.386Z" stroke="#FFD400" stroke-width="3"/>
<path d="M443.386 1733.78C459.159 1738.63 468.073 1755.74 463.229 1772.03C458.385 1788.33 441.643 1797.55 425.87 1792.71C410.097 1787.87 401.182 1770.76 406.026 1754.46C410.87 1738.17 427.613 1728.94 443.386 1733.78Z" fill="#FFD400" stroke="white" stroke-width="2"/>
<path d="M448.096 1717.94C472.352 1725.39 486.06 1751.7 478.612 1776.75C471.163 1801.81 445.417 1816 421.161 1808.56C396.904 1801.11 383.195 1774.8 390.644 1749.74C398.093 1724.68 423.839 1710.49 448.096 1717.94Z" stroke="#FFD400" stroke-width="3"/>
<path d="M513.386 855.785C529.159 860.628 538.073 877.736 533.229 894.031C528.385 910.327 511.643 919.555 495.87 914.711C480.097 909.867 471.182 892.76 476.026 876.464C480.87 860.169 497.613 850.941 513.386 855.785Z" fill="#FFD400" stroke="white" stroke-width="2"/>
<path d="M518.096 839.94C542.352 847.39 556.06 873.697 548.612 898.755C541.163 923.813 515.417 938.004 491.161 930.555C466.904 923.106 453.195 896.798 460.644 871.74C468.093 846.682 493.839 832.491 518.096 839.94Z" stroke="#FFD400" stroke-width="3"/>
</svg>
