<svg width="1253" height="2349" viewBox="0 0 1253 2349" fill="none" xmlns="http://www.w3.org/2000/svg">
<path d="M389.057 808.061C180.057 547.561 44.0572 167.061 44.0572 167.061C-47.7632 -43.3747 588.057 56.0606 620.557 75.0606C653.057 94.0607 813.057 226.561 864.828 586.267C865.347 594.354 868.519 615.336 877.057 634.561C887.73 658.591 869.414 724.985 893.057 753.061C925.057 791.061 825.557 1004.06 825.557 1082.56C825.557 1221.56 843.487 1283.97 818.057 1376.56C772.175 1543.61 764.481 1832.69 764.481 1883.02L389.057 1932.56C420.635 1574.3 397.161 1507.89 389.349 1443.15C377.726 1346.81 389.349 1229.15 420.849 1089.65C444.035 986.967 431.335 927.468 389.057 808.061Z" fill="#696E08" stroke="#FFFB00" stroke-width="70"/>
<mask id="path-2-inside-1_31_172" fill="white">
<path d="M1133.58 2096.58C1108.01 2087.3 1063.33 2079.74 1011.74 2060.86L1011.68 2105.95C1011.68 2113.64 1005.42 2119.87 997.743 2119.84C996.949 2119.85 996.186 2119.77 995.427 2119.64C988.838 2118.53 983.816 2112.81 983.832 2105.92L983.889 2059.06C983.896 2053.93 980.095 2048.13 975.447 2046.01C972.827 2044.79 970.198 2043.55 967.542 2042.28C962.923 2040.07 959.194 2042.36 959.19 2047.47L959.15 2071.1C959.152 2078.8 952.889 2085.01 945.209 2085.01C944.418 2085 943.649 2084.95 942.89 2084.82C936.316 2083.71 931.295 2078 931.298 2071.09L931.349 2032.15C931.36 2027 927.807 2020.73 923.46 2017.98C920.408 2016.08 917.366 2014.1 914.321 2012.06C910.052 2009.23 906.657 2010.99 906.664 2016.12L906.635 2036.24C906.635 2043.95 900.383 2050.18 892.695 2050.15C891.904 2050.14 891.145 2050.11 890.389 2049.98C883.814 2048.87 878.797 2043.13 878.798 2036.23L878.855 1994.8C878.879 1989.68 875.693 1982.85 871.829 1979.5C868.174 1976.28 864.509 1972.95 860.871 1969.52C857.141 1966.03 854.171 1967.25 854.164 1972.38L854.118 2001.4C854.122 2009.09 847.873 2015.31 840.183 2015.28C839.386 2015.3 838.62 2015.23 837.877 2015.11C831.288 2014 826.269 2008.27 826.287 2001.36L826.39 1929.37C824.187 1925.78 822.177 1922.29 820.636 1919.3C807.522 1894.02 780.662 1847.39 754.448 1832.85C727.002 1817.64 700.07 1834.74 691.754 1853.42C687.595 1862.8 689.261 1879.84 690.774 1889.99C691.715 1896.28 693.647 1903.31 697.447 1909.47C702.815 1918.2 703.983 1926.69 695.167 1931.9C674.537 1944.21 636.029 1964.44 594.927 1972.25C513.903 1987.65 507.091 1946.5 507.091 1946.5C507.091 1946.5 499.416 1888.98 475.704 1864.74C468.545 1857.4 451.984 1852.42 441.769 1853.08C438.139 1853.34 434.714 1854.11 431.402 1855.1C431.501 1891.34 443.631 1980.79 549.85 2056.02C687.614 2153.66 983.802 2218.36 1039.41 2229.86C1044.43 2230.91 1044.35 2231.78 1039.23 2231.79C1001.75 2231.8 856.977 2228.96 719.381 2188.09C550.27 2137.8 399.705 2061.35 381.653 1914.4C380.277 1917.31 378.979 1920.04 377.779 1922.37C367.512 1942.39 358.922 1955.43 349.894 2001.2C347.926 2011.26 341.199 2025.83 336.044 2034.7C329.866 2045.29 322.528 2061.24 318.459 2081.79C314.407 2102.24 311.467 2119.8 309.574 2132.04C308.007 2142.17 312.056 2157.02 319.904 2163.62C325.501 2168.36 332.762 2173.46 341.424 2177.31C350.793 2181.5 365.214 2188.59 374.345 2193.28C378.291 2195.32 382.954 2197.26 388.261 2198.73C398.149 2201.46 410.145 2202.1 414.526 2203.09C418.91 2204.08 422.099 2206.98 421.659 2209.59C421.22 2212.2 426.149 2215.2 432.68 2216.3C439.211 2217.4 446.841 2215.85 449.721 2212.89C452.604 2209.91 457.679 2207.96 461.047 2208.52C464.417 2209.09 466.701 2212.3 466.136 2215.65C465.569 2219.02 470.051 2222.58 476.167 2223.61C482.282 2224.64 489.418 2222.87 492.117 2219.61C494.838 2216.41 499.605 2214.2 502.767 2214.73C505.913 2215.26 509.861 2218.92 511.574 2222.89C513.3 2226.87 519.134 2230.84 524.611 2231.77C530.088 2232.69 536.695 2230.97 539.366 2227.98C542.041 2224.96 546.983 2225.79 550.409 2229.83C553.85 2233.88 562.622 2238.16 569.984 2239.4C577.345 2240.64 584.559 2239.58 586.072 2237.03C587.573 2234.45 591.88 2232.89 595.68 2233.53C599.464 2234.17 603.886 2237.19 605.53 2240.3C607.178 2243.39 614.341 2245.63 621.53 2245.34C628.728 2245.03 636.614 2241.96 639.151 2238.5C641.688 2235.03 645.738 2234.99 648.197 2238.43C650.622 2241.89 658.104 2246.49 664.893 2248.69C671.659 2250.93 680.233 2251.13 684.028 2249.16C687.822 2247.2 693.541 2246.6 696.793 2247.77C700.051 2248.99 702.269 2252.5 701.737 2255.67C701.202 2258.84 706.592 2262.37 713.744 2263.58C720.913 2264.78 729.048 2264.41 731.943 2262.72C734.819 2261.04 739.966 2260.66 743.434 2261.9C746.907 2263.13 749.441 2265.85 749.086 2267.95C748.732 2270.06 752.025 2272.35 756.447 2273.1C760.884 2273.84 767.6 2273.57 771.46 2272.5C775.322 2271.4 780.45 2271.22 782.902 2272.07C785.371 2272.91 787.044 2275.48 786.651 2277.81C786.262 2280.13 794.14 2283.37 804.247 2285.08L805.776 2285.33C815.897 2287.04 824.537 2285.67 825.101 2282.31C825.668 2278.94 829.038 2276.7 832.6 2277.3C836.178 2277.9 838.624 2281.14 838.06 2284.49C837.493 2287.86 844.201 2291.8 853.047 2293.29C861.892 2294.78 872.449 2294.63 876.638 2292.96C880.814 2291.26 886.454 2292.21 889.222 2295.07C891.979 2297.92 902.262 2301.57 912.162 2303.24C922.061 2304.9 932.199 2304.15 934.801 2301.57C937.404 2298.98 942.567 2296.51 946.308 2296.04C950.058 2295.62 954.079 2297.85 955.261 2301.07C956.456 2304.31 965.717 2306.69 975.983 2306.45L979.05 2306.36C989.293 2306.08 999.187 2302.79 1001.13 2298.97C1003.06 2295.2 1006.57 2292.09 1008.96 2292.07C1011.34 2292.04 1014.9 2294.93 1016.9 2298.5C1018.89 2302.09 1026.24 2304.38 1033.28 2303.59C1040.34 2302.84 1047.73 2297.58 1049.77 2291.87C1051.82 2286.16 1057.26 2280.92 1061.93 2280.21C1066.61 2279.47 1069.81 2282.3 1069.1 2286.51C1068.39 2290.73 1075.97 2292.52 1086.03 2290.57C1096.17 2288.55 1104.9 2283.53 1105.61 2279.32C1106.32 2275.1 1109.62 2271.08 1112.99 2270.37C1116.37 2269.63 1120.38 2270.83 1121.96 2273.04C1123.52 2275.25 1129.39 2274.85 1135.06 2272.11C1140.72 2269.4 1146.45 2264.55 1147.86 2261.34C1149.27 2258.11 1158.23 2252.49 1166.79 2246.85C1184.48 2235.19 1209.82 2210.68 1206.92 2166.6C1202.49 2099.58 1187.91 2116.33 1133.58 2096.58Z"/>
</mask>
<path d="M1133.58 2096.58C1108.01 2087.3 1063.33 2079.74 1011.74 2060.86L1011.68 2105.95C1011.68 2113.64 1005.42 2119.87 997.743 2119.84C996.949 2119.85 996.186 2119.77 995.427 2119.64C988.838 2118.53 983.816 2112.81 983.832 2105.92L983.889 2059.06C983.896 2053.93 980.095 2048.13 975.447 2046.01C972.827 2044.79 970.198 2043.55 967.542 2042.28C962.923 2040.07 959.194 2042.36 959.19 2047.47L959.15 2071.1C959.152 2078.8 952.889 2085.01 945.209 2085.01C944.418 2085 943.649 2084.95 942.89 2084.82C936.316 2083.71 931.295 2078 931.298 2071.09L931.349 2032.15C931.36 2027 927.807 2020.73 923.46 2017.98C920.408 2016.08 917.366 2014.1 914.321 2012.06C910.052 2009.23 906.657 2010.99 906.664 2016.12L906.635 2036.24C906.635 2043.95 900.383 2050.18 892.695 2050.15C891.904 2050.14 891.145 2050.11 890.389 2049.98C883.814 2048.87 878.797 2043.13 878.798 2036.23L878.855 1994.8C878.879 1989.68 875.693 1982.85 871.829 1979.5C868.174 1976.28 864.509 1972.95 860.871 1969.52C857.141 1966.03 854.171 1967.25 854.164 1972.38L854.118 2001.4C854.122 2009.09 847.873 2015.31 840.183 2015.28C839.386 2015.3 838.62 2015.23 837.877 2015.11C831.288 2014 826.269 2008.27 826.287 2001.36L826.39 1929.37C824.187 1925.78 822.177 1922.29 820.636 1919.3C807.522 1894.02 780.662 1847.39 754.448 1832.85C727.002 1817.64 700.07 1834.74 691.754 1853.42C687.595 1862.8 689.261 1879.84 690.774 1889.99C691.715 1896.28 693.647 1903.31 697.447 1909.47C702.815 1918.2 703.983 1926.69 695.167 1931.9C674.537 1944.21 636.029 1964.44 594.927 1972.25C513.903 1987.65 507.091 1946.5 507.091 1946.5C507.091 1946.5 499.416 1888.98 475.704 1864.74C468.545 1857.4 451.984 1852.42 441.769 1853.08C438.139 1853.34 434.714 1854.11 431.402 1855.1C431.501 1891.34 443.631 1980.79 549.85 2056.02C687.614 2153.66 983.802 2218.36 1039.41 2229.86C1044.43 2230.91 1044.35 2231.78 1039.23 2231.79C1001.75 2231.8 856.977 2228.96 719.381 2188.09C550.27 2137.8 399.705 2061.35 381.653 1914.4C380.277 1917.31 378.979 1920.04 377.779 1922.37C367.512 1942.39 358.922 1955.43 349.894 2001.2C347.926 2011.26 341.199 2025.83 336.044 2034.7C329.866 2045.29 322.528 2061.24 318.459 2081.79C314.407 2102.24 311.467 2119.8 309.574 2132.04C308.007 2142.17 312.056 2157.02 319.904 2163.62C325.501 2168.36 332.762 2173.46 341.424 2177.31C350.793 2181.5 365.214 2188.59 374.345 2193.28C378.291 2195.32 382.954 2197.26 388.261 2198.73C398.149 2201.46 410.145 2202.1 414.526 2203.09C418.91 2204.08 422.099 2206.98 421.659 2209.59C421.22 2212.2 426.149 2215.2 432.68 2216.3C439.211 2217.4 446.841 2215.85 449.721 2212.89C452.604 2209.91 457.679 2207.96 461.047 2208.52C464.417 2209.09 466.701 2212.3 466.136 2215.65C465.569 2219.02 470.051 2222.58 476.167 2223.61C482.282 2224.64 489.418 2222.87 492.117 2219.61C494.838 2216.41 499.605 2214.2 502.767 2214.73C505.913 2215.26 509.861 2218.92 511.574 2222.89C513.3 2226.87 519.134 2230.84 524.611 2231.77C530.088 2232.69 536.695 2230.97 539.366 2227.98C542.041 2224.96 546.983 2225.79 550.409 2229.83C553.85 2233.88 562.622 2238.16 569.984 2239.4C577.345 2240.64 584.559 2239.58 586.072 2237.03C587.573 2234.45 591.88 2232.89 595.68 2233.53C599.464 2234.17 603.886 2237.19 605.53 2240.3C607.178 2243.39 614.341 2245.63 621.53 2245.34C628.728 2245.03 636.614 2241.96 639.151 2238.5C641.688 2235.03 645.738 2234.99 648.197 2238.43C650.622 2241.89 658.104 2246.49 664.893 2248.69C671.659 2250.93 680.233 2251.13 684.028 2249.16C687.822 2247.2 693.541 2246.6 696.793 2247.77C700.051 2248.99 702.269 2252.5 701.737 2255.67C701.202 2258.84 706.592 2262.37 713.744 2263.58C720.913 2264.78 729.048 2264.41 731.943 2262.72C734.819 2261.04 739.966 2260.66 743.434 2261.9C746.907 2263.13 749.441 2265.85 749.086 2267.95C748.732 2270.06 752.025 2272.35 756.447 2273.1C760.884 2273.84 767.6 2273.57 771.46 2272.5C775.322 2271.4 780.45 2271.22 782.902 2272.07C785.371 2272.91 787.044 2275.48 786.651 2277.81C786.262 2280.13 794.14 2283.37 804.247 2285.08L805.776 2285.33C815.897 2287.04 824.537 2285.67 825.101 2282.31C825.668 2278.94 829.038 2276.7 832.6 2277.3C836.178 2277.9 838.624 2281.14 838.06 2284.49C837.493 2287.86 844.201 2291.8 853.047 2293.29C861.892 2294.78 872.449 2294.63 876.638 2292.96C880.814 2291.26 886.454 2292.21 889.222 2295.07C891.979 2297.92 902.262 2301.57 912.162 2303.24C922.061 2304.9 932.199 2304.15 934.801 2301.57C937.404 2298.98 942.567 2296.51 946.308 2296.04C950.058 2295.62 954.079 2297.85 955.261 2301.07C956.456 2304.31 965.717 2306.69 975.983 2306.45L979.05 2306.36C989.293 2306.08 999.187 2302.79 1001.13 2298.97C1003.06 2295.2 1006.57 2292.09 1008.96 2292.07C1011.34 2292.04 1014.9 2294.93 1016.9 2298.5C1018.89 2302.09 1026.24 2304.38 1033.28 2303.59C1040.34 2302.84 1047.73 2297.58 1049.77 2291.87C1051.82 2286.16 1057.26 2280.92 1061.93 2280.21C1066.61 2279.47 1069.81 2282.3 1069.1 2286.51C1068.39 2290.73 1075.97 2292.52 1086.03 2290.57C1096.17 2288.55 1104.9 2283.53 1105.61 2279.32C1106.32 2275.1 1109.62 2271.08 1112.99 2270.37C1116.37 2269.63 1120.38 2270.83 1121.96 2273.04C1123.52 2275.25 1129.39 2274.85 1135.06 2272.11C1140.72 2269.4 1146.45 2264.55 1147.86 2261.34C1149.27 2258.11 1158.23 2252.49 1166.79 2246.85C1184.48 2235.19 1209.82 2210.68 1206.92 2166.6C1202.49 2099.58 1187.91 2116.33 1133.58 2096.58Z" fill="#1B371D" stroke="white" stroke-width="20" mask="url(#path-2-inside-1_31_172)"/>
<line x1="409.384" y1="201.646" x2="666.384" y2="855.646" stroke="#FFD400" stroke-width="5"/>
<line x1="666.547" y1="856.78" x2="586.49" y2="1766.22" stroke="#FFD400" stroke-width="5"/>
<path d="M664.557 855.061L512 465C168 627 283.5 1277.5 622.5 1327.5L664.557 855.061Z" fill="#957D0E" fill-opacity="0.38" stroke="#FFD400" stroke-width="10"/>
<path d="M415.67 172.791C431.443 177.634 440.357 194.742 435.513 211.037C430.669 227.333 413.927 236.561 398.154 231.717C382.381 226.873 373.466 209.766 378.31 193.47C383.154 177.175 399.897 167.947 415.67 172.791Z" fill="#FFD400" stroke="white" stroke-width="2"/>
<path d="M420.38 156.946C444.636 164.396 458.344 190.703 450.895 215.761C443.447 240.819 417.701 255.01 393.444 247.561C369.188 240.112 355.479 213.804 362.928 188.746C370.376 163.688 396.123 149.497 420.38 156.946Z" stroke="#FFD400" stroke-width="3"/>
<path d="M592.612 1736.23C608.385 1741.07 617.3 1758.18 612.456 1774.48C607.612 1790.77 590.869 1800 575.096 1795.16C559.323 1790.31 550.409 1773.21 555.252 1756.91C560.096 1740.61 576.839 1731.39 592.612 1736.23Z" fill="#FFD400" stroke="white" stroke-width="2"/>
<path d="M597.322 1720.39C621.579 1727.83 635.287 1754.14 627.838 1779.2C620.39 1804.26 594.644 1818.45 570.387 1811C546.131 1803.55 532.422 1777.24 539.871 1752.19C547.319 1727.13 573.066 1712.94 597.322 1720.39Z" stroke="#FFD400" stroke-width="3"/>
<path d="M673.669 826.791C689.442 831.634 698.357 848.742 693.513 865.037C688.669 881.333 671.926 890.561 656.153 885.717C640.381 880.873 631.466 863.766 636.31 847.47C641.153 831.175 657.896 821.947 673.669 826.791Z" fill="#FFD400" stroke="white" stroke-width="2"/>
<path d="M678.38 810.946C702.636 818.396 716.344 844.703 708.895 869.761C701.447 894.819 675.701 909.01 651.444 901.561C627.188 894.112 613.479 867.804 620.928 842.746C628.376 817.688 654.123 803.497 678.38 810.946Z" stroke="#FFD400" stroke-width="3"/>
</svg>
