<svg width="1188" height="2320" viewBox="0 0 1188 2320" fill="none" xmlns="http://www.w3.org/2000/svg">
<path d="M353.686 869.117C256.819 729.335 234 187.5 234 187.5C142.169 -12.9656 853.87 101.116 888.452 147C923.034 192.884 878.672 437.555 842.624 779.284C843.143 786.989 846.316 806.977 854.855 825.291C865.529 848.183 854.855 950.863 842.624 982.867C832.839 1008.47 785.191 1141.16 793.852 1183.56V1183.56C793.852 1366.22 793.852 1401.07 779.329 1473.38C744.96 1644.52 725.277 1909.82 725.277 1957.77H376.259C407.84 1616.49 384.071 1644.83 376.259 1583.15C364.634 1491.39 360.173 1261.85 376.259 1133.61C388.748 1034.04 392.5 982.867 353.686 869.117Z" fill="#6E0808" stroke="#FF0000" stroke-width="70"/>
<path d="M626 997.086L600 493C-98.4722 602.622 102.497 1352.8 596.5 1413.5L626 997.086Z" fill="#FF0000" fill-opacity="0.38" stroke="#FF0000" stroke-width="10"/>
<path d="M595.115 218.941C611.357 223.929 620.536 241.545 615.549 258.323C610.562 275.102 593.321 284.604 577.079 279.616C560.837 274.628 551.659 257.013 556.646 240.234C561.633 223.456 578.873 213.953 595.115 218.941Z" fill="#FF0000" stroke="white" stroke-width="2"/>
<path d="M599.964 202.628C624.942 210.298 639.056 237.387 631.386 263.188C623.717 288.988 597.208 303.6 572.23 295.93C547.253 288.259 533.139 261.171 540.808 235.371C548.477 209.571 574.987 194.957 599.964 202.628Z" stroke="#FF0000" stroke-width="3"/>
<path d="M573.593 1770.1C589.835 1775.09 599.014 1792.7 594.027 1809.48C589.039 1826.26 571.799 1835.76 555.557 1830.78C539.315 1825.79 530.136 1808.17 535.124 1791.39C540.111 1774.61 557.35 1765.11 573.593 1770.1Z" fill="#FF0000" stroke="white" stroke-width="2"/>
<path d="M578.442 1753.79C603.42 1761.46 617.533 1788.55 609.864 1814.35C602.195 1840.15 575.686 1854.76 550.708 1847.09C525.731 1839.42 511.617 1812.33 519.285 1786.53C526.955 1760.73 553.464 1746.12 578.442 1753.79Z" stroke="#FF0000" stroke-width="3"/>
<path d="M634.593 922.1C650.835 927.088 660.014 944.704 655.027 961.482C650.039 978.261 632.799 987.763 616.557 982.775C600.315 977.787 591.136 960.172 596.124 943.393C601.111 926.615 618.35 917.112 634.593 922.1Z" fill="#FF0000" stroke="white" stroke-width="2"/>
<path d="M639.442 905.786C664.42 913.457 678.533 940.546 670.864 966.346C663.195 992.146 636.686 1006.76 611.708 999.089C586.731 991.418 572.617 964.33 580.285 938.53C587.955 912.729 614.464 898.116 639.442 905.786Z" stroke="#FF0000" stroke-width="3"/>
<line x1="588.496" y1="248.858" x2="628.496" y2="951.858" stroke="#FF0000" stroke-width="5"/>
<line x1="627.494" y1="952.176" x2="567.494" y2="1800.18" stroke="#FF0000" stroke-width="5"/>
<mask id="path-11-inside-1_28_159" fill="white">
<path d="M1110.55 2102.06C1084.57 2093.98 1039.58 2088.51 987.174 2072.05L989.212 2117.1C989.574 2124.78 983.604 2131.29 975.937 2131.63C975.144 2131.67 974.378 2131.62 973.613 2131.53C966.98 2130.73 961.697 2125.25 961.392 2118.36L959.264 2071.55C959.033 2066.43 954.965 2060.82 950.224 2058.91C947.55 2057.81 944.865 2056.7 942.153 2055.56C937.436 2053.56 933.818 2056.02 934.052 2061.13L935.114 2084.74C935.474 2092.42 929.508 2098.92 921.837 2099.28C921.046 2099.31 920.276 2099.29 919.512 2099.2C912.892 2098.4 907.611 2092.92 907.292 2086.02L905.527 2047.12C905.299 2041.98 901.457 2035.88 896.987 2033.34C893.849 2031.58 890.719 2029.75 887.582 2027.85C883.185 2025.21 879.876 2027.13 880.122 2032.26L881.032 2052.36C881.39 2060.06 875.436 2066.57 867.754 2066.91C866.964 2066.93 866.204 2066.93 865.443 2066.84C858.824 2066.04 853.545 2060.54 853.224 2053.65L851.35 2012.26C851.135 2007.14 847.634 2000.47 843.618 1997.31C839.817 1994.26 836 1991.1 832.207 1987.85C828.317 1984.53 825.409 1985.89 825.64 1991.01L826.947 2020.01C827.309 2027.69 821.357 2034.19 813.674 2034.52C812.879 2034.57 812.111 2034.54 811.362 2034.45C804.729 2033.65 799.448 2028.16 799.144 2021.26L795.891 1949.34C793.523 1945.86 791.353 1942.47 789.674 1939.56C775.396 1914.91 746.392 1869.59 719.528 1856.28C691.403 1842.37 665.298 1860.71 657.861 1879.75C654.144 1889.32 656.602 1906.26 658.587 1916.33C659.82 1922.57 662.078 1929.5 666.161 1935.48C671.93 1943.95 673.492 1952.37 664.93 1957.99C644.895 1971.25 607.373 1993.25 566.679 2002.97C486.461 2022.13 477.739 1981.34 477.739 1981.34C477.739 1981.34 467.391 1924.25 442.574 1901.13C435.081 1894.14 418.305 1889.93 408.133 1891.07C404.519 1891.5 401.133 1892.42 397.871 1893.57C399.658 1929.76 415.945 2018.55 525.556 2088.75C667.722 2179.86 966.604 2230.68 1022.68 2239.58C1027.75 2240.39 1027.71 2241.27 1022.6 2241.52C985.157 2243.27 840.41 2247.18 701.059 2212.77C529.787 2170.42 375.822 2101.07 350.941 1955.12C349.702 1958.1 348.532 1960.88 347.442 1963.27C338.119 1983.75 330.147 1997.17 323.261 2043.3C321.764 2053.45 315.725 2068.32 310.988 2077.42C305.311 2088.28 298.724 2104.56 295.618 2125.27C292.524 2145.9 290.405 2163.58 289.085 2175.89C287.992 2186.08 292.728 2200.72 300.875 2206.95C306.688 2211.43 314.179 2216.18 323.01 2219.63C332.565 2223.37 347.3 2229.78 356.64 2234.04C360.676 2235.89 365.426 2237.62 370.795 2238.84C380.799 2241.11 392.812 2241.18 397.235 2241.97C401.659 2242.75 404.98 2245.5 404.663 2248.13C404.346 2250.76 409.409 2253.52 415.984 2254.31C422.56 2255.11 430.109 2253.21 432.848 2250.12C435.589 2247 440.568 2244.82 443.958 2245.23C447.351 2245.64 449.782 2248.73 449.374 2252.11C448.965 2255.5 453.608 2258.85 459.765 2259.6C465.922 2260.34 472.967 2258.23 475.512 2254.86C478.08 2251.53 482.739 2249.1 485.922 2249.49C489.09 2249.87 493.204 2253.34 495.1 2257.22C497.01 2261.12 503.022 2264.82 508.537 2265.48C514.051 2266.15 520.571 2264.13 523.099 2261.01C525.63 2257.87 530.605 2258.47 534.216 2262.35C537.842 2266.23 546.804 2270.1 554.216 2270.99C561.627 2271.89 568.784 2270.49 570.176 2267.87C571.555 2265.23 575.785 2263.47 579.61 2263.93C583.42 2264.39 587.978 2267.2 589.765 2270.23C591.555 2273.24 598.815 2275.14 605.984 2274.53C613.158 2273.88 620.894 2270.44 623.266 2266.87C625.638 2263.28 629.683 2263.06 632.299 2266.38C634.882 2269.72 642.571 2273.97 649.455 2275.85C656.317 2277.77 664.892 2277.57 668.591 2275.42C672.29 2273.29 677.975 2272.42 681.278 2273.44C684.589 2274.51 686.968 2277.91 686.584 2281.1C686.198 2284.3 691.746 2287.57 698.947 2288.44C706.164 2289.31 714.273 2288.56 717.086 2286.73C719.881 2284.92 725.004 2284.31 728.527 2285.39C732.053 2286.45 734.71 2289.04 734.455 2291.16C734.199 2293.28 737.595 2295.42 742.047 2295.96C746.514 2296.5 753.21 2295.91 757.016 2294.66C760.823 2293.39 765.937 2292.96 768.425 2293.7C770.931 2294.43 772.722 2296.92 772.439 2299.26C772.158 2301.59 780.178 2304.47 790.353 2305.7L791.893 2305.88C802.082 2307.11 810.649 2305.34 811.057 2301.96C811.466 2298.57 814.727 2296.18 818.314 2296.61C821.915 2297.04 824.51 2300.16 824.103 2303.54C823.693 2306.93 830.578 2310.55 839.483 2311.63C848.388 2312.7 858.927 2312.06 863.033 2310.19C867.126 2308.31 872.804 2308.99 875.703 2311.72C878.589 2314.43 889.031 2317.6 898.997 2318.81C908.964 2320.01 919.056 2318.79 921.535 2316.09C924.014 2313.38 929.056 2310.67 932.772 2310.03C936.498 2309.43 940.618 2311.47 941.95 2314.64C943.294 2317.82 952.655 2319.76 962.899 2319.05L965.959 2318.81C976.177 2318.05 985.907 2314.3 987.666 2310.4C989.422 2306.54 992.788 2303.28 995.168 2303.14C997.55 2303 1001.24 2305.72 1003.4 2309.2C1005.55 2312.69 1013.01 2314.63 1020.01 2313.52C1027.02 2312.44 1034.15 2306.84 1035.93 2301.04C1037.71 2295.23 1042.9 2289.75 1047.53 2288.83C1052.17 2287.87 1055.49 2290.55 1054.98 2294.79C1054.47 2299.03 1062.13 2300.47 1072.08 2298.05C1082.12 2295.56 1090.61 2290.14 1091.12 2285.9C1091.63 2281.66 1094.74 2277.48 1098.08 2276.61C1101.41 2275.72 1105.48 2276.73 1107.16 2278.86C1108.83 2281 1114.67 2280.33 1120.2 2277.32C1125.73 2274.35 1131.23 2269.24 1132.48 2265.97C1133.75 2262.68 1142.43 2256.64 1150.72 2250.61C1167.85 2238.14 1192.01 2212.48 1187.06 2168.58C1179.52 2101.84 1165.73 2119.25 1110.55 2102.06Z"/>
</mask>
<path d="M1110.55 2102.06C1084.57 2093.98 1039.58 2088.51 987.174 2072.05L989.212 2117.1C989.574 2124.78 983.604 2131.29 975.937 2131.63C975.144 2131.67 974.378 2131.62 973.613 2131.53C966.98 2130.73 961.697 2125.25 961.392 2118.36L959.264 2071.55C959.033 2066.43 954.965 2060.82 950.224 2058.91C947.55 2057.81 944.865 2056.7 942.153 2055.56C937.436 2053.56 933.818 2056.02 934.052 2061.13L935.114 2084.74C935.474 2092.42 929.508 2098.92 921.837 2099.28C921.046 2099.31 920.276 2099.29 919.512 2099.2C912.892 2098.4 907.611 2092.92 907.292 2086.02L905.527 2047.12C905.299 2041.98 901.457 2035.88 896.987 2033.34C893.849 2031.58 890.719 2029.75 887.582 2027.85C883.185 2025.21 879.876 2027.13 880.122 2032.26L881.032 2052.36C881.39 2060.06 875.436 2066.57 867.754 2066.91C866.964 2066.93 866.204 2066.93 865.443 2066.84C858.824 2066.04 853.545 2060.54 853.224 2053.65L851.35 2012.26C851.135 2007.14 847.634 2000.47 843.618 1997.31C839.817 1994.26 836 1991.1 832.207 1987.85C828.317 1984.53 825.409 1985.89 825.64 1991.01L826.947 2020.01C827.309 2027.69 821.357 2034.19 813.674 2034.52C812.879 2034.57 812.111 2034.54 811.362 2034.45C804.729 2033.65 799.448 2028.16 799.144 2021.26L795.891 1949.34C793.523 1945.86 791.353 1942.47 789.674 1939.56C775.396 1914.91 746.392 1869.59 719.528 1856.28C691.403 1842.37 665.298 1860.71 657.861 1879.75C654.144 1889.32 656.602 1906.26 658.587 1916.33C659.82 1922.57 662.078 1929.5 666.161 1935.48C671.93 1943.95 673.492 1952.37 664.93 1957.99C644.895 1971.25 607.373 1993.25 566.679 2002.97C486.461 2022.13 477.739 1981.34 477.739 1981.34C477.739 1981.34 467.391 1924.25 442.574 1901.13C435.081 1894.14 418.305 1889.93 408.133 1891.07C404.519 1891.5 401.133 1892.42 397.871 1893.57C399.658 1929.76 415.945 2018.55 525.556 2088.75C667.722 2179.86 966.604 2230.68 1022.68 2239.58C1027.75 2240.39 1027.71 2241.27 1022.6 2241.52C985.157 2243.27 840.41 2247.18 701.059 2212.77C529.787 2170.42 375.822 2101.07 350.941 1955.12C349.702 1958.1 348.532 1960.88 347.442 1963.27C338.119 1983.75 330.147 1997.17 323.261 2043.3C321.764 2053.45 315.725 2068.32 310.988 2077.42C305.311 2088.28 298.724 2104.56 295.618 2125.27C292.524 2145.9 290.405 2163.58 289.085 2175.89C287.992 2186.08 292.728 2200.72 300.875 2206.95C306.688 2211.43 314.179 2216.18 323.01 2219.63C332.565 2223.37 347.3 2229.78 356.64 2234.04C360.676 2235.89 365.426 2237.62 370.795 2238.84C380.799 2241.11 392.812 2241.18 397.235 2241.97C401.659 2242.75 404.98 2245.5 404.663 2248.13C404.346 2250.76 409.409 2253.52 415.984 2254.31C422.56 2255.11 430.109 2253.21 432.848 2250.12C435.589 2247 440.568 2244.82 443.958 2245.23C447.351 2245.64 449.782 2248.73 449.374 2252.11C448.965 2255.5 453.608 2258.85 459.765 2259.6C465.922 2260.34 472.967 2258.23 475.512 2254.86C478.08 2251.53 482.739 2249.1 485.922 2249.49C489.09 2249.87 493.204 2253.34 495.1 2257.22C497.01 2261.12 503.022 2264.82 508.537 2265.48C514.051 2266.15 520.571 2264.13 523.099 2261.01C525.63 2257.87 530.605 2258.47 534.216 2262.35C537.842 2266.23 546.804 2270.1 554.216 2270.99C561.627 2271.89 568.784 2270.49 570.176 2267.87C571.555 2265.23 575.785 2263.47 579.61 2263.93C583.42 2264.39 587.978 2267.2 589.765 2270.23C591.555 2273.24 598.815 2275.14 605.984 2274.53C613.158 2273.88 620.894 2270.44 623.266 2266.87C625.638 2263.28 629.683 2263.06 632.299 2266.38C634.882 2269.72 642.571 2273.97 649.455 2275.85C656.317 2277.77 664.892 2277.57 668.591 2275.42C672.29 2273.29 677.975 2272.42 681.278 2273.44C684.589 2274.51 686.968 2277.91 686.584 2281.1C686.198 2284.3 691.746 2287.57 698.947 2288.44C706.164 2289.31 714.273 2288.56 717.086 2286.73C719.881 2284.92 725.004 2284.31 728.527 2285.39C732.053 2286.45 734.71 2289.04 734.455 2291.16C734.199 2293.28 737.595 2295.42 742.047 2295.96C746.514 2296.5 753.21 2295.91 757.016 2294.66C760.823 2293.39 765.937 2292.96 768.425 2293.7C770.931 2294.43 772.722 2296.92 772.439 2299.26C772.158 2301.59 780.178 2304.47 790.353 2305.7L791.893 2305.88C802.082 2307.11 810.649 2305.34 811.057 2301.96C811.466 2298.57 814.727 2296.18 818.314 2296.61C821.915 2297.04 824.51 2300.16 824.103 2303.54C823.693 2306.93 830.578 2310.55 839.483 2311.63C848.388 2312.7 858.927 2312.06 863.033 2310.19C867.126 2308.31 872.804 2308.99 875.703 2311.72C878.589 2314.43 889.031 2317.6 898.997 2318.81C908.964 2320.01 919.056 2318.79 921.535 2316.09C924.014 2313.38 929.056 2310.67 932.772 2310.03C936.498 2309.43 940.618 2311.47 941.95 2314.64C943.294 2317.82 952.655 2319.76 962.899 2319.05L965.959 2318.81C976.177 2318.05 985.907 2314.3 987.666 2310.4C989.422 2306.54 992.788 2303.28 995.168 2303.14C997.55 2303 1001.24 2305.72 1003.4 2309.2C1005.55 2312.69 1013.01 2314.63 1020.01 2313.52C1027.02 2312.44 1034.15 2306.84 1035.93 2301.04C1037.71 2295.23 1042.9 2289.75 1047.53 2288.83C1052.17 2287.87 1055.49 2290.55 1054.98 2294.79C1054.47 2299.03 1062.13 2300.47 1072.08 2298.05C1082.12 2295.56 1090.61 2290.14 1091.12 2285.9C1091.63 2281.66 1094.74 2277.48 1098.08 2276.61C1101.41 2275.72 1105.48 2276.73 1107.16 2278.86C1108.83 2281 1114.67 2280.33 1120.2 2277.32C1125.73 2274.35 1131.23 2269.24 1132.48 2265.97C1133.75 2262.68 1142.43 2256.64 1150.72 2250.61C1167.85 2238.14 1192.01 2212.48 1187.06 2168.58C1179.52 2101.84 1165.73 2119.25 1110.55 2102.06Z" fill="#1B371D" stroke="white" stroke-width="20" mask="url(#path-11-inside-1_28_159)"/>
</svg>
